<?xml version="1.0" encoding="UTF-8"?>
<svg id="Layer_2" data-name="Layer 2" xmlns="http://www.w3.org/2000/svg" viewBox="0 0 122.61 100.54">
  <defs>
    <style>
      .cls-1 {
        fill: #4d4f5c;
      }

      .cls-2 {
        fill: #4d4f5c;
      }

      .cls-3 {
        fill: none;
        stroke: #4d4f5c;
        stroke-dasharray: 7 7;
        stroke-linecap: round;
        stroke-width: 3px;
      }
    </style>
  </defs>
  <g id="Layer_1-2" data-name="Layer 1">
    <g>
      <path class="cls-2" d="M74.61,28.17l-24.16,17.23c-.9.64-1.1,1.89-.47,2.79l5.85,8.21c.64.9,1.89,1.1,2.79.47l24.16-17.23c.9-.64,1.1-1.89.47-2.79l-5.85-8.21c-.64-.9-1.89-1.1-2.79-.47Z"/>
      <path class="cls-1" d="M113.6.37l-24.16,17.23c-.9.64-1.1,1.89-.47,2.79l5.85,8.21c.64.9,1.89,1.1,2.79.47l24.16-17.23c.9-.64,1.1-1.89.47-2.79l-5.85-8.21c-.64-.9-1.89-1.1-2.79-.47Z"/>
      <path class="cls-2" d="M83.34,21.53l-3.25,2.32c-.9.64-1.1,1.89-.47,2.79l6.97,9.77c.64.9,1.89,1.1,2.79.47l3.25-2.32c.9-.64,1.1-1.89.47-2.79l-6.97-9.77c-.64-.9-1.89-1.1-2.79-.47Z"/>
      <path class="cls-3" d="M93.6,48.32c.33,5.47-.61,10.98-2.79,16.09-3.4,7.97-9.61,14.42-17.45,18.13"/>
      <path class="cls-3" d="M30.88,24.61c5.51-5.88,12.82-9.77,20.79-11.04,7.97-1.27,16.12.15,23.19,4.03M21.61,44.22c-1.11,8.6.96,17.31,5.82,24.48,4.86,7.18,12.18,12.32,20.58,14.48"/>
      <path class="cls-2" d="M4.19,20.81l-3.31,2.25c-.91.62-1.16,1.86-.54,2.77l6.73,9.93c.62.91,1.86,1.16,2.77.54l3.31-2.25c.91-.62,1.16-1.86.54-2.77l-6.73-9.93c-.62-.91-1.86-1.16-2.77-.54Z"/>
      <path class="cls-2" d="M17.19,21.72l-3.31,2.25c-.91.62-1.16,1.86-.54,2.77l6.73,9.93c.62.91,1.86,1.16,2.77.54l3.31-2.25c.91-.62,1.16-1.86.54-2.77l-6.73-9.93c-.62-.91-1.86-1.16-2.77-.54Z"/>
      <path class="cls-2" d="M66.48,81.4l-11.94,1.15c-1.1.11-1.9,1.09-1.8,2.18l.38,3.98c.11,1.1,1.09,1.9,2.18,1.8l11.94-1.15c1.09-.11,1.9-1.09,1.8-2.18l-.38-3.98c-.11-1.09-1.09-1.9-2.18-1.8Z"/>
      <path class="cls-2" d="M67.45,91.42l-11.94,1.15c-1.09.11-1.9,1.09-1.8,2.18l.38,3.98c.11,1.1,1.09,1.9,2.18,1.8l11.94-1.15c1.1-.11,1.91-1.08,1.8-2.18l-.38-3.98c-.11-1.1-1.09-1.9-2.18-1.8Z"/>
      <g id="Generative_Object_-180_0_" data-name="Generative Object (-180, 0)">
        <path class="cls-1" d="M94.18,40.86l-.66.47-.81.57-1.98,1.39c-.3.25-.7.31-1.05.16-.35-.16-.63-.5-.61-.9l.14-2.3c0-.13,0-.24.04-.37.05-.16.14-.37.29-.48l5.33-3.8c.26-.19.58-.2.88-.12l2.24.57c.41.11.75.37.83.8.08.38-.07.79-.41,1.03l-.88.62-1.5,1.06-1.86,1.3Z"/>
      </g>
    </g>
  </g>
</svg>