<svg width="1729" height="478" viewBox="0 0 1729 478" fill="none" xmlns="http://www.w3.org/2000/svg">
<path d="M545.45 245.3C545.334 233.847 547.404 222.477 551.55 211.8C555.359 201.972 561.106 193.01 568.45 185.45C575.759 177.874 584.562 171.898 594.3 167.9C604.959 163.61 616.361 161.469 627.85 161.6C639.259 161.458 650.582 163.6 661.15 167.9C670.985 171.854 679.878 177.834 687.25 185.45C694.535 193.009 700.231 201.952 704 211.75C708.13 222.43 710.183 233.8 710.05 245.25C710.178 256.797 708.125 268.264 704 279.05C700.17 288.914 694.445 297.934 687.15 305.6C679.729 313.108 670.846 319.013 661.05 322.95C650.444 327.095 639.137 329.149 627.75 329C616.284 329.139 604.896 327.086 594.2 322.95C584.501 318.971 575.707 313.069 568.35 305.6C561.055 297.934 555.331 288.914 551.5 279.05C547.382 268.28 545.33 256.83 545.45 245.3ZM560.45 245.3C560.365 254.722 561.956 264.085 565.15 272.95C568.116 281.21 572.706 288.793 578.65 295.25C584.578 301.669 591.782 306.778 599.8 310.25C608.717 313.953 618.297 315.791 627.95 315.65C637.508 315.709 646.974 313.786 655.75 310C663.848 306.567 671.125 301.454 677.1 295C683.045 288.543 687.635 280.96 690.6 272.7C696.901 254.788 696.901 235.262 690.6 217.35C687.629 209.107 683.039 201.542 677.1 195.1C671.125 188.645 663.848 183.533 655.75 180.1C646.888 176.482 637.37 174.745 627.8 175C618.164 174.866 608.601 176.703 599.7 180.4C591.682 183.872 584.478 188.981 578.55 195.4C572.612 201.842 568.022 209.407 565.05 217.65C561.839 226.512 560.231 235.874 560.3 245.3H560.45Z" fill="#4D4F5C"/>
<path d="M736.695 220.999H750.195V239.249H750.645C752.69 235.709 755.368 232.573 758.545 229.999C761.562 227.38 764.927 225.193 768.545 223.499C772.257 221.703 776.192 220.408 780.245 219.649C784.151 218.768 788.141 218.315 792.145 218.299C799.624 218.205 807.048 219.582 813.995 222.349C820.481 224.975 826.373 228.877 831.32 233.825C836.268 238.772 840.17 244.664 842.795 251.149C845.557 258.082 846.933 265.488 846.845 272.949C846.921 280.491 845.546 287.977 842.795 294.999C840.182 301.493 836.288 307.393 831.345 312.349C826.393 317.247 820.488 321.076 813.995 323.599C807.048 326.367 799.624 327.743 792.145 327.649C788.141 327.634 784.151 327.181 780.245 326.299C776.219 325.557 772.293 324.349 768.545 322.699C764.986 320.883 761.633 318.686 758.545 316.149C755.417 313.462 752.763 310.268 750.695 306.699H750.245V376.249H736.745L736.695 220.999ZM748.995 272.949C748.977 278.674 750.134 284.341 752.395 289.599C754.609 294.637 757.747 299.216 761.645 303.099C765.628 306.906 770.27 309.956 775.345 312.099C780.753 314.39 786.573 315.547 792.445 315.499C798.321 315.578 804.147 314.419 809.545 312.099C814.445 309.987 818.88 306.929 822.595 303.099C826.193 299.203 828.95 294.607 830.695 289.599C832.651 284.268 833.633 278.628 833.595 272.949C833.644 267.351 832.661 261.792 830.695 256.549C829.021 251.508 826.256 246.899 822.595 243.049C818.928 239.113 814.485 235.981 809.545 233.849C804.147 231.53 798.321 230.371 792.445 230.449C786.732 230.401 781.067 231.49 775.779 233.653C770.491 235.816 765.686 239.011 761.645 243.049C757.681 246.878 754.534 251.47 752.395 256.549C750.117 261.715 748.959 267.304 748.995 272.949Z" fill="#4D4F5C"/>
<path d="M968.998 305.35C964.288 312.834 957.492 318.778 949.448 322.45C941.419 325.917 932.741 327.622 923.998 327.45C916.6 327.554 909.255 326.177 902.398 323.4C896.137 320.828 890.47 316.999 885.748 312.15C881.074 307.184 877.406 301.36 874.948 295C872.483 287.844 871.265 280.318 871.348 272.75C871.264 265.376 872.552 258.052 875.148 251.15C877.554 244.778 881.228 238.961 885.948 234.05C890.574 229.129 896.177 225.229 902.398 222.6C908.974 219.679 916.103 218.213 923.298 218.3C930.498 218.155 937.639 219.625 944.198 222.6C950.053 225.081 955.281 228.839 959.498 233.6C963.677 238.064 966.894 243.34 968.948 249.1C971.024 254.805 972.09 260.828 972.098 266.9V276.35H884.848C884.956 280.079 885.476 283.785 886.398 287.4C887.75 291.934 889.882 296.197 892.698 300C895.885 304.375 899.935 308.051 904.598 310.8C910.612 314.023 917.38 315.577 924.198 315.3C931.169 315.262 938.029 313.547 944.198 310.3C950.379 307.317 955.583 302.634 959.198 296.8L968.998 305.35ZM958.648 264.15C958.67 259.632 957.661 255.169 955.698 251.1C953.921 247.068 951.314 243.456 948.048 240.5C944.78 237.261 940.883 234.725 936.598 233.05C932.172 231.234 927.431 230.317 922.648 230.35C916.119 230.129 909.659 231.74 903.998 235C895.754 239.986 889.538 247.725 886.448 256.85C885.524 259.226 884.919 261.714 884.648 264.25L958.648 264.15Z" fill="#4D4F5C"/>
<path d="M1002.2 250C1002.2 248.033 1002.2 245.7 1002.2 243L1001.75 234.45C1001.75 231.583 1001.75 228.95 1001.75 226.55C1001.75 224.15 1001.75 222.2 1001.75 220.7H1015.25C1015.25 224.6 1015.25 228.35 1015.25 231.95C1015.26 234.298 1015.47 236.641 1015.9 238.95H1016.6C1019.63 232.903 1024.31 227.84 1030.1 224.35C1036.65 220.076 1044.34 217.88 1052.15 218.05C1059.03 217.764 1065.88 219.082 1072.15 221.9C1076.93 224.144 1081.05 227.59 1084.1 231.9C1087.16 236.102 1089.23 240.938 1090.15 246.05C1091.36 251.517 1091.96 257.101 1091.95 262.7V325H1078.45V263.75C1078.46 259.673 1078.07 255.604 1077.3 251.6C1076.64 247.779 1075.27 244.115 1073.25 240.8C1071.41 237.621 1068.69 235.049 1065.4 233.4C1061.39 231.273 1056.89 230.254 1052.35 230.45C1047.49 230.428 1042.67 231.345 1038.15 233.15C1033.77 234.85 1029.85 237.556 1026.7 241.05C1023.31 244.92 1020.71 249.423 1019.05 254.3C1017.13 260.343 1016.22 266.661 1016.35 273V325H1002.85L1002.2 250Z" fill="#4D4F5C"/>
<path d="M1127.69 165.649H1170.89L1213.39 277.249L1256.39 165.649H1299.14V324.949H1272.14V192.649H1271.69L1223.29 324.949H1203.49L1155.14 192.649H1154.69V324.949H1127.69V165.649Z" fill="#4D4F5C"/>
<path d="M1335.31 165.649H1397.41C1403.41 165.647 1409.39 166.403 1415.21 167.899C1420.8 169.147 1426.08 171.53 1430.71 174.899C1435.38 178.07 1439.24 182.302 1441.96 187.249C1444.96 192.927 1446.44 199.282 1446.26 205.699C1446.56 213.809 1443.84 221.741 1438.61 227.949C1433.27 233.954 1426.33 238.323 1418.61 240.549V240.999C1423.4 241.549 1428.05 242.99 1432.31 245.249C1436.53 247.245 1440.29 250.087 1443.36 253.599C1446.42 257.007 1448.78 260.982 1450.31 265.299C1452.13 269.791 1453.05 274.601 1453.01 279.449C1453.42 286.584 1451.87 293.695 1448.52 300.007C1445.17 306.32 1440.15 311.592 1434.01 315.249C1428.05 318.866 1421.5 321.389 1414.66 322.699C1407.41 324.205 1400.02 324.959 1392.61 324.949H1335.31V165.649ZM1363.66 230.649H1389.56C1397.04 231.127 1404.46 229.142 1410.71 224.999C1412.99 223.32 1414.83 221.117 1416.09 218.576C1417.34 216.036 1417.96 213.232 1417.91 210.399C1418.13 207.404 1417.56 204.404 1416.25 201.701C1414.94 198.997 1412.94 196.686 1410.46 194.999C1403.33 191.037 1395.18 189.296 1387.06 189.999H1363.66V230.649ZM1363.66 300.649H1389.76C1393.6 300.645 1397.44 300.428 1401.26 299.999C1405.23 299.609 1409.1 298.544 1412.71 296.849C1416.09 295.251 1419.02 292.847 1421.26 289.849C1423.67 286.104 1424.84 281.697 1424.61 277.249C1424.96 273.84 1424.37 270.4 1422.89 267.304C1421.42 264.209 1419.13 261.579 1416.26 259.699C1408.37 255.845 1399.62 254.121 1390.86 254.699H1363.61L1363.66 300.649Z" fill="#4D4F5C"/>
<path d="M1481.21 165.649H1586.76V191.299H1509.56V230.449H1582.71V256.099H1509.56V299.299H1590.81V324.949H1481.21V165.649Z" fill="#4D4F5C"/>
<path d="M1618.75 165.649H1724.3V191.299H1647.1V230.449H1720.25V256.099H1647.1V299.299H1728.35V324.949H1618.75V165.649Z" fill="#4D4F5C"/>
<path d="M370.262 120.971L241.146 195.527C236.323 198.29 234.715 204.47 237.478 209.243L262.799 253.102C265.562 257.925 271.742 259.533 276.515 256.77L405.631 182.214C410.454 179.45 412.062 173.271 409.299 168.498L383.978 124.638C381.215 119.815 375.035 118.208 370.262 120.971Z" fill="#4D4F5C"/>
<path d="M585.55 1.34913L456.431 75.9051C451.608 78.6683 450 84.8478 452.763 89.6206L478.084 133.48C480.847 138.303 487.027 139.911 491.8 137.148L620.919 62.5915C625.742 59.8283 627.35 53.6488 624.587 48.8762L599.266 5.01666C596.502 0.193613 590.323 -1.41407 585.55 1.34913Z" fill="#4D4F5C"/>
<path d="M418.689 91.0274L401.306 101.075C396.483 103.839 394.875 110.018 397.638 114.791L427.782 166.99C430.545 171.813 436.725 173.421 441.498 170.658L458.881 160.61C463.704 157.847 465.311 151.667 462.548 146.894L432.404 94.6949C429.641 89.8718 423.462 88.2642 418.689 91.0274Z" fill="#4D4F5C"/>
<path d="M440.769 184.949C441.028 183.506 441.905 182.248 443.17 181.505L471.3 164.987C472.63 164.206 474.244 164.079 475.679 164.642L487.609 169.322C491.511 170.853 491.933 176.209 488.317 178.332L445.912 203.233C442.211 205.406 437.665 202.237 438.424 198.012L440.769 184.949Z" fill="#4D4F5C"/>
<path d="M456.771 230.109C455.789 257.613 448.45 284.733 435.076 309.227C414.226 347.46 380.063 376.7 339.117 391.52" stroke="#4D4F5C" stroke-width="15.072" stroke-linecap="round" stroke-dasharray="35.17 35.17"/>
<path d="M154.501 81.4312C184.896 54.6533 223.33 38.7273 263.773 36.2153C304.216 33.7033 344.307 44.7059 377.818 67.5147M98.7344 175.028C89.038 217.481 95.2176 262.044 116.067 300.226C136.917 338.459 171.08 367.699 212.026 382.52" stroke="#4D4F5C" stroke-width="15.072" stroke-linecap="round" stroke-dasharray="35.17 35.17"/>
<path d="M22.8827 49.5791L5.24847 59.2254C0.375186 61.8881 -1.43345 67.9672 1.22927 72.8404L30.1173 125.743C32.78 130.616 38.859 132.425 43.7323 129.762L61.3667 120.116C66.2399 117.454 68.0486 111.375 65.3859 106.501L36.4978 53.5985C33.835 48.725 27.756 46.9164 22.8827 49.5791Z" fill="#4D4F5C"/>
<path d="M87.4491 60.3816L69.8149 70.0277C64.9416 72.6904 63.133 78.7694 65.7957 83.6427L94.6837 136.545C97.3464 141.419 103.425 143.227 108.299 140.565L125.933 130.919C130.806 128.256 132.615 122.177 129.952 117.304L101.064 64.4008C98.4014 59.5275 92.3224 57.7189 87.4491 60.3816Z" fill="#4D4F5C"/>
<path d="M305.285 382.52H244.997C239.471 382.52 234.949 387.041 234.949 392.568V412.664C234.949 418.19 239.471 422.712 244.997 422.712H305.285C310.812 422.712 315.333 418.19 315.333 412.664V392.568C315.333 387.041 310.812 382.52 305.285 382.52Z" fill="#4D4F5C"/>
<path d="M305.285 433.112H244.997C239.471 433.112 234.949 437.633 234.949 443.16V463.256C234.949 468.832 239.471 473.304 244.997 473.304H305.285C310.812 473.304 315.333 468.832 315.333 463.256V443.16C315.333 437.633 310.812 433.112 305.285 433.112Z" fill="#4D4F5C"/>
</svg>
