<svg width="346" height="120" viewBox="0 0 346 120" fill="none" xmlns="http://www.w3.org/2000/svg">
<path d="M109.29 60.06C109.267 57.7694 109.681 55.4954 110.51 53.36C111.272 51.3944 112.421 49.6021 113.89 48.09C115.352 46.5748 117.112 45.3796 119.06 44.58C121.192 43.7221 123.472 43.2939 125.77 43.32C128.052 43.2917 130.316 43.7201 132.43 44.58C134.397 45.3709 136.176 46.5668 137.65 48.09C139.107 49.6019 140.246 51.3905 141 53.35C141.826 55.4861 142.237 57.7601 142.21 60.05C142.236 62.3594 141.825 64.6529 141 66.81C140.234 68.783 139.089 70.5869 137.63 72.12C136.146 73.6217 134.369 74.8027 132.41 75.59C130.289 76.419 128.027 76.8299 125.75 76.8C123.457 76.8279 121.179 76.4172 119.04 75.59C117.1 74.7943 115.341 73.6139 113.87 72.12C112.411 70.5869 111.266 68.783 110.5 66.81C109.676 64.656 109.266 62.3661 109.29 60.06ZM112.29 60.06C112.273 61.9445 112.591 63.817 113.23 65.59C113.823 67.2421 114.741 68.7586 115.93 70.05C117.116 71.3339 118.556 72.3557 120.16 73.05C121.943 73.7907 123.859 74.1582 125.79 74.13C127.702 74.142 129.595 73.7572 131.35 73C132.97 72.3135 134.425 71.2909 135.62 70C136.809 68.7086 137.727 67.1921 138.32 65.54C139.58 61.9576 139.58 58.0525 138.32 54.47C137.726 52.8215 136.808 51.3085 135.62 50.02C134.425 48.7292 132.97 47.7066 131.35 47.02C129.578 46.2965 127.674 45.9492 125.76 46C123.833 45.9732 121.92 46.3408 120.14 47.08C118.536 47.7744 117.096 48.7962 115.91 50.08C114.722 51.3685 113.804 52.8815 113.21 54.53C112.568 56.3024 112.246 58.175 112.26 60.06H112.29Z" fill="white"/>
<path d="M147.54 55.2H150.24V58.85H150.33C150.739 58.1418 151.275 57.5148 151.91 57C152.513 56.4762 153.186 56.0387 153.91 55.7C154.652 55.3407 155.439 55.0818 156.25 54.93C157.031 54.7537 157.829 54.6631 158.63 54.66C160.126 54.6412 161.61 54.9164 163 55.47C164.297 55.9951 165.476 56.7756 166.465 57.7651C167.455 58.7546 168.235 59.9329 168.76 61.23C169.312 62.6165 169.588 64.0977 169.57 65.59C169.585 67.0983 169.31 68.5955 168.76 70C168.237 71.2986 167.459 72.4788 166.47 73.47C165.48 74.4495 164.298 75.2153 163 75.72C161.61 76.2736 160.126 76.5488 158.63 76.53C157.829 76.5269 157.031 76.4364 156.25 76.26C155.445 76.1115 154.66 75.8698 153.91 75.54C153.198 75.1766 152.528 74.7374 151.91 74.23C151.284 73.6926 150.754 73.0536 150.34 72.34H150.25V86.25H147.55L147.54 55.2ZM150 65.59C149.996 66.7349 150.228 67.8683 150.68 68.92C151.123 69.9276 151.75 70.8433 152.53 71.62C153.327 72.3813 154.255 72.9912 155.27 73.42C156.352 73.8781 157.516 74.1096 158.69 74.1C159.865 74.1157 161.03 73.884 162.11 73.42C163.09 72.9976 163.977 72.3859 164.72 71.62C165.44 70.8407 165.991 69.9216 166.34 68.92C166.731 67.8537 166.928 66.7258 166.92 65.59C166.93 64.4703 166.733 63.3585 166.34 62.31C166.005 61.3018 165.452 60.3799 164.72 59.61C163.987 58.8228 163.098 58.1963 162.11 57.77C161.03 57.3061 159.865 57.0744 158.69 57.09C157.547 57.0803 156.414 57.2981 155.357 57.7307C154.299 58.1634 153.338 58.8022 152.53 59.61C151.737 60.3757 151.108 61.2942 150.68 62.31C150.224 63.3431 149.993 64.4609 150 65.59Z" fill="white"/>
<path d="M194 72.07C193.058 73.5669 191.699 74.7556 190.09 75.49C188.484 76.1835 186.749 76.5245 185 76.49C183.52 76.5109 182.052 76.2355 180.68 75.68C179.428 75.1656 178.295 74.3998 177.35 73.43C176.415 72.4369 175.682 71.2721 175.19 70C174.697 68.5688 174.453 67.0636 174.47 65.55C174.453 64.0754 174.711 62.6104 175.23 61.23C175.711 59.9557 176.446 58.7922 177.39 57.81C178.315 56.8259 179.436 56.046 180.68 55.52C181.995 54.9359 183.421 54.6426 184.86 54.66C186.3 54.6311 187.728 54.925 189.04 55.52C190.211 56.0163 191.257 56.768 192.1 57.72C192.936 58.6129 193.579 59.668 193.99 60.82C194.405 61.9611 194.618 63.1658 194.62 64.38V66.27H177.17C177.192 67.0158 177.296 67.757 177.48 68.48C177.751 69.3868 178.177 70.2395 178.74 71C179.377 71.8751 180.187 72.6103 181.12 73.16C182.323 73.8048 183.676 74.1155 185.04 74.06C186.434 74.0524 187.806 73.7094 189.04 73.06C190.276 72.4635 191.317 71.5269 192.04 70.36L194 72.07ZM191.93 63.83C191.934 62.9265 191.733 62.0338 191.34 61.22C190.985 60.4137 190.463 59.6913 189.81 59.1C189.156 58.4522 188.377 57.9451 187.52 57.61C186.635 57.247 185.687 57.0634 184.73 57.07C183.424 57.0259 182.132 57.348 181 58C179.351 58.9972 178.108 60.545 177.49 62.37C177.305 62.8453 177.184 63.343 177.13 63.85L191.93 63.83Z" fill="white"/>
<path d="M200.64 61.0001C200.64 60.6067 200.64 60.1401 200.64 59.6001L200.55 57.8901C200.55 57.3167 200.55 56.7901 200.55 56.3101C200.55 55.8301 200.55 55.4401 200.55 55.1401H203.25C203.25 55.9201 203.25 56.6701 203.25 57.3901C203.251 57.8597 203.294 58.3283 203.38 58.7901H203.52C204.125 57.5807 205.062 56.568 206.22 55.8701C207.53 55.0153 209.067 54.5761 210.63 54.6101C212.005 54.5529 213.375 54.8166 214.63 55.3801C215.586 55.8289 216.41 56.518 217.02 57.3801C217.631 58.2204 218.045 59.1878 218.23 60.2101C218.471 61.3036 218.592 62.4202 218.59 63.5401V76.0001H215.89V63.7501C215.891 62.9346 215.814 62.1209 215.66 61.3201C215.527 60.5558 215.253 59.8231 214.85 59.1601C214.482 58.5243 213.936 58.0099 213.28 57.6801C212.478 57.2546 211.577 57.0509 210.67 57.0901C209.697 57.0857 208.733 57.2691 207.83 57.6301C206.953 57.97 206.169 58.5112 205.54 59.2101C204.861 59.9842 204.341 60.8847 204.01 61.8601C203.626 63.0686 203.444 64.3322 203.47 65.6001V76.0001H200.77L200.64 61.0001Z" fill="white"/>
<path d="M225.74 44.13H234.38L242.88 66.45L251.48 44.13H260.03V75.99H254.63V49.53H254.54L244.86 75.99H240.9L231.23 49.53H231.14V75.99H225.74V44.13Z" fill="white"/>
<path d="M267.26 44.13H279.68C280.881 44.1295 282.077 44.2807 283.24 44.58C284.358 44.8296 285.413 45.3061 286.34 45.98C287.274 46.6141 288.045 47.4605 288.59 48.45C289.189 49.5855 289.485 50.8565 289.45 52.14C289.511 53.7619 288.965 55.3484 287.92 56.59C286.851 57.7909 285.464 58.6647 283.92 59.11V59.2C284.878 59.3099 285.807 59.5982 286.66 60.05C287.503 60.4491 288.255 61.0176 288.87 61.72C289.482 62.4016 289.954 63.1966 290.26 64.06C290.625 64.9584 290.808 65.9203 290.8 66.89C290.882 68.3169 290.571 69.7391 289.901 71.0016C289.231 72.2641 288.228 73.3185 287 74.05C285.809 74.7733 284.498 75.2779 283.13 75.54C281.679 75.8411 280.201 75.9919 278.72 75.99H267.26V44.13ZM272.93 57.13H278.11C279.605 57.2255 281.091 56.8286 282.34 56C282.796 55.664 283.165 55.2235 283.415 54.7154C283.666 54.2073 283.791 53.6464 283.78 53.08C283.824 52.481 283.709 51.881 283.448 51.3403C283.186 50.7996 282.787 50.3373 282.29 50C280.864 49.2076 279.235 48.8593 277.61 49H272.93V57.13ZM272.93 71.13H278.15C278.918 71.1291 279.686 71.0857 280.45 71C281.243 70.922 282.018 70.7089 282.74 70.37C283.416 70.0503 284.003 69.5695 284.45 68.97C284.932 68.221 285.166 67.3395 285.12 66.45C285.19 65.7681 285.071 65.08 284.777 64.461C284.482 63.842 284.023 63.3158 283.45 62.94C281.873 62.1692 280.121 61.8244 278.37 61.94H272.92L272.93 71.13Z" fill="white"/>
<path d="M296.44 44.13H317.55V49.26H302.11V57.09H316.74V62.22H302.11V70.86H318.36V75.99H296.44V44.13Z" fill="white"/>
<path d="M323.95 44.13H345.06V49.26H329.62V57.09H344.25V62.22H329.62V70.86H345.87V75.99H323.95V44.13Z" fill="white"/>
<path d="M31.4599 27.92C37.5095 22.5879 45.1619 19.4214 53.2103 18.9199C61.2587 18.4183 69.2451 20.6103 75.9099 25.15M20.3599 46.55C18.4284 55.0001 19.6553 63.865 23.8093 71.4729C27.9632 79.0807 34.7571 84.9059 42.9099 87.85M68.0199 87.85C74.8724 85.352 80.7938 80.8123 84.9853 74.8434C89.1768 68.8745 91.4366 61.7636 91.4599 54.47C91.4599 53.27 91.3999 52.0867 91.2799 50.92" stroke="white" stroke-width="6" stroke-linecap="round"/>
<path d="M73.548 35.8229L47.8444 50.6629C46.8878 51.2152 46.56 52.4384 47.1123 53.395L52.1523 62.1245C52.7046 63.0811 53.9278 63.4088 54.8844 62.8565L80.588 48.0165C81.5446 47.4643 81.8723 46.2411 81.32 45.2845L76.28 36.555C75.7278 35.5984 74.5046 35.2706 73.548 35.8229Z" fill="white"/>
<path d="M116.402 10.9772L90.6986 25.8172C89.742 26.3695 89.4143 27.5927 89.9666 28.5493L95.0066 37.2788C95.5588 38.2354 96.782 38.5631 97.7386 38.0108L123.442 23.1708C124.399 22.6186 124.727 21.3954 124.174 20.4388L119.134 11.7093C118.582 10.7527 117.359 10.4249 116.402 10.9772Z" fill="white"/>
<path d="M83.145 33.0101L82.3656 33.4601C81.409 34.0124 81.0813 35.2356 81.6335 36.1922L84.5335 41.2151C85.0858 42.1717 86.309 42.4995 87.2656 41.9472L88.045 41.4972C89.0016 40.9449 89.3294 39.7217 88.7771 38.7651L85.8771 33.7422C85.3248 32.7856 84.1016 32.4579 83.145 33.0101Z" fill="white"/>
<path d="M83.1925 28.8269L79.7284 30.8269C78.7718 31.3792 78.4441 32.6024 78.9963 33.559L84.9963 43.9513C85.5486 44.9078 86.7718 45.2356 87.7284 44.6833L91.1925 42.6833C92.1491 42.131 92.4768 40.9078 91.9245 39.9513L85.9245 29.559C85.3723 28.6024 84.1491 28.2746 83.1925 28.8269Z" fill="white"/>
<path d="M5.26349 21.5751L1.75189 23.4905C0.782192 24.0194 0.424866 25.2343 0.953784 26.204L6.69993 36.7388C7.22884 37.7085 8.44371 38.0658 9.41342 37.5369L12.925 35.6215C13.8947 35.0926 14.252 33.8777 13.7231 32.908L7.97698 22.3732C7.44806 21.4035 6.23319 21.0462 5.26349 21.5751Z" fill="white"/>
<path d="M18.1141 23.7295L14.6025 25.6448C13.6328 26.1738 13.2755 27.3886 13.8044 28.3583L19.5505 38.8931C20.0794 39.8628 21.2943 40.2202 22.264 39.6912L25.7756 37.7759C26.7453 37.2469 27.1026 36.0321 26.5737 35.0624L20.8276 24.5276C20.2986 23.5579 19.0838 23.2006 18.1141 23.7295Z" fill="white"/>
<path d="M61.47 87.85H49.47C48.3654 87.85 47.47 88.7455 47.47 89.85V93.85C47.47 94.9546 48.3654 95.85 49.47 95.85H61.47C62.5745 95.85 63.47 94.9546 63.47 93.85V89.85C63.47 88.7455 62.5745 87.85 61.47 87.85Z" fill="white"/>
<path d="M61.47 97.92H49.47C48.3654 97.92 47.47 98.8155 47.47 99.92V103.92C47.47 105.025 48.3654 105.92 49.47 105.92H61.47C62.5745 105.92 63.47 105.025 63.47 103.92V99.92C63.47 98.8155 62.5745 97.92 61.47 97.92Z" fill="white"/>
</svg>
