<svg width="555" height="540" viewBox="0 0 555 540" fill="none" xmlns="http://www.w3.org/2000/svg">
<path d="M327.928 150.371H324.976L324.076 146.627L325.948 126.791H330.808L327.928 150.371ZM317.092 150.371H314.14L311.296 126.791H316.156L318.064 146.771L317.092 150.371ZM326.416 150.371H323.536L320.224 136.439H321.7L318.388 150.371H315.688L316.264 146.771L320.656 131.255H321.52L325.912 146.627L326.416 150.371Z" fill="#4D6EB9"/>
<path d="M386.928 150.371H383.976L383.076 146.627L384.948 126.791H389.808L386.928 150.371ZM376.092 150.371H373.14L370.296 126.791H375.156L377.064 146.771L376.092 150.371ZM385.416 150.371H382.536L379.224 136.439H380.7L377.388 150.371H374.688L375.264 146.771L379.656 131.255H380.52L384.912 146.627L385.416 150.371Z" fill="#4D6EB9"/>
<path d="M445.928 150.371H442.976L442.076 146.627L443.948 126.791H448.808L445.928 150.371ZM435.092 150.371H432.14L429.296 126.791H434.156L436.064 146.771L435.092 150.371ZM444.416 150.371H441.536L438.224 136.439H439.7L436.388 150.371H433.688L434.264 146.771L438.656 131.255H439.52L443.912 146.627L444.416 150.371Z" fill="#4D6EB9"/>
<path d="M327.928 200.371H324.976L324.076 196.627L325.948 176.791H330.808L327.928 200.371ZM317.092 200.371H314.14L311.296 176.791H316.156L318.064 196.771L317.092 200.371ZM326.416 200.371H323.536L320.224 186.439H321.7L318.388 200.371H315.688L316.264 196.771L320.656 181.255H321.52L325.912 196.627L326.416 200.371Z" fill="#4D6EB9"/>
<path d="M386.928 200.371H383.976L383.076 196.627L384.948 176.791H389.808L386.928 200.371ZM376.092 200.371H373.14L370.296 176.791H375.156L377.064 196.771L376.092 200.371ZM385.416 200.371H382.536L379.224 186.439H380.7L377.388 200.371H374.688L375.264 196.771L379.656 181.255H380.52L384.912 196.627L385.416 200.371Z" fill="#4D6EB9"/>
<path d="M445.928 200.371H442.976L442.076 196.627L443.948 176.791H448.808L445.928 200.371ZM435.092 200.371H432.14L429.296 176.791H434.156L436.064 196.771L435.092 200.371ZM444.416 200.371H441.536L438.224 186.439H439.7L436.388 200.371H433.688L434.264 196.771L438.656 181.255H439.52L443.912 196.627L444.416 200.371Z" fill="#4D6EB9"/>
<path d="M327.928 247.371H324.976L324.076 243.627L325.948 223.791H330.808L327.928 247.371ZM317.092 247.371H314.14L311.296 223.791H316.156L318.064 243.771L317.092 247.371ZM326.416 247.371H323.536L320.224 233.439H321.7L318.388 247.371H315.688L316.264 243.771L320.656 228.255H321.52L325.912 243.627L326.416 247.371Z" fill="#4D6EB9"/>
<path d="M386.928 247.371H383.976L383.076 243.627L384.948 223.791H389.808L386.928 247.371ZM376.092 247.371H373.14L370.296 223.791H375.156L377.064 243.771L376.092 247.371ZM385.416 247.371H382.536L379.224 233.439H380.7L377.388 247.371H374.688L375.264 243.771L379.656 228.255H380.52L384.912 243.627L385.416 247.371Z" fill="#4D6EB9"/>
<path d="M445.928 247.371H442.976L442.076 243.627L443.948 223.791H448.808L445.928 247.371ZM435.092 247.371H432.14L429.296 223.791H434.156L436.064 243.771L435.092 247.371ZM444.416 247.371H441.536L438.224 233.439H439.7L436.388 247.371H433.688L434.264 243.771L438.656 228.255H439.52L443.912 243.627L444.416 247.371Z" fill="#4D6EB9"/>
<path d="M327.928 297.371H324.976L324.076 293.627L325.948 273.791H330.808L327.928 297.371ZM317.092 297.371H314.14L311.296 273.791H316.156L318.064 293.771L317.092 297.371ZM326.416 297.371H323.536L320.224 283.439H321.7L318.388 297.371H315.688L316.264 293.771L320.656 278.255H321.52L325.912 293.627L326.416 297.371Z" fill="#4D6EB9"/>
<path d="M386.928 297.371H383.976L383.076 293.627L384.948 273.791H389.808L386.928 297.371ZM376.092 297.371H373.14L370.296 273.791H375.156L377.064 293.771L376.092 297.371ZM385.416 297.371H382.536L379.224 283.439H380.7L377.388 297.371H374.688L375.264 293.771L379.656 278.255H380.52L384.912 293.627L385.416 297.371Z" fill="#4D6EB9"/>
<path d="M445.928 297.371H442.976L442.076 293.627L443.948 273.791H448.808L445.928 297.371ZM435.092 297.371H432.14L429.296 273.791H434.156L436.064 293.771L435.092 297.371ZM444.416 297.371H441.536L438.224 283.439H439.7L436.388 297.371H433.688L434.264 293.771L438.656 278.255H439.52L443.912 293.627L444.416 297.371Z" fill="#4D6EB9"/>
<path d="M329.928 405.371H326.976L326.076 401.627L327.948 381.791H332.808L329.928 405.371ZM319.092 405.371H316.14L313.296 381.791H318.156L320.064 401.771L319.092 405.371ZM328.416 405.371H325.536L322.224 391.439H323.7L320.388 405.371H317.688L318.264 401.771L322.656 386.255H323.52L327.912 401.627L328.416 405.371Z" fill="#4D6EB9"/>
<path d="M388.928 405.371H385.976L385.076 401.627L386.948 381.791H391.808L388.928 405.371ZM378.092 405.371H375.14L372.296 381.791H377.156L379.064 401.771L378.092 405.371ZM387.416 405.371H384.536L381.224 391.439H382.7L379.388 405.371H376.688L377.264 401.771L381.656 386.255H382.52L386.912 401.627L387.416 405.371Z" fill="#4D6EB9"/>
<path d="M447.928 405.371H444.976L444.076 401.627L445.948 381.791H450.808L447.928 405.371ZM437.092 405.371H434.14L431.296 381.791H436.156L438.064 401.771L437.092 405.371ZM446.416 405.371H443.536L440.224 391.439H441.7L438.388 405.371H435.688L436.264 401.771L440.656 386.255H441.52L445.912 401.627L446.416 405.371Z" fill="#4D6EB9"/>
<path d="M313.516 83.7909H318.124C321.268 83.7909 323.656 84.4989 325.288 85.9149C326.92 87.3309 327.736 89.2509 327.736 91.6749C327.736 94.3629 326.872 96.3789 325.144 97.7229C323.416 99.0429 321.016 99.7029 317.944 99.7029H313.516V95.4909H318.304C319.696 95.4909 320.728 95.1669 321.4 94.5189C322.096 93.8469 322.444 92.9229 322.444 91.7469C322.444 90.5709 322.12 89.6709 321.472 89.0469C320.824 88.4229 319.828 88.1109 318.484 88.1109H313.516V83.7909ZM309.808 83.7909H315.028V107.371H309.808V83.7909Z" fill="#FF7E62"/>
<path d="M339.516 305.42H344.124C347.268 305.42 349.656 306.128 351.288 307.544C352.92 308.96 353.736 310.88 353.736 313.304C353.736 315.992 352.872 318.008 351.144 319.352C349.416 320.672 347.016 321.332 343.944 321.332H339.516V317.12H344.304C345.696 317.12 346.728 316.796 347.4 316.148C348.096 315.476 348.444 314.552 348.444 313.376C348.444 312.2 348.12 311.3 347.472 310.676C346.824 310.052 345.828 309.74 344.484 309.74H339.516V305.42ZM335.808 305.42H341.028V329H335.808V305.42Z" fill="#FF7E62"/>
<path d="M363.516 341.42H368.124C371.268 341.42 373.656 342.128 375.288 343.544C376.92 344.96 377.736 346.88 377.736 349.304C377.736 351.992 376.872 354.008 375.144 355.352C373.416 356.672 371.016 357.332 367.944 357.332H363.516V353.12H368.304C369.696 353.12 370.728 352.796 371.4 352.148C372.096 351.476 372.444 350.552 372.444 349.376C372.444 348.2 372.12 347.3 371.472 346.676C370.824 346.052 369.828 345.74 368.484 345.74H363.516V341.42ZM359.808 341.42H365.028V365H359.808V341.42Z" fill="#FF7E62"/>
<path d="M241.792 189.371L249.676 176.447H250.36L256.12 165.791H261.736L254.392 178.067H253.708L247.372 189.371H241.792ZM262.312 189.371H256.444L250.252 178.067H249.568L242.26 165.791H248.092L253.78 176.447H254.464L262.312 189.371Z" fill="#00C373"/>
<path d="M214.792 267.371L222.676 254.447H223.36L229.12 243.791H234.736L227.392 256.067H226.708L220.372 267.371H214.792ZM235.312 267.371H229.444L223.252 256.067H222.568L215.26 243.791H221.092L226.78 254.447H227.464L235.312 267.371Z" fill="#00C373"/>
<path d="M269.792 267.371L277.676 254.447H278.36L284.12 243.791H289.736L282.392 256.067H281.708L275.372 267.371H269.792ZM290.312 267.371H284.444L278.252 256.067H277.568L270.26 243.791H276.092L281.78 254.447H282.464L290.312 267.371Z" fill="#00C373"/>
<path d="M292.792 360.371L300.676 347.447H301.36L307.12 336.791H312.736L305.392 349.067H304.708L298.372 360.371H292.792ZM313.312 360.371H307.444L301.252 349.067H300.568L293.26 336.791H299.092L304.78 347.447H305.464L313.312 360.371Z" fill="#00C373"/>
<path d="M199.792 357.371L207.676 344.447H208.36L214.12 333.791H219.736L212.392 346.067H211.708L205.372 357.371H199.792ZM220.312 357.371H214.444L208.252 346.067H207.568L200.26 333.791H206.092L211.78 344.447H212.464L220.312 357.371Z" fill="#00C373"/>
<path d="M201 119.541C202.574 119.541 203.893 120.852 203.893 122.522C203.892 124.192 202.574 125.503 201 125.503C199.426 125.503 198.108 124.192 198.107 122.522C198.107 120.852 199.426 119.541 201 119.541Z" fill="white" stroke="#ADB3BE" stroke-width="2.33962"/>
<path d="M209.938 133.239C211.511 133.239 212.83 134.55 212.83 136.22C212.83 137.89 211.511 139.201 209.938 139.201C208.364 139.201 207.045 137.89 207.045 136.22C207.045 134.55 208.364 133.239 209.938 133.239Z" fill="white" stroke="#ADB3BE" stroke-width="2.33962"/>
<path d="M192.063 133.239C193.636 133.239 194.955 134.55 194.955 136.22C194.955 137.89 193.636 139.201 192.063 139.201C190.489 139.201 189.17 137.89 189.17 136.22C189.17 134.55 190.489 133.239 192.063 133.239Z" fill="white" stroke="#ADB3BE" stroke-width="2.33962"/>
<line y1="-1.16981" x2="8.92143" y2="-1.16981" transform="matrix(0.546437 -0.8375 0.826473 0.562977 194.906 133.729)" stroke="#ADB3BE" stroke-width="2.33962"/>
<line y1="-1.16981" x2="8.92143" y2="-1.16981" transform="matrix(-0.546437 -0.8375 -0.826473 0.562977 207.094 133.314)" stroke="#ADB3BE" stroke-width="2.33962"/>
<path d="M184 154.541C185.574 154.541 186.893 155.852 186.893 157.522C186.892 159.192 185.574 160.503 184 160.503C182.426 160.503 181.108 159.192 181.107 157.522C181.107 155.852 182.426 154.541 184 154.541Z" fill="white" stroke="#ADB3BE" stroke-width="2.33962"/>
<path d="M192.938 168.239C194.511 168.239 195.83 169.55 195.83 171.22C195.83 172.891 194.511 174.201 192.938 174.201C191.364 174.201 190.045 172.891 190.045 171.22C190.045 169.55 191.364 168.239 192.938 168.239Z" fill="white" stroke="#ADB3BE" stroke-width="2.33962"/>
<path d="M175.063 168.239C176.636 168.239 177.955 169.55 177.955 171.22C177.955 172.891 176.636 174.201 175.063 174.201C173.489 174.201 172.17 172.891 172.17 171.22C172.17 169.55 173.489 168.239 175.063 168.239Z" fill="white" stroke="#ADB3BE" stroke-width="2.33962"/>
<line y1="-1.16981" x2="8.92143" y2="-1.16981" transform="matrix(0.546437 -0.8375 0.826473 0.562977 177.906 168.729)" stroke="#ADB3BE" stroke-width="2.33962"/>
<line y1="-1.16981" x2="8.92143" y2="-1.16981" transform="matrix(-0.546437 -0.8375 -0.826473 0.562977 190.094 168.314)" stroke="#ADB3BE" stroke-width="2.33962"/>
<path d="M167 187.541C168.574 187.541 169.893 188.852 169.893 190.522C169.892 192.192 168.574 193.503 167 193.503C165.426 193.503 164.108 192.192 164.107 190.522C164.107 188.852 165.426 187.541 167 187.541Z" fill="white" stroke="#ADB3BE" stroke-width="2.33962"/>
<path d="M175.938 201.239C177.511 201.239 178.83 202.55 178.83 204.22C178.83 205.891 177.511 207.201 175.938 207.201C174.364 207.201 173.045 205.891 173.045 204.22C173.045 202.55 174.364 201.239 175.938 201.239Z" fill="white" stroke="#ADB3BE" stroke-width="2.33962"/>
<path d="M158.063 201.239C159.636 201.239 160.955 202.55 160.955 204.22C160.955 205.891 159.636 207.201 158.063 207.201C156.489 207.201 155.17 205.891 155.17 204.22C155.17 202.55 156.489 201.239 158.063 201.239Z" fill="white" stroke="#ADB3BE" stroke-width="2.33962"/>
<line y1="-1.16981" x2="8.92143" y2="-1.16981" transform="matrix(0.546437 -0.8375 0.826473 0.562977 160.906 201.729)" stroke="#ADB3BE" stroke-width="2.33962"/>
<line y1="-1.16981" x2="8.92143" y2="-1.16981" transform="matrix(-0.546437 -0.8375 -0.826473 0.562977 173.094 201.314)" stroke="#ADB3BE" stroke-width="2.33962"/>
<path d="M127 319.541C128.574 319.541 129.893 320.852 129.893 322.522C129.892 324.192 128.574 325.503 127 325.503C125.426 325.503 124.108 324.192 124.107 322.522C124.107 320.852 125.426 319.541 127 319.541Z" fill="white" stroke="#ADB3BE" stroke-width="2.33962"/>
<path d="M135.938 333.239C137.511 333.239 138.83 334.55 138.83 336.22C138.83 337.891 137.511 339.201 135.938 339.201C134.364 339.201 133.045 337.891 133.045 336.22C133.045 334.55 134.364 333.239 135.938 333.239Z" fill="white" stroke="#ADB3BE" stroke-width="2.33962"/>
<path d="M118.063 333.239C119.636 333.239 120.955 334.55 120.955 336.22C120.955 337.891 119.636 339.201 118.063 339.201C116.489 339.201 115.17 337.891 115.17 336.22C115.17 334.55 116.489 333.239 118.063 333.239Z" fill="white" stroke="#ADB3BE" stroke-width="2.33962"/>
<line y1="-1.16981" x2="8.92143" y2="-1.16981" transform="matrix(0.546437 -0.8375 0.826473 0.562977 120.906 333.729)" stroke="#ADB3BE" stroke-width="2.33962"/>
<line y1="-1.16981" x2="8.92143" y2="-1.16981" transform="matrix(-0.546437 -0.8375 -0.826473 0.562977 133.094 333.314)" stroke="#ADB3BE" stroke-width="2.33962"/>
<path d="M113 268.541C114.574 268.541 115.893 269.852 115.893 271.522C115.892 273.192 114.574 274.503 113 274.503C111.426 274.503 110.108 273.192 110.107 271.522C110.107 269.852 111.426 268.541 113 268.541Z" fill="white" stroke="#ADB3BE" stroke-width="2.33962"/>
<path d="M121.938 282.239C123.511 282.239 124.83 283.55 124.83 285.22C124.83 286.891 123.511 288.201 121.938 288.201C120.364 288.201 119.045 286.891 119.045 285.22C119.045 283.55 120.364 282.239 121.938 282.239Z" fill="white" stroke="#ADB3BE" stroke-width="2.33962"/>
<path d="M104.063 282.239C105.636 282.239 106.955 283.55 106.955 285.22C106.955 286.891 105.636 288.201 104.063 288.201C102.489 288.201 101.17 286.891 101.17 285.22C101.17 283.55 102.489 282.239 104.063 282.239Z" fill="white" stroke="#ADB3BE" stroke-width="2.33962"/>
<line y1="-1.16981" x2="8.92143" y2="-1.16981" transform="matrix(0.546437 -0.8375 0.826473 0.562977 106.906 282.729)" stroke="#ADB3BE" stroke-width="2.33962"/>
<line y1="-1.16981" x2="8.92143" y2="-1.16981" transform="matrix(-0.546437 -0.8375 -0.826473 0.562977 119.094 282.314)" stroke="#ADB3BE" stroke-width="2.33962"/>
<path d="M108 229.541C109.574 229.541 110.893 230.852 110.893 232.522C110.892 234.192 109.574 235.503 108 235.503C106.426 235.503 105.108 234.192 105.107 232.522C105.107 230.852 106.426 229.541 108 229.541Z" fill="white" stroke="#ADB3BE" stroke-width="2.33962"/>
<path d="M116.938 243.239C118.511 243.239 119.83 244.55 119.83 246.22C119.83 247.891 118.511 249.201 116.938 249.201C115.364 249.201 114.045 247.891 114.045 246.22C114.045 244.55 115.364 243.239 116.938 243.239Z" fill="white" stroke="#ADB3BE" stroke-width="2.33962"/>
<path d="M99.0625 243.239C100.636 243.239 101.955 244.55 101.955 246.22C101.955 247.891 100.636 249.201 99.0625 249.201C97.4887 249.201 96.1701 247.891 96.1699 246.22C96.1699 244.55 97.4885 243.239 99.0625 243.239Z" fill="white" stroke="#ADB3BE" stroke-width="2.33962"/>
<line y1="-1.16981" x2="8.92143" y2="-1.16981" transform="matrix(0.546437 -0.8375 0.826473 0.562977 101.906 243.729)" stroke="#ADB3BE" stroke-width="2.33962"/>
<line y1="-1.16981" x2="8.92143" y2="-1.16981" transform="matrix(-0.546437 -0.8375 -0.826473 0.562977 114.094 243.314)" stroke="#ADB3BE" stroke-width="2.33962"/>
<path d="M52 254.541C53.574 254.541 54.8926 255.852 54.8926 257.522C54.8924 259.192 53.5738 260.503 52 260.503C50.4262 260.503 49.1076 259.192 49.1074 257.522C49.1074 255.852 50.426 254.541 52 254.541Z" fill="white" stroke="#ADB3BE" stroke-width="2.33962"/>
<path d="M60.9375 268.239C62.5115 268.239 63.8301 269.55 63.8301 271.22C63.8299 272.891 62.5113 274.201 60.9375 274.201C59.3637 274.201 58.0451 272.891 58.0449 271.22C58.0449 269.55 59.3635 268.239 60.9375 268.239Z" fill="white" stroke="#ADB3BE" stroke-width="2.33962"/>
<path d="M43.0625 268.239C44.6365 268.239 45.9551 269.55 45.9551 271.22C45.9549 272.891 44.6363 274.201 43.0625 274.201C41.4887 274.201 40.1701 272.891 40.1699 271.22C40.1699 269.55 41.4885 268.239 43.0625 268.239Z" fill="white" stroke="#ADB3BE" stroke-width="2.33962"/>
<line y1="-1.16981" x2="8.92143" y2="-1.16981" transform="matrix(0.546437 -0.8375 0.826473 0.562977 45.9062 268.729)" stroke="#ADB3BE" stroke-width="2.33962"/>
<line y1="-1.16981" x2="8.92143" y2="-1.16981" transform="matrix(-0.546437 -0.8375 -0.826473 0.562977 58.0938 268.314)" stroke="#ADB3BE" stroke-width="2.33962"/>
<path d="M13 290.541C14.574 290.541 15.8926 291.852 15.8926 293.522C15.8924 295.192 14.5738 296.503 13 296.503C11.4262 296.503 10.1076 295.192 10.1074 293.522C10.1074 291.852 11.426 290.541 13 290.541Z" fill="white" stroke="#ADB3BE" stroke-width="2.33962"/>
<path d="M21.9375 304.239C23.5115 304.239 24.8301 305.55 24.8301 307.22C24.8299 308.891 23.5113 310.201 21.9375 310.201C20.3637 310.201 19.0451 308.891 19.0449 307.22C19.0449 305.55 20.3635 304.239 21.9375 304.239Z" fill="white" stroke="#ADB3BE" stroke-width="2.33962"/>
<path d="M4.0625 304.239C5.63647 304.239 6.95508 305.55 6.95508 307.22C6.95486 308.891 5.63633 310.201 4.0625 310.201C2.48867 310.201 1.17014 308.891 1.16992 307.22C1.16992 305.55 2.48854 304.239 4.0625 304.239Z" fill="white" stroke="#ADB3BE" stroke-width="2.33962"/>
<line y1="-1.16981" x2="8.92143" y2="-1.16981" transform="matrix(0.546437 -0.8375 0.826473 0.562977 6.90625 304.729)" stroke="#ADB3BE" stroke-width="2.33962"/>
<line y1="-1.16981" x2="8.92143" y2="-1.16981" transform="matrix(-0.546437 -0.8375 -0.826473 0.562977 19.0938 304.314)" stroke="#ADB3BE" stroke-width="2.33962"/>
<path d="M301.084 107.388C301.277 106.582 300.78 105.773 299.975 105.58L286.846 102.433C286.041 102.24 285.231 102.737 285.038 103.543C284.845 104.348 285.342 105.158 286.147 105.351L297.817 108.147L295.02 119.817C294.827 120.623 295.324 121.432 296.129 121.625C296.935 121.818 297.745 121.322 297.938 120.516L301.084 107.388ZM308.835 138.553C309.211 137.815 308.918 136.911 308.18 136.535L296.155 130.4C295.417 130.024 294.513 130.317 294.137 131.055C293.76 131.792 294.053 132.696 294.791 133.072L305.481 138.526L300.027 149.215C299.651 149.953 299.944 150.856 300.682 151.233C301.42 151.609 302.323 151.316 302.7 150.578L308.835 138.553ZM308.559 180.932C309.145 180.346 309.145 179.396 308.559 178.811L299.013 169.265C298.428 168.679 297.478 168.679 296.892 169.265C296.306 169.85 296.306 170.8 296.892 171.386L305.377 179.871L296.892 188.357C296.306 188.942 296.306 189.892 296.892 190.478C297.478 191.064 298.428 191.064 299.013 190.478L308.559 180.932ZM370.559 143.432C371.145 142.846 371.145 141.897 370.559 141.311L361.013 131.765C360.427 131.179 359.478 131.179 358.892 131.765C358.306 132.351 358.306 133.3 358.892 133.886L367.377 142.371L358.892 150.857C358.306 151.442 358.306 152.392 358.892 152.978C359.478 153.564 360.427 153.564 361.013 152.978L370.559 143.432ZM370.559 189.932C371.145 189.346 371.145 188.397 370.559 187.811L361.013 178.265C360.427 177.679 359.478 177.679 358.892 178.265C358.306 178.851 358.306 179.8 358.892 180.386L367.377 188.871L358.892 197.357C358.306 197.942 358.306 198.892 358.892 199.478C359.478 200.064 360.427 200.064 361.013 199.478L370.559 189.932ZM370.559 233.932C371.145 233.346 371.145 232.397 370.559 231.811L361.013 222.265C360.427 221.679 359.478 221.679 358.892 222.265C358.306 222.851 358.306 223.8 358.892 224.386L367.377 232.871L358.892 241.357C358.306 241.942 358.306 242.892 358.892 243.478C359.478 244.064 360.427 244.064 361.013 243.478L370.559 233.932ZM430.059 143.432C430.645 142.846 430.645 141.896 430.059 141.311L420.513 131.765C419.927 131.179 418.978 131.179 418.392 131.765C417.806 132.35 417.806 133.3 418.392 133.886L426.877 142.371L418.392 150.857C417.806 151.442 417.806 152.392 418.392 152.978C418.978 153.564 419.927 153.564 420.513 152.978L430.059 143.432ZM430.559 189.932C431.145 189.346 431.145 188.396 430.559 187.811L421.013 178.265C420.427 177.679 419.478 177.679 418.892 178.265C418.306 178.85 418.306 179.8 418.892 180.386L427.377 188.871L418.892 197.357C418.306 197.942 418.306 198.892 418.892 199.478C419.478 200.064 420.427 200.064 421.013 199.478L430.559 189.932ZM430.059 233.932C430.645 233.346 430.645 232.396 430.059 231.811L420.513 222.265C419.927 221.679 418.978 221.679 418.392 222.265C417.806 222.85 417.806 223.8 418.392 224.386L426.877 232.871L418.392 241.357C417.806 241.942 417.806 242.892 418.392 243.478C418.978 244.064 419.927 244.064 420.513 243.478L430.059 233.932ZM430.059 286.932C430.645 286.346 430.645 285.397 430.059 284.811L420.513 275.265C419.927 274.679 418.978 274.679 418.392 275.265C417.806 275.851 417.806 276.8 418.392 277.386L426.877 285.871L418.392 294.357C417.806 294.943 417.806 295.892 418.392 296.478C418.978 297.064 419.927 297.064 420.513 296.478L430.059 286.932ZM370.559 286.932C371.145 286.346 371.145 285.396 370.559 284.811L361.013 275.265C360.427 274.679 359.477 274.679 358.892 275.265C358.306 275.851 358.306 276.8 358.892 277.386L367.377 285.871L358.892 294.357C358.306 294.942 358.306 295.892 358.892 296.478C359.477 297.064 360.427 297.064 361.013 296.478L370.559 286.932ZM370.559 395.932C371.145 395.346 371.145 394.396 370.559 393.811L361.013 384.265C360.427 383.679 359.477 383.679 358.891 384.265C358.306 384.85 358.306 385.8 358.891 386.386L367.377 394.871L358.891 403.357C358.306 403.942 358.306 404.892 358.891 405.478C359.477 406.064 360.427 406.064 361.013 405.478L370.559 395.932ZM430.059 395.932C430.645 395.346 430.645 394.396 430.059 393.811L420.513 384.265C419.928 383.679 418.978 383.679 418.392 384.265C417.806 384.85 417.806 385.8 418.392 386.386L426.877 394.871L418.392 403.356C417.806 403.942 417.806 404.892 418.392 405.478C418.978 406.064 419.928 406.064 420.513 405.478L430.059 395.932ZM297.071 331.309C297.865 331.545 298.701 331.094 298.937 330.3L302.796 317.363C303.033 316.569 302.581 315.734 301.787 315.497C300.993 315.26 300.158 315.712 299.921 316.506L296.491 328.005L284.992 324.575C284.198 324.339 283.362 324.79 283.126 325.584C282.889 326.378 283.341 327.213 284.134 327.45L297.071 331.309ZM235.496 159.784C236.276 160.062 237.134 159.656 237.413 158.876L241.953 146.162C242.232 145.382 241.825 144.524 241.045 144.245C240.265 143.966 239.407 144.373 239.128 145.153L235.092 156.454L223.791 152.418C223.011 152.139 222.153 152.546 221.874 153.326C221.595 154.106 222.002 154.965 222.782 155.243L235.496 159.784ZM308.559 233.932C309.145 233.346 309.145 232.396 308.559 231.811L299.013 222.265C298.428 221.679 297.478 221.679 296.892 222.265C296.306 222.85 296.306 223.8 296.892 224.386L305.377 232.871L296.892 241.357C296.306 241.942 296.306 242.892 296.892 243.478C297.478 244.064 298.428 244.064 299.013 243.478L308.559 233.932ZM273.136 241.326C273.94 241.527 274.755 241.039 274.955 240.235L278.23 227.138C278.431 226.334 277.942 225.52 277.138 225.319C276.335 225.118 275.52 225.607 275.319 226.41L272.409 238.052L260.767 235.142C259.963 234.941 259.149 235.429 258.948 236.233C258.747 237.037 259.236 237.851 260.04 238.052L273.136 241.326ZM228.127 240.475C228.461 241.233 229.346 241.578 230.104 241.244L242.461 235.807C243.219 235.473 243.564 234.588 243.23 233.83C242.896 233.072 242.011 232.727 241.253 233.061L230.269 237.894L225.436 226.91C225.103 226.152 224.217 225.808 223.459 226.141C222.701 226.475 222.357 227.36 222.69 228.118L228.127 240.475ZM210.128 330.475C210.461 331.234 211.346 331.578 212.105 331.244L224.461 325.807C225.22 325.474 225.564 324.588 225.23 323.83C224.897 323.072 224.011 322.728 223.253 323.061L212.269 327.894L207.437 316.91C207.103 316.152 206.218 315.808 205.46 316.141C204.701 316.475 204.357 317.36 204.691 318.119L210.128 330.475ZM112.127 224.975C112.461 225.733 113.346 226.078 114.104 225.744L126.461 220.307C127.219 219.973 127.564 219.088 127.23 218.33C126.896 217.572 126.011 217.227 125.253 217.561L114.269 222.394L109.436 211.41C109.103 210.652 108.218 210.308 107.459 210.641C106.701 210.975 106.357 211.86 106.69 212.618L112.127 224.975ZM124.627 273.475C124.961 274.233 125.846 274.578 126.604 274.244L138.961 268.807C139.719 268.473 140.063 267.588 139.73 266.83C139.396 266.072 138.511 265.727 137.753 266.061L126.769 270.894L121.936 259.91C121.602 259.152 120.717 258.808 119.959 259.141C119.201 259.475 118.856 260.36 119.19 261.118L124.627 273.475ZM131.627 320.975C131.961 321.733 132.846 322.078 133.604 321.744L145.961 316.307C146.719 315.973 147.063 315.088 146.73 314.33C146.396 313.572 145.511 313.227 144.753 313.561L133.769 318.394L128.936 307.41C128.602 306.652 127.717 306.308 126.959 306.641C126.201 306.975 125.856 307.86 126.19 308.618L131.627 320.975ZM237.2 178.271C237.697 177.608 237.563 176.668 236.9 176.171L226.1 168.071C225.437 167.574 224.497 167.708 224 168.371C223.503 169.034 223.637 169.974 224.3 170.471L233.9 177.671L226.7 187.271C226.203 187.934 226.337 188.874 227 189.371C227.663 189.868 228.603 189.734 229.1 189.071L237.2 178.271ZM233.954 196.241C234.158 195.438 233.672 194.621 232.869 194.417L219.786 191.091C218.983 190.887 218.166 191.372 217.962 192.175C217.758 192.978 218.244 193.794 219.046 193.998L230.676 196.955L227.72 208.585C227.515 209.388 228.001 210.204 228.804 210.409C229.607 210.613 230.423 210.127 230.627 209.324L233.954 196.241ZM225.25 172.871L225.389 171.378L225.04 171.345L224.714 171.47L225.25 172.871ZM236.958 175.025C237.596 174.496 237.684 173.551 237.155 172.913L228.534 162.524C228.005 161.887 227.059 161.799 226.422 162.328C225.784 162.857 225.696 163.802 226.225 164.44L233.888 173.675L224.653 181.337C224.016 181.866 223.928 182.812 224.457 183.45C224.986 184.087 225.931 184.175 226.569 183.646L236.958 175.025ZM212.197 256.7C212.93 256.315 213.214 255.409 212.829 254.675L206.565 242.716C206.181 241.982 205.274 241.699 204.54 242.084C203.807 242.468 203.523 243.374 203.908 244.108L209.476 254.738L198.846 260.306C198.112 260.691 197.829 261.597 198.213 262.331C198.597 263.065 199.504 263.348 200.238 262.964L212.197 256.7ZM211.412 272.878C211.692 272.099 211.287 271.239 210.507 270.959L197.802 266.395C197.022 266.115 196.163 266.52 195.883 267.3C195.603 268.08 196.008 268.939 196.788 269.219L208.081 273.276L204.024 284.569C203.744 285.349 204.149 286.208 204.929 286.488C205.708 286.768 206.567 286.363 206.848 285.583L211.412 272.878ZM207.949 289.484C207.735 288.683 206.913 288.208 206.112 288.422L193.07 291.908C192.27 292.122 191.795 292.945 192.009 293.745C192.222 294.545 193.045 295.021 193.845 294.807L205.438 291.708L208.537 303.301C208.751 304.101 209.573 304.576 210.374 304.362C211.174 304.148 211.649 303.326 211.435 302.526L207.949 289.484ZM62.0108 249.69C61.9105 250.512 62.4959 251.26 63.3182 251.36L76.7189 252.994C77.5413 253.095 78.2892 252.509 78.3895 251.687C78.4898 250.865 77.9044 250.117 77.0821 250.016L65.1703 248.564L66.623 236.652C66.7233 235.83 66.1379 235.082 65.3156 234.981C64.4933 234.881 63.7453 235.466 63.645 236.289L62.0108 249.69ZM15.6027 288.418C15.9046 289.189 16.7747 289.57 17.5462 289.268L30.1178 284.348C30.8893 284.046 31.2699 283.176 30.968 282.405C30.6661 281.633 29.796 281.253 29.0245 281.554L17.8497 285.927L13.4767 274.753C13.1748 273.981 12.3047 273.601 11.5332 273.902C10.7617 274.204 10.3811 275.074 10.683 275.846L15.6027 288.418ZM351.06 348.932C351.646 348.346 351.646 347.396 351.06 346.81L341.514 337.264C340.929 336.679 339.979 336.679 339.393 337.264C338.807 337.85 338.807 338.8 339.393 339.386L347.878 347.871L339.393 356.356C338.807 356.942 338.807 357.892 339.393 358.478C339.979 359.063 340.929 359.063 341.514 358.477L351.06 348.932ZM311.431 394.308C312.224 394.07 312.675 393.233 312.437 392.44L308.558 379.509C308.32 378.716 307.484 378.265 306.69 378.503C305.897 378.741 305.447 379.578 305.685 380.371L309.132 391.865L297.638 395.313C296.845 395.551 296.394 396.387 296.632 397.181C296.87 397.974 297.707 398.424 298.5 398.186L311.431 394.308ZM325.141 316.364C325.966 316.286 326.571 315.555 326.493 314.73L325.226 301.29C325.148 300.465 324.416 299.859 323.591 299.937C322.767 300.015 322.161 300.747 322.239 301.571L323.366 313.518L311.419 314.645C310.594 314.723 309.988 315.455 310.066 316.28C310.144 317.104 310.876 317.71 311.701 317.632L325.141 316.364ZM258.625 153.038L259.948 153.745C266.192 142.051 271.445 133.696 277.549 126.77C283.64 119.859 290.63 114.315 300.409 108.317L299.625 107.038L298.841 105.76C288.889 111.864 281.642 117.589 275.298 124.787C268.966 131.97 263.585 140.564 257.302 152.332L258.625 153.038ZM270 161.371L271.189 162.286C279.797 151.11 289.621 145.247 307.961 139.298L307.499 137.871L307.036 136.444C288.38 142.496 277.928 148.621 268.812 160.456L270 161.371ZM268.5 171.871L267.756 173.173C274.862 177.234 280.278 179.311 286.243 180.349C292.147 181.376 298.541 181.371 307.499 181.371L307.499 179.871L307.499 178.371C298.458 178.371 292.352 178.367 286.757 177.393C281.223 176.431 276.138 174.508 269.244 170.569L268.5 171.871ZM335.998 142.371L335.998 143.871C356.999 143.871 348.998 143.871 369.498 143.871L369.498 142.371L369.498 140.871C348.999 140.871 356.998 140.871 335.998 140.871L335.998 142.371ZM335.998 188.871L335.998 190.371C356.998 190.371 348.998 190.371 369.498 190.371L369.498 188.871L369.498 187.371C348.999 187.371 356.998 187.371 335.998 187.371L335.998 188.871ZM335.998 232.871L335.998 234.371C357 234.371 348.997 234.371 369.498 234.371L369.498 232.871L369.498 231.371C349 231.371 356.997 231.371 335.998 231.371L335.998 232.871ZM395.498 142.371L395.498 143.871L428.999 143.871L428.999 142.371L428.999 140.871L395.498 140.871L395.498 142.371ZM395.998 188.871L395.998 190.371L429.498 190.371L429.498 188.871L429.498 187.371L395.998 187.371L395.998 188.871ZM395.498 232.871L395.498 234.371L428.998 234.371L428.998 232.871L428.998 231.371L395.498 231.371L395.498 232.871ZM395.499 285.871L395.499 287.371L428.999 287.371L428.999 285.871L428.999 284.371L395.499 284.371L395.499 285.871ZM335.998 285.871L335.998 287.371C357.016 287.371 348.98 287.371 369.498 287.371L369.498 285.871L369.498 284.371C349.016 284.371 356.98 284.371 335.998 284.371L335.998 285.871ZM335.998 394.871L335.998 396.371C356.999 396.371 348.997 396.371 369.498 396.371L369.498 394.871L369.498 393.371C348.999 393.371 356.997 393.371 335.998 393.371L335.998 394.871ZM395.499 394.871L395.499 396.371L428.999 396.371L428.999 394.871L428.999 393.371L395.499 393.371L395.499 394.871ZM280 272.871L278.506 273.007C280.01 289.555 281.9 299.323 284.71 307.306C287.511 315.263 291.221 321.41 296.18 330.584L297.5 329.871L298.82 329.158C293.779 319.832 290.239 313.979 287.54 306.31C284.85 298.669 282.989 289.186 281.494 272.735L280 272.871ZM216.5 137.871L215.974 139.276C221.768 141.449 225.289 144.06 227.91 147.206C230.578 150.407 232.374 154.219 234.645 159.013L236 158.371L237.356 157.729C235.127 153.023 233.173 148.835 230.215 145.286C227.212 141.682 223.233 138.794 217.027 136.467L216.5 137.871ZM258.625 195.871L257.319 196.608C262.351 205.525 270.193 214.92 279.073 222.1C287.918 229.253 297.999 234.371 307.499 234.371L307.499 232.871L307.499 231.371C299 231.371 289.581 226.739 280.959 219.767C272.37 212.822 264.775 203.717 259.932 195.134L258.625 195.871ZM253.5 195.871L252.026 196.15C255.587 214.973 264.768 228.233 272.214 240.643L273.5 239.871L274.787 239.099C267.233 226.51 258.413 213.769 254.974 195.592L253.5 195.871ZM244 195.871L242.5 195.871C242.5 221.026 231.855 229.676 228.102 239.327L229.5 239.871L230.898 240.415C234.145 232.066 245.5 221.716 245.5 195.871L244 195.871ZM224.001 272.871L222.516 272.655C218.521 300.125 213.54 320.489 210.103 329.327L211.501 329.871L212.899 330.415C216.462 321.253 221.481 300.617 225.485 273.087L224.001 272.871ZM186.5 130.371L185.981 128.964C123.665 151.932 115.423 215.288 112.102 223.827L113.5 224.371L114.898 224.915C118.577 215.454 126.336 154.145 187.019 131.778L186.5 130.371ZM175 158.371L174.027 157.229C151.699 176.259 140.215 202.967 133.867 225.908C130.689 237.392 128.788 247.97 127.464 256.219C126.797 260.377 126.289 263.855 125.826 266.66C125.357 269.496 124.972 271.376 124.602 272.327L126 272.871L127.398 273.415C127.903 272.116 128.33 269.902 128.785 267.15C129.246 264.367 129.773 260.763 130.426 256.695C131.743 248.491 133.623 238.037 136.758 226.709C143.035 204.025 154.301 177.983 175.973 159.513L175 158.371ZM165.5 206.871L164 206.871C164 267.496 135.242 310.469 131.602 319.827L133 320.371L134.398 320.915C137.758 312.274 167 268.246 167 206.871L165.5 206.871ZM201 171.871L200.073 173.051C207.53 178.909 218.515 181.384 236.212 178.856L236 177.371L235.788 175.886C218.484 178.358 208.47 175.833 201.927 170.692L201 171.871ZM186.5 203.871L185.956 205.269C195.151 208.845 202.331 209.665 209.629 208.087C216.837 206.529 224.033 202.651 233.266 197.16L232.5 195.871L231.733 194.582C222.467 200.092 215.662 203.713 208.995 205.155C202.419 206.577 195.849 205.897 187.044 202.473L186.5 203.871ZM213.5 177.371L214.036 178.772L225.786 174.272L225.25 172.871L224.714 171.47L212.963 175.97L213.5 177.371ZM225.25 172.871L225.111 174.365L235.861 175.365L236 173.871L236.139 172.377L225.389 171.378L225.25 172.871ZM119.5 240.871L119.747 242.351C128.513 240.89 141.328 241.362 157.02 243.791C172.683 246.215 191.11 250.571 211.053 256.803L211.501 255.371L211.948 253.939C191.89 247.671 173.316 243.277 157.479 240.826C141.671 238.38 128.487 237.853 119.253 239.392L119.5 240.871ZM128 285.371L128 286.871C143.357 286.871 155.301 287.748 167.645 286.552C180.09 285.345 193.007 282.04 210.639 273.728L210 272.371L209.36 271.014C191.993 279.202 179.41 282.397 167.355 283.566C155.199 284.744 143.643 283.871 128 283.871L128 285.371ZM137.5 329.871L137.763 331.348C155.91 328.116 168.803 326.084 179.42 320.775C190.156 315.407 198.468 306.761 207.798 290.622L206.5 289.871L205.201 289.12C196.031 304.982 188.093 313.085 178.079 318.092C167.946 323.158 155.589 325.126 137.237 328.394L137.5 329.871ZM98.4996 239.871L98.4997 238.371C87.9252 238.371 74.4891 239.366 62.5753 248.69L63.4998 249.871L64.4243 251.052C75.5102 242.376 88.0748 241.371 98.4996 241.371L98.4996 239.871ZM43.9997 261.371L43.7055 259.9C33.0626 262.029 22.7437 270.998 15.6253 287.27L16.9995 287.871L18.3738 288.472C25.2545 272.744 34.9372 264.713 44.2938 262.842L43.9997 261.371ZM316.5 347.871L316.5 349.371C340.5 349.371 329.5 349.371 350 349.371L350 347.871L350 346.371C329.5 346.371 340.5 346.371 316.5 346.371L316.5 347.871ZM297.5 363.371L296 363.371C296 371.052 296.107 376.975 297.975 381.846C299.897 386.856 303.599 390.589 310.289 394.192L311 392.871L311.711 391.55C305.402 388.153 302.354 384.886 300.776 380.771C299.144 376.517 299 371.19 299 363.371L297.5 363.371ZM290 272.371L288.532 272.681C291.334 285.925 295.679 293.09 301.733 298.834C304.717 301.665 308.09 304.126 311.784 306.777C315.494 309.44 319.56 312.315 324.044 316.026L325 314.871L325.956 313.715C321.378 309.926 317.225 306.989 313.533 304.34C309.824 301.678 306.612 299.327 303.798 296.658C298.259 291.402 294.166 284.817 291.468 272.061L290 272.371Z" fill="#999999"/>
</svg>
