<svg width="788" height="341" viewBox="0 0 788 341" fill="none" xmlns="http://www.w3.org/2000/svg">
<path d="M219.563 213.15C219.37 213.667 219.633 214.244 220.15 214.437L228.581 217.586C229.099 217.779 229.675 217.516 229.868 216.999C230.061 216.481 229.798 215.905 229.281 215.712L221.787 212.913L224.586 205.419C224.779 204.901 224.516 204.325 223.999 204.132C223.481 203.939 222.905 204.202 222.712 204.719L219.563 213.15ZM298.14 36.2317C297.716 35.8781 297.085 35.9355 296.732 36.3597L290.97 43.2737C290.617 43.698 290.674 44.3286 291.098 44.6821C291.522 45.0357 292.153 44.9784 292.507 44.5541L297.628 38.4083L303.774 43.5298C304.198 43.8834 304.829 43.8261 305.182 43.4018C305.536 42.9775 305.478 42.3469 305.054 41.9934L298.14 36.2317ZM220.5 213.5L220.915 214.41C249.736 201.263 270.626 173.379 283.555 140.617C296.489 107.844 301.51 70.0616 298.496 36.9094L297.5 36.9999L296.504 37.0905C299.49 69.9383 294.511 107.406 281.695 139.883C268.874 172.371 248.264 199.736 220.085 212.59L220.5 213.5Z" fill="#ADB3BE"/>
<path d="M409.655 221.965C409.36 222.432 409.499 223.05 409.965 223.345L417.571 228.157C418.038 228.452 418.656 228.313 418.951 227.846C419.246 227.38 419.107 226.762 418.64 226.467L411.88 222.19L416.157 215.429C416.452 214.962 416.313 214.344 415.846 214.049C415.38 213.754 414.762 213.893 414.467 214.36L409.655 221.965ZM507.14 40.7318C506.716 40.3782 506.085 40.4355 505.732 40.8598L499.97 47.7738C499.617 48.1981 499.674 48.8286 500.098 49.1822C500.523 49.5358 501.153 49.4784 501.507 49.0542L506.628 42.9084L512.774 48.0299C513.198 48.3834 513.829 48.3261 514.182 47.9018C514.536 47.4776 514.479 46.847 514.054 46.4934L507.14 40.7318ZM663.655 221.965C663.36 222.432 663.499 223.05 663.966 223.345L671.571 228.157C672.038 228.452 672.656 228.313 672.951 227.846C673.246 227.38 673.107 226.762 672.641 226.467L665.88 222.19L670.157 215.429C670.452 214.962 670.313 214.344 669.847 214.049C669.38 213.754 668.762 213.893 668.467 214.36L663.655 221.965ZM739.641 40.7318C739.216 40.3782 738.586 40.4355 738.232 40.8598L732.47 47.7738C732.117 48.1981 732.174 48.8286 732.599 49.1822C733.023 49.5358 733.653 49.4784 734.007 49.0542L739.128 42.9084L745.274 48.0299C745.698 48.3834 746.329 48.3261 746.683 47.9018C747.036 47.4776 746.979 46.847 746.555 46.4934L739.641 40.7318ZM409.586 206.095C409.362 206.6 409.59 207.191 410.095 207.414L418.324 211.06C418.828 211.284 419.419 211.056 419.643 210.551C419.867 210.046 419.639 209.455 419.134 209.231L411.819 205.991L415.06 198.676C415.284 198.172 415.056 197.581 414.551 197.357C414.046 197.133 413.455 197.361 413.231 197.866L409.586 206.095ZM474.276 117.87C473.928 117.441 473.299 117.375 472.87 117.724L465.882 123.396C465.453 123.744 465.388 124.374 465.736 124.802C466.084 125.231 466.714 125.297 467.143 124.949L473.354 119.907L478.396 126.118C478.744 126.547 479.374 126.612 479.802 126.264C480.231 125.916 480.297 125.286 479.949 124.857L474.276 117.87ZM556.11 317.543C555.858 318.034 556.052 318.637 556.543 318.89L564.549 323.001C565.041 323.253 565.643 323.059 565.896 322.568C566.148 322.077 565.954 321.474 565.463 321.222L558.346 317.567L562.001 310.451C562.253 309.959 562.059 309.357 561.568 309.104C561.077 308.852 560.474 309.046 560.222 309.537L556.11 317.543ZM639.365 253.998C639.088 253.52 638.475 253.358 637.998 253.635L630.215 258.154C629.737 258.432 629.575 259.044 629.852 259.521C630.129 259.999 630.741 260.161 631.219 259.884L638.137 255.867L642.154 262.785C642.432 263.263 643.044 263.425 643.521 263.148C643.999 262.871 644.161 262.259 643.884 261.781L639.365 253.998ZM549.257 271.33C548.887 271.741 548.92 272.373 549.331 272.743L556.016 278.768C556.426 279.138 557.059 279.105 557.428 278.695C557.798 278.284 557.765 277.652 557.355 277.282L551.412 271.927L556.768 265.984C557.138 265.574 557.105 264.941 556.695 264.572C556.284 264.202 555.652 264.235 555.282 264.645L549.257 271.33ZM617.995 242.902C617.941 242.353 617.452 241.951 616.902 242.005L607.945 242.883C607.396 242.937 606.994 243.426 607.048 243.976C607.102 244.525 607.591 244.927 608.141 244.873L616.102 244.093L616.883 252.055C616.937 252.604 617.426 253.006 617.976 252.952C618.525 252.898 618.927 252.409 618.873 251.859L617.995 242.902ZM646.579 191.11C646.364 191.619 646.602 192.206 647.11 192.421L655.399 195.928C655.908 196.143 656.494 195.905 656.71 195.396C656.925 194.888 656.687 194.301 656.178 194.086L648.811 190.969L651.928 183.601C652.143 183.092 651.905 182.506 651.396 182.29C650.888 182.075 650.301 182.313 650.086 182.822L646.579 191.11ZM685.276 117.87C684.928 117.441 684.298 117.375 683.87 117.724L676.882 123.396C676.453 123.744 676.388 124.374 676.736 124.802C677.084 125.231 677.714 125.297 678.143 124.949L684.354 119.907L689.396 126.118C689.744 126.547 690.374 126.612 690.802 126.264C691.231 125.916 691.297 125.286 690.949 124.857L685.276 117.87ZM667.002 206.442C666.97 206.993 667.391 207.466 667.942 207.498L676.927 208.019C677.478 208.051 677.951 207.63 677.983 207.079C678.015 206.527 677.594 206.055 677.043 206.023L669.056 205.56L669.519 197.573C669.551 197.022 669.13 196.549 668.579 196.517C668.027 196.485 667.554 196.906 667.523 197.457L667.002 206.442ZM704 120.08L703 120.08L703 120.08L704 120.08ZM704.707 117.793C704.316 117.402 703.683 117.402 703.293 117.793L696.93 124.158C696.539 124.548 696.539 125.181 696.93 125.572C697.32 125.962 697.954 125.962 698.344 125.572L704 119.914L709.658 125.57C710.048 125.961 710.681 125.961 711.072 125.57C711.462 125.18 711.462 124.546 711.072 124.156L704.707 117.793ZM393.586 193.095C393.362 193.6 393.59 194.191 394.095 194.414L402.323 198.06C402.828 198.284 403.419 198.056 403.643 197.551C403.867 197.046 403.639 196.455 403.134 196.231L395.819 192.991L399.06 185.676C399.284 185.171 399.056 184.581 398.551 184.357C398.046 184.133 397.455 184.361 397.231 184.866L393.586 193.095ZM455.207 117.793C454.817 117.402 454.183 117.402 453.793 117.793L447.429 124.157C447.038 124.547 447.038 125.181 447.429 125.571C447.819 125.962 448.453 125.962 448.843 125.571L454.5 119.914L460.157 125.571C460.547 125.962 461.181 125.962 461.571 125.571C461.962 125.181 461.962 124.547 461.571 124.157L455.207 117.793ZM203.586 198.595C203.362 199.1 203.59 199.691 204.095 199.914L212.324 203.56C212.828 203.784 213.419 203.556 213.643 203.051C213.867 202.546 213.639 201.955 213.134 201.731L205.819 198.491L209.06 191.176C209.284 190.672 209.056 190.081 208.551 189.857C208.046 189.633 207.455 189.861 207.231 190.366L203.586 198.595ZM256.276 113.87C255.928 113.441 255.299 113.376 254.87 113.724L247.882 119.396C247.453 119.744 247.388 120.374 247.736 120.802C248.084 121.231 248.714 121.297 249.143 120.949L255.354 115.907L260.396 122.118C260.744 122.547 261.374 122.612 261.802 122.264C262.231 121.916 262.297 121.286 261.949 120.857L256.276 113.87ZM186.586 189.095C186.362 189.6 186.59 190.191 187.095 190.414L195.323 194.06C195.828 194.284 196.419 194.056 196.643 193.551C196.867 193.046 196.639 192.455 196.134 192.231L188.819 188.991L192.06 181.676C192.284 181.172 192.056 180.581 191.551 180.357C191.046 180.133 190.455 180.361 190.231 180.866L186.586 189.095ZM234.776 113.87C234.428 113.441 233.799 113.376 233.37 113.724L226.382 119.396C225.953 119.744 225.888 120.374 226.236 120.802C226.584 121.231 227.214 121.297 227.643 120.949L233.854 115.907L238.896 122.118C239.244 122.547 239.874 122.612 240.302 122.264C240.731 121.916 240.797 121.286 240.449 120.857L234.776 113.87ZM78.0857 275.095C77.862 275.6 78.09 276.191 78.5949 276.414L86.8235 280.06C87.3285 280.284 87.9192 280.056 88.1429 279.551C88.3666 279.046 88.1386 278.455 87.6337 278.231L80.3194 274.991L83.5599 267.676C83.7836 267.172 83.5556 266.581 83.0507 266.357C82.5457 266.133 81.955 266.361 81.7313 266.866L78.0857 275.095ZM162.973 222.769C162.845 222.232 162.306 221.9 161.769 222.027L153.012 224.105C152.475 224.232 152.143 224.771 152.27 225.309C152.398 225.846 152.937 226.178 153.474 226.051L161.258 224.204L163.105 231.988C163.232 232.525 163.771 232.857 164.309 232.73C164.846 232.602 165.178 232.063 165.051 231.526L162.973 222.769ZM120.086 315.595C119.862 316.1 120.09 316.691 120.595 316.914L128.824 320.56C129.328 320.784 129.919 320.556 130.143 320.051C130.367 319.546 130.139 318.955 129.634 318.731L122.319 315.491L125.56 308.176C125.784 307.672 125.556 307.081 125.051 306.857C124.546 306.633 123.955 306.861 123.731 307.366L120.086 315.595ZM179.873 248.012C179.603 247.53 178.994 247.358 178.512 247.627L170.656 252.019C170.174 252.288 170.002 252.898 170.271 253.38C170.541 253.862 171.15 254.034 171.632 253.765L178.615 249.861L182.519 256.844C182.788 257.326 183.398 257.498 183.88 257.229C184.362 256.959 184.534 256.35 184.265 255.868L179.873 248.012ZM329.086 311.595C328.862 312.1 329.09 312.691 329.595 312.914L337.823 316.56C338.328 316.784 338.919 316.556 339.143 316.051C339.367 315.546 339.139 314.955 338.634 314.731L331.319 311.491L334.56 304.176C334.784 303.672 334.556 303.081 334.051 302.857C333.546 302.633 332.955 302.861 332.731 303.366L329.086 311.595ZM382.776 237.87C382.428 237.441 381.799 237.376 381.37 237.724L374.382 243.396C373.953 243.744 373.888 244.374 374.236 244.802C374.584 245.231 375.214 245.297 375.643 244.949L381.854 239.907L386.896 246.118C387.244 246.547 387.874 246.612 388.302 246.264C388.731 245.916 388.797 245.286 388.449 244.857L382.776 237.87ZM316.094 270.077C315.86 270.578 316.077 271.173 316.577 271.406L324.733 275.212C325.233 275.446 325.828 275.229 326.062 274.729C326.295 274.228 326.079 273.633 325.579 273.4L318.329 270.017L321.712 262.767C321.946 262.267 321.729 261.672 321.229 261.438C320.728 261.205 320.133 261.421 319.9 261.921L316.094 270.077ZM366.932 228.136C366.731 227.622 366.151 227.368 365.636 227.568L357.252 230.84C356.738 231.041 356.483 231.621 356.684 232.135C356.885 232.65 357.465 232.904 357.979 232.703L365.432 229.795L368.34 237.248C368.541 237.762 369.121 238.017 369.635 237.816C370.15 237.615 370.404 237.035 370.203 236.521L366.932 228.136ZM410.5 222.5L410.72 223.476C451.127 214.384 476.837 185.337 491.671 150.391C506.497 115.46 510.508 74.5395 507.496 41.4095L506.5 41.5L505.504 41.5905C508.492 74.4605 504.503 115.04 489.83 149.609C475.163 184.163 449.873 212.616 410.281 221.524L410.5 222.5ZM664.5 222.5L664.72 223.476C705.198 214.368 725.529 185.237 734.966 150.26C744.39 115.329 742.998 74.429 739.996 41.4095L739 41.5L738.004 41.5905C741.003 74.571 742.361 115.171 733.035 149.739C723.721 184.263 703.803 212.632 664.281 221.524L664.5 222.5ZM410.5 206.5L410.86 207.433C425.338 201.845 440.228 189.322 451.992 173.407C463.761 157.483 472.472 138.068 474.495 118.603L473.5 118.5L472.505 118.397C470.528 137.432 461.989 156.516 450.383 172.218C438.772 187.928 424.162 200.155 410.14 205.567L410.5 206.5ZM557 318L557.306 318.952C562.544 317.268 567.542 315.779 572.312 314.364C577.078 312.95 581.621 311.609 585.931 310.226C594.548 307.46 602.289 304.511 609.138 300.421C622.91 292.196 632.916 279.448 639.467 254.756L638.5 254.5L637.533 254.244C631.084 278.552 621.34 290.804 608.112 298.704C601.461 302.676 593.89 305.571 585.319 308.321C581.035 309.696 576.516 311.03 571.743 312.447C566.974 313.862 561.956 315.357 556.694 317.048L557 318ZM550 272L550.052 272.999C569.206 272.004 580.421 271.756 589.673 268.183C599.001 264.58 606.269 257.639 617.773 243.635L617 243L616.227 242.365C604.731 256.361 597.749 262.92 588.952 266.317C580.079 269.744 569.294 269.996 549.948 271.001L550 272ZM647.5 191.5L647.876 192.427C666.556 184.854 675.069 176.055 679.317 164.148C681.421 158.251 682.461 151.638 683.229 144.141C683.613 140.39 683.931 136.399 684.276 132.156C684.622 127.91 684.996 123.404 685.495 118.603L684.5 118.5L683.505 118.397C683.004 123.221 682.628 127.747 682.283 131.994C681.936 136.245 681.621 140.212 681.24 143.937C680.476 151.393 679.454 157.812 677.433 163.476C673.431 174.695 665.444 183.146 647.124 190.573L647.5 191.5ZM668 206.5L668.665 207.247C686.723 191.167 695.868 179.015 700.45 165.98C705.017 152.984 705.003 139.209 705 120.08L704 120.08L703 120.08C703.003 139.304 702.995 152.707 698.563 165.317C694.144 177.888 685.286 189.769 667.335 205.753L668 206.5ZM704 120.08L705 120.08L705 118.5L704 118.5L703 118.5L703 120.08L704 120.08ZM394.5 193.5L394.86 194.433C423.523 183.37 455.5 157.109 455.5 118.5L454.5 118.5L453.5 118.5C453.5 155.891 422.477 181.63 394.14 192.567L394.5 193.5ZM204.5 199L204.86 199.933C233.875 188.734 252.478 153.261 256.495 114.603L255.5 114.5L254.505 114.397C250.522 152.739 232.125 187.266 204.14 198.067L204.5 199ZM187.5 189.5L187.86 190.433C216.858 179.241 230.975 153.289 234.995 114.603L234 114.5L233.005 114.397C229.025 152.711 215.142 177.759 187.14 188.567L187.5 189.5ZM79 275.5L79.3601 276.433C107.663 265.509 140.126 260.39 162.851 223.525L162 223L161.149 222.475C138.874 258.61 107.337 263.491 78.6399 274.567L79 275.5ZM121 316L121.36 316.933C135.59 311.441 146.79 306.876 156.149 297.39C165.511 287.901 172.944 273.585 179.962 248.772L179 248.5L178.038 248.228C171.056 272.915 163.739 286.849 154.726 295.985C145.71 305.124 134.91 309.559 120.64 315.067L121 316ZM330 312L330.36 312.933C359.24 301.786 378.959 277.445 382.995 238.603L382 238.5L381.005 238.397C377.041 276.555 357.76 300.214 329.64 311.067L330 312ZM317 270.5L317.342 271.44C331.047 266.456 340.341 263.03 347.742 257.224C355.184 251.386 360.641 243.209 366.916 228.902L366 228.5L365.084 228.098C358.859 242.291 353.566 250.114 346.508 255.651C339.409 261.22 330.453 264.544 316.658 269.56L317 270.5Z" fill="#ADB3BE"/>
<path d="M488.293 81.2929C487.902 81.6834 487.902 82.3166 488.293 82.7071L494.657 89.0711C495.047 89.4616 495.681 89.4616 496.071 89.0711C496.462 88.6805 496.462 88.0474 496.071 87.6569L490.414 82L496.071 76.3431C496.462 75.9526 496.462 75.3195 496.071 74.9289C495.681 74.5384 495.047 74.5384 494.657 74.9289L488.293 81.2929ZM651.707 82.7071C652.098 82.3166 652.098 81.6834 651.707 81.2929L645.343 74.9289C644.953 74.5384 644.319 74.5384 643.929 74.9289C643.538 75.3195 643.538 75.9526 643.929 76.3431L649.586 82L643.929 87.6569C643.538 88.0474 643.538 88.6805 643.929 89.0711C644.319 89.4616 644.953 89.4616 645.343 89.0711L651.707 82.7071ZM489 82V83H651V82V81H489V82Z" fill="#ADB3BE"/>
<path d="M329.293 276.293C328.902 276.683 328.902 277.317 329.293 277.707L335.657 284.071C336.047 284.462 336.681 284.462 337.071 284.071C337.462 283.681 337.462 283.047 337.071 282.657L331.414 277L337.071 271.343C337.462 270.953 337.462 270.319 337.071 269.929C336.681 269.538 336.047 269.538 335.657 269.929L329.293 276.293ZM497.707 277.707C498.098 277.317 498.098 276.683 497.707 276.293L491.343 269.929C490.953 269.538 490.319 269.538 489.929 269.929C489.538 270.319 489.538 270.953 489.929 271.343L495.586 277L489.929 282.657C489.538 283.047 489.538 283.681 489.929 284.071C490.319 284.462 490.953 284.462 491.343 284.071L497.707 277.707ZM330 277V278H497V277V276H330V277Z" fill="#ADB3BE"/>
<path d="M108.293 276.293C107.902 276.683 107.902 277.317 108.293 277.707L114.657 284.071C115.047 284.462 115.681 284.462 116.071 284.071C116.462 283.681 116.462 283.047 116.071 282.657L110.414 277L116.071 271.343C116.462 270.953 116.462 270.319 116.071 269.929C115.681 269.538 115.047 269.538 114.657 269.929L108.293 276.293ZM263.707 277.707C264.098 277.317 264.098 276.683 263.707 276.293L257.343 269.929C256.953 269.538 256.319 269.538 255.929 269.929C255.538 270.319 255.538 270.953 255.929 271.343L261.586 277L255.929 282.657C255.538 283.047 255.538 283.681 255.929 284.071C256.319 284.462 256.953 284.462 257.343 284.071L263.707 277.707ZM109 277V278H263V277V276H109V277Z" fill="#ADB3BE"/>
<path d="M329.293 324.293C328.902 324.683 328.902 325.317 329.293 325.707L335.657 332.071C336.047 332.462 336.681 332.462 337.071 332.071C337.462 331.681 337.462 331.047 337.071 330.657L331.414 325L337.071 319.343C337.462 318.953 337.462 318.319 337.071 317.929C336.681 317.538 336.047 317.538 335.657 317.929L329.293 324.293ZM498.707 325.707C499.098 325.317 499.098 324.683 498.707 324.293L492.343 317.929C491.953 317.538 491.319 317.538 490.929 317.929C490.538 318.319 490.538 318.953 490.929 319.343L496.586 325L490.929 330.657C490.538 331.047 490.538 331.681 490.929 332.071C491.319 332.462 491.953 332.462 492.343 332.071L498.707 325.707ZM330 325V326H498V325V324H330V325Z" fill="#ADB3BE"/>
<path d="M109.293 324.293C108.902 324.683 108.902 325.317 109.293 325.707L115.657 332.071C116.047 332.462 116.681 332.462 117.071 332.071C117.462 331.681 117.462 331.047 117.071 330.657L111.414 325L117.071 319.343C117.462 318.953 117.462 318.319 117.071 317.929C116.681 317.538 116.047 317.538 115.657 317.929L109.293 324.293ZM264.707 325.707C265.098 325.317 265.098 324.683 264.707 324.293L258.343 317.929C257.953 317.538 257.319 317.538 256.929 317.929C256.538 318.319 256.538 318.953 256.929 319.343L262.586 325L256.929 330.657C256.538 331.047 256.538 331.681 256.929 332.071C257.319 332.462 257.953 332.462 258.343 332.071L264.707 325.707ZM110 325V326H264V325V324H110V325Z" fill="#ADB3BE"/>
<path d="M277.293 81.2929C276.902 81.6834 276.902 82.3166 277.293 82.7071L283.657 89.0711C284.047 89.4616 284.681 89.4616 285.071 89.0711C285.462 88.6805 285.462 88.0474 285.071 87.6569L279.414 82L285.071 76.3431C285.462 75.9526 285.462 75.3195 285.071 74.9289C284.681 74.5384 284.047 74.5384 283.657 74.9289L277.293 81.2929ZM432.707 82.7071C433.098 82.3166 433.098 81.6834 432.707 81.2929L426.343 74.9289C425.953 74.5384 425.319 74.5384 424.929 74.9289C424.538 75.3195 424.538 75.9526 424.929 76.3431L430.586 82L424.929 87.6569C424.538 88.0474 424.538 88.6805 424.929 89.0711C425.319 89.4616 425.953 89.4616 426.343 89.0711L432.707 82.7071ZM278 82V83H432V82V81H278V82Z" fill="#ADB3BE"/>
<path d="M565.293 20.2929C564.902 20.6834 564.902 21.3166 565.293 21.7071L571.657 28.0711C572.047 28.4616 572.681 28.4616 573.071 28.0711C573.462 27.6805 573.462 27.0474 573.071 26.6569L567.414 21L573.071 15.3431C573.462 14.9526 573.462 14.3195 573.071 13.9289C572.681 13.5384 572.047 13.5384 571.657 13.9289L565.293 20.2929ZM692.707 21.7071C693.098 21.3166 693.098 20.6834 692.707 20.2929L686.343 13.9289C685.953 13.5384 685.319 13.5384 684.929 13.9289C684.538 14.3195 684.538 14.9526 684.929 15.3431L690.586 21L684.929 26.6569C684.538 27.0474 684.538 27.6805 684.929 28.0711C685.319 28.4616 685.953 28.4616 686.343 28.0711L692.707 21.7071ZM566 21V22H692V21V20H566V21Z" fill="#ADB3BE"/>
<path d="M357.293 20.2929C356.902 20.6834 356.902 21.3166 357.293 21.7071L363.657 28.0711C364.047 28.4616 364.681 28.4616 365.071 28.0711C365.462 27.6805 365.462 27.0474 365.071 26.6569L359.414 21L365.071 15.3431C365.462 14.9526 365.462 14.3195 365.071 13.9289C364.681 13.5384 364.047 13.5384 363.657 13.9289L357.293 20.2929ZM484.707 21.7071C485.098 21.3166 485.098 20.6834 484.707 20.2929L478.343 13.9289C477.953 13.5384 477.319 13.5384 476.929 13.9289C476.538 14.3195 476.538 14.9526 476.929 15.3431L482.586 21L476.929 26.6569C476.538 27.0474 476.538 27.6805 476.929 28.0711C477.319 28.4616 477.953 28.4616 478.343 28.0711L484.707 21.7071ZM358 21V22H484V21V20H358V21Z" fill="#ADB3BE"/>
<path d="M653 206.683C653 203.547 650.455 201 647.323 201H626.677C623.545 201 621 203.547 621 206.683V226.317C621 229.453 623.545 232 626.677 232H647.323C650.455 232 653 229.453 653 226.317V206.683ZM635.452 228.9H626.677C625.253 228.9 624.097 227.743 624.097 226.317V222.7H635.452V228.9ZM635.452 219.6H624.097V213.4H635.452V219.6ZM635.452 210.3H624.097V206.683C624.097 205.257 625.253 204.1 626.677 204.1H635.452V210.3ZM649.903 226.317C649.903 227.743 648.747 228.9 647.323 228.9H638.548V222.7H649.903V226.317ZM649.903 219.6H638.548V213.4H649.903V219.6ZM649.903 210.3H638.548V204.1H647.323C648.747 204.1 649.903 205.257 649.903 206.683V210.3Z" fill="#00C373"/>
<path d="M405 206.683C405 203.547 402.455 201 399.323 201H378.677C375.545 201 373 203.547 373 206.683V226.317C373 229.453 375.545 232 378.677 232H399.323C402.455 232 405 229.453 405 226.317V206.683ZM387.452 228.9H378.677C377.253 228.9 376.097 227.743 376.097 226.317V222.7H387.452V228.9ZM387.452 219.6H376.097V213.4H387.452V219.6ZM387.452 210.3H376.097V206.683C376.097 205.257 377.253 204.1 378.677 204.1H387.452V210.3ZM401.903 226.317C401.903 227.743 400.747 228.9 399.323 228.9H390.548V222.7H401.903V226.317ZM401.903 219.6H390.548V213.4H401.903V219.6ZM401.903 210.3H390.548V204.1H399.323C400.747 204.1 401.903 205.257 401.903 206.683V210.3Z" fill="#00C373"/>
<path d="M203 206.683C203 203.547 200.455 201 197.323 201H176.677C173.545 201 171 203.547 171 206.683V226.317C171 229.453 173.545 232 176.677 232H197.323C200.455 232 203 229.453 203 226.317V206.683ZM185.452 228.9H176.677C175.253 228.9 174.097 227.743 174.097 226.317V222.7H185.452V228.9ZM185.452 219.6H174.097V213.4H185.452V219.6ZM185.452 210.3H174.097V206.683C174.097 205.257 175.253 204.1 176.677 204.1H185.452V210.3ZM199.903 226.317C199.903 227.743 198.747 228.9 197.323 228.9H188.548V222.7H199.903V226.317ZM199.903 219.6H188.548V213.4H199.903V219.6ZM199.903 210.3H188.548V204.1H197.323C198.747 204.1 199.903 205.257 199.903 206.683V210.3Z" fill="#00C373"/>
<circle cx="521.717" cy="257.849" r="4.67925" fill="white" stroke="#ADB3BE" stroke-width="2.33962"/>
<circle cx="534.585" cy="277.151" r="4.67925" fill="white" stroke="#ADB3BE" stroke-width="2.33962"/>
<circle cx="508.849" cy="277.151" r="4.67925" fill="white" stroke="#ADB3BE" stroke-width="2.33962"/>
<line x1="511.97" y1="272.993" x2="518.989" y2="262.464" stroke="#ADB3BE" stroke-width="2.33962"/>
<line y1="-1.16981" x2="12.6534" y2="-1.16981" transform="matrix(-0.5547 -0.83205 -0.83205 0.5547 530.491 273.057)" stroke="#ADB3BE" stroke-width="2.33962"/>
<circle cx="291.717" cy="257.849" r="4.67925" fill="white" stroke="#ADB3BE" stroke-width="2.33962"/>
<circle cx="304.585" cy="277.151" r="4.67925" fill="white" stroke="#ADB3BE" stroke-width="2.33962"/>
<circle cx="278.849" cy="277.151" r="4.67925" fill="white" stroke="#ADB3BE" stroke-width="2.33962"/>
<line x1="281.97" y1="272.993" x2="288.989" y2="262.464" stroke="#ADB3BE" stroke-width="2.33962"/>
<line y1="-1.16981" x2="12.6534" y2="-1.16981" transform="matrix(-0.5547 -0.83205 -0.83205 0.5547 300.491 273.057)" stroke="#ADB3BE" stroke-width="2.33962"/>
<circle cx="304.717" cy="315.849" r="4.67925" fill="white" stroke="#ADB3BE" stroke-width="2.33962"/>
<circle cx="317.585" cy="335.151" r="4.67925" fill="white" stroke="#ADB3BE" stroke-width="2.33962"/>
<circle cx="291.849" cy="335.151" r="4.67925" fill="white" stroke="#ADB3BE" stroke-width="2.33962"/>
<line x1="294.97" y1="330.993" x2="301.989" y2="320.464" stroke="#ADB3BE" stroke-width="2.33962"/>
<line y1="-1.16981" x2="12.6534" y2="-1.16981" transform="matrix(-0.5547 -0.83205 -0.83205 0.5547 313.491 331.057)" stroke="#ADB3BE" stroke-width="2.33962"/>
<circle cx="528.717" cy="311.849" r="4.67925" fill="white" stroke="#ADB3BE" stroke-width="2.33962"/>
<circle cx="541.585" cy="331.151" r="4.67925" fill="white" stroke="#ADB3BE" stroke-width="2.33962"/>
<circle cx="515.849" cy="331.151" r="4.67925" fill="white" stroke="#ADB3BE" stroke-width="2.33962"/>
<line x1="518.97" y1="326.993" x2="525.989" y2="316.464" stroke="#ADB3BE" stroke-width="2.33962"/>
<line y1="-1.16981" x2="12.6534" y2="-1.16981" transform="matrix(-0.5547 -0.83205 -0.83205 0.5547 537.491 327.057)" stroke="#ADB3BE" stroke-width="2.33962"/>
<circle cx="84.717" cy="311.849" r="4.67925" fill="white" stroke="#ADB3BE" stroke-width="2.33962"/>
<circle cx="97.5849" cy="331.151" r="4.67925" fill="white" stroke="#ADB3BE" stroke-width="2.33962"/>
<circle cx="71.8491" cy="331.151" r="4.67925" fill="white" stroke="#ADB3BE" stroke-width="2.33962"/>
<line x1="74.97" y1="326.993" x2="81.9889" y2="316.464" stroke="#ADB3BE" stroke-width="2.33962"/>
<line y1="-1.16981" x2="12.6534" y2="-1.16981" transform="matrix(-0.5547 -0.83205 -0.83205 0.5547 93.4906 327.057)" stroke="#ADB3BE" stroke-width="2.33962"/>
<circle cx="54.717" cy="257.849" r="4.67925" fill="white" stroke="#ADB3BE" stroke-width="2.33962"/>
<circle cx="67.5849" cy="277.151" r="4.67925" fill="white" stroke="#ADB3BE" stroke-width="2.33962"/>
<circle cx="41.8491" cy="277.151" r="4.67925" fill="white" stroke="#ADB3BE" stroke-width="2.33962"/>
<line x1="44.97" y1="272.993" x2="51.9889" y2="262.464" stroke="#ADB3BE" stroke-width="2.33962"/>
<line y1="-1.16981" x2="12.6534" y2="-1.16981" transform="matrix(-0.5547 -0.83205 -0.83205 0.5547 63.4906 273.057)" stroke="#ADB3BE" stroke-width="2.33962"/>
<path d="M210.01 105.264C208.402 105.335 206.938 104.988 205.657 103.98C200.857 100.197 203.027 92.9517 209.08 92.2928C215.095 91.9444 218.415 99.3591 213.832 103.552C212.645 104.636 211.563 105.019 210.01 105.265V105.264Z" fill="#ADB3BE"/>
<path d="M215.309 117.984L200.675 117.983C199.613 117.984 197.978 118.292 197.55 117.01C197.427 116.643 197.475 116.184 197.494 115.803C197.709 111.395 199.874 107.895 203.843 105.831C204.216 105.636 204.599 105.42 204.998 105.284C205.09 105.263 205.407 105.51 205.498 105.566C208.165 107.227 211.289 106.832 213.934 105.361C215.452 105.834 217.172 107.011 218.318 108.137C220.506 110.288 221.514 113.231 221.534 116.263C221.547 118.15 220.089 117.984 218.709 117.983L215.309 117.984Z" fill="#ADB3BE"/>
<path d="M276.01 105.264C274.402 105.335 272.938 104.988 271.657 103.98C266.857 100.197 269.027 92.9517 275.08 92.2928C281.095 91.9444 284.415 99.3591 279.832 103.552C278.645 104.636 277.563 105.019 276.01 105.265V105.264Z" fill="#ADB3BE"/>
<path d="M281.309 117.984L266.675 117.983C265.613 117.984 263.978 118.292 263.55 117.01C263.427 116.643 263.475 116.184 263.494 115.803C263.709 111.395 265.874 107.895 269.843 105.831C270.216 105.636 270.599 105.42 270.998 105.284C271.09 105.263 271.407 105.51 271.498 105.566C274.165 107.227 277.289 106.832 279.934 105.361C281.452 105.834 283.172 107.011 284.318 108.137C286.506 110.288 287.514 113.231 287.534 116.263C287.547 118.15 286.089 117.984 284.709 117.983L281.309 117.984Z" fill="#ADB3BE"/>
<path d="M436.01 105.264C434.402 105.335 432.938 104.988 431.657 103.98C426.857 100.197 429.027 92.9517 435.08 92.2928C441.095 91.9444 444.415 99.3591 439.832 103.552C438.645 104.636 437.563 105.019 436.01 105.265V105.264Z" fill="#ADB3BE"/>
<path d="M441.309 117.984L426.675 117.983C425.613 117.984 423.978 118.292 423.55 117.01C423.427 116.643 423.475 116.184 423.494 115.803C423.709 111.395 425.874 107.895 429.843 105.831C430.216 105.636 430.599 105.42 430.998 105.284C431.09 105.263 431.407 105.51 431.498 105.566C434.165 107.227 437.289 106.832 439.934 105.361C441.452 105.834 443.172 107.011 444.318 108.137C446.506 110.288 447.514 113.231 447.534 116.263C447.547 118.15 446.089 117.984 444.709 117.983L441.309 117.984Z" fill="#ADB3BE"/>
<path d="M50.0105 317.264C48.4018 317.335 46.9377 316.988 45.6571 315.979C40.857 312.197 43.0267 304.952 49.0796 304.293C55.0952 303.944 58.4147 311.359 53.832 315.552C52.6454 316.636 51.5628 317.019 50.0105 317.265V317.264Z" fill="#ADB3BE"/>
<path d="M55.3087 329.984L40.6749 329.983C39.6126 329.984 37.978 330.292 37.5503 329.01C37.4274 328.643 37.4751 328.184 37.4939 327.803C37.7093 323.395 39.8743 319.895 43.8431 317.831C44.216 317.636 44.599 317.42 44.9979 317.284C45.0904 317.263 45.407 317.51 45.498 317.566C48.1646 319.227 51.2891 318.832 53.9343 317.361C55.4519 317.834 57.1718 319.012 58.3182 320.137C60.5064 322.288 61.5138 325.231 61.5341 328.263C61.5471 330.151 60.0888 329.984 58.7085 329.983L55.3087 329.984Z" fill="#ADB3BE"/>
<path d="M19.0105 264.264C17.4018 264.335 15.9377 263.988 14.6571 262.979C9.85698 259.197 12.0267 251.952 18.0796 251.293C24.0952 250.944 27.4147 258.359 22.832 262.552C21.6454 263.636 20.5628 264.019 19.0105 264.265V264.264Z" fill="#ADB3BE"/>
<path d="M24.3087 276.984L9.67493 276.983C8.61263 276.984 6.97797 277.292 6.55028 276.01C6.42743 275.643 6.47513 275.184 6.49392 274.803C6.70927 270.395 8.87434 266.895 12.8431 264.831C13.216 264.636 13.599 264.42 13.9979 264.284C14.0904 264.263 14.407 264.51 14.498 264.566C17.1646 266.227 20.2891 265.832 22.9343 264.361C24.4519 264.834 26.1718 266.012 27.3182 267.137C29.5064 269.288 30.5138 272.231 30.5341 275.263C30.5471 277.151 29.0888 276.984 27.7085 276.983L24.3087 276.984Z" fill="#ADB3BE"/>
<path d="M495.01 105.264C493.402 105.335 491.938 104.988 490.657 103.98C485.857 100.197 488.027 92.9517 494.08 92.2928C500.095 91.9444 503.415 99.3591 498.832 103.552C497.645 104.636 496.563 105.019 495.01 105.265V105.264Z" fill="#ADB3BE"/>
<path d="M500.309 117.984L485.675 117.983C484.613 117.984 482.978 118.292 482.55 117.01C482.427 116.643 482.475 116.184 482.494 115.803C482.709 111.395 484.874 107.895 488.843 105.831C489.216 105.636 489.599 105.42 489.998 105.284C490.09 105.263 490.407 105.51 490.498 105.566C493.165 107.227 496.289 106.832 498.934 105.361C500.452 105.834 502.172 107.011 503.318 108.137C505.506 110.288 506.514 113.231 506.534 116.263C506.547 118.15 505.089 117.984 503.709 117.983L500.309 117.984Z" fill="#ADB3BE"/>
<path d="M736.01 105.264C734.402 105.335 732.938 104.988 731.657 103.98C726.857 100.197 729.027 92.9517 735.08 92.2928C741.095 91.9444 744.415 99.3591 739.832 103.552C738.645 104.636 737.563 105.019 736.01 105.265V105.264Z" fill="#ADB3BE"/>
<path d="M741.309 117.984L726.675 117.983C725.613 117.984 723.978 118.292 723.55 117.01C723.427 116.643 723.475 116.184 723.494 115.803C723.709 111.395 725.874 107.895 729.843 105.831C730.216 105.636 730.599 105.42 730.998 105.284C731.09 105.263 731.407 105.51 731.498 105.566C734.165 107.227 737.289 106.832 739.934 105.361C741.452 105.834 743.172 107.011 744.318 108.137C746.506 110.288 747.514 113.231 747.534 116.263C747.547 118.15 746.089 117.984 744.709 117.983L741.309 117.984Z" fill="#ADB3BE"/>
<path d="M770.01 18.2644C768.402 18.3352 766.938 17.9884 765.657 16.9795C760.857 13.1969 763.027 5.95167 769.08 5.29276C775.095 4.94444 778.415 12.3591 773.832 16.5519C772.645 17.6358 771.563 18.0189 770.01 18.2646V18.2644Z" fill="#ADB3BE"/>
<path d="M775.309 30.9844L760.675 30.983C759.613 30.9844 757.978 31.2922 757.55 30.0103C757.427 29.6432 757.475 29.1835 757.494 28.8034C757.709 24.3952 759.874 20.8947 763.843 18.8307C764.216 18.6356 764.599 18.4202 764.998 18.2843C765.09 18.2627 765.407 18.5098 765.498 18.5662C768.165 20.2268 771.289 19.8322 773.934 18.3609C775.452 18.8335 777.172 20.0115 778.318 21.1374C780.506 23.288 781.514 26.2307 781.534 29.2629C781.547 31.1505 780.089 30.9843 778.709 30.9828L775.309 30.9844Z" fill="#ADB3BE"/>
<path d="M642.01 105.264C640.402 105.335 638.938 104.988 637.657 103.98C632.857 100.197 635.027 92.9517 641.08 92.2928C647.095 91.9444 650.415 99.3591 645.832 103.552C644.645 104.636 643.563 105.019 642.01 105.265V105.264Z" fill="#ADB3BE"/>
<path d="M647.309 117.984L632.675 117.983C631.613 117.984 629.978 118.292 629.55 117.01C629.427 116.643 629.475 116.184 629.494 115.803C629.709 111.395 631.874 107.895 635.843 105.831C636.216 105.636 636.599 105.42 636.998 105.284C637.09 105.263 637.407 105.51 637.498 105.566C640.165 107.227 643.289 106.832 645.934 105.361C647.452 105.834 649.172 107.011 650.318 108.137C652.506 110.288 653.514 113.231 653.534 116.263C653.547 118.15 652.089 117.984 650.709 117.983L647.309 117.984Z" fill="#ADB3BE"/>
<path d="M548.01 18.2644C546.402 18.3352 544.938 17.9884 543.657 16.9795C538.857 13.1969 541.027 5.95167 547.08 5.29276C553.095 4.94444 556.415 12.3591 551.832 16.5519C550.645 17.6358 549.563 18.0189 548.01 18.2646V18.2644Z" fill="#ADB3BE"/>
<path d="M553.309 30.9844L538.675 30.983C537.613 30.9844 535.978 31.2922 535.55 30.0103C535.427 29.6432 535.475 29.1835 535.494 28.8034C535.709 24.3952 537.874 20.8947 541.843 18.8307C542.216 18.6356 542.599 18.4202 542.998 18.2843C543.09 18.2627 543.407 18.5098 543.498 18.5662C546.165 20.2268 549.289 19.8322 551.934 18.3609C553.452 18.8335 555.172 20.0115 556.318 21.1374C558.506 23.288 559.514 26.2307 559.534 29.2629C559.547 31.1505 558.089 30.9843 556.709 30.9828L553.309 30.9844Z" fill="#ADB3BE"/>
<path d="M340.01 18.2644C338.402 18.3352 336.938 17.9884 335.657 16.9795C330.857 13.1969 333.027 5.95167 339.08 5.29276C345.095 4.94444 348.415 12.3591 343.832 16.5519C342.645 17.6358 341.563 18.0189 340.01 18.2646V18.2644Z" fill="#ADB3BE"/>
<path d="M345.309 30.9844L330.675 30.983C329.613 30.9844 327.978 31.2922 327.55 30.0103C327.427 29.6432 327.475 29.1835 327.494 28.8034C327.709 24.3952 329.874 20.8947 333.843 18.8307C334.216 18.6356 334.599 18.4202 334.998 18.2843C335.09 18.2627 335.407 18.5098 335.498 18.5662C338.165 20.2268 341.289 19.8322 343.934 18.3609C345.452 18.8335 347.172 20.0115 348.318 21.1374C350.506 23.288 351.514 26.2307 351.534 29.2629C351.547 31.1505 350.089 30.9843 348.709 30.9828L345.309 30.9844Z" fill="#ADB3BE"/>
<path d="M683.762 67.7461H707.254C708.919 67.7461 710.269 69.0962 710.27 70.7617V101.238C710.269 102.904 708.919 104.254 707.254 104.254H683.762C682.096 104.254 680.746 102.904 680.746 101.238V70.7617C680.746 69.0962 682.096 67.7462 683.762 67.7461Z" stroke="#4D6EB9" stroke-width="3.49206"/>
<line x1="687.889" y1="94.7302" x2="703.286" y2="94.7302" stroke="#4D6EB9" stroke-width="3.1746" stroke-linecap="round"/>
<line x1="687.889" y1="86.3175" x2="703.286" y2="86.3175" stroke="#4D6EB9" stroke-width="3.1746" stroke-linecap="round"/>
<line x1="687.889" y1="78.2222" x2="703.286" y2="78.2222" stroke="#4D6EB9" stroke-width="3.1746" stroke-linecap="round"/>
<path d="M451.762 60.7461H475.254C476.919 60.7461 478.269 62.0962 478.27 63.7617V94.2383C478.269 95.9038 476.919 97.2539 475.254 97.2539H451.762C450.096 97.2538 448.746 95.9038 448.746 94.2383V63.7617C448.746 62.0962 450.096 60.7462 451.762 60.7461Z" stroke="#4D6EB9" stroke-width="3.49206"/>
<line x1="455.889" y1="87.7302" x2="471.286" y2="87.7302" stroke="#4D6EB9" stroke-width="3.1746" stroke-linecap="round"/>
<line x1="455.889" y1="79.3175" x2="471.286" y2="79.3175" stroke="#4D6EB9" stroke-width="3.1746" stroke-linecap="round"/>
<line x1="455.889" y1="71.2222" x2="471.286" y2="71.2222" stroke="#4D6EB9" stroke-width="3.1746" stroke-linecap="round"/>
<path d="M234.762 60.7461H258.254C259.919 60.7461 261.269 62.0962 261.27 63.7617V94.2383C261.269 95.9038 259.919 97.2539 258.254 97.2539H234.762C233.096 97.2538 231.746 95.9038 231.746 94.2383V63.7617C231.746 62.0962 233.096 60.7462 234.762 60.7461Z" stroke="#4D6EB9" stroke-width="3.49206"/>
<line x1="238.889" y1="87.7302" x2="254.286" y2="87.7302" stroke="#4D6EB9" stroke-width="3.1746" stroke-linecap="round"/>
<line x1="238.889" y1="79.3175" x2="254.286" y2="79.3175" stroke="#4D6EB9" stroke-width="3.1746" stroke-linecap="round"/>
<line x1="238.889" y1="71.2222" x2="254.286" y2="71.2222" stroke="#4D6EB9" stroke-width="3.1746" stroke-linecap="round"/>
<rect x="701.074" y="3.07381" width="46.7214" height="30.8524" fill="white"/>
<rect x="701.074" y="3.07381" width="46.7214" height="30.8524" stroke="#FF866B" stroke-width="0.147619"/>
<rect x="701.074" y="3.07381" width="46.7214" height="30.8524" stroke="#FF866B" stroke-width="0.147619"/>
<path d="M711.407 4.47656H744.179C745.401 4.47657 746.392 5.46754 746.392 6.69043V25.4385C746.392 26.6612 745.401 27.6523 744.179 27.6523H711.407C710.184 27.6523 709.193 26.6612 709.193 25.4385V6.69043C709.193 5.46755 710.184 4.47659 711.407 4.47656Z" fill="white" stroke="#FF7E62" stroke-width="2.95238"/>
<path d="M704.69 9.34799H737.462C738.685 9.348 739.676 10.339 739.676 11.5619V30.3099C739.676 31.5326 738.685 32.5238 737.462 32.5238H704.69C703.468 32.5237 702.477 31.5326 702.477 30.3099V11.5619C702.477 10.339 703.468 9.34802 704.69 9.34799Z" fill="white" stroke="#FF7E62" stroke-width="2.95238"/>
<path d="M732.729 18.7491H720.979C720.513 18.7491 720.082 18.5002 719.849 18.0964C719.615 17.6924 719.615 17.1948 719.849 16.7908C720.082 16.3869 720.513 16.1381 720.979 16.1381H732.729C733.195 16.1381 733.626 16.387 733.86 16.7908C734.093 17.1948 734.093 17.6924 733.86 18.0964C733.626 18.5003 733.195 18.7491 732.729 18.7491Z" fill="#FF7E62"/>
<circle cx="711.998" cy="21.0095" r="5.16667" fill="#FF7E62"/>
<rect x="488.074" y="3.07381" width="46.7214" height="30.8524" fill="white"/>
<rect x="488.074" y="3.07381" width="46.7214" height="30.8524" stroke="#FF866B" stroke-width="0.147619"/>
<rect x="488.074" y="3.07381" width="46.7214" height="30.8524" stroke="#FF866B" stroke-width="0.147619"/>
<path d="M498.407 4.47656H531.179C532.401 4.47657 533.392 5.46754 533.392 6.69043V25.4385C533.392 26.6612 532.401 27.6523 531.179 27.6523H498.407C497.184 27.6523 496.193 26.6612 496.193 25.4385V6.69043C496.193 5.46755 497.184 4.47659 498.407 4.47656Z" fill="white" stroke="#FF7E62" stroke-width="2.95238"/>
<path d="M491.69 9.34799H524.462C525.685 9.348 526.676 10.339 526.676 11.5619V30.3099C526.676 31.5326 525.685 32.5238 524.462 32.5238H491.69C490.468 32.5237 489.477 31.5326 489.477 30.3099V11.5619C489.477 10.339 490.468 9.34802 491.69 9.34799Z" fill="white" stroke="#FF7E62" stroke-width="2.95238"/>
<path d="M519.729 18.7491H507.979C507.513 18.7491 507.082 18.5002 506.849 18.0964C506.615 17.6924 506.615 17.1948 506.849 16.7908C507.082 16.3869 507.513 16.1381 507.979 16.1381H519.729C520.195 16.1381 520.626 16.387 520.86 16.7908C521.093 17.1948 521.093 17.6924 520.86 18.0964C520.626 18.5003 520.195 18.7491 519.729 18.7491Z" fill="#FF7E62"/>
<circle cx="498.998" cy="21.0095" r="5.16667" fill="#FF7E62"/>
<rect x="278.074" y="3.07381" width="46.7214" height="30.8524" fill="white"/>
<rect x="278.074" y="3.07381" width="46.7214" height="30.8524" stroke="#FF866B" stroke-width="0.147619"/>
<rect x="278.074" y="3.07381" width="46.7214" height="30.8524" stroke="#FF866B" stroke-width="0.147619"/>
<path d="M288.407 4.47656H321.179C322.401 4.47657 323.392 5.46754 323.392 6.69043V25.4385C323.392 26.6612 322.401 27.6523 321.179 27.6523H288.407C287.184 27.6523 286.193 26.6612 286.193 25.4385V6.69043C286.193 5.46755 287.184 4.47659 288.407 4.47656Z" fill="white" stroke="#FF7E62" stroke-width="2.95238"/>
<path d="M281.69 9.34799H314.462C315.685 9.348 316.676 10.339 316.676 11.5619V30.3099C316.676 31.5326 315.685 32.5238 314.462 32.5238H281.69C280.468 32.5237 279.477 31.5326 279.477 30.3099V11.5619C279.477 10.339 280.468 9.34802 281.69 9.34799Z" fill="white" stroke="#FF7E62" stroke-width="2.95238"/>
<path d="M309.729 18.7491H297.979C297.513 18.7491 297.082 18.5002 296.849 18.0964C296.615 17.6924 296.615 17.1948 296.849 16.7908C297.082 16.3869 297.513 16.1381 297.979 16.1381H309.729C310.195 16.1381 310.626 16.387 310.86 16.7908C311.093 17.1948 311.093 17.6924 310.86 18.0964C310.626 18.5003 310.195 18.7491 309.729 18.7491Z" fill="#FF7E62"/>
<circle cx="288.998" cy="21.0095" r="5.16667" fill="#FF7E62"/>
</svg>
