<svg width="788" height="341" viewBox="0 0 788 341" fill="none" xmlns="http://www.w3.org/2000/svg"><defs><marker id="ah" viewBox="0 0 10 10" refX="8.2" refY="5" markerWidth="6.2" markerHeight="6.2" orient="auto-start-reverse"><path d="M1.5 1.6 L9 5 L1.5 8.4 Z" fill="#ADB3BE"></path></marker></defs>
<path d="M489 82 C557.04 82 582.96 82 651 82" fill="none" stroke="#ADB3BE" stroke-width="1.7" marker-start="url(#ah)" marker-end="url(#ah)"></path>
<path d="M330 277 C400.14 277 426.86 277 497 277" fill="none" stroke="#ADB3BE" stroke-width="1.7" marker-start="url(#ah)" marker-end="url(#ah)"></path>
<path d="M109 277 C173.68 277 198.32 277 263 277" fill="none" stroke="#ADB3BE" stroke-width="1.7" marker-start="url(#ah)" marker-end="url(#ah)"></path>
<path d="M330 325 C400.56 325 427.44 325 498 325" fill="none" stroke="#ADB3BE" stroke-width="1.7" marker-start="url(#ah)" marker-end="url(#ah)"></path>
<path d="M110 325 C174.68 325 199.32 325 264 325" fill="none" stroke="#ADB3BE" stroke-width="1.7" marker-start="url(#ah)" marker-end="url(#ah)"></path>
<path d="M278 82 C342.68 82 367.32 82 432 82" fill="none" stroke="#ADB3BE" stroke-width="1.7" marker-start="url(#ah)" marker-end="url(#ah)"></path>
<path d="M566 21 C618.92 21 639.08 21 692 21" fill="none" stroke="#ADB3BE" stroke-width="1.7" marker-start="url(#ah)" marker-end="url(#ah)"></path>
<path d="M358 21 C410.92 21 431.08 21 484 21" fill="none" stroke="#ADB3BE" stroke-width="1.7" marker-start="url(#ah)" marker-end="url(#ah)"></path>
<path d="M410.5 222.5 C410.5 132.0 507.5 132.0 507.5 41.4" fill="none" stroke="#ADB3BE" stroke-width="1.7" marker-end="url(#ah)"></path>
<path d="M664.5 222.5 C664.5 132.0 740.0 132.0 740.0 41.4" fill="none" stroke="#ADB3BE" stroke-width="1.7" marker-end="url(#ah)"></path>
<path d="M410.5 206.5 C410.5 162.6 474.5 162.6 474.5 118.6" fill="none" stroke="#ADB3BE" stroke-width="1.7" marker-end="url(#ah)"></path>
<path d="M557.0 318.0 C598.2 318.0 598.2 254.8 639.5 254.8" fill="none" stroke="#ADB3BE" stroke-width="1.7" marker-end="url(#ah)"></path>
<path d="M550.0 272.0 C583.9 272.0 583.9 243.6 617.8 243.6" fill="none" stroke="#ADB3BE" stroke-width="1.7" marker-end="url(#ah)"></path>
<path d="M647.5 191.5 C647.5 155.1 685.5 155.1 685.5 118.6" fill="none" stroke="#ADB3BE" stroke-width="1.7" marker-end="url(#ah)"></path>
<path d="M668.0 206.5 C668.0 163.3 705.0 163.3 705.0 120.1" fill="none" stroke="#ADB3BE" stroke-width="1.7" marker-end="url(#ah)"></path>
<path d="M394.5 193.5 C394.5 156.0 455.5 156.0 455.5 118.5" fill="none" stroke="#ADB3BE" stroke-width="1.7" marker-end="url(#ah)"></path>
<path d="M204.5 199.0 C204.5 156.8 256.5 156.8 256.5 114.6" fill="none" stroke="#ADB3BE" stroke-width="1.7" marker-end="url(#ah)"></path>
<path d="M187.5 189.5 C187.5 152.1 235.0 152.1 235.0 114.6" fill="none" stroke="#ADB3BE" stroke-width="1.7" marker-end="url(#ah)"></path>
<path d="M79.0 275.5 C120.9 275.5 120.9 223.5 162.9 223.5" fill="none" stroke="#ADB3BE" stroke-width="1.7" marker-end="url(#ah)"></path>
<path d="M121.0 316.0 C121.0 282.4 180.0 282.4 180.0 248.8" fill="none" stroke="#ADB3BE" stroke-width="1.7" marker-end="url(#ah)"></path>
<path d="M330.0 312.0 C330.0 275.3 383.0 275.3 383.0 238.6" fill="none" stroke="#ADB3BE" stroke-width="1.7" marker-end="url(#ah)"></path>
<path d="M317.0 270.5 C347.0 270.5 336.9 228.9 366.9 228.9" fill="none" stroke="#ADB3BE" stroke-width="1.7" marker-end="url(#ah)"></path>
<path d="M220.5 213.5 C220.5 125.2 298.5 125.2 298.5 36.9" fill="none" stroke="#ADB3BE" stroke-width="1.7" marker-end="url(#ah)"></path>
<path d="M653 206.683C653 203.547 650.455 201 647.323 201H626.677C623.545 201 621 203.547 621 206.683V226.317C621 229.453 623.545 232 626.677 232H647.323C650.455 232 653 229.453 653 226.317V206.683ZM635.452 228.9H626.677C625.253 228.9 624.097 227.743 624.097 226.317V222.7H635.452V228.9ZM635.452 219.6H624.097V213.4H635.452V219.6ZM635.452 210.3H624.097V206.683C624.097 205.257 625.253 204.1 626.677 204.1H635.452V210.3ZM649.903 226.317C649.903 227.743 648.747 228.9 647.323 228.9H638.548V222.7H649.903V226.317ZM649.903 219.6H638.548V213.4H649.903V219.6ZM649.903 210.3H638.548V204.1H647.323C648.747 204.1 649.903 205.257 649.903 206.683V210.3Z" fill="#00C373"></path>
<path d="M405 206.683C405 203.547 402.455 201 399.323 201H378.677C375.545 201 373 203.547 373 206.683V226.317C373 229.453 375.545 232 378.677 232H399.323C402.455 232 405 229.453 405 226.317V206.683ZM387.452 228.9H378.677C377.253 228.9 376.097 227.743 376.097 226.317V222.7H387.452V228.9ZM387.452 219.6H376.097V213.4H387.452V219.6ZM387.452 210.3H376.097V206.683C376.097 205.257 377.253 204.1 378.677 204.1H387.452V210.3ZM401.903 226.317C401.903 227.743 400.747 228.9 399.323 228.9H390.548V222.7H401.903V226.317ZM401.903 219.6H390.548V213.4H401.903V219.6ZM401.903 210.3H390.548V204.1H399.323C400.747 204.1 401.903 205.257 401.903 206.683V210.3Z" fill="#00C373"></path>
<path d="M203 206.683C203 203.547 200.455 201 197.323 201H176.677C173.545 201 171 203.547 171 206.683V226.317C171 229.453 173.545 232 176.677 232H197.323C200.455 232 203 229.453 203 226.317V206.683ZM185.452 228.9H176.677C175.253 228.9 174.097 227.743 174.097 226.317V222.7H185.452V228.9ZM185.452 219.6H174.097V213.4H185.452V219.6ZM185.452 210.3H174.097V206.683C174.097 205.257 175.253 204.1 176.677 204.1H185.452V210.3ZM199.903 226.317C199.903 227.743 198.747 228.9 197.323 228.9H188.548V222.7H199.903V226.317ZM199.903 219.6H188.548V213.4H199.903V219.6ZM199.903 210.3H188.548V204.1H197.323C198.747 204.1 199.903 205.257 199.903 206.683V210.3Z" fill="#00C373"></path>
<circle cx="521.717" cy="257.849" r="4.67925" fill="white" stroke="#ADB3BE" stroke-width="2.33962"></circle>
<circle cx="534.585" cy="277.151" r="4.67925" fill="white" stroke="#ADB3BE" stroke-width="2.33962"></circle>
<circle cx="508.849" cy="277.151" r="4.67925" fill="white" stroke="#ADB3BE" stroke-width="2.33962"></circle>
<line x1="511.97" y1="272.993" x2="518.989" y2="262.464" stroke="#ADB3BE" stroke-width="2.33962"></line>
<line y1="-1.16981" x2="12.6534" y2="-1.16981" transform="matrix(-0.5547 -0.83205 -0.83205 0.5547 530.491 273.057)" stroke="#ADB3BE" stroke-width="2.33962"></line>
<circle cx="291.717" cy="257.849" r="4.67925" fill="white" stroke="#ADB3BE" stroke-width="2.33962"></circle>
<circle cx="304.585" cy="277.151" r="4.67925" fill="white" stroke="#ADB3BE" stroke-width="2.33962"></circle>
<circle cx="278.849" cy="277.151" r="4.67925" fill="white" stroke="#ADB3BE" stroke-width="2.33962"></circle>
<line x1="281.97" y1="272.993" x2="288.989" y2="262.464" stroke="#ADB3BE" stroke-width="2.33962"></line>
<line y1="-1.16981" x2="12.6534" y2="-1.16981" transform="matrix(-0.5547 -0.83205 -0.83205 0.5547 300.491 273.057)" stroke="#ADB3BE" stroke-width="2.33962"></line>
<circle cx="304.717" cy="315.849" r="4.67925" fill="white" stroke="#ADB3BE" stroke-width="2.33962"></circle>
<circle cx="317.585" cy="335.151" r="4.67925" fill="white" stroke="#ADB3BE" stroke-width="2.33962"></circle>
<circle cx="291.849" cy="335.151" r="4.67925" fill="white" stroke="#ADB3BE" stroke-width="2.33962"></circle>
<line x1="294.97" y1="330.993" x2="301.989" y2="320.464" stroke="#ADB3BE" stroke-width="2.33962"></line>
<line y1="-1.16981" x2="12.6534" y2="-1.16981" transform="matrix(-0.5547 -0.83205 -0.83205 0.5547 313.491 331.057)" stroke="#ADB3BE" stroke-width="2.33962"></line>
<circle cx="528.717" cy="311.849" r="4.67925" fill="white" stroke="#ADB3BE" stroke-width="2.33962"></circle>
<circle cx="541.585" cy="331.151" r="4.67925" fill="white" stroke="#ADB3BE" stroke-width="2.33962"></circle>
<circle cx="515.849" cy="331.151" r="4.67925" fill="white" stroke="#ADB3BE" stroke-width="2.33962"></circle>
<line x1="518.97" y1="326.993" x2="525.989" y2="316.464" stroke="#ADB3BE" stroke-width="2.33962"></line>
<line y1="-1.16981" x2="12.6534" y2="-1.16981" transform="matrix(-0.5547 -0.83205 -0.83205 0.5547 537.491 327.057)" stroke="#ADB3BE" stroke-width="2.33962"></line>
<circle cx="84.717" cy="311.849" r="4.67925" fill="white" stroke="#ADB3BE" stroke-width="2.33962"></circle>
<circle cx="97.5849" cy="331.151" r="4.67925" fill="white" stroke="#ADB3BE" stroke-width="2.33962"></circle>
<circle cx="71.8491" cy="331.151" r="4.67925" fill="white" stroke="#ADB3BE" stroke-width="2.33962"></circle>
<line x1="74.97" y1="326.993" x2="81.9889" y2="316.464" stroke="#ADB3BE" stroke-width="2.33962"></line>
<line y1="-1.16981" x2="12.6534" y2="-1.16981" transform="matrix(-0.5547 -0.83205 -0.83205 0.5547 93.4906 327.057)" stroke="#ADB3BE" stroke-width="2.33962"></line>
<circle cx="54.717" cy="257.849" r="4.67925" fill="white" stroke="#ADB3BE" stroke-width="2.33962"></circle>
<circle cx="67.5849" cy="277.151" r="4.67925" fill="white" stroke="#ADB3BE" stroke-width="2.33962"></circle>
<circle cx="41.8491" cy="277.151" r="4.67925" fill="white" stroke="#ADB3BE" stroke-width="2.33962"></circle>
<line x1="44.97" y1="272.993" x2="51.9889" y2="262.464" stroke="#ADB3BE" stroke-width="2.33962"></line>
<line y1="-1.16981" x2="12.6534" y2="-1.16981" transform="matrix(-0.5547 -0.83205 -0.83205 0.5547 63.4906 273.057)" stroke="#ADB3BE" stroke-width="2.33962"></line>
<path d="M210.01 105.264C208.402 105.335 206.938 104.988 205.657 103.98C200.857 100.197 203.027 92.9517 209.08 92.2928C215.095 91.9444 218.415 99.3591 213.832 103.552C212.645 104.636 211.563 105.019 210.01 105.265V105.264Z" fill="#ADB3BE"></path>
<path d="M215.309 117.984L200.675 117.983C199.613 117.984 197.978 118.292 197.55 117.01C197.427 116.643 197.475 116.184 197.494 115.803C197.709 111.395 199.874 107.895 203.843 105.831C204.216 105.636 204.599 105.42 204.998 105.284C205.09 105.263 205.407 105.51 205.498 105.566C208.165 107.227 211.289 106.832 213.934 105.361C215.452 105.834 217.172 107.011 218.318 108.137C220.506 110.288 221.514 113.231 221.534 116.263C221.547 118.15 220.089 117.984 218.709 117.983L215.309 117.984Z" fill="#ADB3BE"></path>
<path d="M276.01 105.264C274.402 105.335 272.938 104.988 271.657 103.98C266.857 100.197 269.027 92.9517 275.08 92.2928C281.095 91.9444 284.415 99.3591 279.832 103.552C278.645 104.636 277.563 105.019 276.01 105.265V105.264Z" fill="#ADB3BE"></path>
<path d="M281.309 117.984L266.675 117.983C265.613 117.984 263.978 118.292 263.55 117.01C263.427 116.643 263.475 116.184 263.494 115.803C263.709 111.395 265.874 107.895 269.843 105.831C270.216 105.636 270.599 105.42 270.998 105.284C271.09 105.263 271.407 105.51 271.498 105.566C274.165 107.227 277.289 106.832 279.934 105.361C281.452 105.834 283.172 107.011 284.318 108.137C286.506 110.288 287.514 113.231 287.534 116.263C287.547 118.15 286.089 117.984 284.709 117.983L281.309 117.984Z" fill="#ADB3BE"></path>
<path d="M436.01 105.264C434.402 105.335 432.938 104.988 431.657 103.98C426.857 100.197 429.027 92.9517 435.08 92.2928C441.095 91.9444 444.415 99.3591 439.832 103.552C438.645 104.636 437.563 105.019 436.01 105.265V105.264Z" fill="#ADB3BE"></path>
<path d="M441.309 117.984L426.675 117.983C425.613 117.984 423.978 118.292 423.55 117.01C423.427 116.643 423.475 116.184 423.494 115.803C423.709 111.395 425.874 107.895 429.843 105.831C430.216 105.636 430.599 105.42 430.998 105.284C431.09 105.263 431.407 105.51 431.498 105.566C434.165 107.227 437.289 106.832 439.934 105.361C441.452 105.834 443.172 107.011 444.318 108.137C446.506 110.288 447.514 113.231 447.534 116.263C447.547 118.15 446.089 117.984 444.709 117.983L441.309 117.984Z" fill="#ADB3BE"></path>
<path d="M50.0105 317.264C48.4018 317.335 46.9377 316.988 45.6571 315.979C40.857 312.197 43.0267 304.952 49.0796 304.293C55.0952 303.944 58.4147 311.359 53.832 315.552C52.6454 316.636 51.5628 317.019 50.0105 317.265V317.264Z" fill="#ADB3BE"></path>
<path d="M55.3087 329.984L40.6749 329.983C39.6126 329.984 37.978 330.292 37.5503 329.01C37.4274 328.643 37.4751 328.184 37.4939 327.803C37.7093 323.395 39.8743 319.895 43.8431 317.831C44.216 317.636 44.599 317.42 44.9979 317.284C45.0904 317.263 45.407 317.51 45.498 317.566C48.1646 319.227 51.2891 318.832 53.9343 317.361C55.4519 317.834 57.1718 319.012 58.3182 320.137C60.5064 322.288 61.5138 325.231 61.5341 328.263C61.5471 330.151 60.0888 329.984 58.7085 329.983L55.3087 329.984Z" fill="#ADB3BE"></path>
<path d="M19.0105 264.264C17.4018 264.335 15.9377 263.988 14.6571 262.979C9.85698 259.197 12.0267 251.952 18.0796 251.293C24.0952 250.944 27.4147 258.359 22.832 262.552C21.6454 263.636 20.5628 264.019 19.0105 264.265V264.264Z" fill="#ADB3BE"></path>
<path d="M24.3087 276.984L9.67493 276.983C8.61263 276.984 6.97797 277.292 6.55028 276.01C6.42743 275.643 6.47513 275.184 6.49392 274.803C6.70927 270.395 8.87434 266.895 12.8431 264.831C13.216 264.636 13.599 264.42 13.9979 264.284C14.0904 264.263 14.407 264.51 14.498 264.566C17.1646 266.227 20.2891 265.832 22.9343 264.361C24.4519 264.834 26.1718 266.012 27.3182 267.137C29.5064 269.288 30.5138 272.231 30.5341 275.263C30.5471 277.151 29.0888 276.984 27.7085 276.983L24.3087 276.984Z" fill="#ADB3BE"></path>
<path d="M495.01 105.264C493.402 105.335 491.938 104.988 490.657 103.98C485.857 100.197 488.027 92.9517 494.08 92.2928C500.095 91.9444 503.415 99.3591 498.832 103.552C497.645 104.636 496.563 105.019 495.01 105.265V105.264Z" fill="#ADB3BE"></path>
<path d="M500.309 117.984L485.675 117.983C484.613 117.984 482.978 118.292 482.55 117.01C482.427 116.643 482.475 116.184 482.494 115.803C482.709 111.395 484.874 107.895 488.843 105.831C489.216 105.636 489.599 105.42 489.998 105.284C490.09 105.263 490.407 105.51 490.498 105.566C493.165 107.227 496.289 106.832 498.934 105.361C500.452 105.834 502.172 107.011 503.318 108.137C505.506 110.288 506.514 113.231 506.534 116.263C506.547 118.15 505.089 117.984 503.709 117.983L500.309 117.984Z" fill="#ADB3BE"></path>
<path d="M736.01 105.264C734.402 105.335 732.938 104.988 731.657 103.98C726.857 100.197 729.027 92.9517 735.08 92.2928C741.095 91.9444 744.415 99.3591 739.832 103.552C738.645 104.636 737.563 105.019 736.01 105.265V105.264Z" fill="#ADB3BE"></path>
<path d="M741.309 117.984L726.675 117.983C725.613 117.984 723.978 118.292 723.55 117.01C723.427 116.643 723.475 116.184 723.494 115.803C723.709 111.395 725.874 107.895 729.843 105.831C730.216 105.636 730.599 105.42 730.998 105.284C731.09 105.263 731.407 105.51 731.498 105.566C734.165 107.227 737.289 106.832 739.934 105.361C741.452 105.834 743.172 107.011 744.318 108.137C746.506 110.288 747.514 113.231 747.534 116.263C747.547 118.15 746.089 117.984 744.709 117.983L741.309 117.984Z" fill="#ADB3BE"></path>
<path d="M770.01 18.2644C768.402 18.3352 766.938 17.9884 765.657 16.9795C760.857 13.1969 763.027 5.95167 769.08 5.29276C775.095 4.94444 778.415 12.3591 773.832 16.5519C772.645 17.6358 771.563 18.0189 770.01 18.2646V18.2644Z" fill="#ADB3BE"></path>
<path d="M775.309 30.9844L760.675 30.983C759.613 30.9844 757.978 31.2922 757.55 30.0103C757.427 29.6432 757.475 29.1835 757.494 28.8034C757.709 24.3952 759.874 20.8947 763.843 18.8307C764.216 18.6356 764.599 18.4202 764.998 18.2843C765.09 18.2627 765.407 18.5098 765.498 18.5662C768.165 20.2268 771.289 19.8322 773.934 18.3609C775.452 18.8335 777.172 20.0115 778.318 21.1374C780.506 23.288 781.514 26.2307 781.534 29.2629C781.547 31.1505 780.089 30.9843 778.709 30.9828L775.309 30.9844Z" fill="#ADB3BE"></path>
<path d="M642.01 105.264C640.402 105.335 638.938 104.988 637.657 103.98C632.857 100.197 635.027 92.9517 641.08 92.2928C647.095 91.9444 650.415 99.3591 645.832 103.552C644.645 104.636 643.563 105.019 642.01 105.265V105.264Z" fill="#ADB3BE"></path>
<path d="M647.309 117.984L632.675 117.983C631.613 117.984 629.978 118.292 629.55 117.01C629.427 116.643 629.475 116.184 629.494 115.803C629.709 111.395 631.874 107.895 635.843 105.831C636.216 105.636 636.599 105.42 636.998 105.284C637.09 105.263 637.407 105.51 637.498 105.566C640.165 107.227 643.289 106.832 645.934 105.361C647.452 105.834 649.172 107.011 650.318 108.137C652.506 110.288 653.514 113.231 653.534 116.263C653.547 118.15 652.089 117.984 650.709 117.983L647.309 117.984Z" fill="#ADB3BE"></path>
<path d="M548.01 18.2644C546.402 18.3352 544.938 17.9884 543.657 16.9795C538.857 13.1969 541.027 5.95167 547.08 5.29276C553.095 4.94444 556.415 12.3591 551.832 16.5519C550.645 17.6358 549.563 18.0189 548.01 18.2646V18.2644Z" fill="#ADB3BE"></path>
<path d="M553.309 30.9844L538.675 30.983C537.613 30.9844 535.978 31.2922 535.55 30.0103C535.427 29.6432 535.475 29.1835 535.494 28.8034C535.709 24.3952 537.874 20.8947 541.843 18.8307C542.216 18.6356 542.599 18.4202 542.998 18.2843C543.09 18.2627 543.407 18.5098 543.498 18.5662C546.165 20.2268 549.289 19.8322 551.934 18.3609C553.452 18.8335 555.172 20.0115 556.318 21.1374C558.506 23.288 559.514 26.2307 559.534 29.2629C559.547 31.1505 558.089 30.9843 556.709 30.9828L553.309 30.9844Z" fill="#ADB3BE"></path>
<path d="M340.01 18.2644C338.402 18.3352 336.938 17.9884 335.657 16.9795C330.857 13.1969 333.027 5.95167 339.08 5.29276C345.095 4.94444 348.415 12.3591 343.832 16.5519C342.645 17.6358 341.563 18.0189 340.01 18.2646V18.2644Z" fill="#ADB3BE"></path>
<path d="M345.309 30.9844L330.675 30.983C329.613 30.9844 327.978 31.2922 327.55 30.0103C327.427 29.6432 327.475 29.1835 327.494 28.8034C327.709 24.3952 329.874 20.8947 333.843 18.8307C334.216 18.6356 334.599 18.4202 334.998 18.2843C335.09 18.2627 335.407 18.5098 335.498 18.5662C338.165 20.2268 341.289 19.8322 343.934 18.3609C345.452 18.8335 347.172 20.0115 348.318 21.1374C350.506 23.288 351.514 26.2307 351.534 29.2629C351.547 31.1505 350.089 30.9843 348.709 30.9828L345.309 30.9844Z" fill="#ADB3BE"></path>
<path d="M683.762 67.7461H707.254C708.919 67.7461 710.269 69.0962 710.27 70.7617V101.238C710.269 102.904 708.919 104.254 707.254 104.254H683.762C682.096 104.254 680.746 102.904 680.746 101.238V70.7617C680.746 69.0962 682.096 67.7462 683.762 67.7461Z" stroke="#4D6EB9" stroke-width="3.49206"></path>
<line x1="687.889" y1="94.7302" x2="703.286" y2="94.7302" stroke="#4D6EB9" stroke-width="3.1746" stroke-linecap="round"></line>
<line x1="687.889" y1="86.3175" x2="703.286" y2="86.3175" stroke="#4D6EB9" stroke-width="3.1746" stroke-linecap="round"></line>
<line x1="687.889" y1="78.2222" x2="703.286" y2="78.2222" stroke="#4D6EB9" stroke-width="3.1746" stroke-linecap="round"></line>
<path d="M451.762 60.7461H475.254C476.919 60.7461 478.269 62.0962 478.27 63.7617V94.2383C478.269 95.9038 476.919 97.2539 475.254 97.2539H451.762C450.096 97.2538 448.746 95.9038 448.746 94.2383V63.7617C448.746 62.0962 450.096 60.7462 451.762 60.7461Z" stroke="#4D6EB9" stroke-width="3.49206"></path>
<line x1="455.889" y1="87.7302" x2="471.286" y2="87.7302" stroke="#4D6EB9" stroke-width="3.1746" stroke-linecap="round"></line>
<line x1="455.889" y1="79.3175" x2="471.286" y2="79.3175" stroke="#4D6EB9" stroke-width="3.1746" stroke-linecap="round"></line>
<line x1="455.889" y1="71.2222" x2="471.286" y2="71.2222" stroke="#4D6EB9" stroke-width="3.1746" stroke-linecap="round"></line>
<path d="M234.762 60.7461H258.254C259.919 60.7461 261.269 62.0962 261.27 63.7617V94.2383C261.269 95.9038 259.919 97.2539 258.254 97.2539H234.762C233.096 97.2538 231.746 95.9038 231.746 94.2383V63.7617C231.746 62.0962 233.096 60.7462 234.762 60.7461Z" stroke="#4D6EB9" stroke-width="3.49206"></path>
<line x1="238.889" y1="87.7302" x2="254.286" y2="87.7302" stroke="#4D6EB9" stroke-width="3.1746" stroke-linecap="round"></line>
<line x1="238.889" y1="79.3175" x2="254.286" y2="79.3175" stroke="#4D6EB9" stroke-width="3.1746" stroke-linecap="round"></line>
<line x1="238.889" y1="71.2222" x2="254.286" y2="71.2222" stroke="#4D6EB9" stroke-width="3.1746" stroke-linecap="round"></line>
<rect x="701.074" y="3.07381" width="46.7214" height="30.8524" fill="white"></rect>
<rect x="701.074" y="3.07381" width="46.7214" height="30.8524" stroke="#FF866B" stroke-width="0.147619"></rect>
<rect x="701.074" y="3.07381" width="46.7214" height="30.8524" stroke="#FF866B" stroke-width="0.147619"></rect>
<path d="M711.407 4.47656H744.179C745.401 4.47657 746.392 5.46754 746.392 6.69043V25.4385C746.392 26.6612 745.401 27.6523 744.179 27.6523H711.407C710.184 27.6523 709.193 26.6612 709.193 25.4385V6.69043C709.193 5.46755 710.184 4.47659 711.407 4.47656Z" fill="white" stroke="#FF7E62" stroke-width="2.95238"></path>
<path d="M704.69 9.34799H737.462C738.685 9.348 739.676 10.339 739.676 11.5619V30.3099C739.676 31.5326 738.685 32.5238 737.462 32.5238H704.69C703.468 32.5237 702.477 31.5326 702.477 30.3099V11.5619C702.477 10.339 703.468 9.34802 704.69 9.34799Z" fill="white" stroke="#FF7E62" stroke-width="2.95238"></path>
<path d="M732.729 18.7491H720.979C720.513 18.7491 720.082 18.5002 719.849 18.0964C719.615 17.6924 719.615 17.1948 719.849 16.7908C720.082 16.3869 720.513 16.1381 720.979 16.1381H732.729C733.195 16.1381 733.626 16.387 733.86 16.7908C734.093 17.1948 734.093 17.6924 733.86 18.0964C733.626 18.5003 733.195 18.7491 732.729 18.7491Z" fill="#FF7E62"></path>
<circle cx="711.998" cy="21.0095" r="5.16667" fill="#FF7E62"></circle>
<rect x="488.074" y="3.07381" width="46.7214" height="30.8524" fill="white"></rect>
<rect x="488.074" y="3.07381" width="46.7214" height="30.8524" stroke="#FF866B" stroke-width="0.147619"></rect>
<rect x="488.074" y="3.07381" width="46.7214" height="30.8524" stroke="#FF866B" stroke-width="0.147619"></rect>
<path d="M498.407 4.47656H531.179C532.401 4.47657 533.392 5.46754 533.392 6.69043V25.4385C533.392 26.6612 532.401 27.6523 531.179 27.6523H498.407C497.184 27.6523 496.193 26.6612 496.193 25.4385V6.69043C496.193 5.46755 497.184 4.47659 498.407 4.47656Z" fill="white" stroke="#FF7E62" stroke-width="2.95238"></path>
<path d="M491.69 9.34799H524.462C525.685 9.348 526.676 10.339 526.676 11.5619V30.3099C526.676 31.5326 525.685 32.5238 524.462 32.5238H491.69C490.468 32.5237 489.477 31.5326 489.477 30.3099V11.5619C489.477 10.339 490.468 9.34802 491.69 9.34799Z" fill="white" stroke="#FF7E62" stroke-width="2.95238"></path>
<path d="M519.729 18.7491H507.979C507.513 18.7491 507.082 18.5002 506.849 18.0964C506.615 17.6924 506.615 17.1948 506.849 16.7908C507.082 16.3869 507.513 16.1381 507.979 16.1381H519.729C520.195 16.1381 520.626 16.387 520.86 16.7908C521.093 17.1948 521.093 17.6924 520.86 18.0964C520.626 18.5003 520.195 18.7491 519.729 18.7491Z" fill="#FF7E62"></path>
<circle cx="498.998" cy="21.0095" r="5.16667" fill="#FF7E62"></circle>
<rect x="278.074" y="3.07381" width="46.7214" height="30.8524" fill="white"></rect>
<rect x="278.074" y="3.07381" width="46.7214" height="30.8524" stroke="#FF866B" stroke-width="0.147619"></rect>
<rect x="278.074" y="3.07381" width="46.7214" height="30.8524" stroke="#FF866B" stroke-width="0.147619"></rect>
<path d="M288.407 4.47656H321.179C322.401 4.47657 323.392 5.46754 323.392 6.69043V25.4385C323.392 26.6612 322.401 27.6523 321.179 27.6523H288.407C287.184 27.6523 286.193 26.6612 286.193 25.4385V6.69043C286.193 5.46755 287.184 4.47659 288.407 4.47656Z" fill="white" stroke="#FF7E62" stroke-width="2.95238"></path>
<path d="M281.69 9.34799H314.462C315.685 9.348 316.676 10.339 316.676 11.5619V30.3099C316.676 31.5326 315.685 32.5238 314.462 32.5238H281.69C280.468 32.5237 279.477 31.5326 279.477 30.3099V11.5619C279.477 10.339 280.468 9.34802 281.69 9.34799Z" fill="white" stroke="#FF7E62" stroke-width="2.95238"></path>
<path d="M309.729 18.7491H297.979C297.513 18.7491 297.082 18.5002 296.849 18.0964C296.615 17.6924 296.615 17.1948 296.849 16.7908C297.082 16.3869 297.513 16.1381 297.979 16.1381H309.729C310.195 16.1381 310.626 16.387 310.86 16.7908C311.093 17.1948 311.093 17.6924 310.86 18.0964C310.626 18.5003 310.195 18.7491 309.729 18.7491Z" fill="#FF7E62"></path>
<circle cx="288.998" cy="21.0095" r="5.16667" fill="#FF7E62"></circle>
</svg>