<svg width="676" height="641" viewBox="0 0 676 641" fill="none" xmlns="http://www.w3.org/2000/svg"><defs><marker id="ah" viewBox="0 0 10 10" refX="7.6" refY="5" markerWidth="6" markerHeight="6" orient="auto-start-reverse"><path d="M1.5 1.6 L9 5 L1.5 8.4 Z" fill="#999999"></path></marker></defs>
<path d="M520.8 109.2 C520.2 108.6 518.7 106.7 517.2 105.7 C515.6 104.7 513.5 103.8 511.5 103.2 C509.6 102.6 507.5 102.3 505.4 102.1 C503.4 101.9 501.3 101.9 499.2 102.1 C497.2 102.3 495.1 102.7 493.1 103.1 C491.1 103.6 488.7 104.5 487.3 104.8 C485.9 105.0 485.2 104.8 484.8 104.9" fill="none" stroke="#999999" stroke-width="1.6" stroke-linecap="round" marker-end="url(#ah)"></path>
<path d="M523.8 167.2 C523.1 166.7 521.3 165.1 519.7 164.3 C518.1 163.4 516.0 162.5 514.1 162.0 C512.2 161.4 510.1 161.1 508.1 161.0 C506.1 160.8 504.1 160.8 502.1 160.9 C500.0 161.0 498.0 161.3 496.0 161.7 C494.1 162.1 491.7 162.9 490.2 163.1 C488.7 163.4 487.6 163.2 487.1 163.2" fill="none" stroke="#999999" stroke-width="1.6" stroke-linecap="round" marker-end="url(#ah)"></path>
<path d="M544.3 335.2 C543.3 333.6 540.8 328.6 538.3 325.6 C535.8 322.6 532.3 319.8 529.0 317.3 C525.7 314.7 522.2 312.4 518.5 310.5 C514.9 308.5 511.1 306.7 507.1 305.4 C503.2 304.2 499.0 303.2 494.9 303.1 C490.9 303.0 485.9 304.2 482.9 304.8 C479.8 305.4 477.7 306.4 476.6 306.7" fill="none" stroke="#999999" stroke-width="1.6" stroke-linecap="round" marker-end="url(#ah)"></path>
<path d="M370.8 61.2 C365.6 63.1 349.7 67.5 339.6 72.3 C329.5 77.1 319.4 83.2 310.3 90.0 C301.2 96.8 292.6 104.6 285.0 113.1 C277.5 121.6 270.7 131.1 265.0 140.9 C259.3 150.7 254.6 161.4 250.9 172.1 C247.2 182.9 244.7 196.3 242.8 205.3 C240.9 214.4 239.9 222.9 239.3 226.4" fill="none" stroke="#999999" stroke-width="1.6" stroke-linecap="round" marker-end="url(#ah)"></path>
<path d="M309.3 161.7 C309.3 162.2 309.5 163.4 309.5 164.5 C309.6 165.5 309.6 167.0 309.6 168.2 C309.7 169.5 309.6 170.7 309.7 172.0 C309.7 173.2 309.8 174.5 309.9 175.7 C309.9 177.0 310.1 178.2 310.2 179.5 C310.3 180.7 310.5 182.3 310.6 183.2 C310.7 184.0 310.7 184.4 310.8 184.7" fill="none" stroke="#999999" stroke-width="1.6" stroke-linecap="round" marker-end="url(#ah)"></path>
<path d="M417.8 109.2 C418.2 108.3 419.3 105.8 420.4 104.0 C421.5 102.2 422.9 100.2 424.3 98.4 C425.7 96.6 427.3 94.9 428.9 93.4 C430.5 91.8 432.2 90.3 434.0 88.9 C435.8 87.4 437.7 86.1 439.5 84.8 C441.4 83.5 443.8 82.1 445.2 81.1 C446.6 80.0 447.5 79.1 447.9 78.7" fill="none" stroke="#999999" stroke-width="1.6" stroke-linecap="round" marker-end="url(#ah)"></path>
<path d="M490.8 185.7 C491.3 186.0 492.8 186.7 494.0 187.3 C495.3 187.8 496.8 188.5 498.3 189.0 C499.7 189.4 501.2 189.8 502.7 189.9 C504.2 190.1 505.8 190.1 507.3 189.9 C508.8 189.8 510.3 189.5 511.8 189.2 C513.3 188.9 515.1 188.4 516.2 188.2 C517.3 188.1 518.1 188.3 518.5 188.3" fill="none" stroke="#999999" stroke-width="1.6" stroke-linecap="round" marker-end="url(#ah)"></path>
<path d="M428.3 189.5 C428.9 189.7 430.5 190.5 431.9 191.0 C433.3 191.4 435.0 192.0 436.6 192.2 C438.3 192.5 439.9 192.6 441.5 192.6 C443.2 192.7 444.8 192.5 446.5 192.3 C448.1 192.1 449.7 191.7 451.3 191.4 C452.9 191.0 454.8 190.4 456.0 190.2 C457.2 190.0 458.1 190.2 458.5 190.2" fill="none" stroke="#999999" stroke-width="1.6" stroke-linecap="round" marker-end="url(#ah)"></path>
<path d="M533.3 260.7 C534.0 260.3 535.8 258.6 537.4 258.0 C539.1 257.3 541.3 256.7 543.2 256.8 C545.1 256.9 547.1 257.7 548.8 258.6 C550.5 259.5 552.0 260.9 553.4 262.3 C554.8 263.7 556.1 265.3 557.2 266.9 C558.4 268.5 559.6 270.7 560.4 271.8 C561.3 272.9 562.0 273.2 562.3 273.5" fill="none" stroke="#999999" stroke-width="1.6" stroke-linecap="round" marker-end="url(#ah)"></path>
<path d="M428.3 252.7 C428.5 252.2 429.1 250.8 429.7 249.6 C430.2 248.4 430.9 246.9 431.6 245.6 C432.3 244.3 433.0 243.0 433.8 241.7 C434.5 240.5 435.3 239.2 436.2 238.0 C437.1 236.8 438.0 235.7 438.9 234.5 C439.8 233.4 441.1 232.1 441.8 231.2 C442.4 230.4 442.7 229.8 442.9 229.5" fill="none" stroke="#999999" stroke-width="1.6" stroke-linecap="round" marker-end="url(#ah)"></path>
<path d="M437.3 440.2 C437.9 440.5 439.8 441.3 441.2 442.1 C442.7 442.9 444.4 443.9 445.8 445.0 C447.3 446.0 448.7 447.1 450.1 448.3 C451.4 449.5 452.7 450.8 454.0 452.0 C455.3 453.3 456.5 454.7 457.7 456.0 C458.8 457.4 460.2 459.1 461.1 460.1 C462.0 461.1 462.8 461.6 463.1 461.9" fill="none" stroke="#999999" stroke-width="1.6" stroke-linecap="round" marker-end="url(#ah)"></path>
<path d="M423.3 204.2 C423.6 204.8 424.5 206.5 425.3 207.8 C426.1 209.2 427.1 210.8 428.1 212.3 C429.0 213.7 430.0 215.1 431.0 216.5 C432.0 217.9 433.1 219.3 434.2 220.6 C435.3 222.0 436.5 223.3 437.6 224.5 C438.8 225.8 440.4 227.2 441.3 228.1 C442.2 229.1 442.6 229.7 442.9 230.1" fill="none" stroke="#999999" stroke-width="1.6" stroke-linecap="round" marker-end="url(#ah)"></path>
<path d="M443.2 229.8 C443.6 230.2 444.8 231.2 445.9 232.0 C446.9 232.8 448.3 233.8 449.5 234.6 C450.8 235.5 452.0 236.3 453.3 237.0 C454.6 237.8 455.9 238.5 457.2 239.2 C458.6 239.9 459.9 240.6 461.3 241.2 C462.6 241.8 464.4 242.5 465.3 243.0 C466.3 243.4 466.8 243.9 467.1 244.0" fill="none" stroke="#999999" stroke-width="1.6" stroke-linecap="round" marker-end="url(#ah)"></path>
<path d="M343.3 109.2 C342.7 109.2 341.0 109.0 339.6 109.4 C338.1 109.9 336.2 111.0 334.6 111.9 C333.0 112.8 331.4 113.9 329.9 115.1 C328.5 116.2 327.0 117.4 325.6 118.7 C324.2 119.9 322.9 121.3 321.6 122.6 C320.3 124.0 318.9 125.7 318.0 126.6 C317.0 127.4 316.4 127.5 316.1 127.7" fill="none" stroke="#999999" stroke-width="1.6" stroke-linecap="round" marker-end="url(#ah)"></path>
<path d="M290.8 164.2 C289.8 165.2 286.9 167.8 285.0 170.5 C283.1 173.1 281.0 176.9 279.3 180.3 C277.6 183.7 276.2 187.3 275.0 190.8 C273.8 194.4 272.8 198.1 272.0 201.8 C271.3 205.6 270.8 209.4 270.5 213.1 C270.2 216.9 270.4 221.5 270.2 224.4 C270.1 227.3 269.8 229.4 269.7 230.4" fill="none" stroke="#999999" stroke-width="1.6" stroke-linecap="round" marker-end="url(#ah)"></path>
<path d="M388.3 135.2 C387.5 135.4 385.3 135.6 383.5 136.3 C381.7 137.0 379.3 138.4 377.3 139.5 C375.2 140.7 373.3 142.0 371.3 143.3 C369.4 144.7 367.5 146.0 365.6 147.5 C363.7 148.9 361.9 150.4 360.1 151.9 C358.3 153.3 356.2 155.3 354.8 156.4 C353.4 157.4 352.2 157.7 351.7 157.9" fill="none" stroke="#999999" stroke-width="1.6" stroke-linecap="round" marker-end="url(#ah)"></path>
<path d="M352.1 159.0 C351.4 159.6 349.6 161.3 348.2 162.7 C346.8 164.1 345.3 165.7 343.8 167.3 C342.4 168.8 340.9 170.4 339.5 172.0 C338.1 173.6 336.8 175.2 335.4 176.8 C334.1 178.5 332.8 180.1 331.5 181.8 C330.2 183.4 328.7 185.5 327.7 186.8 C326.7 188.1 325.9 188.9 325.6 189.4" fill="none" stroke="#999999" stroke-width="1.6" stroke-linecap="round" marker-end="url(#ah)"></path>
<path d="M216.3 262.7 C215.3 263.7 212.5 266.3 210.7 268.6 C208.9 270.8 207.2 273.6 205.7 276.2 C204.2 278.8 202.8 281.5 201.6 284.3 C200.4 287.1 199.2 289.9 198.3 292.8 C197.3 295.7 196.5 298.7 195.9 301.6 C195.3 304.6 194.9 308.2 194.5 310.6 C194.1 312.9 193.5 314.8 193.3 315.7" fill="none" stroke="#999999" stroke-width="1.6" stroke-linecap="round" marker-end="url(#ah)"></path>
<path d="M181.3 355.7 C180.3 356.7 177.5 359.3 175.7 361.6 C173.9 363.8 172.2 366.6 170.7 369.2 C169.2 371.8 167.8 374.5 166.6 377.3 C165.4 380.1 164.2 382.9 163.3 385.8 C162.3 388.7 161.5 391.7 160.9 394.6 C160.3 397.6 159.9 401.2 159.5 403.6 C159.1 405.9 158.5 407.8 158.3 408.7" fill="none" stroke="#999999" stroke-width="1.6" stroke-linecap="round" marker-end="url(#ah)"></path>
<path d="M192.3 355.7 C192.1 357.2 191.3 361.3 191.1 364.4 C190.9 367.4 190.9 370.9 190.9 374.1 C190.9 377.4 191.1 380.6 191.3 383.9 C191.5 387.1 191.8 390.3 192.1 393.6 C192.5 396.8 192.9 400.0 193.4 403.2 C193.9 406.4 194.7 410.3 195.1 412.8 C195.4 415.3 195.6 417.4 195.7 418.3" fill="none" stroke="#999999" stroke-width="1.6" stroke-linecap="round" marker-end="url(#ah)"></path>
<path d="M162.5 496.3 C162.3 495.1 161.7 491.9 161.3 489.5 C160.8 487.1 160.3 484.4 159.9 481.8 C159.4 479.2 159.1 476.6 158.8 474.0 C158.5 471.4 158.2 468.8 158.0 466.2 C157.8 463.6 157.6 460.9 157.5 458.3 C157.4 455.7 157.3 452.5 157.3 450.5 C157.3 448.5 157.3 446.9 157.3 446.2" fill="none" stroke="#999999" stroke-width="1.6" stroke-linecap="round" marker-end="url(#ah)"></path>
<path d="M143.8 443.7 C143.0 444.3 140.5 446.0 138.9 447.5 C137.3 449.0 135.6 450.9 134.2 452.8 C132.8 454.7 131.5 456.7 130.5 458.8 C129.4 460.9 128.6 463.2 127.8 465.4 C127.1 467.7 126.6 470.0 126.2 472.4 C125.8 474.7 125.7 477.6 125.3 479.4 C125.0 481.2 124.4 482.6 124.3 483.2" fill="none" stroke="#999999" stroke-width="1.6" stroke-linecap="round" marker-end="url(#ah)"></path>
<path d="M239.8 377.7 C239.7 378.6 239.7 381.1 239.6 383.1 C239.6 385.1 239.5 387.4 239.5 389.5 C239.5 391.6 239.5 393.8 239.5 395.9 C239.6 398.0 239.7 400.1 239.9 402.3 C240.1 404.4 240.3 406.5 240.5 408.6 C240.7 410.7 241.1 413.3 241.3 414.9 C241.5 416.5 241.6 417.7 241.6 418.2" fill="none" stroke="#999999" stroke-width="1.6" stroke-linecap="round" marker-end="url(#ah)"></path>
<path d="M235.8 264.7 C235.8 266.5 235.9 271.6 236.0 275.3 C236.1 278.9 236.3 283.0 236.4 286.8 C236.5 290.7 236.7 294.5 236.8 298.4 C236.9 302.2 237.1 306.1 237.2 309.9 C237.3 313.8 237.4 317.6 237.5 321.5 C237.6 325.3 237.7 329.9 237.7 332.9 C237.8 336.0 237.8 338.6 237.8 339.7" fill="none" stroke="#999999" stroke-width="1.6" stroke-linecap="round" marker-end="url(#ah)"></path>
<path d="M307.8 222.2 C307.7 222.6 307.5 222.9 307.4 224.3 C307.4 225.6 307.4 228.3 307.5 230.3 C307.7 232.3 308.0 234.4 308.4 236.4 C308.8 238.4 309.3 240.3 309.9 242.3 C310.5 244.2 311.2 246.2 312.0 248.0 C312.8 249.9 314.0 252.1 314.6 253.5 C315.1 254.9 315.2 256.0 315.3 256.5" fill="none" stroke="#999999" stroke-width="1.6" stroke-linecap="round" marker-end="url(#ah)"></path>
<path d="M270.8 267.2 C271.1 267.7 271.8 268.7 272.6 270.3 C273.3 271.9 274.4 274.5 275.3 276.7 C276.2 278.8 277.0 281.0 277.9 283.2 C278.7 285.4 279.6 287.5 280.4 289.7 C281.3 291.9 282.1 294.1 282.9 296.2 C283.8 298.4 284.7 301.1 285.5 302.7 C286.2 304.3 287.2 305.4 287.6 305.9" fill="none" stroke="#999999" stroke-width="1.6" stroke-linecap="round" marker-end="url(#ah)"></path>
<path d="M350.1 216.3 C349.7 215.8 348.4 214.5 347.6 213.4 C346.8 212.2 346.1 210.6 345.2 209.3 C344.4 208.0 343.5 206.6 342.5 205.5 C341.4 204.3 340.3 203.1 339.1 202.2 C337.8 201.3 336.4 200.5 335.0 199.9 C333.5 199.3 331.6 198.9 330.5 198.7 C329.4 198.4 328.7 198.3 328.3 198.2" fill="none" stroke="#999999" stroke-width="1.6" stroke-linecap="round" marker-end="url(#ah)"></path>
<path d="M428.3 126.7 C428.8 126.9 430.1 127.5 431.3 128.0 C432.5 128.4 434.0 129.0 435.4 129.3 C436.8 129.7 438.2 130.0 439.6 130.2 C441.0 130.3 442.5 130.4 443.9 130.4 C445.3 130.4 446.8 130.2 448.2 130.1 C449.6 129.9 451.3 129.6 452.4 129.5 C453.4 129.5 454.0 129.7 454.4 129.8" fill="none" stroke="#999999" stroke-width="1.6" stroke-linecap="round" marker-end="url(#ah)"></path>
<path d="M394.8 81.8 C395.2 82.2 396.4 83.2 397.4 84.1 C398.3 85.1 399.4 86.3 400.3 87.5 C401.2 88.7 402.0 90.0 402.6 91.4 C403.3 92.7 403.8 94.1 404.3 95.5 C404.8 96.9 405.2 98.4 405.6 99.8 C405.9 101.3 406.2 103.1 406.5 104.1 C406.8 105.2 407.4 105.8 407.5 106.1" fill="none" stroke="#999999" stroke-width="1.6" stroke-linecap="round" marker-end="url(#ah)"></path>
<path d="M432.8 262.7 C433.4 262.8 435.3 263.1 436.8 263.2 C438.3 263.3 440.1 263.4 441.8 263.4 C443.5 263.4 445.2 263.3 446.9 263.0 C448.5 262.8 450.2 262.5 451.8 261.9 C453.4 261.4 454.9 260.7 456.4 260.0 C457.9 259.3 459.6 258.1 460.7 257.6 C461.9 257.0 462.8 256.9 463.2 256.8" fill="none" stroke="#999999" stroke-width="1.6" stroke-linecap="round" marker-end="url(#ah)"></path>
<path d="M523.8 252.7 C523.2 252.1 521.8 250.5 520.5 249.3 C519.3 248.1 517.7 246.7 516.2 245.6 C514.6 244.6 512.9 243.7 511.2 243.0 C509.4 242.3 507.5 241.9 505.7 241.7 C503.8 241.5 501.9 241.5 500.0 241.7 C498.1 241.9 495.9 242.6 494.5 242.7 C493.1 242.9 492.1 242.7 491.6 242.7" fill="none" stroke="#999999" stroke-width="1.6" stroke-linecap="round" marker-end="url(#ah)"></path>
<path d="M346.3 256.2 C346.4 256.3 346.4 256.1 346.8 256.8 C347.2 257.5 348.1 259.3 348.9 260.5 C349.6 261.8 350.5 263.1 351.4 264.3 C352.2 265.5 353.2 266.7 354.2 267.7 C355.3 268.8 356.4 269.9 357.5 270.9 C358.6 271.8 360.2 272.9 361.0 273.6 C361.9 274.2 362.5 274.5 362.8 274.7" fill="none" stroke="#999999" stroke-width="1.6" stroke-linecap="round" marker-end="url(#ah)"></path>
<path d="M488.8 127.1 C489.3 127.2 490.7 127.5 492.0 127.6 C493.2 127.8 494.8 128.1 496.2 128.2 C497.6 128.3 499.0 128.5 500.4 128.5 C501.8 128.5 503.2 128.5 504.6 128.4 C506.0 128.3 507.4 128.1 508.8 127.9 C510.2 127.7 511.9 127.3 512.9 127.2 C513.9 127.0 514.5 127.1 514.9 127.1" fill="none" stroke="#999999" stroke-width="1.6" stroke-linecap="round" marker-end="url(#ah)"></path>
<path d="M266.8 361.2 C270.1 361.2 279.8 362.1 286.7 360.9 C293.6 359.7 301.1 356.6 308.0 353.8 C315.0 351.0 321.8 347.7 328.4 344.1 C335.0 340.6 341.4 336.7 347.7 332.6 C353.9 328.5 360.0 324.0 365.9 319.4 C371.8 314.8 378.5 308.7 383.0 305.0 C387.5 301.3 391.2 298.4 392.8 297.1" fill="none" stroke="#999999" stroke-width="1.6" stroke-linecap="round" marker-end="url(#ah)"></path>
<path d="M207.8 455.2 C208.2 455.7 209.2 457.3 210.5 458.1 C211.7 458.9 213.7 459.5 215.4 460.0 C217.1 460.5 218.9 460.7 220.6 461.0 C222.4 461.3 224.1 461.5 225.9 461.7 C227.7 461.8 229.5 461.9 231.2 462.0 C233.0 462.1 235.1 462.1 236.3 462.3 C237.5 462.4 237.9 462.9 238.2 463.1" fill="none" stroke="#999999" stroke-width="1.6" stroke-linecap="round" marker-end="url(#ah)"></path>
<path d="M322.2 436.2 C320.4 437.2 315.0 440.1 311.2 442.1 C307.3 444.1 303.2 446.3 299.1 448.1 C295.0 449.9 290.8 451.6 286.6 453.0 C282.3 454.5 278.0 455.8 273.7 457.0 C269.3 458.1 264.9 459.0 260.5 459.8 C256.1 460.6 250.7 461.1 247.2 461.5 C243.6 461.9 240.5 462.0 239.1 462.0" fill="none" stroke="#999999" stroke-width="1.6" stroke-linecap="round" marker-end="url(#ah)"></path>
<path d="M321.9 435.8 C322.3 435.5 323.2 435.0 324.0 434.4 C324.8 433.8 325.9 433.1 326.8 432.4 C327.8 431.8 328.7 431.1 329.6 430.4 C330.6 429.8 331.5 429.1 332.4 428.4 C333.3 427.7 334.2 426.9 335.1 426.2 C336.0 425.5 337.1 424.6 337.7 424.1 C338.4 423.6 338.7 423.4 338.8 423.3" fill="none" stroke="#999999" stroke-width="1.6" stroke-linecap="round" marker-end="url(#ah)"></path>
<path d="M162.8 446.2 C163.4 446.9 165.0 448.9 166.4 450.3 C167.9 451.7 169.7 453.2 171.4 454.5 C173.1 455.9 174.8 457.2 176.6 458.4 C178.4 459.7 180.2 460.9 182.0 462.1 C183.8 463.2 185.6 464.4 187.5 465.5 C189.3 466.6 191.7 467.9 193.0 468.8 C194.4 469.7 195.3 470.5 195.8 470.9" fill="none" stroke="#999999" stroke-width="1.6" stroke-linecap="round" marker-end="url(#ah)"></path>
<path d="M233.2 485.8 C232.3 485.5 230.0 484.7 228.1 484.1 C226.3 483.4 224.1 482.7 222.1 482.0 C220.2 481.3 218.2 480.5 216.2 479.8 C214.3 479.0 212.3 478.2 210.4 477.3 C208.4 476.5 206.5 475.6 204.6 474.7 C202.7 473.8 200.4 472.6 199.0 471.9 C197.5 471.2 196.5 470.6 196.0 470.4" fill="none" stroke="#999999" stroke-width="1.6" stroke-linecap="round" marker-end="url(#ah)"></path>
<path d="M233.2 485.6 C234.8 486.0 239.4 487.3 242.7 488.1 C246.1 488.8 249.8 489.6 253.3 490.1 C256.8 490.7 260.4 491.1 264.0 491.4 C267.6 491.7 271.2 491.8 274.8 491.8 C278.3 491.8 282.0 491.7 285.5 491.4 C289.1 491.0 293.3 490.3 296.1 490.0 C299.0 489.6 301.3 489.3 302.4 489.2" fill="none" stroke="#999999" stroke-width="1.6" stroke-linecap="round" marker-end="url(#ah)"></path>
<path d="M258.8 429.2 C259.0 429.0 259.3 429.5 260.1 428.0 C260.9 426.6 262.3 422.9 263.6 420.5 C265.0 418.1 266.5 415.6 268.2 413.4 C269.9 411.1 271.8 409.0 273.7 406.9 C275.7 404.9 277.8 403.0 280.0 401.2 C282.1 399.4 285.0 397.5 286.8 396.2 C288.5 394.9 290.0 394.0 290.7 393.6" fill="none" stroke="#999999" stroke-width="1.6" stroke-linecap="round" marker-end="url(#ah)"></path>
<path d="M559.3 400.2 C557.9 399.5 554.3 397.8 551.3 395.8 C548.3 393.9 544.8 390.6 541.2 388.6 C537.7 386.5 533.9 384.6 530.0 383.4 C526.1 382.2 522.0 381.4 517.9 381.3 C513.8 381.2 509.6 381.8 505.7 382.7 C501.7 383.7 497.1 385.8 494.2 387.2 C491.2 388.6 489.1 390.5 488.0 391.1" fill="none" stroke="#999999" stroke-width="1.6" stroke-linecap="round" marker-end="url(#ah)"></path>
<path d="M375.3 387.7 C376.3 387.1 379.1 385.4 381.2 384.2 C383.4 383.0 385.8 381.6 388.2 380.5 C390.6 379.4 393.1 378.4 395.6 377.7 C398.1 377.0 400.7 376.5 403.3 376.2 C405.9 376.0 408.6 376.0 411.2 376.2 C413.8 376.4 416.9 377.2 418.9 377.5 C421.0 377.8 422.6 377.8 423.4 377.9" fill="none" stroke="#999999" stroke-width="1.6" stroke-linecap="round" marker-end="url(#ah)"></path>
<path d="M423.1 378.7 C423.9 379.0 426.1 379.9 427.8 380.6 C429.5 381.4 431.4 382.4 433.2 383.4 C435.0 384.4 436.7 385.5 438.4 386.6 C440.1 387.7 441.7 388.9 443.3 390.2 C444.9 391.4 446.5 392.7 448.0 394.0 C449.6 395.3 451.4 397.0 452.5 398.0 C453.7 399.0 454.7 399.6 455.1 399.9" fill="none" stroke="#999999" stroke-width="1.6" stroke-linecap="round" marker-end="url(#ah)"></path>
<path d="M301.8 308.2 C304.1 308.7 310.9 310.6 315.8 311.0 C320.7 311.4 326.0 311.3 331.1 310.7 C336.1 310.1 341.1 309.0 346.0 307.5 C350.9 306.0 355.7 304.1 360.3 301.9 C364.9 299.8 369.4 297.2 373.7 294.5 C378.0 291.8 382.8 288.0 386.1 285.7 C389.5 283.3 392.6 281.4 393.9 280.5" fill="none" stroke="#999999" stroke-width="1.6" stroke-linecap="round" marker-end="url(#ah)"></path>
<path d="M409.8 206.2 C409.8 207.0 409.9 209.3 410.0 211.1 C410.0 212.9 410.1 215.1 410.1 217.1 C410.2 219.0 410.2 221.0 410.3 223.0 C410.3 225.0 410.3 226.9 410.4 228.9 C410.4 230.9 410.5 232.9 410.5 234.8 C410.6 236.8 410.6 239.2 410.7 240.7 C410.7 242.2 410.8 243.2 410.8 243.7" fill="none" stroke="#999999" stroke-width="1.6" stroke-linecap="round" marker-end="url(#ah)"></path>
<path d="M409.8 142.7 C409.8 143.3 409.9 144.8 409.9 146.1 C410.0 147.4 410.1 149.1 410.1 150.6 C410.2 152.0 410.2 153.5 410.3 155.0 C410.3 156.5 410.4 157.9 410.4 159.4 C410.5 160.9 410.5 162.4 410.6 163.8 C410.6 165.3 410.7 167.1 410.7 168.2 C410.7 169.3 410.8 169.9 410.8 170.2" fill="none" stroke="#999999" stroke-width="1.6" stroke-linecap="round" marker-end="url(#ah)"></path>
<path d="M378.3 247.7 C378.1 247.4 377.6 246.6 377.2 245.8 C376.7 245.0 376.1 243.9 375.6 243.0 C375.1 242.0 374.6 241.1 374.0 240.2 C373.5 239.3 372.9 238.4 372.4 237.4 C371.8 236.5 371.2 235.6 370.6 234.7 C370.1 233.8 369.3 232.7 368.9 232.1 C368.5 231.5 368.4 231.3 368.3 231.1" fill="none" stroke="#999999" stroke-width="1.6" stroke-linecap="round" marker-end="url(#ah)"></path>
<path d="M414.8 284.7 C415.1 286.9 416.3 293.4 417.0 298.0 C417.7 302.6 418.3 307.6 418.8 312.3 C419.4 317.1 419.9 321.9 420.3 326.7 C420.8 331.5 421.2 336.4 421.5 341.2 C421.9 346.0 422.2 350.8 422.4 355.6 C422.6 360.4 422.8 366.2 423.0 370.0 C423.1 373.9 423.3 377.3 423.3 378.7" fill="none" stroke="#999999" stroke-width="1.6" stroke-linecap="round" marker-end="url(#ah)"></path>
<path d="M423.1 378.7 C423.1 379.3 423.1 380.8 423.1 382.1 C423.1 383.4 423.1 385.0 423.1 386.4 C423.0 387.9 423.0 389.3 423.0 390.8 C422.9 392.2 422.9 393.7 422.8 395.1 C422.8 396.6 422.7 398.0 422.7 399.5 C422.6 400.9 422.5 402.7 422.4 403.8 C422.4 404.8 422.4 405.4 422.3 405.7" fill="none" stroke="#999999" stroke-width="1.6" stroke-linecap="round" marker-end="url(#ah)"></path>
<path d="M406.8 284.7 C406.4 287.3 405.8 295.0 404.6 300.2 C403.4 305.5 401.3 310.9 399.3 316.1 C397.3 321.4 395.1 326.5 392.7 331.6 C390.4 336.7 387.9 341.7 385.3 346.7 C382.7 351.6 380.0 356.5 377.2 361.4 C374.4 366.2 370.7 371.8 368.5 375.7 C366.2 379.6 364.3 383.2 363.5 384.7" fill="none" stroke="#999999" stroke-width="1.6" stroke-linecap="round" marker-end="url(#ah)"></path>
<path d="M327.6 373.2 C329.5 371.7 335.3 367.2 339.2 364.0 C343.2 360.8 347.6 357.5 351.6 354.1 C355.6 350.7 359.5 347.1 363.3 343.5 C367.1 339.8 370.8 336.0 374.3 332.1 C377.8 328.2 381.2 324.1 384.3 319.9 C387.4 315.7 390.8 310.4 393.0 306.8 C395.1 303.2 396.5 299.6 397.3 298.2" fill="none" stroke="#999999" stroke-width="1.6" stroke-linecap="round" marker-end="url(#ah)"></path>
<path d="M426.8 291.7 C427.2 294.3 428.3 301.9 429.4 307.2 C430.5 312.6 431.7 318.2 433.3 323.6 C434.8 328.9 436.7 334.2 438.8 339.4 C440.9 344.5 443.2 349.6 445.8 354.6 C448.4 359.5 451.3 364.4 454.3 369.0 C457.3 373.7 461.3 379.0 463.9 382.7 C466.5 386.4 468.9 389.6 469.9 391.0" fill="none" stroke="#999999" stroke-width="1.6" stroke-linecap="round" marker-end="url(#ah)"></path>
<path d="M483.8 281.7 C484.9 282.7 487.9 285.3 490.7 287.4 C493.5 289.5 497.0 292.2 500.5 294.2 C503.9 296.2 507.5 297.9 511.2 299.3 C514.9 300.7 518.8 301.8 522.6 302.6 C526.5 303.3 530.5 303.8 534.4 304.0 C538.4 304.2 543.2 304.0 546.3 303.9 C549.4 303.8 552.1 303.5 553.3 303.4" fill="none" stroke="#999999" stroke-width="1.6" stroke-linecap="round" marker-end="url(#ah)"></path>
<path d="M428.8 268.7 C429.4 269.0 431.4 269.8 432.8 270.6 C434.3 271.4 436.0 272.4 437.5 273.5 C438.9 274.6 440.2 276.0 441.4 277.3 C442.6 278.7 443.5 280.3 444.5 281.8 C445.5 283.4 446.4 285.0 447.3 286.6 C448.2 288.1 449.2 290.2 450.0 291.3 C450.7 292.4 451.5 293.0 451.8 293.4" fill="none" stroke="#999999" stroke-width="1.6" stroke-linecap="round" marker-end="url(#ah)"></path>
<path d="M468.8 275.7 C468.5 276.1 468.0 277.2 467.4 278.1 C466.9 279.0 466.1 280.2 465.5 281.2 C464.8 282.3 464.2 283.3 463.6 284.4 C463.0 285.5 462.5 286.6 462.0 287.8 C461.5 288.9 461.0 290.0 460.6 291.2 C460.2 292.4 459.8 293.9 459.6 294.7 C459.3 295.5 459.1 295.9 459.1 296.2" fill="none" stroke="#999999" stroke-width="1.6" stroke-linecap="round" marker-end="url(#ah)"></path>
<path d="M266.3 437.7 C267.5 437.4 271.1 436.5 273.8 436.1 C276.5 435.6 279.5 435.2 282.4 435.0 C285.3 434.7 288.2 434.6 291.1 434.5 C294.0 434.4 296.9 434.5 299.8 434.5 C302.7 434.6 305.6 434.7 308.5 434.8 C311.4 435.0 314.8 435.3 317.1 435.4 C319.3 435.5 321.2 435.4 322.0 435.4" fill="none" stroke="#999999" stroke-width="1.6" stroke-linecap="round" marker-end="url(#ah)"></path>
<path d="M321.9 435.8 C322.3 435.8 323.4 435.9 324.4 436.0 C325.3 436.0 326.6 436.2 327.8 436.3 C328.9 436.4 330.1 436.5 331.2 436.6 C332.3 436.7 333.5 436.8 334.6 436.9 C335.8 437.0 336.9 437.1 338.0 437.2 C339.2 437.3 340.6 437.5 341.4 437.5 C342.2 437.6 342.5 437.6 342.7 437.7" fill="none" stroke="#999999" stroke-width="1.6" stroke-linecap="round" marker-end="url(#ah)"></path>
<path d="M365.6 439.6 C365.1 439.6 363.9 439.5 362.8 439.4 C361.8 439.3 360.4 439.2 359.1 439.1 C357.9 439.0 356.6 438.9 355.4 438.8 C354.2 438.7 352.9 438.6 351.7 438.5 C350.4 438.4 349.2 438.3 347.9 438.2 C346.7 438.0 345.2 437.9 344.3 437.8 C343.4 437.7 343.0 437.7 342.7 437.7" fill="none" stroke="#999999" stroke-width="1.6" stroke-linecap="round" marker-end="url(#ah)"></path>
<path d="M365.6 439.6 C366.3 439.6 368.1 439.7 369.7 439.8 C371.2 439.8 373.0 439.9 374.7 439.9 C376.4 440.0 378.1 440.0 379.8 439.9 C381.5 439.9 383.2 439.9 384.9 439.7 C386.6 439.6 388.3 439.5 390.0 439.2 C391.6 439.0 393.7 438.6 394.9 438.4 C396.1 438.2 397.0 438.1 397.4 438.1" fill="none" stroke="#999999" stroke-width="1.6" stroke-linecap="round" marker-end="url(#ah)"></path>
<path d="M359.8 423.2 C359.9 423.5 360.3 424.2 360.7 424.9 C361.0 425.6 361.5 426.7 361.8 427.6 C362.2 428.5 362.5 429.4 362.9 430.3 C363.2 431.2 363.5 432.1 363.8 433.0 C364.1 434.0 364.3 434.9 364.6 435.8 C364.9 436.8 365.2 437.9 365.4 438.5 C365.6 439.1 365.8 439.3 365.9 439.5" fill="none" stroke="#999999" stroke-width="1.6" stroke-linecap="round" marker-end="url(#ah)"></path>
<path d="M365.6 439.6 C365.8 440.7 366.6 443.8 367.0 446.1 C367.5 448.5 368.0 451.2 368.4 453.8 C368.9 456.3 369.2 458.9 369.6 461.4 C369.9 464.0 370.2 466.5 370.5 469.1 C370.7 471.7 370.9 474.3 371.1 476.8 C371.3 479.4 371.5 482.5 371.6 484.5 C371.7 486.5 371.9 488.0 372.0 488.7" fill="none" stroke="#999999" stroke-width="1.6" stroke-linecap="round" marker-end="url(#ah)"></path>
<path d="M233.4 485.7 C233.5 485.2 233.8 483.9 234.1 482.8 C234.4 481.7 234.9 480.3 235.2 479.0 C235.6 477.8 235.9 476.5 236.3 475.2 C236.6 473.9 236.9 472.7 237.2 471.4 C237.5 470.1 237.8 468.8 238.1 467.5 C238.4 466.3 238.7 464.6 238.8 463.7 C239.0 462.8 239.1 462.3 239.1 462.0" fill="none" stroke="#999999" stroke-width="1.6" stroke-linecap="round" marker-end="url(#ah)"></path>
<path d="M233.2 485.6 C233.0 486.4 232.3 488.5 231.7 490.1 C231.2 491.8 230.5 493.7 229.8 495.5 C229.1 497.3 228.4 499.1 227.7 500.8 C226.9 502.6 226.2 504.3 225.4 506.1 C224.6 507.8 223.8 509.5 222.9 511.2 C222.0 512.9 220.9 515.0 220.2 516.2 C219.6 517.5 219.2 518.4 219.0 518.8" fill="none" stroke="#999999" stroke-width="1.6" stroke-linecap="round" marker-end="url(#ah)"></path>
<path d="M454.8 335.2 C455.3 335.8 456.6 337.6 457.8 338.8 C459.0 340.1 460.5 341.5 462.0 342.7 C463.5 343.8 465.1 344.9 466.7 345.8 C468.4 346.7 470.1 347.5 471.9 348.2 C473.6 348.8 475.5 349.3 477.3 349.8 C479.2 350.2 481.5 350.3 482.9 350.6 C484.3 350.9 485.3 351.5 485.8 351.7" fill="none" stroke="#999999" stroke-width="1.6" stroke-linecap="round" marker-end="url(#ah)"></path>
<path d="M498.8 345.7 C499.3 346.3 500.6 348.1 501.8 349.3 C503.0 350.5 504.5 352.0 506.0 353.2 C507.5 354.3 509.1 355.4 510.7 356.3 C512.4 357.2 514.1 358.0 515.9 358.7 C517.6 359.3 519.5 359.8 521.3 360.3 C523.2 360.7 525.5 360.8 526.9 361.1 C528.3 361.4 529.3 362.0 529.8 362.2" fill="none" stroke="#999999" stroke-width="1.6" stroke-linecap="round" marker-end="url(#ah)"></path>
<path d="M526.3 428.2 C526.8 428.5 528.1 429.5 529.3 430.2 C530.4 430.9 531.9 431.8 533.3 432.5 C534.7 433.1 536.1 433.7 537.5 434.2 C539.0 434.7 540.5 435.0 542.0 435.2 C543.5 435.4 545.1 435.4 546.6 435.4 C548.1 435.3 550.0 435.0 551.1 435.0 C552.2 435.0 552.9 435.3 553.3 435.3" fill="none" stroke="#999999" stroke-width="1.6" stroke-linecap="round" marker-end="url(#ah)"></path>
<path d="M439.3 431.2 C439.7 431.3 440.5 431.5 441.7 431.6 C442.8 431.7 444.6 431.7 446.1 431.7 C447.6 431.6 449.1 431.5 450.6 431.3 C452.1 431.1 453.6 430.8 455.0 430.5 C456.5 430.1 457.9 429.7 459.3 429.2 C460.7 428.8 462.4 428.0 463.4 427.7 C464.5 427.5 465.3 427.6 465.7 427.6" fill="none" stroke="#999999" stroke-width="1.6" stroke-linecap="round" marker-end="url(#ah)"></path>
<path d="M419.3 443.2 C418.9 444.6 417.8 448.5 417.2 451.5 C416.5 454.4 416.0 457.7 415.6 460.8 C415.1 464.0 414.8 467.2 414.5 470.3 C414.2 473.5 414.1 476.6 413.9 479.8 C413.8 483.0 413.7 486.2 413.6 489.3 C413.6 492.5 413.7 496.3 413.6 498.8 C413.6 501.3 413.4 503.3 413.4 504.2" fill="none" stroke="#999999" stroke-width="1.6" stroke-linecap="round" marker-end="url(#ah)"></path>
<path d="M342.7 437.7 C342.5 438.3 341.7 440.0 341.0 441.4 C340.4 442.8 339.7 444.6 339.0 446.1 C338.4 447.7 337.7 449.3 337.1 450.9 C336.5 452.5 335.9 454.1 335.3 455.7 C334.7 457.3 334.2 458.9 333.6 460.5 C333.1 462.1 332.4 464.2 332.0 465.3 C331.6 466.5 331.3 467.3 331.1 467.7" fill="none" stroke="#999999" stroke-width="1.6" stroke-linecap="round" marker-end="url(#ah)"></path>
<path d="M198.1 502.7 C198.0 502.0 197.9 500.1 197.7 498.6 C197.5 497.0 197.2 495.2 197.0 493.5 C196.9 491.7 196.7 490.0 196.5 488.3 C196.4 486.6 196.3 484.9 196.2 483.2 C196.1 481.4 196.0 479.7 196.0 478.0 C195.9 476.3 196.0 474.1 196.0 472.9 C196.0 471.6 196.0 470.8 196.0 470.4" fill="none" stroke="#999999" stroke-width="1.6" stroke-linecap="round" marker-end="url(#ah)"></path>
<path d="M331.3 151.2 C331.7 151.3 332.8 151.6 333.8 151.9 C334.8 152.2 336.1 152.6 337.3 153.0 C338.4 153.4 339.6 153.8 340.7 154.2 C341.8 154.7 343.0 155.1 344.1 155.5 C345.2 156.0 346.3 156.5 347.4 156.9 C348.5 157.4 349.9 158.1 350.7 158.4 C351.5 158.7 351.9 158.7 352.1 158.8" fill="none" stroke="#999999" stroke-width="1.6" stroke-linecap="round" marker-end="url(#ah)"></path>
<path d="M352.1 159.0 C352.9 159.4 355.3 160.5 357.1 161.4 C358.9 162.3 361.0 163.4 362.9 164.4 C364.9 165.4 366.8 166.4 368.7 167.5 C370.6 168.6 372.5 169.7 374.4 170.8 C376.2 171.9 378.1 173.1 380.0 174.2 C381.8 175.4 384.0 176.9 385.4 177.8 C386.8 178.7 387.9 179.3 388.4 179.6" fill="none" stroke="#999999" stroke-width="1.6" stroke-linecap="round" marker-end="url(#ah)"></path>
<path d="M484.0 429.5 C484.5 429.8 485.8 430.8 487.0 431.5 C488.2 432.2 489.6 433.1 491.0 433.8 C492.4 434.4 493.8 435.0 495.3 435.5 C496.7 435.9 498.3 436.3 499.8 436.5 C501.3 436.7 502.8 436.7 504.4 436.6 C505.9 436.6 507.8 436.3 508.9 436.2 C510.0 436.2 510.6 436.6 511.0 436.6" fill="none" stroke="#999999" stroke-width="1.6" stroke-linecap="round" marker-end="url(#ah)"></path>
<path d="M302.8 395.7 C301.9 399.0 300.0 408.8 297.6 415.3 C295.2 421.7 291.8 428.2 288.4 434.4 C285.1 440.7 281.1 446.6 277.3 452.6 C273.5 458.6 269.4 464.4 265.7 470.4 C261.9 476.5 257.9 482.4 254.8 488.7 C251.6 495.0 248.4 502.8 246.6 508.2 C244.9 513.7 244.6 519.0 244.2 521.2" fill="none" stroke="#999999" stroke-width="1.6" stroke-linecap="round" marker-end="url(#ah)"></path>
<path d="M316.3 395.7 C315.7 398.8 314.3 408.1 312.6 414.5 C311.0 420.8 308.7 427.3 306.5 433.6 C304.2 439.9 301.5 446.0 298.9 452.2 C296.3 458.4 293.5 464.5 291.0 470.7 C288.5 476.9 285.8 483.1 283.8 489.5 C281.7 495.9 279.8 503.6 278.7 508.8 C277.6 514.1 277.4 519.1 277.2 521.2" fill="none" stroke="#999999" stroke-width="1.6" stroke-linecap="round" marker-end="url(#ah)"></path>



<circle cx="232.736" cy="242.294" r="2.86792" fill="white" stroke="#ADB3BE" stroke-width="1.43396"></circle>
<circle cx="240.623" cy="254.124" r="2.86792" fill="white" stroke="#ADB3BE" stroke-width="1.43396"></circle>
<circle cx="224.85" cy="254.124" r="2.86792" fill="white" stroke="#ADB3BE" stroke-width="1.43396"></circle>
<line x1="226.762" y1="251.576" x2="231.064" y2="245.123" stroke="#ADB3BE" stroke-width="1.43396"></line>
<line y1="-0.716981" x2="7.75534" y2="-0.716981" transform="matrix(-0.5547 -0.83205 -0.83205 0.5547 238.114 251.615)" stroke="#ADB3BE" stroke-width="1.43396"></line>
<circle cx="289.736" cy="316.294" r="2.86792" fill="white" stroke="#ADB3BE" stroke-width="1.43396"></circle>
<circle cx="297.623" cy="328.124" r="2.86792" fill="white" stroke="#ADB3BE" stroke-width="1.43396"></circle>
<circle cx="281.85" cy="328.124" r="2.86792" fill="white" stroke="#ADB3BE" stroke-width="1.43396"></circle>
<line x1="283.762" y1="325.576" x2="288.064" y2="319.123" stroke="#ADB3BE" stroke-width="1.43396"></line>
<line y1="-0.716981" x2="7.75534" y2="-0.716981" transform="matrix(-0.5547 -0.83205 -0.83205 0.5547 295.114 325.615)" stroke="#ADB3BE" stroke-width="1.43396"></line>
<circle cx="239.736" cy="354.294" r="2.86792" fill="white" stroke="#ADB3BE" stroke-width="1.43396"></circle>
<circle cx="247.623" cy="366.124" r="2.86792" fill="white" stroke="#ADB3BE" stroke-width="1.43396"></circle>
<circle cx="231.85" cy="366.124" r="2.86792" fill="white" stroke="#ADB3BE" stroke-width="1.43396"></circle>
<line x1="233.762" y1="363.576" x2="238.064" y2="357.123" stroke="#ADB3BE" stroke-width="1.43396"></line>
<line y1="-0.716981" x2="7.75534" y2="-0.716981" transform="matrix(-0.5547 -0.83205 -0.83205 0.5547 245.114 363.615)" stroke="#ADB3BE" stroke-width="1.43396"></line>
<circle cx="193.736" cy="328.294" r="2.86792" fill="white" stroke="#ADB3BE" stroke-width="1.43396"></circle>
<circle cx="201.623" cy="340.124" r="2.86792" fill="white" stroke="#ADB3BE" stroke-width="1.43396"></circle>
<circle cx="185.85" cy="340.124" r="2.86792" fill="white" stroke="#ADB3BE" stroke-width="1.43396"></circle>
<line x1="187.762" y1="337.576" x2="192.064" y2="331.123" stroke="#ADB3BE" stroke-width="1.43396"></line>
<line y1="-0.716981" x2="7.75534" y2="-0.716981" transform="matrix(-0.5547 -0.83205 -0.83205 0.5547 199.114 337.615)" stroke="#ADB3BE" stroke-width="1.43396"></line>
<circle cx="156.736" cy="423.294" r="2.86792" fill="white" stroke="#ADB3BE" stroke-width="1.43396"></circle>
<circle cx="164.623" cy="435.124" r="2.86792" fill="white" stroke="#ADB3BE" stroke-width="1.43396"></circle>
<circle cx="148.85" cy="435.124" r="2.86792" fill="white" stroke="#ADB3BE" stroke-width="1.43396"></circle>
<line x1="150.762" y1="432.576" x2="155.064" y2="426.123" stroke="#ADB3BE" stroke-width="1.43396"></line>
<line y1="-0.716981" x2="7.75534" y2="-0.716981" transform="matrix(-0.5547 -0.83205 -0.83205 0.5547 162.114 432.615)" stroke="#ADB3BE" stroke-width="1.43396"></line>
<circle cx="197.736" cy="431.294" r="2.86792" fill="white" stroke="#ADB3BE" stroke-width="1.43396"></circle>
<circle cx="205.623" cy="443.124" r="2.86792" fill="white" stroke="#ADB3BE" stroke-width="1.43396"></circle>
<circle cx="189.85" cy="443.124" r="2.86792" fill="white" stroke="#ADB3BE" stroke-width="1.43396"></circle>
<line x1="191.762" y1="440.576" x2="196.064" y2="434.123" stroke="#ADB3BE" stroke-width="1.43396"></line>
<line y1="-0.716981" x2="7.75534" y2="-0.716981" transform="matrix(-0.5547 -0.83205 -0.83205 0.5547 203.114 440.615)" stroke="#ADB3BE" stroke-width="1.43396"></line>
<circle cx="243.736" cy="431.294" r="2.86792" fill="white" stroke="#ADB3BE" stroke-width="1.43396"></circle>
<circle cx="251.623" cy="443.124" r="2.86792" fill="white" stroke="#ADB3BE" stroke-width="1.43396"></circle>
<circle cx="235.85" cy="443.124" r="2.86792" fill="white" stroke="#ADB3BE" stroke-width="1.43396"></circle>
<line x1="237.762" y1="440.576" x2="242.064" y2="434.123" stroke="#ADB3BE" stroke-width="1.43396"></line>
<line y1="-0.716981" x2="7.75534" y2="-0.716981" transform="matrix(-0.5547 -0.83205 -0.83205 0.5547 249.114 440.615)" stroke="#ADB3BE" stroke-width="1.43396"></line>
<circle cx="165.736" cy="506.294" r="2.86792" fill="white" stroke="#ADB3BE" stroke-width="1.43396"></circle>
<circle cx="173.623" cy="518.125" r="2.86792" fill="white" stroke="#ADB3BE" stroke-width="1.43396"></circle>
<circle cx="157.85" cy="518.125" r="2.86792" fill="white" stroke="#ADB3BE" stroke-width="1.43396"></circle>
<line x1="159.762" y1="515.576" x2="164.064" y2="509.123" stroke="#ADB3BE" stroke-width="1.43396"></line>
<line y1="-0.716981" x2="7.75534" y2="-0.716981" transform="matrix(-0.5547 -0.83205 -0.83205 0.5547 171.114 515.615)" stroke="#ADB3BE" stroke-width="1.43396"></line>
<circle cx="202.736" cy="516.294" r="2.86792" fill="white" stroke="#ADB3BE" stroke-width="1.43396"></circle>
<circle cx="210.623" cy="528.124" r="2.86792" fill="white" stroke="#ADB3BE" stroke-width="1.43396"></circle>
<circle cx="194.85" cy="528.124" r="2.86792" fill="white" stroke="#ADB3BE" stroke-width="1.43396"></circle>
<line x1="196.762" y1="525.576" x2="201.064" y2="519.123" stroke="#ADB3BE" stroke-width="1.43396"></line>
<line y1="-0.716981" x2="7.75534" y2="-0.716981" transform="matrix(-0.5547 -0.83205 -0.83205 0.5547 208.114 525.615)" stroke="#ADB3BE" stroke-width="1.43396"></line>
<circle cx="122.736" cy="495.294" r="2.86792" fill="white" stroke="#ADB3BE" stroke-width="1.43396"></circle>
<circle cx="130.623" cy="507.124" r="2.86792" fill="white" stroke="#ADB3BE" stroke-width="1.43396"></circle>
<circle cx="114.85" cy="507.124" r="2.86792" fill="white" stroke="#ADB3BE" stroke-width="1.43396"></circle>
<line x1="116.762" y1="504.576" x2="121.064" y2="498.123" stroke="#ADB3BE" stroke-width="1.43396"></line>
<line y1="-0.716981" x2="7.75534" y2="-0.716981" transform="matrix(-0.5547 -0.83205 -0.83205 0.5547 128.114 504.615)" stroke="#ADB3BE" stroke-width="1.43396"></line>
<circle cx="270.736" cy="244.294" r="2.86792" fill="white" stroke="#ADB3BE" stroke-width="1.43396"></circle>
<circle cx="278.623" cy="256.124" r="2.86792" fill="white" stroke="#ADB3BE" stroke-width="1.43396"></circle>
<circle cx="262.85" cy="256.124" r="2.86792" fill="white" stroke="#ADB3BE" stroke-width="1.43396"></circle>
<line x1="264.762" y1="253.576" x2="269.064" y2="247.123" stroke="#ADB3BE" stroke-width="1.43396"></line>
<line y1="-0.716981" x2="7.75534" y2="-0.716981" transform="matrix(-0.5547 -0.83205 -0.83205 0.5547 276.114 253.615)" stroke="#ADB3BE" stroke-width="1.43396"></line>
<circle cx="309.736" cy="141.294" r="2.86792" fill="white" stroke="#ADB3BE" stroke-width="1.43396"></circle>
<circle cx="317.623" cy="153.124" r="2.86792" fill="white" stroke="#ADB3BE" stroke-width="1.43396"></circle>
<circle cx="301.85" cy="153.124" r="2.86792" fill="white" stroke="#ADB3BE" stroke-width="1.43396"></circle>
<line x1="303.762" y1="150.576" x2="308.064" y2="144.123" stroke="#ADB3BE" stroke-width="1.43396"></line>
<line y1="-0.716981" x2="7.75534" y2="-0.716981" transform="matrix(-0.5547 -0.83205 -0.83205 0.5547 315.114 150.615)" stroke="#ADB3BE" stroke-width="1.43396"></line>
<circle cx="360.736" cy="95.2943" r="2.86792" fill="white" stroke="#ADB3BE" stroke-width="1.43396"></circle>
<circle cx="368.623" cy="107.124" r="2.86792" fill="white" stroke="#ADB3BE" stroke-width="1.43396"></circle>
<circle cx="352.85" cy="107.124" r="2.86792" fill="white" stroke="#ADB3BE" stroke-width="1.43396"></circle>
<line x1="354.762" y1="104.576" x2="359.064" y2="98.123" stroke="#ADB3BE" stroke-width="1.43396"></line>
<line y1="-0.716981" x2="7.75534" y2="-0.716981" transform="matrix(-0.5547 -0.83205 -0.83205 0.5547 366.114 104.615)" stroke="#ADB3BE" stroke-width="1.43396"></line>
<circle cx="386.736" cy="60.2943" r="2.86792" fill="white" stroke="#ADB3BE" stroke-width="1.43396"></circle>
<circle cx="394.623" cy="72.1245" r="2.86792" fill="white" stroke="#ADB3BE" stroke-width="1.43396"></circle>
<circle cx="378.85" cy="72.1245" r="2.86792" fill="white" stroke="#ADB3BE" stroke-width="1.43396"></circle>
<line x1="380.762" y1="69.5758" x2="385.064" y2="63.123" stroke="#ADB3BE" stroke-width="1.43396"></line>
<line y1="-0.716981" x2="7.75534" y2="-0.716981" transform="matrix(-0.5547 -0.83205 -0.83205 0.5547 392.114 69.615)" stroke="#ADB3BE" stroke-width="1.43396"></line>
<path d="M421.265 119.439C421.265 117.381 419.595 115.709 417.539 115.709H403.99C401.934 115.709 400.265 117.381 400.265 119.439V132.323C400.265 134.382 401.934 136.053 403.99 136.053H417.539C419.595 136.053 421.265 134.382 421.265 132.323V119.439ZM409.749 134.019H403.99C403.056 134.019 402.297 133.259 402.297 132.323V129.95H409.749V134.019ZM409.749 127.916H402.297V123.847H409.749V127.916ZM409.749 121.812H402.297V119.439C402.297 118.503 403.056 117.744 403.99 117.744H409.749V121.812ZM419.232 132.323C419.232 133.259 418.474 134.019 417.539 134.019H411.781V129.95H419.232V132.323ZM419.232 127.916H411.781V123.847H419.232V127.916ZM419.232 121.812H411.781V117.744H417.539C418.474 117.744 419.232 118.503 419.232 119.439V121.812Z" fill="#00C373"></path>
<path d="M421.265 182.439C421.265 180.381 419.595 178.709 417.539 178.709H403.99C401.934 178.709 400.265 180.381 400.265 182.439V195.323C400.265 197.382 401.934 199.053 403.99 199.053H417.539C419.595 199.053 421.265 197.382 421.265 195.323V182.439ZM409.749 197.019H403.99C403.056 197.019 402.297 196.259 402.297 195.323V192.95H409.749V197.019ZM409.749 190.916H402.297V186.847H409.749V190.916ZM409.749 184.812H402.297V182.439C402.297 181.503 403.056 180.744 403.99 180.744H409.749V184.812ZM419.232 195.323C419.232 196.259 418.474 197.019 417.539 197.019H411.781V192.95H419.232V195.323ZM419.232 190.916H411.781V186.847H419.232V190.916ZM419.232 184.812H411.781V180.744H417.539C418.474 180.744 419.232 181.503 419.232 182.439V184.812Z" fill="#00C373"></path>
<path d="M319.265 196.439C319.265 194.381 317.595 192.709 315.539 192.709H301.99C299.934 192.709 298.265 194.381 298.265 196.439V209.323C298.265 211.382 299.934 213.053 301.99 213.053H315.539C317.595 213.053 319.265 211.382 319.265 209.323V196.439ZM307.749 211.019H301.99C301.056 211.019 300.297 210.259 300.297 209.323V206.95H307.749V211.019ZM307.749 204.916H300.297V200.847H307.749V204.916ZM307.749 198.812H300.297V196.439C300.297 195.503 301.056 194.744 301.99 194.744H307.749V198.812ZM317.232 209.323C317.232 210.259 316.474 211.019 315.539 211.019H309.781V206.95H317.232V209.323ZM317.232 204.916H309.781V200.847H317.232V204.916ZM317.232 198.812H309.781V194.744H315.539C316.474 194.744 317.232 195.503 317.232 196.439V198.812Z" fill="#00C373"></path>
<path d="M421.265 255.439C421.265 253.381 419.595 251.709 417.539 251.709H403.99C401.934 251.709 400.265 253.381 400.265 255.439V268.323C400.265 270.382 401.934 272.053 403.99 272.053H417.539C419.595 272.053 421.265 270.382 421.265 268.323V255.439ZM409.749 270.019H403.99C403.056 270.019 402.297 269.259 402.297 268.323V265.95H409.749V270.019ZM409.749 263.916H402.297V259.847H409.749V263.916ZM409.749 257.812H402.297V255.439C402.297 254.503 403.056 253.744 403.99 253.744H409.749V257.812ZM419.232 268.323C419.232 269.259 418.474 270.019 417.539 270.019H411.781V265.95H419.232V268.323ZM419.232 263.916H411.781V259.847H419.232V263.916ZM419.232 257.812H411.781V253.744H417.539C418.474 253.744 419.232 254.503 419.232 255.439V257.812Z" fill="#00C373"></path>
<path d="M320.265 375.439C320.265 373.381 318.595 371.709 316.539 371.709H302.99C300.934 371.709 299.265 373.381 299.265 375.439V388.323C299.265 390.382 300.934 392.053 302.99 392.053H316.539C318.595 392.053 320.265 390.382 320.265 388.323V375.439ZM308.749 390.019H302.99C302.056 390.019 301.297 389.259 301.297 388.323V385.95H308.749V390.019ZM308.749 383.916H301.297V379.847H308.749V383.916ZM308.749 377.813H301.297V375.439C301.297 374.503 302.056 373.744 302.99 373.744H308.749V377.813ZM318.232 388.323C318.232 389.259 317.474 390.019 316.539 390.019H310.781V385.95H318.232V388.323ZM318.232 383.916H310.781V379.847H318.232V383.916ZM318.232 377.813H310.781V373.744H316.539C317.474 373.744 318.232 374.503 318.232 375.439V377.813Z" fill="#00C373"></path>
<path d="M366.265 397.439C366.265 395.381 364.595 393.709 362.539 393.709H348.99C346.934 393.709 345.265 395.381 345.265 397.439V410.323C345.265 412.382 346.934 414.053 348.99 414.053H362.539C364.595 414.053 366.265 412.382 366.265 410.323V397.439ZM354.749 412.019H348.99C348.056 412.019 347.297 411.259 347.297 410.323V407.95H354.749V412.019ZM354.749 405.916H347.297V401.847H354.749V405.916ZM354.749 399.813H347.297V397.439C347.297 396.503 348.056 395.744 348.99 395.744H354.749V399.813ZM364.232 410.323C364.232 411.259 363.474 412.019 362.539 412.019H356.781V407.95H364.232V410.323ZM364.232 405.916H356.781V401.847H364.232V405.916ZM364.232 399.813H356.781V395.744H362.539C363.474 395.744 364.232 396.503 364.232 397.439V399.813Z" fill="#00C373"></path>
<path d="M434.265 420.439C434.265 418.381 432.595 416.709 430.539 416.709H416.99C414.934 416.709 413.265 418.381 413.265 420.439V433.323C413.265 435.382 414.934 437.053 416.99 437.053H430.539C432.595 437.053 434.265 435.382 434.265 433.323V420.439ZM422.749 435.019H416.99C416.056 435.019 415.297 434.259 415.297 433.323V430.95H422.749V435.019ZM422.749 428.916H415.297V424.847H422.749V428.916ZM422.749 422.813H415.297V420.439C415.297 419.503 416.056 418.744 416.99 418.744H422.749V422.813ZM432.232 433.323C432.232 434.259 431.474 435.019 430.539 435.019H424.781V430.95H432.232V433.323ZM432.232 428.916H424.781V424.847H432.232V428.916ZM432.232 422.813H424.781V418.744H430.539C431.474 418.744 432.232 419.503 432.232 420.439V422.813Z" fill="#00C373"></path>
<path d="M425.265 517.439C425.265 515.381 423.595 513.709 421.539 513.709H407.99C405.934 513.709 404.265 515.381 404.265 517.439V530.323C404.265 532.382 405.934 534.053 407.99 534.053H421.539C423.595 534.053 425.265 532.382 425.265 530.323V517.439ZM413.749 532.019H407.99C407.056 532.019 406.297 531.259 406.297 530.323V527.95H413.749V532.019ZM413.749 525.916H406.297V521.847H413.749V525.916ZM413.749 519.813H406.297V517.439C406.297 516.503 407.056 515.744 407.99 515.744H413.749V519.813ZM423.232 530.323C423.232 531.259 422.474 532.019 421.539 532.019H415.781V527.95H423.232V530.323ZM423.232 525.916H415.781V521.847H423.232V525.916ZM423.232 519.813H415.781V515.744H421.539C422.474 515.744 423.232 516.503 423.232 517.439V519.813Z" fill="#00C373"></path>
<path d="M381.265 501.439C381.265 499.381 379.595 497.709 377.539 497.709H363.99C361.934 497.709 360.265 499.381 360.265 501.439V514.323C360.265 516.382 361.934 518.053 363.99 518.053H377.539C379.595 518.053 381.265 516.382 381.265 514.323V501.439ZM369.749 516.019H363.99C363.056 516.019 362.297 515.259 362.297 514.323V511.95H369.749V516.019ZM369.749 509.916H362.297V505.847H369.749V509.916ZM369.749 503.813H362.297V501.439C362.297 500.503 363.056 499.744 363.99 499.744H369.749V503.813ZM379.232 514.323C379.232 515.259 378.474 516.019 377.539 516.019H371.781V511.95H379.232V514.323ZM379.232 509.916H371.781V505.847H379.232V509.916ZM379.232 503.813H371.781V499.744H377.539C378.474 499.744 379.232 500.503 379.232 501.439V503.813Z" fill="#00C373"></path>
<path d="M251.265 532.439C251.265 530.381 249.595 528.709 247.539 528.709H233.99C231.934 528.709 230.265 530.381 230.265 532.439V545.323C230.265 547.382 231.934 549.053 233.99 549.053H247.539C249.595 549.053 251.265 547.382 251.265 545.323V532.439ZM239.749 547.019H233.99C233.056 547.019 232.297 546.259 232.297 545.323V542.95H239.749V547.019ZM239.749 540.916H232.297V536.847H239.749V540.916ZM239.749 534.812H232.297V532.439C232.297 531.503 233.056 530.744 233.99 530.744H239.749V534.812ZM249.232 545.323C249.232 546.259 248.474 547.019 247.539 547.019H241.781V542.95H249.232V545.323ZM249.232 540.916H241.781V536.847H249.232V540.916ZM249.232 534.812H241.781V530.744H247.539C248.474 530.744 249.232 531.503 249.232 532.439V534.812Z" fill="#00C373"></path>
<path d="M548.055 132.076C547.141 132.116 546.311 131.919 545.584 131.346C542.859 129.199 544.091 125.087 547.526 124.713C550.94 124.516 552.824 128.724 550.223 131.104C549.55 131.719 548.936 131.936 548.055 132.076V132.076Z" fill="#ADB3BE"></path>
<path d="M551.061 139.295L542.756 139.294C542.153 139.295 541.225 139.47 540.982 138.742C540.912 138.534 540.94 138.273 540.95 138.057C541.072 135.555 542.301 133.568 544.554 132.397C544.765 132.286 544.983 132.164 545.209 132.087C545.262 132.075 545.441 132.215 545.493 132.247C547.007 133.189 548.78 132.966 550.281 132.13C551.143 132.399 552.119 133.067 552.769 133.706C554.011 134.927 554.583 136.597 554.595 138.318C554.602 139.389 553.774 139.295 552.991 139.294L551.061 139.295Z" fill="#ADB3BE"></path>
<path d="M493.055 81.0757C492.141 81.1158 491.311 80.919 490.584 80.3464C487.859 78.1995 489.091 74.0873 492.526 73.7134C495.94 73.5157 497.824 77.724 495.223 80.1037C494.55 80.7189 493.936 80.9363 493.055 81.0757V81.0757Z" fill="#ADB3BE"></path>
<path d="M496.061 88.2951L487.756 88.2943C487.153 88.2951 486.225 88.4698 485.982 87.7422C485.912 87.5339 485.94 87.273 485.95 87.0572C486.072 84.5553 487.301 82.5685 489.554 81.397C489.765 81.2863 489.983 81.1641 490.209 81.087C490.262 81.0747 490.441 81.2149 490.493 81.2469C492.007 82.1895 493.78 81.9655 495.281 81.1304C496.143 81.3987 497.119 82.0672 497.769 82.7063C499.011 83.9269 499.583 85.5971 499.595 87.318C499.602 88.3894 498.774 88.295 497.991 88.2942L496.061 88.2951Z" fill="#ADB3BE"></path>
<path d="M405.055 54.0757C404.141 54.1158 403.311 53.919 402.584 53.3464C399.859 51.1995 401.091 47.0873 404.526 46.7134C407.94 46.5157 409.824 50.724 407.223 53.1037C406.55 53.7189 405.936 53.9363 405.055 54.0757V54.0757Z" fill="#ADB3BE"></path>
<path d="M408.061 61.2951L399.756 61.2943C399.153 61.2951 398.225 61.4698 397.982 60.7422C397.912 60.5339 397.94 60.273 397.95 60.0573C398.072 57.5553 399.301 55.5685 401.554 54.397C401.765 54.2863 401.983 54.1641 402.209 54.087C402.262 54.0747 402.441 54.2149 402.493 54.2469C404.007 55.1895 405.78 54.9655 407.281 54.1304C408.143 54.3987 409.119 55.0672 409.769 55.7063C411.011 56.9269 411.583 58.5971 411.595 60.318C411.602 61.3894 410.774 61.295 409.991 61.2942L408.061 61.2951Z" fill="#ADB3BE"></path>
<path d="M550.055 192.076C549.141 192.116 548.311 191.919 547.584 191.346C544.859 189.199 546.091 185.087 549.526 184.713C552.94 184.516 554.824 188.724 552.223 191.104C551.55 191.719 550.936 191.936 550.055 192.076V192.076Z" fill="#ADB3BE"></path>
<path d="M553.061 199.295L544.756 199.294C544.153 199.295 543.225 199.47 542.982 198.742C542.912 198.534 542.94 198.273 542.95 198.057C543.072 195.555 544.301 193.568 546.554 192.397C546.765 192.286 546.983 192.164 547.209 192.087C547.262 192.075 547.441 192.215 547.493 192.247C549.007 193.189 550.78 192.966 552.281 192.13C553.143 192.399 554.119 193.067 554.769 193.706C556.011 194.927 556.583 196.597 556.595 198.318C556.602 199.389 555.774 199.295 554.991 199.294L553.061 199.295Z" fill="#ADB3BE"></path>
<path d="M497.055 221.076C496.141 221.116 495.311 220.919 494.584 220.346C491.859 218.199 493.091 214.087 496.526 213.713C499.94 213.516 501.824 217.724 499.223 220.104C498.55 220.719 497.936 220.936 497.055 221.076V221.076Z" fill="#ADB3BE"></path>
<path d="M500.061 228.295L491.756 228.294C491.153 228.295 490.225 228.47 489.982 227.742C489.912 227.534 489.94 227.273 489.95 227.057C490.072 224.555 491.301 222.568 493.554 221.397C493.765 221.286 493.983 221.164 494.209 221.087C494.262 221.075 494.441 221.215 494.493 221.247C496.007 222.189 497.78 221.966 499.281 221.13C500.143 221.399 501.119 222.067 501.769 222.706C503.011 223.927 503.583 225.597 503.595 227.318C503.602 228.389 502.774 228.295 501.991 228.294L500.061 228.295Z" fill="#ADB3BE"></path>
<path d="M538.055 293.076C537.141 293.116 536.311 292.919 535.584 292.346C532.859 290.2 534.091 286.087 537.526 285.713C540.94 285.516 542.824 289.724 540.223 292.104C539.55 292.719 538.936 292.936 538.055 293.076V293.076Z" fill="#ADB3BE"></path>
<path d="M541.061 300.295L532.756 300.294C532.153 300.295 531.225 300.47 530.982 299.742C530.912 299.534 530.94 299.273 530.95 299.057C531.072 296.555 532.301 294.569 534.554 293.397C534.765 293.286 534.983 293.164 535.209 293.087C535.262 293.075 535.441 293.215 535.493 293.247C537.007 294.189 538.78 293.966 540.281 293.13C541.143 293.399 542.119 294.067 542.769 294.706C544.011 295.927 544.583 297.597 544.595 299.318C544.602 300.389 543.774 300.295 542.991 300.294L541.061 300.295Z" fill="#ADB3BE"></path>
<path d="M497.055 277.076C496.141 277.116 495.311 276.919 494.584 276.346C491.859 274.2 493.091 270.087 496.526 269.713C499.94 269.516 501.824 273.724 499.223 276.104C498.55 276.719 497.936 276.936 497.055 277.076V277.076Z" fill="#ADB3BE"></path>
<path d="M500.061 284.295L491.756 284.294C491.153 284.295 490.225 284.47 489.982 283.742C489.912 283.534 489.94 283.273 489.95 283.057C490.072 280.555 491.301 278.569 493.554 277.397C493.765 277.286 493.983 277.164 494.209 277.087C494.262 277.075 494.441 277.215 494.493 277.247C496.007 278.189 497.78 277.966 499.281 277.13C500.143 277.399 501.119 278.067 501.769 278.706C503.011 279.927 503.583 281.597 503.595 283.318C503.602 284.389 502.774 284.295 501.991 284.294L500.061 284.295Z" fill="#ADB3BE"></path>
<path d="M430.055 280.076C429.141 280.116 428.311 279.919 427.584 279.346C424.859 277.2 426.091 273.087 429.526 272.713C432.94 272.516 434.824 276.724 432.223 279.104C431.55 279.719 430.936 279.936 430.055 280.076V280.076Z" fill="#ADB3BE"></path>
<path d="M433.061 287.295L424.756 287.294C424.153 287.295 423.225 287.47 422.982 286.742C422.912 286.534 422.94 286.273 422.95 286.057C423.072 283.555 424.301 281.569 426.554 280.397C426.765 280.286 426.983 280.164 427.209 280.087C427.262 280.075 427.441 280.215 427.493 280.247C429.007 281.189 430.78 280.966 432.281 280.13C433.143 280.399 434.119 281.067 434.769 281.706C436.011 282.927 436.583 284.597 436.595 286.318C436.602 287.389 435.774 287.295 434.991 287.294L433.061 287.295Z" fill="#ADB3BE"></path>
<path d="M367.055 220.076C366.141 220.116 365.311 219.919 364.584 219.346C361.859 217.199 363.091 213.087 366.526 212.713C369.94 212.516 371.824 216.724 369.223 219.104C368.55 219.719 367.936 219.936 367.055 220.076V220.076Z" fill="#ADB3BE"></path>
<path d="M370.061 227.295L361.756 227.294C361.153 227.295 360.225 227.47 359.982 226.742C359.912 226.534 359.94 226.273 359.95 226.057C360.072 223.555 361.301 221.568 363.554 220.397C363.765 220.286 363.983 220.164 364.209 220.087C364.262 220.075 364.441 220.215 364.493 220.247C366.007 221.189 367.78 220.966 369.281 220.13C370.143 220.399 371.119 221.067 371.769 221.706C373.011 222.927 373.583 224.597 373.595 226.318C373.602 227.389 372.774 227.295 371.991 227.294L370.061 227.295Z" fill="#ADB3BE"></path>
<path d="M340.055 286.076C339.141 286.116 338.311 285.919 337.584 285.346C334.859 283.2 336.091 279.087 339.526 278.713C342.94 278.516 344.824 282.724 342.223 285.104C341.55 285.719 340.936 285.936 340.055 286.076V286.076Z" fill="#ADB3BE"></path>
<path d="M343.061 293.295L334.756 293.294C334.153 293.295 333.225 293.47 332.982 292.742C332.912 292.534 332.94 292.273 332.95 292.057C333.072 289.555 334.301 287.569 336.554 286.397C336.765 286.286 336.983 286.164 337.209 286.087C337.262 286.075 337.441 286.215 337.493 286.247C339.007 287.189 340.78 286.966 342.281 286.13C343.143 286.399 344.119 287.067 344.769 287.706C346.011 288.927 346.583 290.597 346.595 292.318C346.602 293.389 345.774 293.295 344.991 293.294L343.061 293.295Z" fill="#ADB3BE"></path>
<path d="M284.055 268.076C283.141 268.116 282.311 267.919 281.584 267.346C278.859 265.199 280.091 261.087 283.526 260.713C286.94 260.516 288.824 264.724 286.223 267.104C285.55 267.719 284.936 267.936 284.055 268.076V268.076Z" fill="#ADB3BE"></path>
<path d="M287.061 275.295L278.756 275.294C278.153 275.295 277.225 275.47 276.982 274.742C276.912 274.534 276.94 274.273 276.95 274.057C277.072 271.555 278.301 269.569 280.554 268.397C280.765 268.286 280.983 268.164 281.209 268.087C281.262 268.075 281.441 268.215 281.493 268.247C283.007 269.189 284.78 268.966 286.281 268.13C287.143 268.399 288.119 269.067 288.769 269.706C290.011 270.927 290.583 272.597 290.595 274.318C290.602 275.389 289.774 275.295 288.991 275.294L287.061 275.295Z" fill="#ADB3BE"></path>
<path d="M585.055 298.076C584.141 298.116 583.311 297.919 582.584 297.346C579.859 295.2 581.091 291.087 584.526 290.713C587.94 290.516 589.824 294.724 587.223 297.104C586.55 297.719 585.936 297.936 585.055 298.076V298.076Z" fill="#ADB3BE"></path>
<path d="M588.061 305.295L579.756 305.294C579.153 305.295 578.225 305.47 577.982 304.742C577.912 304.534 577.94 304.273 577.95 304.057C578.072 301.555 579.301 299.569 581.554 298.397C581.765 298.286 581.983 298.164 582.209 298.087C582.262 298.075 582.441 298.215 582.493 298.247C584.007 299.189 585.78 298.966 587.281 298.13C588.143 298.399 589.119 299.067 589.769 299.706C591.011 300.927 591.583 302.597 591.595 304.318C591.602 305.389 590.774 305.295 589.991 305.294L588.061 305.295Z" fill="#ADB3BE"></path>
<path d="M565.055 360.076C564.141 360.116 563.311 359.919 562.584 359.346C559.859 357.2 561.091 353.087 564.526 352.713C567.94 352.516 569.824 356.724 567.223 359.104C566.55 359.719 565.936 359.936 565.055 360.076V360.076Z" fill="#ADB3BE"></path>
<path d="M568.061 367.295L559.756 367.294C559.153 367.295 558.225 367.47 557.982 366.742C557.912 366.534 557.94 366.273 557.95 366.057C558.072 363.555 559.301 361.569 561.554 360.397C561.765 360.286 561.983 360.164 562.209 360.087C562.262 360.075 562.441 360.215 562.493 360.247C564.007 361.189 565.78 360.966 567.281 360.13C568.143 360.399 569.119 361.067 569.769 361.706C571.011 362.927 571.583 364.597 571.595 366.318C571.602 367.389 570.774 367.295 569.991 367.294L568.061 367.295Z" fill="#ADB3BE"></path>
<path d="M517.055 336.076C516.141 336.116 515.311 335.919 514.584 335.346C511.859 333.2 513.091 329.087 516.526 328.713C519.94 328.516 521.824 332.724 519.223 335.104C518.55 335.719 517.936 335.936 517.055 336.076V336.076Z" fill="#ADB3BE"></path>
<path d="M520.061 343.295L511.756 343.294C511.153 343.295 510.225 343.47 509.982 342.742C509.912 342.534 509.94 342.273 509.95 342.057C510.072 339.555 511.301 337.569 513.554 336.397C513.765 336.286 513.983 336.164 514.209 336.087C514.262 336.075 514.441 336.215 514.493 336.247C516.007 337.189 517.78 336.966 519.281 336.13C520.143 336.399 521.119 337.067 521.769 337.706C523.011 338.927 523.583 340.597 523.595 342.318C523.602 343.389 522.774 343.295 521.991 343.294L520.061 343.295Z" fill="#ADB3BE"></path>
<path d="M470.055 330.076C469.141 330.116 468.311 329.919 467.584 329.346C464.859 327.2 466.091 323.087 469.526 322.713C472.94 322.516 474.824 326.724 472.223 329.104C471.55 329.719 470.936 329.936 470.055 330.076V330.076Z" fill="#ADB3BE"></path>
<path d="M473.061 337.295L464.756 337.294C464.153 337.295 463.225 337.47 462.982 336.742C462.912 336.534 462.94 336.273 462.95 336.057C463.072 333.555 464.301 331.569 466.554 330.397C466.765 330.286 466.983 330.164 467.209 330.087C467.262 330.075 467.441 330.215 467.493 330.247C469.007 331.189 470.78 330.966 472.281 330.13C473.143 330.399 474.119 331.067 474.769 331.706C476.011 332.927 476.583 334.597 476.595 336.318C476.602 337.389 475.774 337.295 474.991 337.294L473.061 337.295Z" fill="#ADB3BE"></path>
<path d="M588.055 428.076C587.141 428.116 586.311 427.919 585.584 427.346C582.859 425.2 584.091 421.087 587.526 420.713C590.94 420.516 592.824 424.724 590.223 427.104C589.55 427.719 588.936 427.936 588.055 428.076V428.076Z" fill="#ADB3BE"></path>
<path d="M591.061 435.295L582.756 435.294C582.153 435.295 581.225 435.47 580.982 434.742C580.912 434.534 580.94 434.273 580.95 434.057C581.072 431.555 582.301 429.569 584.554 428.397C584.765 428.286 584.983 428.164 585.209 428.087C585.262 428.075 585.441 428.215 585.493 428.247C587.007 429.189 588.78 428.966 590.281 428.13C591.143 428.399 592.119 429.067 592.769 429.706C594.011 430.927 594.583 432.597 594.595 434.318C594.602 435.389 593.774 435.295 592.991 435.294L591.061 435.295Z" fill="#ADB3BE"></path>
<path d="M499.791 417.366C498.878 417.406 498.047 417.21 497.32 416.637C494.596 414.49 495.827 410.378 499.263 410.004C502.677 409.806 504.561 414.015 501.96 416.394C501.286 417.009 500.672 417.227 499.791 417.366V417.366Z" fill="#ADB3BE"></path>
<path d="M502.798 424.586L494.492 424.585C493.889 424.586 492.961 424.76 492.719 424.033C492.649 423.824 492.676 423.564 492.687 423.348C492.809 420.846 494.038 418.859 496.29 417.688C496.502 417.577 496.719 417.455 496.946 417.378C496.998 417.365 497.178 417.506 497.229 417.537C498.743 418.48 500.516 418.256 502.018 417.421C502.879 417.689 503.855 418.358 504.506 418.997C505.748 420.217 506.319 421.888 506.331 423.609C506.338 424.68 505.511 424.586 504.727 424.585L502.798 424.586Z" fill="#ADB3BE"></path>
<path d="M539.055 474.076C538.141 474.116 537.311 473.919 536.584 473.346C533.859 471.2 535.091 467.087 538.526 466.713C541.94 466.516 543.824 470.724 541.223 473.104C540.55 473.719 539.936 473.936 539.055 474.076V474.076Z" fill="#ADB3BE"></path>
<path d="M542.061 481.295L533.756 481.294C533.153 481.295 532.225 481.47 531.982 480.742C531.912 480.534 531.94 480.273 531.95 480.057C532.072 477.555 533.301 475.569 535.554 474.397C535.765 474.286 535.983 474.164 536.209 474.087C536.262 474.075 536.441 474.215 536.493 474.247C538.007 475.189 539.78 474.966 541.281 474.13C542.143 474.399 543.119 475.067 543.769 475.706C545.011 476.927 545.583 478.597 545.595 480.318C545.602 481.389 544.774 481.295 543.991 481.294L542.061 481.295Z" fill="#ADB3BE"></path>
<path d="M496.055 484.076C495.141 484.116 494.311 483.919 493.584 483.346C490.859 481.2 492.091 477.087 495.526 476.713C498.94 476.516 500.824 480.724 498.223 483.104C497.55 483.719 496.936 483.936 496.055 484.076V484.076Z" fill="#ADB3BE"></path>
<path d="M499.061 491.295L490.756 491.294C490.153 491.295 489.225 491.47 488.982 490.742C488.912 490.534 488.94 490.273 488.95 490.057C489.072 487.555 490.301 485.569 492.554 484.397C492.765 484.286 492.983 484.164 493.209 484.087C493.262 484.075 493.441 484.215 493.493 484.247C495.007 485.189 496.78 484.966 498.281 484.13C499.143 484.399 500.119 485.067 500.769 485.706C502.011 486.927 502.583 488.597 502.595 490.318C502.602 491.389 501.774 491.295 500.991 491.294L499.061 491.295Z" fill="#ADB3BE"></path>
<path d="M473.055 520.076C472.141 520.116 471.311 519.919 470.584 519.346C467.859 517.2 469.091 513.087 472.526 512.713C475.94 512.516 477.824 516.724 475.223 519.104C474.55 519.719 473.936 519.936 473.055 520.076V520.076Z" fill="#ADB3BE"></path>
<path d="M476.061 527.295L467.756 527.294C467.153 527.295 466.225 527.47 465.982 526.742C465.912 526.534 465.94 526.273 465.95 526.057C466.072 523.555 467.301 521.569 469.554 520.397C469.765 520.286 469.983 520.164 470.209 520.087C470.262 520.075 470.441 520.215 470.493 520.247C472.007 521.189 473.78 520.966 475.281 520.13C476.143 520.399 477.119 521.067 477.769 521.706C479.011 522.927 479.583 524.597 479.595 526.318C479.602 527.389 478.774 527.295 477.991 527.294L476.061 527.295Z" fill="#ADB3BE"></path>
<path d="M379.055 414.076C378.141 414.116 377.311 413.919 376.584 413.346C373.859 411.2 375.091 407.087 378.526 406.713C381.94 406.516 383.824 410.724 381.223 413.104C380.55 413.719 379.936 413.936 379.055 414.076V414.076Z" fill="#ADB3BE"></path>
<path d="M382.061 421.295L373.756 421.294C373.153 421.295 372.225 421.47 371.982 420.742C371.912 420.534 371.94 420.273 371.95 420.057C372.072 417.555 373.301 415.569 375.554 414.397C375.765 414.286 375.983 414.164 376.209 414.087C376.262 414.075 376.441 414.215 376.493 414.247C378.007 415.189 379.78 414.966 381.281 414.13C382.143 414.399 383.119 415.067 383.769 415.706C385.011 416.927 385.583 418.597 385.595 420.318C385.602 421.389 384.774 421.295 383.991 421.294L382.061 421.295Z" fill="#ADB3BE"></path>
<path d="M436.055 531.076C435.141 531.116 434.311 530.919 433.584 530.346C430.859 528.199 432.091 524.087 435.526 523.713C438.94 523.516 440.824 527.724 438.223 530.104C437.55 530.719 436.936 530.936 436.055 531.076V531.076Z" fill="#ADB3BE"></path>
<path d="M439.061 538.295L430.756 538.294C430.153 538.295 429.225 538.47 428.982 537.742C428.912 537.534 428.94 537.273 428.95 537.057C429.072 534.555 430.301 532.568 432.554 531.397C432.765 531.286 432.983 531.164 433.209 531.087C433.262 531.075 433.441 531.215 433.493 531.247C435.007 532.189 436.78 531.965 438.281 531.13C439.143 531.399 440.119 532.067 440.769 532.706C442.011 533.927 442.583 535.597 442.595 537.318C442.602 538.389 441.774 538.295 440.991 538.294L439.061 538.295Z" fill="#ADB3BE"></path>
<path d="M344.055 502.076C343.141 502.116 342.311 501.919 341.584 501.346C338.859 499.2 340.091 495.087 343.526 494.713C346.94 494.516 348.824 498.724 346.223 501.104C345.55 501.719 344.936 501.936 344.055 502.076V502.076Z" fill="#ADB3BE"></path>
<path d="M347.061 509.295L338.756 509.294C338.153 509.295 337.225 509.47 336.982 508.742C336.912 508.534 336.94 508.273 336.95 508.057C337.072 505.555 338.301 503.569 340.554 502.397C340.765 502.286 340.983 502.164 341.209 502.087C341.262 502.075 341.441 502.215 341.493 502.247C343.007 503.189 344.78 502.966 346.281 502.13C347.143 502.399 348.119 503.067 348.769 503.706C350.011 504.927 350.583 506.597 350.595 508.318C350.602 509.389 349.774 509.295 348.991 509.294L347.061 509.295Z" fill="#ADB3BE"></path>
<path d="M328.055 393.076C327.141 393.116 326.311 392.919 325.584 392.346C322.859 390.2 324.091 386.087 327.526 385.713C330.94 385.516 332.824 389.724 330.223 392.104C329.55 392.719 328.936 392.936 328.055 393.076V393.076Z" fill="#ADB3BE"></path>
<path d="M331.061 400.295L322.756 400.294C322.153 400.295 321.225 400.47 320.982 399.742C320.912 399.534 320.94 399.273 320.95 399.057C321.072 396.555 322.301 394.569 324.554 393.397C324.765 393.286 324.983 393.164 325.209 393.087C325.262 393.075 325.441 393.215 325.493 393.247C327.007 394.189 328.78 393.966 330.281 393.13C331.143 393.399 332.119 394.067 332.769 394.706C334.011 395.927 334.583 397.597 334.595 399.318C334.602 400.389 333.774 400.295 332.991 400.294L331.061 400.295Z" fill="#ADB3BE"></path>
<path d="M299.055 543.076C298.141 543.116 297.311 542.919 296.584 542.346C293.859 540.199 295.091 536.087 298.526 535.713C301.94 535.516 303.824 539.724 301.223 542.104C300.55 542.719 299.936 542.936 299.055 543.076V543.076Z" fill="#ADB3BE"></path>
<path d="M302.061 550.295L293.756 550.294C293.153 550.295 292.225 550.47 291.982 549.742C291.912 549.534 291.94 549.273 291.95 549.057C292.072 546.555 293.301 544.568 295.554 543.397C295.765 543.286 295.983 543.164 296.209 543.087C296.262 543.075 296.441 543.215 296.493 543.247C298.007 544.189 299.78 543.965 301.281 543.13C302.143 543.399 303.119 544.067 303.769 544.706C305.011 545.927 305.583 547.597 305.595 549.318C305.602 550.389 304.774 550.295 303.991 550.294L302.061 550.295Z" fill="#ADB3BE"></path>
<path d="M204.055 543.076C203.141 543.116 202.311 542.919 201.584 542.346C198.859 540.199 200.091 536.087 203.526 535.713C206.94 535.516 208.824 539.724 206.223 542.104C205.55 542.719 204.936 542.936 204.055 543.076V543.076Z" fill="#ADB3BE"></path>
<path d="M207.061 550.295L198.756 550.294C198.153 550.295 197.225 550.47 196.982 549.742C196.912 549.534 196.94 549.273 196.95 549.057C197.072 546.555 198.301 544.568 200.554 543.397C200.765 543.286 200.983 543.164 201.209 543.087C201.262 543.075 201.441 543.215 201.493 543.247C203.007 544.189 204.78 543.965 206.281 543.13C207.143 543.399 208.119 544.067 208.769 544.706C210.011 545.927 210.583 547.597 210.595 549.318C210.602 550.389 209.774 550.295 208.991 550.294L207.061 550.295Z" fill="#ADB3BE"></path>
<path d="M208.055 358.076C207.141 358.116 206.311 357.919 205.584 357.346C202.859 355.2 204.091 351.087 207.526 350.713C210.94 350.516 212.824 354.724 210.223 357.104C209.55 357.719 208.936 357.936 208.055 358.076V358.076Z" fill="#ADB3BE"></path>
<path d="M211.061 365.295L202.756 365.294C202.153 365.295 201.225 365.47 200.982 364.742C200.912 364.534 200.94 364.273 200.95 364.057C201.072 361.555 202.301 359.569 204.554 358.397C204.765 358.286 204.983 358.164 205.209 358.087C205.262 358.075 205.441 358.215 205.493 358.247C207.007 359.189 208.78 358.966 210.281 358.13C211.143 358.399 212.119 359.067 212.769 359.706C214.011 360.927 214.583 362.597 214.595 364.318C214.602 365.389 213.774 365.295 212.991 365.294L211.061 365.295Z" fill="#ADB3BE"></path>
<path d="M428.055 141.076C427.141 141.116 426.311 140.919 425.584 140.346C422.859 138.199 424.091 134.087 427.526 133.713C430.94 133.516 432.824 137.724 430.223 140.104C429.55 140.719 428.936 140.936 428.055 141.076V141.076Z" fill="#ADB3BE"></path>
<path d="M431.061 148.295L422.756 148.294C422.153 148.295 421.225 148.47 420.982 147.742C420.912 147.534 420.94 147.273 420.95 147.057C421.072 144.555 422.301 142.568 424.554 141.397C424.765 141.286 424.983 141.164 425.209 141.087C425.262 141.075 425.441 141.215 425.493 141.247C427.007 142.189 428.78 141.966 430.281 141.13C431.143 141.399 432.119 142.067 432.769 142.706C434.011 143.927 434.583 145.597 434.595 147.318C434.602 148.389 433.774 148.295 432.991 148.294L431.061 148.295Z" fill="#ADB3BE"></path>
<path d="M468.86 114.662H481.669C482.577 114.662 483.312 115.397 483.312 116.305V132.921C483.312 133.829 482.577 134.565 481.669 134.565H468.86C467.953 134.565 467.217 133.829 467.217 132.921V116.305C467.217 115.397 467.953 114.662 468.86 114.662Z" stroke="#4D6EB9" stroke-width="1.90385"></path>
<line x1="471.111" y1="129.373" x2="479.505" y2="129.373" stroke="#4D6EB9" stroke-width="1.73077" stroke-linecap="round"></line>
<line x1="471.111" y1="124.786" x2="479.505" y2="124.786" stroke="#4D6EB9" stroke-width="1.73077" stroke-linecap="round"></line>
<line x1="471.111" y1="120.373" x2="479.505" y2="120.373" stroke="#4D6EB9" stroke-width="1.73077" stroke-linecap="round"></line>
<path d="M522.86 115.662H535.669C536.577 115.662 537.312 116.397 537.312 117.305V133.921C537.312 134.829 536.577 135.565 535.669 135.565H522.86C521.953 135.565 521.217 134.829 521.217 133.921V117.305C521.217 116.397 521.953 115.662 522.86 115.662Z" stroke="#4D6EB9" stroke-width="1.90385"></path>
<line x1="525.111" y1="130.373" x2="533.505" y2="130.373" stroke="#4D6EB9" stroke-width="1.73077" stroke-linecap="round"></line>
<line x1="525.111" y1="125.786" x2="533.505" y2="125.786" stroke="#4D6EB9" stroke-width="1.73077" stroke-linecap="round"></line>
<line x1="525.111" y1="121.373" x2="533.505" y2="121.373" stroke="#4D6EB9" stroke-width="1.73077" stroke-linecap="round"></line>
<path d="M523.86 175.662H536.669C537.577 175.662 538.312 176.397 538.312 177.305V193.921C538.312 194.829 537.577 195.565 536.669 195.565H523.86C522.953 195.565 522.217 194.829 522.217 193.921V177.305C522.217 176.397 522.953 175.662 523.86 175.662Z" stroke="#4D6EB9" stroke-width="1.90385"></path>
<line x1="526.111" y1="190.373" x2="534.505" y2="190.373" stroke="#4D6EB9" stroke-width="1.73077" stroke-linecap="round"></line>
<line x1="526.111" y1="185.786" x2="534.505" y2="185.786" stroke="#4D6EB9" stroke-width="1.73077" stroke-linecap="round"></line>
<line x1="526.111" y1="181.373" x2="534.505" y2="181.373" stroke="#4D6EB9" stroke-width="1.73077" stroke-linecap="round"></line>
<path d="M468.86 174.662H481.669C482.577 174.662 483.312 175.397 483.312 176.305V192.921C483.312 193.829 482.577 194.565 481.669 194.565H468.86C467.953 194.565 467.217 193.829 467.217 192.921V176.305C467.217 175.397 467.953 174.662 468.86 174.662Z" stroke="#4D6EB9" stroke-width="1.90385"></path>
<line x1="471.111" y1="189.373" x2="479.505" y2="189.373" stroke="#4D6EB9" stroke-width="1.73077" stroke-linecap="round"></line>
<line x1="471.111" y1="184.786" x2="479.505" y2="184.786" stroke="#4D6EB9" stroke-width="1.73077" stroke-linecap="round"></line>
<line x1="471.111" y1="180.373" x2="479.505" y2="180.373" stroke="#4D6EB9" stroke-width="1.73077" stroke-linecap="round"></line>
<path d="M471.86 253.662H484.669C485.577 253.662 486.312 254.397 486.312 255.305V271.921C486.312 272.829 485.577 273.565 484.669 273.565H471.86C470.953 273.565 470.217 272.829 470.217 271.921V255.305C470.217 254.397 470.953 253.662 471.86 253.662Z" stroke="#4D6EB9" stroke-width="1.90385"></path>
<line x1="474.111" y1="268.373" x2="482.505" y2="268.373" stroke="#4D6EB9" stroke-width="1.73077" stroke-linecap="round"></line>
<line x1="474.111" y1="263.786" x2="482.505" y2="263.786" stroke="#4D6EB9" stroke-width="1.73077" stroke-linecap="round"></line>
<line x1="474.111" y1="259.373" x2="482.505" y2="259.373" stroke="#4D6EB9" stroke-width="1.73077" stroke-linecap="round"></line>
<path d="M512.86 264.662H525.669C526.577 264.662 527.312 265.397 527.312 266.305V282.921C527.312 283.829 526.577 284.565 525.669 284.565H512.86C511.953 284.565 511.217 283.829 511.217 282.921V266.305C511.217 265.397 511.953 264.662 512.86 264.662Z" stroke="#4D6EB9" stroke-width="1.90385"></path>
<line x1="515.111" y1="279.373" x2="523.505" y2="279.373" stroke="#4D6EB9" stroke-width="1.73077" stroke-linecap="round"></line>
<line x1="515.111" y1="274.786" x2="523.505" y2="274.786" stroke="#4D6EB9" stroke-width="1.73077" stroke-linecap="round"></line>
<line x1="515.111" y1="270.373" x2="523.505" y2="270.373" stroke="#4D6EB9" stroke-width="1.73077" stroke-linecap="round"></line>
<path d="M558.86 282.662H571.669C572.577 282.662 573.312 283.397 573.312 284.305V300.921C573.312 301.829 572.577 302.565 571.669 302.565H558.86C557.953 302.565 557.217 301.829 557.217 300.921V284.305C557.217 283.397 557.953 282.662 558.86 282.662Z" stroke="#4D6EB9" stroke-width="1.90385"></path>
<line x1="561.111" y1="297.373" x2="569.505" y2="297.373" stroke="#4D6EB9" stroke-width="1.73077" stroke-linecap="round"></line>
<line x1="561.111" y1="292.786" x2="569.505" y2="292.786" stroke="#4D6EB9" stroke-width="1.73077" stroke-linecap="round"></line>
<line x1="561.111" y1="288.373" x2="569.505" y2="288.373" stroke="#4D6EB9" stroke-width="1.73077" stroke-linecap="round"></line>
<path d="M538.86 342.662H551.669C552.577 342.662 553.312 343.397 553.312 344.305V360.921C553.312 361.829 552.577 362.565 551.669 362.565H538.86C537.953 362.565 537.217 361.829 537.217 360.921V344.305C537.217 343.397 537.953 342.662 538.86 342.662Z" stroke="#4D6EB9" stroke-width="1.90385"></path>
<line x1="541.111" y1="357.373" x2="549.505" y2="357.373" stroke="#4D6EB9" stroke-width="1.73077" stroke-linecap="round"></line>
<line x1="541.111" y1="352.786" x2="549.505" y2="352.786" stroke="#4D6EB9" stroke-width="1.73077" stroke-linecap="round"></line>
<line x1="541.111" y1="348.373" x2="549.505" y2="348.373" stroke="#4D6EB9" stroke-width="1.73077" stroke-linecap="round"></line>
<path d="M491.86 319.662H504.669C505.577 319.662 506.312 320.397 506.312 321.305V337.921C506.312 338.829 505.577 339.565 504.669 339.565H491.86C490.953 339.565 490.217 338.829 490.217 337.921V321.305C490.217 320.397 490.953 319.662 491.86 319.662Z" stroke="#4D6EB9" stroke-width="1.90385"></path>
<line x1="494.111" y1="334.373" x2="502.505" y2="334.373" stroke="#4D6EB9" stroke-width="1.73077" stroke-linecap="round"></line>
<line x1="494.111" y1="329.786" x2="502.505" y2="329.786" stroke="#4D6EB9" stroke-width="1.73077" stroke-linecap="round"></line>
<line x1="494.111" y1="325.373" x2="502.505" y2="325.373" stroke="#4D6EB9" stroke-width="1.73077" stroke-linecap="round"></line>
<path d="M446.86 304.662H459.669C460.577 304.662 461.312 305.397 461.312 306.305V322.921C461.312 323.829 460.577 324.565 459.669 324.565H446.86C445.953 324.565 445.217 323.829 445.217 322.921V306.305C445.217 305.397 445.953 304.662 446.86 304.662Z" stroke="#4D6EB9" stroke-width="1.90385"></path>
<line x1="449.111" y1="319.373" x2="457.505" y2="319.373" stroke="#4D6EB9" stroke-width="1.73077" stroke-linecap="round"></line>
<line x1="449.111" y1="314.786" x2="457.505" y2="314.786" stroke="#4D6EB9" stroke-width="1.73077" stroke-linecap="round"></line>
<line x1="449.111" y1="310.373" x2="457.505" y2="310.373" stroke="#4D6EB9" stroke-width="1.73077" stroke-linecap="round"></line>
<path d="M370.86 254.662H383.669C384.577 254.662 385.312 255.397 385.312 256.305V272.921C385.312 273.829 384.577 274.565 383.669 274.565H370.86C369.953 274.565 369.217 273.829 369.217 272.921V256.305C369.217 255.397 369.953 254.662 370.86 254.662Z" stroke="#4D6EB9" stroke-width="1.90385"></path>
<line x1="373.111" y1="269.373" x2="381.505" y2="269.373" stroke="#4D6EB9" stroke-width="1.73077" stroke-linecap="round"></line>
<line x1="373.111" y1="264.786" x2="381.505" y2="264.786" stroke="#4D6EB9" stroke-width="1.73077" stroke-linecap="round"></line>
<line x1="373.111" y1="260.373" x2="381.505" y2="260.373" stroke="#4D6EB9" stroke-width="1.73077" stroke-linecap="round"></line>
<path d="M342.86 227.662H355.669C356.577 227.662 357.312 228.397 357.312 229.305V245.921C357.312 246.829 356.577 247.565 355.669 247.565H342.86C341.953 247.565 341.217 246.829 341.217 245.921V229.305C341.217 228.397 341.953 227.662 342.86 227.662Z" stroke="#4D6EB9" stroke-width="1.90385"></path>
<line x1="345.111" y1="242.373" x2="353.505" y2="242.373" stroke="#4D6EB9" stroke-width="1.73077" stroke-linecap="round"></line>
<line x1="345.111" y1="237.786" x2="353.505" y2="237.786" stroke="#4D6EB9" stroke-width="1.73077" stroke-linecap="round"></line>
<line x1="345.111" y1="233.373" x2="353.505" y2="233.373" stroke="#4D6EB9" stroke-width="1.73077" stroke-linecap="round"></line>
<path d="M471.86 396.662H484.669C485.577 396.662 486.312 397.397 486.312 398.305V414.921C486.312 415.829 485.577 416.565 484.669 416.565H471.86C470.953 416.565 470.217 415.829 470.217 414.921V398.305C470.217 397.397 470.953 396.662 471.86 396.662Z" stroke="#4D6EB9" stroke-width="1.90385"></path>
<line x1="474.111" y1="411.373" x2="482.505" y2="411.373" stroke="#4D6EB9" stroke-width="1.73077" stroke-linecap="round"></line>
<line x1="474.111" y1="406.786" x2="482.505" y2="406.786" stroke="#4D6EB9" stroke-width="1.73077" stroke-linecap="round"></line>
<line x1="474.111" y1="402.373" x2="482.505" y2="402.373" stroke="#4D6EB9" stroke-width="1.73077" stroke-linecap="round"></line>
<path d="M516.86 399.662H529.669C530.577 399.662 531.312 400.397 531.312 401.305V417.921C531.312 418.829 530.577 419.565 529.669 419.565H516.86C515.953 419.565 515.217 418.829 515.217 417.921V401.305C515.217 400.397 515.953 399.662 516.86 399.662Z" stroke="#4D6EB9" stroke-width="1.90385"></path>
<line x1="519.111" y1="414.373" x2="527.505" y2="414.373" stroke="#4D6EB9" stroke-width="1.73077" stroke-linecap="round"></line>
<line x1="519.111" y1="409.786" x2="527.505" y2="409.786" stroke="#4D6EB9" stroke-width="1.73077" stroke-linecap="round"></line>
<line x1="519.111" y1="405.373" x2="527.505" y2="405.373" stroke="#4D6EB9" stroke-width="1.73077" stroke-linecap="round"></line>
<path d="M558.86 411.662H571.669C572.577 411.662 573.312 412.397 573.312 413.305V429.921C573.312 430.829 572.577 431.565 571.669 431.565H558.86C557.953 431.565 557.217 430.829 557.217 429.921V413.305C557.217 412.397 557.953 411.662 558.86 411.662Z" stroke="#4D6EB9" stroke-width="1.90385"></path>
<line x1="561.111" y1="426.373" x2="569.505" y2="426.373" stroke="#4D6EB9" stroke-width="1.73077" stroke-linecap="round"></line>
<line x1="561.111" y1="421.786" x2="569.505" y2="421.786" stroke="#4D6EB9" stroke-width="1.73077" stroke-linecap="round"></line>
<line x1="561.111" y1="417.373" x2="569.505" y2="417.373" stroke="#4D6EB9" stroke-width="1.73077" stroke-linecap="round"></line>
<path d="M511.86 455.662H524.669C525.577 455.662 526.312 456.397 526.312 457.305V473.921C526.312 474.829 525.577 475.565 524.669 475.565H511.86C510.953 475.565 510.217 474.829 510.217 473.921V457.305C510.217 456.397 510.953 455.662 511.86 455.662Z" stroke="#4D6EB9" stroke-width="1.90385"></path>
<line x1="514.111" y1="470.373" x2="522.505" y2="470.373" stroke="#4D6EB9" stroke-width="1.73077" stroke-linecap="round"></line>
<line x1="514.111" y1="465.786" x2="522.505" y2="465.786" stroke="#4D6EB9" stroke-width="1.73077" stroke-linecap="round"></line>
<line x1="514.111" y1="461.373" x2="522.505" y2="461.373" stroke="#4D6EB9" stroke-width="1.73077" stroke-linecap="round"></line>
<path d="M469.86 456.662H482.669C483.577 456.662 484.312 457.397 484.312 458.305V474.921C484.312 475.829 483.577 476.565 482.669 476.565H469.86C468.953 476.565 468.217 475.829 468.217 474.921V458.305C468.217 457.397 468.953 456.662 469.86 456.662Z" stroke="#4D6EB9" stroke-width="1.90385"></path>
<line x1="472.111" y1="471.373" x2="480.505" y2="471.373" stroke="#4D6EB9" stroke-width="1.73077" stroke-linecap="round"></line>
<line x1="472.111" y1="466.786" x2="480.505" y2="466.786" stroke="#4D6EB9" stroke-width="1.73077" stroke-linecap="round"></line>
<line x1="472.111" y1="462.373" x2="480.505" y2="462.373" stroke="#4D6EB9" stroke-width="1.73077" stroke-linecap="round"></line>
<rect x="458.3" y="69.7451" width="22.6071" height="14.9286" fill="white"></rect>
<rect x="458.3" y="69.7451" width="22.6071" height="14.9286" stroke="#FF866B" stroke-width="0.0714286"></rect>
<rect x="458.3" y="69.7451" width="22.6071" height="14.9286" stroke="#FF866B" stroke-width="0.0714286"></rect>
<path d="M463.301 70.4232H479.157C479.749 70.4232 480.229 70.9038 480.229 71.4955V80.5668C480.228 81.1584 479.749 81.6381 479.157 81.6381H463.301C462.709 81.6381 462.229 81.1584 462.229 80.5668V71.4955C462.229 70.9038 462.709 70.4232 463.301 70.4232Z" fill="white" stroke="#FF7E62" stroke-width="1.42857"></path>
<path d="M460.051 72.7804H475.907C476.499 72.7804 476.979 73.2609 476.979 73.8526V82.9239C476.978 83.5155 476.499 83.9952 475.907 83.9952H460.051C459.459 83.9952 458.979 83.5155 458.979 82.9239V73.8526C458.979 73.2609 459.459 72.7804 460.051 72.7804Z" fill="white" stroke="#FF7E62" stroke-width="1.42857"></path>
<path d="M473.617 77.3299H467.932C467.706 77.3299 467.498 77.2095 467.385 77.0141C467.272 76.8186 467.272 76.5778 467.385 76.3824C467.498 76.1869 467.706 76.0665 467.932 76.0665H473.617C473.843 76.0665 474.052 76.1869 474.164 76.3824C474.277 76.5778 474.277 76.8186 474.164 77.0141C474.052 77.2095 473.843 77.3299 473.617 77.3299Z" fill="#FF7E62"></path>
<circle cx="463.586" cy="78.4237" r="2.5" fill="#FF7E62"></circle>
<rect x="463.3" y="207.745" width="22.6071" height="14.9286" fill="white"></rect>
<rect x="463.3" y="207.745" width="22.6071" height="14.9286" stroke="#FF866B" stroke-width="0.0714286"></rect>
<rect x="463.3" y="207.745" width="22.6071" height="14.9286" stroke="#FF866B" stroke-width="0.0714286"></rect>
<path d="M468.301 208.423H484.157C484.749 208.423 485.229 208.904 485.229 209.495V218.567C485.228 219.158 484.749 219.638 484.157 219.638H468.301C467.709 219.638 467.229 219.158 467.229 218.567V209.495C467.229 208.904 467.709 208.423 468.301 208.423Z" fill="white" stroke="#FF7E62" stroke-width="1.42857"></path>
<path d="M465.051 210.78H480.907C481.499 210.78 481.979 211.261 481.979 211.853V220.924C481.978 221.516 481.499 221.995 480.907 221.995H465.051C464.459 221.995 463.979 221.516 463.979 220.924V211.853C463.979 211.261 464.459 210.78 465.051 210.78Z" fill="white" stroke="#FF7E62" stroke-width="1.42857"></path>
<path d="M478.617 215.33H472.932C472.706 215.33 472.498 215.209 472.385 215.014C472.272 214.819 472.272 214.578 472.385 214.382C472.498 214.187 472.706 214.067 472.932 214.067H478.617C478.843 214.067 479.052 214.187 479.164 214.382C479.277 214.578 479.277 214.819 479.164 215.014C479.052 215.209 478.843 215.33 478.617 215.33Z" fill="#FF7E62"></path>
<circle cx="468.586" cy="216.424" r="2.5" fill="#FF7E62"></circle>
<rect x="309.3" y="264.745" width="22.6071" height="14.9286" fill="white"></rect>
<rect x="309.3" y="264.745" width="22.6071" height="14.9286" stroke="#FF866B" stroke-width="0.0714286"></rect>
<rect x="309.3" y="264.745" width="22.6071" height="14.9286" stroke="#FF866B" stroke-width="0.0714286"></rect>
<path d="M314.301 265.423H330.157C330.749 265.423 331.229 265.904 331.229 266.496V275.567C331.228 276.158 330.749 276.638 330.157 276.638H314.301C313.709 276.638 313.229 276.158 313.229 275.567V266.496C313.229 265.904 313.709 265.423 314.301 265.423Z" fill="white" stroke="#FF7E62" stroke-width="1.42857"></path>
<path d="M311.051 267.78H326.907C327.499 267.78 327.979 268.261 327.979 268.853V277.924C327.978 278.516 327.499 278.995 326.907 278.995H311.051C310.459 278.995 309.979 278.516 309.979 277.924V268.853C309.979 268.261 310.459 267.78 311.051 267.78Z" fill="white" stroke="#FF7E62" stroke-width="1.42857"></path>
<path d="M324.617 272.33H318.932C318.706 272.33 318.498 272.21 318.385 272.014C318.272 271.819 318.272 271.578 318.385 271.382C318.498 271.187 318.706 271.067 318.932 271.067H324.617C324.843 271.067 325.052 271.187 325.164 271.382C325.277 271.578 325.277 271.819 325.164 272.014C325.052 272.21 324.843 272.33 324.617 272.33Z" fill="#FF7E62"></path>
<circle cx="314.586" cy="273.424" r="2.5" fill="#FF7E62"></circle>
<rect x="267.3" y="530.745" width="22.6071" height="14.9286" fill="white"></rect>
<rect x="267.3" y="530.745" width="22.6071" height="14.9286" stroke="#FF866B" stroke-width="0.0714286"></rect>
<rect x="267.3" y="530.745" width="22.6071" height="14.9286" stroke="#FF866B" stroke-width="0.0714286"></rect>
<path d="M272.301 531.423H288.157C288.749 531.423 289.229 531.904 289.229 532.495V541.567C289.228 542.158 288.749 542.638 288.157 542.638H272.301C271.709 542.638 271.229 542.158 271.229 541.567V532.495C271.229 531.904 271.709 531.423 272.301 531.423Z" fill="white" stroke="#FF7E62" stroke-width="1.42857"></path>
<path d="M269.051 533.78H284.907C285.499 533.78 285.979 534.261 285.979 534.853V543.924C285.978 544.515 285.499 544.995 284.907 544.995H269.051C268.459 544.995 267.979 544.515 267.979 543.924V534.853C267.979 534.261 268.459 533.78 269.051 533.78Z" fill="white" stroke="#FF7E62" stroke-width="1.42857"></path>
<path d="M282.617 538.33H276.932C276.706 538.33 276.498 538.209 276.385 538.014C276.272 537.819 276.272 537.578 276.385 537.382C276.498 537.187 276.706 537.066 276.932 537.066H282.617C282.843 537.066 283.052 537.187 283.164 537.382C283.277 537.578 283.277 537.819 283.164 538.014C283.052 538.209 282.843 538.33 282.617 538.33Z" fill="#FF7E62"></path>
<circle cx="272.586" cy="539.424" r="2.5" fill="#FF7E62"></circle>
<rect x="314.3" y="477.745" width="22.6071" height="14.9286" fill="white"></rect>
<rect x="314.3" y="477.745" width="22.6071" height="14.9286" stroke="#FF866B" stroke-width="0.0714286"></rect>
<rect x="314.3" y="477.745" width="22.6071" height="14.9286" stroke="#FF866B" stroke-width="0.0714286"></rect>
<path d="M319.301 478.423H335.157C335.749 478.423 336.229 478.904 336.229 479.496V488.567C336.228 489.158 335.749 489.638 335.157 489.638H319.301C318.709 489.638 318.229 489.158 318.229 488.567V479.496C318.229 478.904 318.709 478.423 319.301 478.423Z" fill="white" stroke="#FF7E62" stroke-width="1.42857"></path>
<path d="M316.051 480.78H331.907C332.499 480.78 332.979 481.261 332.979 481.853V490.924C332.978 491.516 332.499 491.995 331.907 491.995H316.051C315.459 491.995 314.979 491.516 314.979 490.924V481.853C314.979 481.261 315.459 480.78 316.051 480.78Z" fill="white" stroke="#FF7E62" stroke-width="1.42857"></path>
<path d="M329.617 485.33H323.932C323.706 485.33 323.498 485.21 323.385 485.014C323.272 484.819 323.272 484.578 323.385 484.382C323.498 484.187 323.706 484.067 323.932 484.067H329.617C329.843 484.067 330.052 484.187 330.164 484.382C330.277 484.578 330.277 484.819 330.164 485.014C330.052 485.21 329.843 485.33 329.617 485.33Z" fill="#FF7E62"></path>
<circle cx="319.586" cy="486.424" r="2.5" fill="#FF7E62"></circle>
<rect x="442.3" y="503.745" width="22.6071" height="14.9286" fill="white"></rect>
<rect x="442.3" y="503.745" width="22.6071" height="14.9286" stroke="#FF866B" stroke-width="0.0714286"></rect>
<rect x="442.3" y="503.745" width="22.6071" height="14.9286" stroke="#FF866B" stroke-width="0.0714286"></rect>
<path d="M447.301 504.423H463.157C463.749 504.423 464.229 504.904 464.229 505.496V514.567C464.228 515.158 463.749 515.638 463.157 515.638H447.301C446.709 515.638 446.229 515.158 446.229 514.567V505.496C446.229 504.904 446.709 504.423 447.301 504.423Z" fill="white" stroke="#FF7E62" stroke-width="1.42857"></path>
<path d="M444.051 506.78H459.907C460.499 506.78 460.979 507.261 460.979 507.853V516.924C460.978 517.516 460.499 517.995 459.907 517.995H444.051C443.459 517.995 442.979 517.516 442.979 516.924V507.853C442.979 507.261 443.459 506.78 444.051 506.78Z" fill="white" stroke="#FF7E62" stroke-width="1.42857"></path>
<path d="M457.617 511.33H451.932C451.706 511.33 451.498 511.21 451.385 511.014C451.272 510.819 451.272 510.578 451.385 510.382C451.498 510.187 451.706 510.067 451.932 510.067H457.617C457.843 510.067 458.052 510.187 458.164 510.382C458.277 510.578 458.277 510.819 458.164 511.014C458.052 511.21 457.843 511.33 457.617 511.33Z" fill="#FF7E62"></path>
<circle cx="447.586" cy="512.424" r="2.5" fill="#FF7E62"></circle>
</svg>