<svg width="555" height="540" viewBox="0 0 555 540" fill="none" xmlns="http://www.w3.org/2000/svg"><defs><marker id="ah" viewBox="0 0 10 10" refX="7.6" refY="5" markerWidth="6" markerHeight="6" orient="auto-start-reverse"><path d="M1.5 1.6 L9 5 L1.5 8.4 Z" fill="#999999"></path></marker></defs>
<path d="M301.1 107.4 C300.7 107.6 299.7 108.0 298.8 108.5 C298.0 109.0 297.0 109.7 296.0 110.2 C295.0 110.8 293.9 111.5 292.9 111.8 C292.0 112.0 290.6 111.9 290.5 111.6 C290.5 111.4 291.8 110.8 292.7 110.3 C293.5 109.8 294.8 109.0 295.4 108.6 C296.1 108.2 296.5 108.0 296.7 107.9" fill="none" stroke="#999999" stroke-width="1.6" stroke-linecap="round" marker-end="url(#ah)"></path>
<path d="M308.8 138.6 C308.4 138.6 307.3 138.8 306.4 139.1 C305.5 139.4 304.3 139.8 303.2 140.1 C302.1 140.4 300.8 140.9 299.9 140.9 C298.9 140.9 297.6 140.4 297.6 140.2 C297.6 140.0 299.0 139.7 299.9 139.4 C300.9 139.2 302.3 138.7 303.1 138.4 C303.8 138.2 304.2 138.1 304.4 138.0" fill="none" stroke="#999999" stroke-width="1.6" stroke-linecap="round" marker-end="url(#ah)"></path>
<path d="M308.6 180.9 C308.1 180.9 307.0 180.7 306.1 180.7 C305.1 180.7 303.9 180.8 302.7 180.7 C301.6 180.7 300.2 180.7 299.3 180.4 C298.4 180.1 297.2 179.2 297.3 179.0 C297.4 178.8 298.9 179.0 299.8 179.0 C300.8 179.0 302.3 179.0 303.1 179.0 C303.9 179.0 304.3 179.0 304.5 179.0" fill="none" stroke="#999999" stroke-width="1.6" stroke-linecap="round" marker-end="url(#ah)"></path>
<path d="M370.6 143.4 C370.1 143.4 369.0 143.2 368.1 143.2 C367.1 143.2 365.9 143.3 364.7 143.2 C363.6 143.2 362.2 143.2 361.3 142.9 C360.4 142.6 359.2 141.7 359.3 141.5 C359.4 141.3 360.9 141.5 361.8 141.5 C362.8 141.5 364.3 141.5 365.1 141.5 C365.9 141.5 366.3 141.5 366.5 141.5" fill="none" stroke="#999999" stroke-width="1.6" stroke-linecap="round" marker-end="url(#ah)"></path>
<path d="M370.6 189.9 C370.1 189.9 369.0 189.7 368.1 189.7 C367.1 189.7 365.9 189.8 364.7 189.7 C363.6 189.7 362.2 189.7 361.3 189.4 C360.4 189.1 359.2 188.2 359.3 188.0 C359.4 187.8 360.9 188.0 361.8 188.0 C362.8 188.0 364.3 188.0 365.1 188.0 C365.9 188.0 366.3 188.0 366.5 188.0" fill="none" stroke="#999999" stroke-width="1.6" stroke-linecap="round" marker-end="url(#ah)"></path>
<path d="M370.6 233.9 C370.1 233.9 369.0 233.7 368.1 233.7 C367.1 233.7 365.9 233.8 364.7 233.7 C363.6 233.7 362.2 233.7 361.3 233.4 C360.4 233.1 359.2 232.2 359.3 232.0 C359.4 231.8 360.9 232.0 361.8 232.0 C362.8 232.0 364.3 232.0 365.1 232.0 C365.9 232.0 366.3 232.0 366.5 232.0" fill="none" stroke="#999999" stroke-width="1.6" stroke-linecap="round" marker-end="url(#ah)"></path>
<path d="M430.1 143.4 C429.6 143.4 428.5 143.2 427.6 143.2 C426.6 143.2 425.4 143.3 424.2 143.2 C423.1 143.2 421.7 143.2 420.8 142.9 C419.9 142.6 418.7 141.7 418.8 141.5 C418.9 141.3 420.4 141.5 421.3 141.5 C422.3 141.5 423.8 141.5 424.6 141.5 C425.4 141.5 425.8 141.5 426.0 141.5" fill="none" stroke="#999999" stroke-width="1.6" stroke-linecap="round" marker-end="url(#ah)"></path>
<path d="M430.6 189.9 C430.1 189.9 429.0 189.7 428.1 189.7 C427.1 189.7 425.9 189.8 424.7 189.7 C423.6 189.7 422.2 189.7 421.3 189.4 C420.4 189.1 419.2 188.2 419.3 188.0 C419.4 187.8 420.9 188.0 421.8 188.0 C422.8 188.0 424.3 188.0 425.1 188.0 C425.9 188.0 426.3 188.0 426.5 188.0" fill="none" stroke="#999999" stroke-width="1.6" stroke-linecap="round" marker-end="url(#ah)"></path>
<path d="M430.1 233.9 C429.6 233.9 428.5 233.7 427.6 233.7 C426.6 233.7 425.4 233.8 424.2 233.7 C423.1 233.7 421.7 233.7 420.8 233.4 C419.9 233.1 418.7 232.2 418.8 232.0 C418.9 231.8 420.4 232.0 421.3 232.0 C422.3 232.0 423.8 232.0 424.6 232.0 C425.4 232.0 425.8 232.0 426.0 232.0" fill="none" stroke="#999999" stroke-width="1.6" stroke-linecap="round" marker-end="url(#ah)"></path>
<path d="M430.1 286.9 C429.6 286.9 428.5 286.7 427.6 286.7 C426.6 286.7 425.4 286.8 424.2 286.7 C423.1 286.7 421.7 286.7 420.8 286.4 C419.9 286.1 418.7 285.2 418.8 285.0 C418.9 284.8 420.4 285.0 421.3 285.0 C422.3 285.0 423.8 285.0 424.6 285.0 C425.4 285.0 425.8 285.0 426.0 285.0" fill="none" stroke="#999999" stroke-width="1.6" stroke-linecap="round" marker-end="url(#ah)"></path>
<path d="M370.6 286.9 C370.1 286.9 369.0 286.7 368.1 286.7 C367.1 286.7 365.9 286.8 364.7 286.7 C363.6 286.7 362.2 286.7 361.3 286.4 C360.4 286.1 359.2 285.2 359.3 285.0 C359.4 284.8 360.9 285.0 361.8 285.0 C362.8 285.0 364.3 285.0 365.1 285.0 C365.9 285.0 366.3 285.0 366.5 285.0" fill="none" stroke="#999999" stroke-width="1.6" stroke-linecap="round" marker-end="url(#ah)"></path>
<path d="M370.6 395.9 C370.1 395.9 369.0 395.7 368.1 395.7 C367.1 395.7 365.9 395.8 364.7 395.7 C363.6 395.7 362.2 395.7 361.3 395.4 C360.4 395.1 359.2 394.2 359.3 394.0 C359.4 393.8 360.9 394.0 361.8 394.0 C362.8 394.0 364.3 394.0 365.1 394.0 C365.9 394.0 366.3 394.0 366.5 394.0" fill="none" stroke="#999999" stroke-width="1.6" stroke-linecap="round" marker-end="url(#ah)"></path>
<path d="M430.1 395.9 C429.6 395.9 428.5 395.7 427.6 395.7 C426.6 395.7 425.4 395.8 424.2 395.7 C423.1 395.7 421.7 395.7 420.8 395.4 C419.9 395.1 418.7 394.2 418.8 394.0 C418.9 393.8 420.4 394.0 421.3 394.0 C422.3 394.0 423.8 394.0 424.6 394.0 C425.4 394.0 425.8 394.0 426.0 394.0" fill="none" stroke="#999999" stroke-width="1.6" stroke-linecap="round" marker-end="url(#ah)"></path>
<path d="M297.1 331.3 C296.9 330.9 296.5 329.9 296.1 329.0 C295.7 328.1 295.0 327.1 294.5 326.1 C294.0 325.1 293.3 323.9 293.2 322.9 C293.0 322.0 293.2 320.6 293.4 320.5 C293.7 320.5 294.1 321.9 294.6 322.7 C295.0 323.6 295.8 324.9 296.1 325.6 C296.5 326.3 296.7 326.7 296.8 326.9" fill="none" stroke="#999999" stroke-width="1.6" stroke-linecap="round" marker-end="url(#ah)"></path>
<path d="M235.5 159.8 C235.4 159.4 235.0 158.3 234.6 157.4 C234.2 156.5 233.6 155.5 233.2 154.4 C232.8 153.4 232.2 152.1 232.0 151.2 C231.9 150.3 232.2 148.8 232.4 148.8 C232.7 148.8 233.1 150.2 233.5 151.1 C233.9 152.0 234.5 153.3 234.9 154.0 C235.2 154.8 235.4 155.1 235.5 155.3" fill="none" stroke="#999999" stroke-width="1.6" stroke-linecap="round" marker-end="url(#ah)"></path>
<path d="M308.6 233.9 C308.1 233.9 307.0 233.7 306.1 233.7 C305.1 233.7 303.9 233.8 302.7 233.7 C301.6 233.7 300.2 233.7 299.3 233.4 C298.4 233.1 297.2 232.2 297.3 232.0 C297.4 231.8 298.9 232.0 299.8 232.0 C300.8 232.0 302.3 232.0 303.1 232.0 C303.9 232.0 304.3 232.0 304.5 232.0" fill="none" stroke="#999999" stroke-width="1.6" stroke-linecap="round" marker-end="url(#ah)"></path>
<path d="M273.1 241.3 C273.0 240.9 272.5 239.9 272.0 239.1 C271.6 238.2 270.9 237.2 270.3 236.2 C269.8 235.2 269.1 234.1 268.8 233.1 C268.6 232.2 268.8 230.8 269.0 230.7 C269.2 230.7 269.8 232.0 270.3 232.9 C270.8 233.7 271.6 235.0 272.0 235.7 C272.4 236.3 272.6 236.7 272.7 236.9" fill="none" stroke="#999999" stroke-width="1.6" stroke-linecap="round" marker-end="url(#ah)"></path>
<path d="M228.1 240.5 C228.3 240.1 228.9 239.1 229.2 238.2 C229.6 237.3 230.0 236.2 230.5 235.1 C230.9 234.1 231.4 232.8 232.0 232.1 C232.6 231.3 233.8 230.5 234.0 230.7 C234.2 230.9 233.4 232.1 233.1 233.0 C232.7 233.9 232.2 235.3 231.9 236.1 C231.6 236.8 231.4 237.2 231.3 237.4" fill="none" stroke="#999999" stroke-width="1.6" stroke-linecap="round" marker-end="url(#ah)"></path>
<path d="M210.1 330.5 C210.3 330.1 210.9 329.1 211.2 328.2 C211.6 327.3 212.0 326.2 212.5 325.1 C212.9 324.1 213.4 322.8 214.0 322.1 C214.6 321.3 215.8 320.5 216.0 320.7 C216.2 320.9 215.4 322.1 215.1 323.0 C214.7 323.9 214.2 325.3 213.9 326.1 C213.6 326.8 213.4 327.2 213.3 327.4" fill="none" stroke="#999999" stroke-width="1.6" stroke-linecap="round" marker-end="url(#ah)"></path>
<path d="M112.1 225.0 C112.3 224.6 112.9 223.6 113.2 222.7 C113.6 221.8 114.0 220.7 114.5 219.6 C114.9 218.6 115.4 217.3 116.0 216.6 C116.6 215.8 117.8 215.0 118.0 215.2 C118.2 215.4 117.4 216.6 117.1 217.5 C116.7 218.4 116.2 219.8 115.9 220.6 C115.6 221.3 115.4 221.7 115.3 221.9" fill="none" stroke="#999999" stroke-width="1.6" stroke-linecap="round" marker-end="url(#ah)"></path>
<path d="M124.6 273.5 C124.8 273.1 125.4 272.1 125.7 271.2 C126.1 270.3 126.5 269.2 127.0 268.1 C127.4 267.1 127.9 265.8 128.5 265.1 C129.1 264.3 130.3 263.5 130.5 263.7 C130.7 263.9 129.9 265.1 129.6 266.0 C129.2 266.9 128.7 268.3 128.4 269.1 C128.1 269.8 127.9 270.2 127.8 270.4" fill="none" stroke="#999999" stroke-width="1.6" stroke-linecap="round" marker-end="url(#ah)"></path>
<path d="M131.6 321.0 C131.8 320.6 132.4 319.6 132.7 318.7 C133.1 317.8 133.5 316.7 134.0 315.6 C134.4 314.6 134.9 313.3 135.5 312.6 C136.1 311.8 137.3 311.0 137.5 311.2 C137.7 311.4 136.9 312.6 136.6 313.5 C136.2 314.4 135.7 315.8 135.4 316.6 C135.1 317.3 134.9 317.7 134.8 317.9" fill="none" stroke="#999999" stroke-width="1.6" stroke-linecap="round" marker-end="url(#ah)"></path>
<path d="M237.2 178.3 C236.8 178.3 235.7 178.3 234.7 178.4 C233.7 178.5 232.5 178.8 231.4 178.9 C230.3 179.0 228.9 179.2 228.0 179.0 C227.1 178.9 225.8 178.2 225.8 178.0 C225.9 177.7 227.3 177.8 228.3 177.6 C229.2 177.5 230.8 177.3 231.5 177.2 C232.3 177.1 232.7 177.0 233.0 177.0" fill="none" stroke="#999999" stroke-width="1.6" stroke-linecap="round" marker-end="url(#ah)"></path>
<path d="M234.0 196.2 C233.6 196.4 232.5 196.9 231.7 197.3 C230.8 197.8 229.8 198.5 228.8 199.0 C227.8 199.6 226.7 200.3 225.7 200.5 C224.8 200.7 223.4 200.6 223.3 200.3 C223.3 200.1 224.7 199.6 225.5 199.1 C226.3 198.6 227.6 197.8 228.3 197.4 C229.0 197.0 229.3 196.8 229.5 196.7" fill="none" stroke="#999999" stroke-width="1.6" stroke-linecap="round" marker-end="url(#ah)"></path>
<path d="M237.0 175.0 C236.5 174.9 235.5 174.7 234.5 174.6 C233.5 174.4 232.3 174.4 231.2 174.3 C230.1 174.1 228.7 174.0 227.8 173.6 C226.9 173.3 225.8 172.3 226.0 172.1 C226.1 171.9 227.5 172.2 228.4 172.3 C229.4 172.4 230.9 172.6 231.7 172.6 C232.5 172.7 232.9 172.7 233.1 172.8" fill="none" stroke="#999999" stroke-width="1.6" stroke-linecap="round" marker-end="url(#ah)"></path>
<path d="M212.2 256.7 C211.8 256.5 210.8 256.1 209.9 255.7 C209.0 255.4 207.8 255.1 206.7 254.7 C205.6 254.4 204.3 254.0 203.5 253.4 C202.8 252.9 201.9 251.7 202.0 251.5 C202.2 251.3 203.5 252.0 204.4 252.3 C205.3 252.6 206.8 253.0 207.6 253.3 C208.3 253.5 208.7 253.6 208.9 253.7" fill="none" stroke="#999999" stroke-width="1.6" stroke-linecap="round" marker-end="url(#ah)"></path>
<path d="M211.4 272.9 C211.0 273.0 209.9 273.4 209.1 273.7 C208.2 274.1 207.1 274.7 206.0 275.2 C205.0 275.6 203.8 276.2 202.8 276.3 C201.9 276.5 200.5 276.2 200.4 275.9 C200.4 275.7 201.8 275.3 202.7 274.9 C203.6 274.5 205.0 273.8 205.7 273.5 C206.4 273.2 206.8 273.0 207.0 272.9" fill="none" stroke="#999999" stroke-width="1.6" stroke-linecap="round" marker-end="url(#ah)"></path>
<path d="M207.9 289.5 C207.7 289.8 207.0 290.7 206.5 291.5 C206.0 292.4 205.4 293.5 204.8 294.4 C204.2 295.4 203.6 296.6 202.9 297.2 C202.2 297.8 200.8 298.4 200.7 298.2 C200.5 298.1 201.5 296.9 201.9 296.1 C202.4 295.3 203.2 293.9 203.6 293.3 C204.0 292.6 204.2 292.2 204.3 292.0" fill="none" stroke="#999999" stroke-width="1.6" stroke-linecap="round" marker-end="url(#ah)"></path>
<path d="M62.0 249.7 C62.4 249.5 63.3 248.9 64.1 248.3 C64.9 247.8 65.8 246.9 66.7 246.3 C67.7 245.6 68.7 244.8 69.6 244.4 C70.5 244.1 72.0 244.0 72.0 244.3 C72.1 244.5 70.8 245.2 70.1 245.8 C69.3 246.4 68.1 247.3 67.5 247.8 C66.9 248.3 66.5 248.6 66.3 248.7" fill="none" stroke="#999999" stroke-width="1.6" stroke-linecap="round" marker-end="url(#ah)"></path>
<path d="M15.6 288.4 C15.8 288.1 16.4 287.1 16.8 286.2 C17.2 285.3 17.6 284.2 18.1 283.2 C18.6 282.2 19.2 280.9 19.8 280.2 C20.4 279.5 21.7 278.7 21.9 278.9 C22.0 279.1 21.2 280.3 20.8 281.2 C20.4 282.1 19.8 283.5 19.5 284.2 C19.2 284.9 19.0 285.3 18.9 285.5" fill="none" stroke="#999999" stroke-width="1.6" stroke-linecap="round" marker-end="url(#ah)"></path>
<path d="M351.1 348.9 C350.6 348.9 349.5 348.7 348.6 348.7 C347.6 348.7 346.4 348.8 345.2 348.7 C344.1 348.7 342.7 348.7 341.8 348.4 C340.9 348.1 339.7 347.2 339.8 347.0 C339.9 346.8 341.4 347.0 342.3 347.0 C343.3 347.0 344.8 347.0 345.6 347.0 C346.4 347.0 346.8 347.0 347.0 347.0" fill="none" stroke="#999999" stroke-width="1.6" stroke-linecap="round" marker-end="url(#ah)"></path>
<path d="M311.4 394.3 C311.1 394.1 310.2 393.4 309.3 392.9 C308.5 392.4 307.4 391.9 306.4 391.3 C305.4 390.8 304.2 390.1 303.6 389.5 C302.9 388.8 302.3 387.5 302.5 387.3 C302.6 387.1 303.8 388.0 304.6 388.5 C305.5 389.0 306.8 389.7 307.5 390.1 C308.2 390.4 308.6 390.6 308.8 390.7" fill="none" stroke="#999999" stroke-width="1.6" stroke-linecap="round" marker-end="url(#ah)"></path>
<path d="M325.1 316.4 C324.8 316.1 324.1 315.2 323.4 314.6 C322.6 313.9 321.6 313.2 320.8 312.5 C320.0 311.7 318.9 310.9 318.4 310.1 C317.9 309.3 317.5 307.9 317.7 307.7 C317.9 307.6 318.9 308.7 319.6 309.3 C320.4 310.0 321.5 310.9 322.1 311.4 C322.8 311.9 323.1 312.2 323.3 312.3" fill="none" stroke="#999999" stroke-width="1.6" stroke-linecap="round" marker-end="url(#ah)"></path>
<path d="M258.6 153.0 C259.3 151.8 261.1 148.4 262.7 145.7 C264.2 143.1 266.0 140.1 267.8 137.4 C269.6 134.6 271.5 131.9 273.5 129.4 C275.6 126.8 277.7 124.3 280.0 122.0 C282.4 119.7 284.9 117.6 287.4 115.5 C289.9 113.5 293.3 111.3 295.3 109.8 C297.2 108.3 298.6 106.9 299.2 106.4" fill="none" stroke="#999999" stroke-width="1.6" stroke-linecap="round" marker-end="url(#ah)"></path>
<path d="M270.0 161.4 C270.6 160.6 272.2 158.6 273.7 157.0 C275.2 155.5 277.1 153.6 278.9 152.1 C280.8 150.6 282.7 149.1 284.7 147.9 C286.8 146.6 288.9 145.4 291.0 144.4 C293.2 143.3 295.4 142.3 297.6 141.4 C299.8 140.5 302.7 139.6 304.3 138.9 C305.9 138.2 306.7 137.3 307.2 137.0" fill="none" stroke="#999999" stroke-width="1.6" stroke-linecap="round" marker-end="url(#ah)"></path>
<path d="M268.5 171.9 C269.2 172.3 271.2 173.4 272.9 174.2 C274.7 175.0 276.9 176.1 278.9 176.8 C281.0 177.5 283.1 178.1 285.2 178.6 C287.3 179.0 289.5 179.3 291.6 179.5 C293.8 179.7 296.0 179.7 298.1 179.8 C300.3 179.9 303.0 179.8 304.5 179.9 C306.1 180.1 307.0 180.5 307.5 180.6" fill="none" stroke="#999999" stroke-width="1.6" stroke-linecap="round" marker-end="url(#ah)"></path>
<path d="M336.0 142.4 C336.7 142.4 338.4 142.4 340.0 142.4 C341.5 142.4 343.6 142.4 345.4 142.4 C347.3 142.4 349.1 142.4 350.9 142.4 C352.7 142.4 354.6 142.4 356.4 142.4 C358.2 142.4 360.1 142.4 361.9 142.4 C363.7 142.4 366.0 142.4 367.3 142.4 C368.5 142.4 369.1 142.4 369.5 142.4" fill="none" stroke="#999999" stroke-width="1.6" stroke-linecap="round" marker-end="url(#ah)"></path>
<path d="M336.0 188.9 C336.7 188.9 338.4 188.9 340.0 188.9 C341.5 188.9 343.6 188.9 345.4 188.9 C347.3 188.9 349.1 188.9 350.9 188.9 C352.7 188.9 354.6 188.9 356.4 188.9 C358.2 188.9 360.1 188.9 361.9 188.9 C363.7 188.9 366.0 188.9 367.3 188.9 C368.5 188.9 369.1 188.9 369.5 188.9" fill="none" stroke="#999999" stroke-width="1.6" stroke-linecap="round" marker-end="url(#ah)"></path>
<path d="M336.0 232.9 C336.7 232.9 338.4 232.9 340.0 232.9 C341.5 232.9 343.6 232.9 345.4 232.9 C347.3 232.9 349.1 232.9 350.9 232.9 C352.7 232.9 354.6 232.9 356.4 232.9 C358.2 232.9 360.1 232.9 361.9 232.9 C363.7 232.9 366.0 232.9 367.3 232.9 C368.5 232.9 369.1 232.9 369.5 232.9" fill="none" stroke="#999999" stroke-width="1.6" stroke-linecap="round" marker-end="url(#ah)"></path>
<path d="M395.5 142.4 C396.2 142.4 397.9 142.4 399.5 142.4 C401.0 142.4 403.1 142.4 404.9 142.4 C406.8 142.4 408.6 142.4 410.4 142.4 C412.2 142.4 414.1 142.4 415.9 142.4 C417.7 142.4 419.6 142.4 421.4 142.4 C423.2 142.4 425.5 142.4 426.8 142.4 C428.0 142.4 428.6 142.4 429.0 142.4" fill="none" stroke="#999999" stroke-width="1.6" stroke-linecap="round" marker-end="url(#ah)"></path>
<path d="M396.0 188.9 C396.7 188.9 398.4 188.9 400.0 188.9 C401.5 188.9 403.6 188.9 405.4 188.9 C407.3 188.9 409.1 188.9 410.9 188.9 C412.7 188.9 414.6 188.9 416.4 188.9 C418.2 188.9 420.1 188.9 421.9 188.9 C423.7 188.9 426.0 188.9 427.3 188.9 C428.5 188.9 429.1 188.9 429.5 188.9" fill="none" stroke="#999999" stroke-width="1.6" stroke-linecap="round" marker-end="url(#ah)"></path>
<path d="M395.5 232.9 C396.2 232.9 397.9 232.9 399.5 232.9 C401.0 232.9 403.1 232.9 404.9 232.9 C406.8 232.9 408.6 232.9 410.4 232.9 C412.2 232.9 414.1 232.9 415.9 232.9 C417.7 232.9 419.6 232.9 421.4 232.9 C423.2 232.9 425.5 232.9 426.8 232.9 C428.0 232.9 428.6 232.9 429.0 232.9" fill="none" stroke="#999999" stroke-width="1.6" stroke-linecap="round" marker-end="url(#ah)"></path>
<path d="M395.5 285.9 C396.2 285.9 397.9 285.9 399.5 285.9 C401.0 285.9 403.1 285.9 404.9 285.9 C406.8 285.9 408.6 285.9 410.4 285.9 C412.2 285.9 414.1 285.9 415.9 285.9 C417.7 285.9 419.6 285.9 421.4 285.9 C423.2 285.9 425.5 285.9 426.8 285.9 C428.0 285.9 428.6 285.9 429.0 285.9" fill="none" stroke="#999999" stroke-width="1.6" stroke-linecap="round" marker-end="url(#ah)"></path>
<path d="M336.0 285.9 C336.7 285.9 338.4 285.9 340.0 285.9 C341.5 285.9 343.6 285.9 345.4 285.9 C347.3 285.9 349.1 285.9 350.9 285.9 C352.7 285.9 354.6 285.9 356.4 285.9 C358.2 285.9 360.1 285.9 361.9 285.9 C363.7 285.9 366.0 285.9 367.3 285.9 C368.5 285.9 369.1 285.9 369.5 285.9" fill="none" stroke="#999999" stroke-width="1.6" stroke-linecap="round" marker-end="url(#ah)"></path>
<path d="M336.0 394.9 C336.7 394.9 338.4 394.9 340.0 394.9 C341.5 394.9 343.6 394.9 345.4 394.9 C347.3 394.9 349.1 394.9 350.9 394.9 C352.7 394.9 354.6 394.9 356.4 394.9 C358.2 394.9 360.1 394.9 361.9 394.9 C363.7 394.9 366.0 394.9 367.3 394.9 C368.5 394.9 369.1 394.9 369.5 394.9" fill="none" stroke="#999999" stroke-width="1.6" stroke-linecap="round" marker-end="url(#ah)"></path>
<path d="M395.5 394.9 C396.2 394.9 397.9 394.9 399.5 394.9 C401.0 394.9 403.1 394.9 404.9 394.9 C406.8 394.9 408.6 394.9 410.4 394.9 C412.2 394.9 414.1 394.9 415.9 394.9 C417.7 394.9 419.6 394.9 421.4 394.9 C423.2 394.9 425.5 394.9 426.8 394.9 C428.0 394.9 428.6 394.9 429.0 394.9" fill="none" stroke="#999999" stroke-width="1.6" stroke-linecap="round" marker-end="url(#ah)"></path>
<path d="M280.0 272.9 C280.1 274.2 280.5 277.9 280.8 280.8 C281.2 283.7 281.6 287.1 282.1 290.2 C282.7 293.3 283.2 296.5 284.0 299.5 C284.8 302.6 285.7 305.6 286.9 308.6 C288.0 311.5 289.3 314.4 290.7 317.2 C292.1 320.1 294.1 323.4 295.1 325.6 C296.1 327.7 296.7 329.4 297.0 330.2" fill="none" stroke="#999999" stroke-width="1.6" stroke-linecap="round" marker-end="url(#ah)"></path>
<path d="M216.5 137.9 C217.0 138.1 218.4 138.6 219.6 139.2 C220.8 139.8 222.5 140.7 223.8 141.6 C225.1 142.5 226.4 143.5 227.5 144.6 C228.6 145.8 229.7 147.0 230.6 148.3 C231.5 149.7 232.3 151.1 233.1 152.5 C233.9 153.8 234.7 155.6 235.3 156.5 C236.0 157.4 236.8 157.7 237.0 157.9" fill="none" stroke="#999999" stroke-width="1.6" stroke-linecap="round" marker-end="url(#ah)"></path>
<path d="M258.6 195.9 C259.4 197.1 261.4 200.5 263.3 203.0 C265.1 205.5 267.3 208.3 269.5 210.8 C271.7 213.3 274.1 215.7 276.5 217.9 C279.0 220.1 281.6 222.2 284.3 224.1 C287.1 226.0 290.0 227.7 293.0 229.1 C296.0 230.5 299.9 231.4 302.3 232.3 C304.7 233.1 306.6 234.0 307.4 234.4" fill="none" stroke="#999999" stroke-width="1.6" stroke-linecap="round" marker-end="url(#ah)"></path>
<path d="M253.5 195.9 C253.7 196.9 254.3 199.7 254.9 201.9 C255.6 204.2 256.4 206.9 257.3 209.3 C258.2 211.7 259.2 214.1 260.3 216.5 C261.3 218.8 262.5 221.1 263.7 223.4 C265.0 225.7 266.3 227.9 267.6 230.1 C268.9 232.3 270.6 235.0 271.5 236.7 C272.4 238.3 272.8 239.6 273.0 240.1" fill="none" stroke="#999999" stroke-width="1.6" stroke-linecap="round" marker-end="url(#ah)"></path>
<path d="M244.0 195.9 C244.0 196.9 243.9 199.6 243.7 201.9 C243.5 204.1 243.3 206.9 242.8 209.3 C242.3 211.8 241.7 214.2 241.0 216.6 C240.2 219.0 239.3 221.3 238.2 223.6 C237.2 225.8 235.9 228.0 234.7 230.2 C233.6 232.4 231.9 235.0 231.1 236.7 C230.3 238.3 230.2 239.5 230.0 240.1" fill="none" stroke="#999999" stroke-width="1.6" stroke-linecap="round" marker-end="url(#ah)"></path>
<path d="M224.0 272.9 C223.8 274.1 223.3 277.7 222.8 280.5 C222.4 283.3 221.8 286.6 221.3 289.6 C220.8 292.6 220.2 295.6 219.6 298.6 C219.0 301.7 218.4 304.7 217.7 307.7 C217.0 310.7 216.3 313.7 215.5 316.6 C214.8 319.6 213.7 323.2 213.0 325.4 C212.4 327.6 212.0 329.2 211.8 330.0" fill="none" stroke="#999999" stroke-width="1.6" stroke-linecap="round" marker-end="url(#ah)"></path>
<path d="M186.5 130.4 C183.9 131.6 175.9 134.8 170.6 137.9 C165.3 141.0 159.8 144.7 154.9 148.8 C150.1 152.9 145.6 157.5 141.6 162.4 C137.6 167.3 134.0 172.7 130.8 178.2 C127.6 183.7 124.9 189.5 122.6 195.4 C120.2 201.3 118.2 208.7 116.5 213.4 C114.8 218.2 113.0 222.2 112.3 223.9" fill="none" stroke="#999999" stroke-width="1.6" stroke-linecap="round" marker-end="url(#ah)"></path>
<path d="M175.0 158.4 C172.9 160.5 166.5 166.5 162.5 171.4 C158.6 176.2 154.7 181.8 151.4 187.4 C148.1 193.0 145.3 198.9 142.7 204.9 C140.2 210.9 138.1 217.1 136.3 223.3 C134.4 229.6 132.9 235.9 131.6 242.3 C130.2 248.6 129.1 256.4 128.1 261.4 C127.1 266.5 125.8 270.7 125.3 272.6" fill="none" stroke="#999999" stroke-width="1.6" stroke-linecap="round" marker-end="url(#ah)"></path>
<path d="M165.5 206.9 C165.4 209.7 165.2 217.9 164.7 223.7 C164.1 229.5 163.3 235.9 162.2 241.9 C161.2 247.9 159.8 253.9 158.2 259.8 C156.6 265.7 154.8 271.5 152.7 277.3 C150.6 283.0 148.3 288.7 145.8 294.3 C143.3 299.8 139.9 306.3 137.9 310.7 C135.8 315.1 134.2 318.9 133.5 320.6" fill="none" stroke="#999999" stroke-width="1.6" stroke-linecap="round" marker-end="url(#ah)"></path>
<path d="M201.0 171.9 C201.6 172.3 203.2 173.5 204.7 174.2 C206.2 175.0 208.3 175.9 210.1 176.5 C212.0 177.1 214.0 177.5 215.9 177.8 C217.8 178.1 219.8 178.2 221.8 178.3 C223.8 178.3 225.8 178.3 227.7 178.2 C229.6 178.1 232.0 177.8 233.4 177.9 C234.8 177.9 235.7 178.5 236.2 178.6" fill="none" stroke="#999999" stroke-width="1.6" stroke-linecap="round" marker-end="url(#ah)"></path>
<path d="M186.5 203.9 C187.5 204.2 190.2 205.3 192.5 205.8 C194.8 206.4 197.6 207.0 200.1 207.2 C202.7 207.3 205.3 207.2 207.9 206.8 C210.4 206.4 212.9 205.6 215.4 204.7 C217.8 203.8 220.2 202.6 222.5 201.5 C224.8 200.4 227.5 198.6 229.3 197.9 C231.0 197.2 232.5 197.2 233.2 197.0" fill="none" stroke="#999999" stroke-width="1.6" stroke-linecap="round" marker-end="url(#ah)"></path>
<path d="M119.5 240.9 C121.7 240.7 127.9 240.1 132.5 240.1 C137.0 240.2 142.1 240.5 146.9 241.0 C151.8 241.5 156.5 242.2 161.3 243.0 C166.1 243.8 170.8 244.8 175.6 245.8 C180.3 246.8 185.0 248.0 189.7 249.2 C194.4 250.4 199.9 252.0 203.6 253.0 C207.3 253.9 210.4 254.4 211.7 254.7" fill="none" stroke="#999999" stroke-width="1.6" stroke-linecap="round" marker-end="url(#ah)"></path>
<path d="M128.0 285.4 C129.9 285.4 135.5 285.5 139.6 285.5 C143.7 285.6 148.3 285.7 152.6 285.6 C157.0 285.6 161.4 285.5 165.7 285.1 C170.0 284.8 174.3 284.2 178.6 283.3 C182.8 282.4 187.1 281.2 191.2 279.9 C195.3 278.6 200.2 276.5 203.3 275.4 C206.5 274.2 209.1 273.4 210.3 273.0" fill="none" stroke="#999999" stroke-width="1.6" stroke-linecap="round" marker-end="url(#ah)"></path>
<path d="M137.5 329.9 C139.4 329.5 144.8 328.6 148.8 327.8 C152.9 327.0 157.4 326.3 161.6 325.2 C165.8 324.1 170.1 323.0 174.0 321.4 C178.0 319.7 181.9 317.7 185.4 315.2 C188.9 312.7 192.1 309.6 194.9 306.4 C197.8 303.2 200.6 298.7 202.7 296.1 C204.8 293.4 206.8 291.5 207.6 290.5" fill="none" stroke="#999999" stroke-width="1.6" stroke-linecap="round" marker-end="url(#ah)"></path>
<path d="M98.5 239.9 C97.7 239.9 95.7 239.9 94.0 240.0 C92.2 240.1 90.0 240.2 88.0 240.4 C86.0 240.7 84.0 241.0 82.0 241.4 C80.1 241.8 78.1 242.3 76.3 243.0 C74.4 243.7 72.5 244.5 70.7 245.3 C68.9 246.2 66.9 247.6 65.6 248.2 C64.3 248.9 63.3 248.9 62.9 249.1" fill="none" stroke="#999999" stroke-width="1.6" stroke-linecap="round" marker-end="url(#ah)"></path>
<path d="M44.0 261.4 C43.2 261.6 41.1 262.1 39.4 262.8 C37.7 263.6 35.6 264.7 33.8 265.8 C32.1 267.0 30.5 268.4 29.0 269.9 C27.4 271.3 26.1 272.9 24.8 274.6 C23.5 276.3 22.3 278.1 21.2 279.8 C20.1 281.6 19.0 283.9 18.1 285.1 C17.2 286.4 16.1 286.9 15.7 287.3" fill="none" stroke="#999999" stroke-width="1.6" stroke-linecap="round" marker-end="url(#ah)"></path>
<path d="M316.5 347.9 C317.2 347.9 318.9 347.9 320.5 347.9 C322.0 347.9 324.1 347.9 326.0 347.9 C327.8 347.9 329.6 347.9 331.4 347.9 C333.2 347.9 335.1 347.9 336.9 347.9 C338.7 347.9 340.6 347.9 342.4 347.9 C344.2 347.9 346.5 347.9 347.8 347.9 C349.0 347.9 349.6 347.9 350.0 347.9" fill="none" stroke="#999999" stroke-width="1.6" stroke-linecap="round" marker-end="url(#ah)"></path>
<path d="M297.5 363.4 C297.5 364.1 297.5 365.9 297.5 367.6 C297.6 369.2 297.6 371.4 297.8 373.2 C298.0 375.1 298.2 377.0 298.7 378.8 C299.2 380.6 299.9 382.5 300.8 384.0 C301.8 385.6 303.2 387.1 304.5 388.3 C305.8 389.6 307.8 390.8 308.7 391.8 C309.7 392.7 309.9 393.7 310.2 394.1" fill="none" stroke="#999999" stroke-width="1.6" stroke-linecap="round" marker-end="url(#ah)"></path>
<path d="M290.0 272.4 C290.3 273.6 291.0 277.0 291.9 279.6 C292.8 282.2 294.0 285.3 295.4 287.9 C296.8 290.5 298.5 293.0 300.5 295.2 C302.4 297.5 304.8 299.4 307.1 301.3 C309.3 303.2 311.9 304.9 314.3 306.7 C316.6 308.5 319.7 310.6 321.4 312.1 C323.0 313.6 323.9 315.1 324.4 315.6" fill="none" stroke="#999999" stroke-width="1.6" stroke-linecap="round" marker-end="url(#ah)"></path>

<path d="M327.928 150.371H324.976L324.076 146.627L325.948 126.791H330.808L327.928 150.371ZM317.092 150.371H314.14L311.296 126.791H316.156L318.064 146.771L317.092 150.371ZM326.416 150.371H323.536L320.224 136.439H321.7L318.388 150.371H315.688L316.264 146.771L320.656 131.255H321.52L325.912 146.627L326.416 150.371Z" fill="#4D6EB9"></path>
<path d="M386.928 150.371H383.976L383.076 146.627L384.948 126.791H389.808L386.928 150.371ZM376.092 150.371H373.14L370.296 126.791H375.156L377.064 146.771L376.092 150.371ZM385.416 150.371H382.536L379.224 136.439H380.7L377.388 150.371H374.688L375.264 146.771L379.656 131.255H380.52L384.912 146.627L385.416 150.371Z" fill="#4D6EB9"></path>
<path d="M445.928 150.371H442.976L442.076 146.627L443.948 126.791H448.808L445.928 150.371ZM435.092 150.371H432.14L429.296 126.791H434.156L436.064 146.771L435.092 150.371ZM444.416 150.371H441.536L438.224 136.439H439.7L436.388 150.371H433.688L434.264 146.771L438.656 131.255H439.52L443.912 146.627L444.416 150.371Z" fill="#4D6EB9"></path>
<path d="M327.928 200.371H324.976L324.076 196.627L325.948 176.791H330.808L327.928 200.371ZM317.092 200.371H314.14L311.296 176.791H316.156L318.064 196.771L317.092 200.371ZM326.416 200.371H323.536L320.224 186.439H321.7L318.388 200.371H315.688L316.264 196.771L320.656 181.255H321.52L325.912 196.627L326.416 200.371Z" fill="#4D6EB9"></path>
<path d="M386.928 200.371H383.976L383.076 196.627L384.948 176.791H389.808L386.928 200.371ZM376.092 200.371H373.14L370.296 176.791H375.156L377.064 196.771L376.092 200.371ZM385.416 200.371H382.536L379.224 186.439H380.7L377.388 200.371H374.688L375.264 196.771L379.656 181.255H380.52L384.912 196.627L385.416 200.371Z" fill="#4D6EB9"></path>
<path d="M445.928 200.371H442.976L442.076 196.627L443.948 176.791H448.808L445.928 200.371ZM435.092 200.371H432.14L429.296 176.791H434.156L436.064 196.771L435.092 200.371ZM444.416 200.371H441.536L438.224 186.439H439.7L436.388 200.371H433.688L434.264 196.771L438.656 181.255H439.52L443.912 196.627L444.416 200.371Z" fill="#4D6EB9"></path>
<path d="M327.928 247.371H324.976L324.076 243.627L325.948 223.791H330.808L327.928 247.371ZM317.092 247.371H314.14L311.296 223.791H316.156L318.064 243.771L317.092 247.371ZM326.416 247.371H323.536L320.224 233.439H321.7L318.388 247.371H315.688L316.264 243.771L320.656 228.255H321.52L325.912 243.627L326.416 247.371Z" fill="#4D6EB9"></path>
<path d="M386.928 247.371H383.976L383.076 243.627L384.948 223.791H389.808L386.928 247.371ZM376.092 247.371H373.14L370.296 223.791H375.156L377.064 243.771L376.092 247.371ZM385.416 247.371H382.536L379.224 233.439H380.7L377.388 247.371H374.688L375.264 243.771L379.656 228.255H380.52L384.912 243.627L385.416 247.371Z" fill="#4D6EB9"></path>
<path d="M445.928 247.371H442.976L442.076 243.627L443.948 223.791H448.808L445.928 247.371ZM435.092 247.371H432.14L429.296 223.791H434.156L436.064 243.771L435.092 247.371ZM444.416 247.371H441.536L438.224 233.439H439.7L436.388 247.371H433.688L434.264 243.771L438.656 228.255H439.52L443.912 243.627L444.416 247.371Z" fill="#4D6EB9"></path>
<path d="M327.928 297.371H324.976L324.076 293.627L325.948 273.791H330.808L327.928 297.371ZM317.092 297.371H314.14L311.296 273.791H316.156L318.064 293.771L317.092 297.371ZM326.416 297.371H323.536L320.224 283.439H321.7L318.388 297.371H315.688L316.264 293.771L320.656 278.255H321.52L325.912 293.627L326.416 297.371Z" fill="#4D6EB9"></path>
<path d="M386.928 297.371H383.976L383.076 293.627L384.948 273.791H389.808L386.928 297.371ZM376.092 297.371H373.14L370.296 273.791H375.156L377.064 293.771L376.092 297.371ZM385.416 297.371H382.536L379.224 283.439H380.7L377.388 297.371H374.688L375.264 293.771L379.656 278.255H380.52L384.912 293.627L385.416 297.371Z" fill="#4D6EB9"></path>
<path d="M445.928 297.371H442.976L442.076 293.627L443.948 273.791H448.808L445.928 297.371ZM435.092 297.371H432.14L429.296 273.791H434.156L436.064 293.771L435.092 297.371ZM444.416 297.371H441.536L438.224 283.439H439.7L436.388 297.371H433.688L434.264 293.771L438.656 278.255H439.52L443.912 293.627L444.416 297.371Z" fill="#4D6EB9"></path>
<path d="M329.928 405.371H326.976L326.076 401.627L327.948 381.791H332.808L329.928 405.371ZM319.092 405.371H316.14L313.296 381.791H318.156L320.064 401.771L319.092 405.371ZM328.416 405.371H325.536L322.224 391.439H323.7L320.388 405.371H317.688L318.264 401.771L322.656 386.255H323.52L327.912 401.627L328.416 405.371Z" fill="#4D6EB9"></path>
<path d="M388.928 405.371H385.976L385.076 401.627L386.948 381.791H391.808L388.928 405.371ZM378.092 405.371H375.14L372.296 381.791H377.156L379.064 401.771L378.092 405.371ZM387.416 405.371H384.536L381.224 391.439H382.7L379.388 405.371H376.688L377.264 401.771L381.656 386.255H382.52L386.912 401.627L387.416 405.371Z" fill="#4D6EB9"></path>
<path d="M447.928 405.371H444.976L444.076 401.627L445.948 381.791H450.808L447.928 405.371ZM437.092 405.371H434.14L431.296 381.791H436.156L438.064 401.771L437.092 405.371ZM446.416 405.371H443.536L440.224 391.439H441.7L438.388 405.371H435.688L436.264 401.771L440.656 386.255H441.52L445.912 401.627L446.416 405.371Z" fill="#4D6EB9"></path>
<path d="M313.516 83.7909H318.124C321.268 83.7909 323.656 84.4989 325.288 85.9149C326.92 87.3309 327.736 89.2509 327.736 91.6749C327.736 94.3629 326.872 96.3789 325.144 97.7229C323.416 99.0429 321.016 99.7029 317.944 99.7029H313.516V95.4909H318.304C319.696 95.4909 320.728 95.1669 321.4 94.5189C322.096 93.8469 322.444 92.9229 322.444 91.7469C322.444 90.5709 322.12 89.6709 321.472 89.0469C320.824 88.4229 319.828 88.1109 318.484 88.1109H313.516V83.7909ZM309.808 83.7909H315.028V107.371H309.808V83.7909Z" fill="#FF7E62"></path>
<path d="M339.516 305.42H344.124C347.268 305.42 349.656 306.128 351.288 307.544C352.92 308.96 353.736 310.88 353.736 313.304C353.736 315.992 352.872 318.008 351.144 319.352C349.416 320.672 347.016 321.332 343.944 321.332H339.516V317.12H344.304C345.696 317.12 346.728 316.796 347.4 316.148C348.096 315.476 348.444 314.552 348.444 313.376C348.444 312.2 348.12 311.3 347.472 310.676C346.824 310.052 345.828 309.74 344.484 309.74H339.516V305.42ZM335.808 305.42H341.028V329H335.808V305.42Z" fill="#FF7E62"></path>
<path d="M363.516 341.42H368.124C371.268 341.42 373.656 342.128 375.288 343.544C376.92 344.96 377.736 346.88 377.736 349.304C377.736 351.992 376.872 354.008 375.144 355.352C373.416 356.672 371.016 357.332 367.944 357.332H363.516V353.12H368.304C369.696 353.12 370.728 352.796 371.4 352.148C372.096 351.476 372.444 350.552 372.444 349.376C372.444 348.2 372.12 347.3 371.472 346.676C370.824 346.052 369.828 345.74 368.484 345.74H363.516V341.42ZM359.808 341.42H365.028V365H359.808V341.42Z" fill="#FF7E62"></path>
<path d="M241.792 189.371L249.676 176.447H250.36L256.12 165.791H261.736L254.392 178.067H253.708L247.372 189.371H241.792ZM262.312 189.371H256.444L250.252 178.067H249.568L242.26 165.791H248.092L253.78 176.447H254.464L262.312 189.371Z" fill="#00C373"></path>
<path d="M214.792 267.371L222.676 254.447H223.36L229.12 243.791H234.736L227.392 256.067H226.708L220.372 267.371H214.792ZM235.312 267.371H229.444L223.252 256.067H222.568L215.26 243.791H221.092L226.78 254.447H227.464L235.312 267.371Z" fill="#00C373"></path>
<path d="M269.792 267.371L277.676 254.447H278.36L284.12 243.791H289.736L282.392 256.067H281.708L275.372 267.371H269.792ZM290.312 267.371H284.444L278.252 256.067H277.568L270.26 243.791H276.092L281.78 254.447H282.464L290.312 267.371Z" fill="#00C373"></path>
<path d="M292.792 360.371L300.676 347.447H301.36L307.12 336.791H312.736L305.392 349.067H304.708L298.372 360.371H292.792ZM313.312 360.371H307.444L301.252 349.067H300.568L293.26 336.791H299.092L304.78 347.447H305.464L313.312 360.371Z" fill="#00C373"></path>
<path d="M199.792 357.371L207.676 344.447H208.36L214.12 333.791H219.736L212.392 346.067H211.708L205.372 357.371H199.792ZM220.312 357.371H214.444L208.252 346.067H207.568L200.26 333.791H206.092L211.78 344.447H212.464L220.312 357.371Z" fill="#00C373"></path>
<path d="M201 119.541C202.574 119.541 203.893 120.852 203.893 122.522C203.892 124.192 202.574 125.503 201 125.503C199.426 125.503 198.108 124.192 198.107 122.522C198.107 120.852 199.426 119.541 201 119.541Z" fill="white" stroke="#ADB3BE" stroke-width="2.33962"></path>
<path d="M209.938 133.239C211.511 133.239 212.83 134.55 212.83 136.22C212.83 137.89 211.511 139.201 209.938 139.201C208.364 139.201 207.045 137.89 207.045 136.22C207.045 134.55 208.364 133.239 209.938 133.239Z" fill="white" stroke="#ADB3BE" stroke-width="2.33962"></path>
<path d="M192.063 133.239C193.636 133.239 194.955 134.55 194.955 136.22C194.955 137.89 193.636 139.201 192.063 139.201C190.489 139.201 189.17 137.89 189.17 136.22C189.17 134.55 190.489 133.239 192.063 133.239Z" fill="white" stroke="#ADB3BE" stroke-width="2.33962"></path>
<line y1="-1.16981" x2="8.92143" y2="-1.16981" transform="matrix(0.546437 -0.8375 0.826473 0.562977 194.906 133.729)" stroke="#ADB3BE" stroke-width="2.33962"></line>
<line y1="-1.16981" x2="8.92143" y2="-1.16981" transform="matrix(-0.546437 -0.8375 -0.826473 0.562977 207.094 133.314)" stroke="#ADB3BE" stroke-width="2.33962"></line>
<path d="M184 154.541C185.574 154.541 186.893 155.852 186.893 157.522C186.892 159.192 185.574 160.503 184 160.503C182.426 160.503 181.108 159.192 181.107 157.522C181.107 155.852 182.426 154.541 184 154.541Z" fill="white" stroke="#ADB3BE" stroke-width="2.33962"></path>
<path d="M192.938 168.239C194.511 168.239 195.83 169.55 195.83 171.22C195.83 172.891 194.511 174.201 192.938 174.201C191.364 174.201 190.045 172.891 190.045 171.22C190.045 169.55 191.364 168.239 192.938 168.239Z" fill="white" stroke="#ADB3BE" stroke-width="2.33962"></path>
<path d="M175.063 168.239C176.636 168.239 177.955 169.55 177.955 171.22C177.955 172.891 176.636 174.201 175.063 174.201C173.489 174.201 172.17 172.891 172.17 171.22C172.17 169.55 173.489 168.239 175.063 168.239Z" fill="white" stroke="#ADB3BE" stroke-width="2.33962"></path>
<line y1="-1.16981" x2="8.92143" y2="-1.16981" transform="matrix(0.546437 -0.8375 0.826473 0.562977 177.906 168.729)" stroke="#ADB3BE" stroke-width="2.33962"></line>
<line y1="-1.16981" x2="8.92143" y2="-1.16981" transform="matrix(-0.546437 -0.8375 -0.826473 0.562977 190.094 168.314)" stroke="#ADB3BE" stroke-width="2.33962"></line>
<path d="M167 187.541C168.574 187.541 169.893 188.852 169.893 190.522C169.892 192.192 168.574 193.503 167 193.503C165.426 193.503 164.108 192.192 164.107 190.522C164.107 188.852 165.426 187.541 167 187.541Z" fill="white" stroke="#ADB3BE" stroke-width="2.33962"></path>
<path d="M175.938 201.239C177.511 201.239 178.83 202.55 178.83 204.22C178.83 205.891 177.511 207.201 175.938 207.201C174.364 207.201 173.045 205.891 173.045 204.22C173.045 202.55 174.364 201.239 175.938 201.239Z" fill="white" stroke="#ADB3BE" stroke-width="2.33962"></path>
<path d="M158.063 201.239C159.636 201.239 160.955 202.55 160.955 204.22C160.955 205.891 159.636 207.201 158.063 207.201C156.489 207.201 155.17 205.891 155.17 204.22C155.17 202.55 156.489 201.239 158.063 201.239Z" fill="white" stroke="#ADB3BE" stroke-width="2.33962"></path>
<line y1="-1.16981" x2="8.92143" y2="-1.16981" transform="matrix(0.546437 -0.8375 0.826473 0.562977 160.906 201.729)" stroke="#ADB3BE" stroke-width="2.33962"></line>
<line y1="-1.16981" x2="8.92143" y2="-1.16981" transform="matrix(-0.546437 -0.8375 -0.826473 0.562977 173.094 201.314)" stroke="#ADB3BE" stroke-width="2.33962"></line>
<path d="M127 319.541C128.574 319.541 129.893 320.852 129.893 322.522C129.892 324.192 128.574 325.503 127 325.503C125.426 325.503 124.108 324.192 124.107 322.522C124.107 320.852 125.426 319.541 127 319.541Z" fill="white" stroke="#ADB3BE" stroke-width="2.33962"></path>
<path d="M135.938 333.239C137.511 333.239 138.83 334.55 138.83 336.22C138.83 337.891 137.511 339.201 135.938 339.201C134.364 339.201 133.045 337.891 133.045 336.22C133.045 334.55 134.364 333.239 135.938 333.239Z" fill="white" stroke="#ADB3BE" stroke-width="2.33962"></path>
<path d="M118.063 333.239C119.636 333.239 120.955 334.55 120.955 336.22C120.955 337.891 119.636 339.201 118.063 339.201C116.489 339.201 115.17 337.891 115.17 336.22C115.17 334.55 116.489 333.239 118.063 333.239Z" fill="white" stroke="#ADB3BE" stroke-width="2.33962"></path>
<line y1="-1.16981" x2="8.92143" y2="-1.16981" transform="matrix(0.546437 -0.8375 0.826473 0.562977 120.906 333.729)" stroke="#ADB3BE" stroke-width="2.33962"></line>
<line y1="-1.16981" x2="8.92143" y2="-1.16981" transform="matrix(-0.546437 -0.8375 -0.826473 0.562977 133.094 333.314)" stroke="#ADB3BE" stroke-width="2.33962"></line>
<path d="M113 268.541C114.574 268.541 115.893 269.852 115.893 271.522C115.892 273.192 114.574 274.503 113 274.503C111.426 274.503 110.108 273.192 110.107 271.522C110.107 269.852 111.426 268.541 113 268.541Z" fill="white" stroke="#ADB3BE" stroke-width="2.33962"></path>
<path d="M121.938 282.239C123.511 282.239 124.83 283.55 124.83 285.22C124.83 286.891 123.511 288.201 121.938 288.201C120.364 288.201 119.045 286.891 119.045 285.22C119.045 283.55 120.364 282.239 121.938 282.239Z" fill="white" stroke="#ADB3BE" stroke-width="2.33962"></path>
<path d="M104.063 282.239C105.636 282.239 106.955 283.55 106.955 285.22C106.955 286.891 105.636 288.201 104.063 288.201C102.489 288.201 101.17 286.891 101.17 285.22C101.17 283.55 102.489 282.239 104.063 282.239Z" fill="white" stroke="#ADB3BE" stroke-width="2.33962"></path>
<line y1="-1.16981" x2="8.92143" y2="-1.16981" transform="matrix(0.546437 -0.8375 0.826473 0.562977 106.906 282.729)" stroke="#ADB3BE" stroke-width="2.33962"></line>
<line y1="-1.16981" x2="8.92143" y2="-1.16981" transform="matrix(-0.546437 -0.8375 -0.826473 0.562977 119.094 282.314)" stroke="#ADB3BE" stroke-width="2.33962"></line>
<path d="M108 229.541C109.574 229.541 110.893 230.852 110.893 232.522C110.892 234.192 109.574 235.503 108 235.503C106.426 235.503 105.108 234.192 105.107 232.522C105.107 230.852 106.426 229.541 108 229.541Z" fill="white" stroke="#ADB3BE" stroke-width="2.33962"></path>
<path d="M116.938 243.239C118.511 243.239 119.83 244.55 119.83 246.22C119.83 247.891 118.511 249.201 116.938 249.201C115.364 249.201 114.045 247.891 114.045 246.22C114.045 244.55 115.364 243.239 116.938 243.239Z" fill="white" stroke="#ADB3BE" stroke-width="2.33962"></path>
<path d="M99.0625 243.239C100.636 243.239 101.955 244.55 101.955 246.22C101.955 247.891 100.636 249.201 99.0625 249.201C97.4887 249.201 96.1701 247.891 96.1699 246.22C96.1699 244.55 97.4885 243.239 99.0625 243.239Z" fill="white" stroke="#ADB3BE" stroke-width="2.33962"></path>
<line y1="-1.16981" x2="8.92143" y2="-1.16981" transform="matrix(0.546437 -0.8375 0.826473 0.562977 101.906 243.729)" stroke="#ADB3BE" stroke-width="2.33962"></line>
<line y1="-1.16981" x2="8.92143" y2="-1.16981" transform="matrix(-0.546437 -0.8375 -0.826473 0.562977 114.094 243.314)" stroke="#ADB3BE" stroke-width="2.33962"></line>
<path d="M52 254.541C53.574 254.541 54.8926 255.852 54.8926 257.522C54.8924 259.192 53.5738 260.503 52 260.503C50.4262 260.503 49.1076 259.192 49.1074 257.522C49.1074 255.852 50.426 254.541 52 254.541Z" fill="white" stroke="#ADB3BE" stroke-width="2.33962"></path>
<path d="M60.9375 268.239C62.5115 268.239 63.8301 269.55 63.8301 271.22C63.8299 272.891 62.5113 274.201 60.9375 274.201C59.3637 274.201 58.0451 272.891 58.0449 271.22C58.0449 269.55 59.3635 268.239 60.9375 268.239Z" fill="white" stroke="#ADB3BE" stroke-width="2.33962"></path>
<path d="M43.0625 268.239C44.6365 268.239 45.9551 269.55 45.9551 271.22C45.9549 272.891 44.6363 274.201 43.0625 274.201C41.4887 274.201 40.1701 272.891 40.1699 271.22C40.1699 269.55 41.4885 268.239 43.0625 268.239Z" fill="white" stroke="#ADB3BE" stroke-width="2.33962"></path>
<line y1="-1.16981" x2="8.92143" y2="-1.16981" transform="matrix(0.546437 -0.8375 0.826473 0.562977 45.9062 268.729)" stroke="#ADB3BE" stroke-width="2.33962"></line>
<line y1="-1.16981" x2="8.92143" y2="-1.16981" transform="matrix(-0.546437 -0.8375 -0.826473 0.562977 58.0938 268.314)" stroke="#ADB3BE" stroke-width="2.33962"></line>
<path d="M13 290.541C14.574 290.541 15.8926 291.852 15.8926 293.522C15.8924 295.192 14.5738 296.503 13 296.503C11.4262 296.503 10.1076 295.192 10.1074 293.522C10.1074 291.852 11.426 290.541 13 290.541Z" fill="white" stroke="#ADB3BE" stroke-width="2.33962"></path>
<path d="M21.9375 304.239C23.5115 304.239 24.8301 305.55 24.8301 307.22C24.8299 308.891 23.5113 310.201 21.9375 310.201C20.3637 310.201 19.0451 308.891 19.0449 307.22C19.0449 305.55 20.3635 304.239 21.9375 304.239Z" fill="white" stroke="#ADB3BE" stroke-width="2.33962"></path>
<path d="M4.0625 304.239C5.63647 304.239 6.95508 305.55 6.95508 307.22C6.95486 308.891 5.63633 310.201 4.0625 310.201C2.48867 310.201 1.17014 308.891 1.16992 307.22C1.16992 305.55 2.48854 304.239 4.0625 304.239Z" fill="white" stroke="#ADB3BE" stroke-width="2.33962"></path>
<line y1="-1.16981" x2="8.92143" y2="-1.16981" transform="matrix(0.546437 -0.8375 0.826473 0.562977 6.90625 304.729)" stroke="#ADB3BE" stroke-width="2.33962"></line>
<line y1="-1.16981" x2="8.92143" y2="-1.16981" transform="matrix(-0.546437 -0.8375 -0.826473 0.562977 19.0938 304.314)" stroke="#ADB3BE" stroke-width="2.33962"></line>

</svg>