<svg width="428" height="498" viewBox="0 0 428 498" fill="none" xmlns="http://www.w3.org/2000/svg"><defs><marker id="ah" viewBox="0 0 10 10" refX="7.6" refY="5" markerWidth="6" markerHeight="6" orient="auto-start-reverse"><path d="M1.5 1.6 L9 5 L1.5 8.4 Z" fill="#999999"></path></marker></defs>
<path d="M184.0 176.3 C183.7 176.7 183.0 177.5 182.4 178.3 C181.8 179.1 181.2 180.1 180.5 181.0 C179.9 181.9 179.1 183.1 178.4 183.7 C177.7 184.3 176.3 184.8 176.1 184.6 C176.0 184.4 177.0 183.3 177.5 182.5 C178.1 181.7 178.9 180.4 179.4 179.8 C179.8 179.1 180.0 178.8 180.2 178.6" fill="none" stroke="#999999" stroke-width="1.6" stroke-linecap="round" marker-end="url(#ah)"></path>
<path d="M262.0 103.2 C261.7 103.6 261.0 104.5 260.5 105.3 C260.0 106.1 259.4 107.2 258.8 108.2 C258.2 109.1 257.6 110.3 256.9 110.9 C256.2 111.6 254.8 112.2 254.7 112.0 C254.5 111.8 255.5 110.7 255.9 109.8 C256.4 109.0 257.2 107.7 257.6 107.0 C258.0 106.3 258.2 106.0 258.3 105.8" fill="none" stroke="#999999" stroke-width="1.6" stroke-linecap="round" marker-end="url(#ah)"></path>
<path d="M246.0 257.3 C245.7 257.6 245.0 258.5 244.4 259.3 C243.8 260.1 243.2 261.1 242.5 262.0 C241.9 262.9 241.1 264.1 240.4 264.7 C239.7 265.3 238.3 265.8 238.1 265.6 C238.0 265.4 239.0 264.3 239.5 263.5 C240.1 262.7 240.9 261.4 241.4 260.8 C241.8 260.1 242.0 259.8 242.2 259.6" fill="none" stroke="#999999" stroke-width="1.6" stroke-linecap="round" marker-end="url(#ah)"></path>
<path d="M174.5 332.8 C174.2 333.1 173.5 334.0 172.9 334.8 C172.3 335.6 171.7 336.6 171.0 337.5 C170.4 338.4 169.6 339.6 168.9 340.2 C168.2 340.8 166.8 341.3 166.6 341.1 C166.5 340.9 167.5 339.8 168.0 339.0 C168.6 338.2 169.4 336.9 169.9 336.3 C170.3 335.6 170.5 335.3 170.7 335.1" fill="none" stroke="#999999" stroke-width="1.6" stroke-linecap="round" marker-end="url(#ah)"></path>
<path d="M349.4 413.4 C349.4 413.8 349.5 414.9 349.6 415.9 C349.7 416.8 350.0 418.0 350.2 419.2 C350.3 420.3 350.6 421.6 350.5 422.6 C350.3 423.5 349.7 424.8 349.4 424.8 C349.2 424.7 349.2 423.3 349.0 422.3 C348.9 421.4 348.6 419.9 348.5 419.1 C348.3 418.3 348.2 417.9 348.2 417.7" fill="none" stroke="#999999" stroke-width="1.6" stroke-linecap="round" marker-end="url(#ah)"></path>
<path d="M324.8 479.9 C324.4 480.0 323.3 480.1 322.3 480.3 C321.4 480.5 320.2 480.8 319.1 481.1 C318.0 481.3 316.6 481.6 315.7 481.6 C314.8 481.5 313.4 480.9 313.4 480.7 C313.5 480.5 314.9 480.4 315.9 480.1 C316.8 479.9 318.3 479.5 319.0 479.3 C319.8 479.2 320.2 479.1 320.4 479.0" fill="none" stroke="#999999" stroke-width="1.6" stroke-linecap="round" marker-end="url(#ah)"></path>
<path d="M221.9 442.8 C221.5 442.7 220.4 442.4 219.5 442.2 C218.5 442.0 217.3 441.9 216.2 441.7 C215.1 441.5 213.7 441.3 212.8 440.9 C212.0 440.5 211.0 439.5 211.1 439.3 C211.2 439.0 212.6 439.5 213.5 439.6 C214.5 439.8 216.0 440.0 216.8 440.1 C217.6 440.3 218.0 440.3 218.2 440.3" fill="none" stroke="#999999" stroke-width="1.6" stroke-linecap="round" marker-end="url(#ah)"></path>
<path d="M108.8 375.6 C108.6 375.2 108.0 374.3 107.5 373.4 C106.9 372.6 106.1 371.7 105.5 370.8 C104.9 369.8 104.0 368.7 103.7 367.8 C103.4 367.0 103.4 365.5 103.7 365.4 C103.9 365.4 104.6 366.7 105.1 367.4 C105.7 368.2 106.6 369.4 107.1 370.1 C107.5 370.7 107.8 371.0 107.9 371.2" fill="none" stroke="#999999" stroke-width="1.6" stroke-linecap="round" marker-end="url(#ah)"></path>
<path d="M203.0 76.2 C202.7 76.6 202.0 77.5 201.5 78.3 C201.0 79.1 200.4 80.2 199.8 81.2 C199.2 82.1 198.6 83.3 197.9 83.9 C197.2 84.6 195.8 85.2 195.7 85.0 C195.5 84.8 196.5 83.7 196.9 82.8 C197.4 82.0 198.2 80.7 198.6 80.0 C199.0 79.3 199.2 79.0 199.3 78.8" fill="none" stroke="#999999" stroke-width="1.6" stroke-linecap="round" marker-end="url(#ah)"></path>
<path d="M170.3 120.3 C170.3 120.7 170.5 121.9 170.7 122.8 C170.9 123.8 171.3 124.9 171.5 126.0 C171.7 127.1 172.1 128.5 172.0 129.4 C171.9 130.4 171.4 131.7 171.1 131.7 C170.9 131.7 170.8 130.2 170.6 129.3 C170.3 128.3 170.0 126.8 169.8 126.1 C169.6 125.3 169.5 124.9 169.4 124.7" fill="none" stroke="#999999" stroke-width="1.6" stroke-linecap="round" marker-end="url(#ah)"></path>
<path d="M74.3 192.8 C74.3 193.2 74.5 194.4 74.7 195.3 C74.9 196.3 75.2 197.4 75.5 198.5 C75.7 199.6 76.1 201.0 76.0 201.9 C75.9 202.9 75.4 204.2 75.1 204.2 C74.9 204.2 74.8 202.7 74.6 201.8 C74.3 200.8 74.0 199.3 73.8 198.6 C73.6 197.8 73.5 197.4 73.4 197.2" fill="none" stroke="#999999" stroke-width="1.6" stroke-linecap="round" marker-end="url(#ah)"></path>
<path d="M60.1 233.9 C60.5 234.0 61.6 234.3 62.6 234.5 C63.5 234.7 64.7 234.9 65.8 235.1 C66.9 235.3 68.3 235.5 69.2 236.0 C70.0 236.4 71.0 237.5 70.9 237.7 C70.8 237.9 69.4 237.4 68.4 237.2 C67.5 237.1 66.0 236.8 65.2 236.7 C64.4 236.5 64.0 236.5 63.8 236.4" fill="none" stroke="#999999" stroke-width="1.6" stroke-linecap="round" marker-end="url(#ah)"></path>
<path d="M68.1 292.7 C68.3 292.3 68.9 291.3 69.3 290.5 C69.7 289.6 70.2 288.4 70.7 287.4 C71.2 286.4 71.7 285.1 72.3 284.4 C72.9 283.7 74.2 283.0 74.4 283.1 C74.5 283.3 73.7 284.5 73.4 285.4 C73.0 286.3 72.4 287.7 72.0 288.4 C71.7 289.1 71.6 289.5 71.5 289.7" fill="none" stroke="#999999" stroke-width="1.6" stroke-linecap="round" marker-end="url(#ah)"></path>
<path d="M377.0 379.9 C376.7 380.2 375.9 381.0 375.3 381.8 C374.7 382.5 374.1 383.6 373.3 384.4 C372.6 385.3 371.8 386.4 371.1 387.0 C370.3 387.6 368.9 388.0 368.8 387.8 C368.6 387.6 369.7 386.6 370.3 385.8 C370.9 385.0 371.8 383.8 372.2 383.2 C372.7 382.5 372.9 382.2 373.1 382.0" fill="none" stroke="#999999" stroke-width="1.6" stroke-linecap="round" marker-end="url(#ah)"></path>
<path d="M312.5 449.7 C312.8 449.4 313.7 448.7 314.4 448.0 C315.0 447.3 315.8 446.3 316.6 445.5 C317.4 444.7 318.3 443.7 319.1 443.2 C319.9 442.7 321.3 442.4 321.5 442.6 C321.6 442.9 320.4 443.8 319.8 444.5 C319.1 445.2 318.1 446.3 317.6 446.9 C317.0 447.5 316.8 447.8 316.6 448.0" fill="none" stroke="#999999" stroke-width="1.6" stroke-linecap="round" marker-end="url(#ah)"></path>
<path d="M261.8 29.9 C261.7 30.3 261.2 31.3 261.0 32.2 C260.7 33.1 260.4 34.4 260.1 35.4 C259.8 36.5 259.4 37.9 258.9 38.7 C258.4 39.5 257.3 40.4 257.1 40.2 C256.9 40.1 257.5 38.8 257.8 37.8 C258.0 36.9 258.4 35.4 258.6 34.7 C258.8 33.9 258.9 33.5 259.0 33.3" fill="none" stroke="#999999" stroke-width="1.6" stroke-linecap="round" marker-end="url(#ah)"></path>
<path d="M126.1 244.6 C126.0 245.0 125.9 246.1 125.8 247.1 C125.8 248.0 125.9 249.3 125.8 250.4 C125.8 251.5 125.8 252.9 125.5 253.8 C125.3 254.7 124.4 255.9 124.2 255.8 C123.9 255.7 124.2 254.2 124.2 253.3 C124.2 252.3 124.2 250.8 124.2 250.0 C124.2 249.2 124.2 248.8 124.2 248.6" fill="none" stroke="#999999" stroke-width="1.6" stroke-linecap="round" marker-end="url(#ah)"></path>
<path d="M212.1 176.6 C212.0 177.0 211.9 178.1 211.8 179.1 C211.8 180.0 211.9 181.3 211.8 182.4 C211.8 183.5 211.8 184.9 211.5 185.8 C211.3 186.7 210.4 187.9 210.2 187.8 C209.9 187.7 210.2 186.2 210.2 185.3 C210.2 184.3 210.2 182.8 210.2 182.0 C210.2 181.2 210.2 180.8 210.2 180.6" fill="none" stroke="#999999" stroke-width="1.6" stroke-linecap="round" marker-end="url(#ah)"></path>
<path d="M121.1 152.6 C121.0 153.0 120.9 154.1 120.8 155.1 C120.8 156.0 120.9 157.3 120.8 158.4 C120.8 159.5 120.8 160.9 120.5 161.8 C120.3 162.7 119.4 163.9 119.2 163.8 C118.9 163.7 119.2 162.2 119.2 161.3 C119.2 160.3 119.2 158.8 119.2 158.0 C119.2 157.2 119.2 156.8 119.2 156.6" fill="none" stroke="#999999" stroke-width="1.6" stroke-linecap="round" marker-end="url(#ah)"></path>
<path d="M67.5 133.6 C67.7 133.9 68.4 134.8 69.1 135.5 C69.8 136.2 70.8 137.0 71.6 137.8 C72.3 138.6 73.4 139.5 73.8 140.3 C74.3 141.1 74.6 142.6 74.4 142.7 C74.2 142.8 73.3 141.6 72.6 141.0 C71.8 140.3 70.7 139.3 70.2 138.7 C69.6 138.2 69.3 137.9 69.1 137.7" fill="none" stroke="#999999" stroke-width="1.6" stroke-linecap="round" marker-end="url(#ah)"></path>
<path d="M112.6 82.1 C112.5 82.5 112.4 83.6 112.3 84.6 C112.3 85.5 112.4 86.8 112.3 87.9 C112.3 89.0 112.3 90.4 112.0 91.3 C111.8 92.2 110.9 93.4 110.7 93.3 C110.4 93.2 110.7 91.7 110.7 90.8 C110.7 89.8 110.7 88.3 110.7 87.5 C110.7 86.7 110.7 86.3 110.7 86.1" fill="none" stroke="#999999" stroke-width="1.6" stroke-linecap="round" marker-end="url(#ah)"></path>
<path d="M59.6 62.6 C59.5 63.0 59.4 64.1 59.3 65.1 C59.3 66.0 59.4 67.3 59.3 68.4 C59.3 69.5 59.3 70.9 59.0 71.8 C58.8 72.7 57.9 73.9 57.7 73.8 C57.4 73.7 57.7 72.2 57.7 71.3 C57.7 70.3 57.7 68.8 57.7 68.0 C57.7 67.2 57.7 66.8 57.7 66.6" fill="none" stroke="#999999" stroke-width="1.6" stroke-linecap="round" marker-end="url(#ah)"></path>
<path d="M287.4 86.7 C287.8 86.9 288.8 87.5 289.7 87.9 C290.5 88.3 291.7 88.6 292.7 89.1 C293.8 89.6 295.1 90.1 295.8 90.7 C296.5 91.3 297.3 92.5 297.1 92.7 C297.0 92.9 295.7 92.1 294.8 91.7 C293.9 91.4 292.5 90.8 291.8 90.5 C291.0 90.2 290.7 90.1 290.4 90.0" fill="none" stroke="#999999" stroke-width="1.6" stroke-linecap="round" marker-end="url(#ah)"></path>
<path d="M262.1 266.2 C262.2 266.6 262.5 267.7 262.8 268.6 C263.2 269.5 263.7 270.6 264.1 271.7 C264.5 272.7 265.1 274.0 265.2 274.9 C265.3 275.9 264.9 277.3 264.7 277.3 C264.5 277.3 264.1 275.9 263.7 275.0 C263.4 274.1 262.8 272.7 262.5 272.0 C262.1 271.3 262.0 270.9 261.9 270.7" fill="none" stroke="#999999" stroke-width="1.6" stroke-linecap="round" marker-end="url(#ah)"></path>
<path d="M207.5 237.2 C207.6 237.6 208.0 238.6 208.4 239.5 C208.8 240.4 209.4 241.5 209.9 242.5 C210.3 243.5 211.0 244.8 211.1 245.7 C211.3 246.6 211.0 248.1 210.8 248.1 C210.6 248.1 210.1 246.7 209.7 245.8 C209.3 245.0 208.6 243.6 208.2 242.9 C207.9 242.2 207.7 241.8 207.6 241.6" fill="none" stroke="#999999" stroke-width="1.6" stroke-linecap="round" marker-end="url(#ah)"></path>
<path d="M149.0 222.0 C149.5 222.0 150.6 222.3 151.5 222.4 C152.5 222.5 153.7 222.6 154.8 222.7 C155.9 222.9 157.3 223.0 158.2 223.3 C159.1 223.7 160.2 224.7 160.1 224.9 C160.0 225.1 158.5 224.7 157.6 224.6 C156.6 224.5 155.1 224.4 154.3 224.3 C153.5 224.3 153.1 224.2 152.9 224.2" fill="none" stroke="#999999" stroke-width="1.6" stroke-linecap="round" marker-end="url(#ah)"></path>
<path d="M325.0 320.5 C324.6 320.7 323.5 321.1 322.7 321.6 C321.8 322.0 320.8 322.7 319.8 323.3 C318.8 323.8 317.7 324.5 316.8 324.7 C315.8 325.0 314.4 324.8 314.3 324.6 C314.3 324.3 315.7 323.8 316.5 323.3 C317.3 322.8 318.6 322.0 319.3 321.6 C320.0 321.2 320.3 321.0 320.5 320.9" fill="none" stroke="#999999" stroke-width="1.6" stroke-linecap="round" marker-end="url(#ah)"></path>
<path d="M289.6 425.3 C289.6 424.9 289.6 423.8 289.4 422.8 C289.3 421.9 289.0 420.7 288.9 419.5 C288.8 418.4 288.5 417.1 288.7 416.1 C288.8 415.2 289.4 413.9 289.7 413.9 C289.9 414.0 289.9 415.5 290.1 416.4 C290.2 417.4 290.5 418.9 290.6 419.6 C290.7 420.4 290.8 420.8 290.8 421.1" fill="none" stroke="#999999" stroke-width="1.6" stroke-linecap="round" marker-end="url(#ah)"></path>
<path d="M313.8 371.1 C313.6 370.7 313.0 369.8 312.5 369.0 C311.9 368.1 311.1 367.2 310.5 366.3 C309.9 365.3 309.0 364.2 308.7 363.3 C308.4 362.5 308.4 361.0 308.7 360.9 C308.9 360.9 309.6 362.2 310.1 362.9 C310.7 363.7 311.6 365.0 312.1 365.6 C312.5 366.2 312.8 366.5 312.9 366.7" fill="none" stroke="#999999" stroke-width="1.6" stroke-linecap="round" marker-end="url(#ah)"></path>
<path d="M211.6 398.1 C211.5 397.7 211.0 396.7 210.6 395.8 C210.1 395.0 209.4 393.9 208.9 392.9 C208.3 392.0 207.6 390.8 207.4 389.9 C207.2 388.9 207.3 387.5 207.5 387.4 C207.8 387.4 208.3 388.8 208.8 389.6 C209.3 390.4 210.1 391.7 210.5 392.4 C210.9 393.1 211.1 393.4 211.2 393.6" fill="none" stroke="#999999" stroke-width="1.6" stroke-linecap="round" marker-end="url(#ah)"></path>
<path d="M262.9 377.0 C262.7 377.3 262.2 378.3 261.8 379.2 C261.5 380.2 261.2 381.3 260.8 382.4 C260.3 383.4 259.9 384.8 259.4 385.5 C258.8 386.3 257.6 387.1 257.4 387.0 C257.2 386.8 257.9 385.5 258.2 384.6 C258.5 383.7 259.0 382.2 259.3 381.5 C259.6 380.8 259.7 380.4 259.8 380.1" fill="none" stroke="#999999" stroke-width="1.6" stroke-linecap="round" marker-end="url(#ah)"></path>
<path d="M244.9 334.6 C244.6 334.3 243.7 333.7 242.8 333.1 C242.0 332.6 240.9 332.1 239.9 331.5 C239.0 330.9 237.8 330.3 237.1 329.6 C236.5 328.9 235.8 327.6 236.0 327.4 C236.2 327.3 237.4 328.2 238.2 328.7 C239.0 329.1 240.4 329.9 241.1 330.3 C241.8 330.6 242.1 330.8 242.3 331.0" fill="none" stroke="#999999" stroke-width="1.6" stroke-linecap="round" marker-end="url(#ah)"></path>
<path d="M134.0 328.8 C134.4 328.6 135.4 328.1 136.2 327.6 C137.1 327.1 138.0 326.4 139.0 325.8 C140.0 325.2 141.1 324.4 142.0 324.1 C142.9 323.9 144.4 324.0 144.4 324.2 C144.5 324.4 143.2 325.0 142.4 325.6 C141.6 326.1 140.3 326.9 139.6 327.4 C139.0 327.8 138.6 328.0 138.4 328.2" fill="none" stroke="#999999" stroke-width="1.6" stroke-linecap="round" marker-end="url(#ah)"></path>
<path d="M316.4 173.6 C316.1 173.3 315.5 172.3 314.9 171.5 C314.4 170.8 313.5 169.9 312.8 169.0 C312.2 168.1 311.3 167.0 310.9 166.1 C310.5 165.3 310.5 163.8 310.7 163.7 C310.9 163.6 311.7 164.9 312.3 165.7 C312.9 166.4 313.9 167.6 314.4 168.2 C314.9 168.8 315.1 169.1 315.3 169.3" fill="none" stroke="#999999" stroke-width="1.6" stroke-linecap="round" marker-end="url(#ah)"></path>
<path d="M259.2 213.8 C259.3 213.4 259.8 212.4 260.1 211.5 C260.4 210.6 260.7 209.4 261.1 208.3 C261.4 207.2 261.8 205.9 262.3 205.1 C262.9 204.3 264.0 203.5 264.2 203.6 C264.4 203.8 263.8 205.1 263.5 206.0 C263.2 206.9 262.8 208.4 262.6 209.1 C262.3 209.9 262.2 210.3 262.1 210.5" fill="none" stroke="#999999" stroke-width="1.6" stroke-linecap="round" marker-end="url(#ah)"></path>
<path d="M178.6 269.7 C178.2 269.6 177.0 269.5 176.1 269.5 C175.1 269.4 173.9 269.5 172.7 269.4 C171.6 269.4 170.2 269.4 169.3 269.1 C168.4 268.9 167.3 268.0 167.3 267.8 C167.4 267.5 168.9 267.8 169.8 267.8 C170.8 267.8 172.3 267.8 173.1 267.8 C173.9 267.8 174.3 267.8 174.6 267.8" fill="none" stroke="#999999" stroke-width="1.6" stroke-linecap="round" marker-end="url(#ah)"></path>
<path d="M177.8 292.6 C177.5 292.3 176.6 291.6 175.8 291.0 C175.1 290.4 174.0 289.8 173.1 289.1 C172.2 288.4 171.1 287.7 170.5 286.9 C169.9 286.2 169.4 284.8 169.6 284.7 C169.8 284.5 170.9 285.5 171.7 286.1 C172.5 286.6 173.7 287.5 174.4 287.9 C175.0 288.4 175.3 288.6 175.5 288.8" fill="none" stroke="#999999" stroke-width="1.6" stroke-linecap="round" marker-end="url(#ah)"></path>
<path d="M233.8 392.6 C234.0 392.2 234.6 391.3 235.1 390.5 C235.7 389.6 236.5 388.4 236.9 387.7 C237.3 387.0 237.7 386.4 237.4 386.5 C237.0 386.6 235.4 387.5 234.6 388.3 C233.9 389.1 233.4 390.2 232.8 391.1 C232.2 392.0 231.4 393.2 231.0 393.8 C230.5 394.5 230.2 394.8 230.0 394.9" fill="none" stroke="#999999" stroke-width="1.6" stroke-linecap="round" marker-end="url(#ah)"></path>
<path d="M342.6 332.1 C342.5 332.5 342.4 333.6 342.3 334.6 C342.3 335.5 342.4 336.8 342.3 337.9 C342.3 339.0 342.3 340.4 342.0 341.3 C341.8 342.2 340.9 343.4 340.7 343.3 C340.4 343.2 340.7 341.7 340.7 340.8 C340.7 339.8 340.7 338.3 340.7 337.5 C340.7 336.7 340.7 336.3 340.7 336.1" fill="none" stroke="#999999" stroke-width="1.6" stroke-linecap="round" marker-end="url(#ah)"></path>
<path d="M302.1 256.1 C301.8 255.8 301.1 255.0 300.4 254.3 C299.7 253.6 298.7 252.9 297.9 252.1 C297.1 251.3 296.0 250.4 295.5 249.6 C295.0 248.8 294.7 247.4 294.9 247.3 C295.1 247.1 296.1 248.3 296.8 248.9 C297.5 249.6 298.7 250.6 299.3 251.1 C299.8 251.6 300.2 251.9 300.3 252.0" fill="none" stroke="#999999" stroke-width="1.6" stroke-linecap="round" marker-end="url(#ah)"></path>
<path d="M147.0 213.1 C147.9 212.4 150.4 210.6 152.3 209.1 C154.2 207.6 156.6 205.7 158.6 204.0 C160.7 202.2 162.7 200.4 164.7 198.5 C166.6 196.7 168.5 194.7 170.3 192.7 C172.1 190.7 173.8 188.5 175.5 186.4 C177.1 184.3 179.0 181.5 180.3 179.9 C181.5 178.4 182.5 177.4 182.9 176.9" fill="none" stroke="#999999" stroke-width="1.6" stroke-linecap="round" marker-end="url(#ah)"></path>
<path d="M221.0 150.1 C222.1 149.3 225.2 147.1 227.5 145.2 C229.9 143.3 232.5 141.0 234.8 138.8 C237.2 136.6 239.4 134.2 241.5 131.8 C243.6 129.4 245.6 126.8 247.5 124.2 C249.4 121.6 251.2 118.9 253.0 116.2 C254.7 113.5 256.6 110.0 258.0 108.0 C259.3 106.0 260.6 104.6 261.1 103.9" fill="none" stroke="#999999" stroke-width="1.6" stroke-linecap="round" marker-end="url(#ah)"></path>
<path d="M209.0 294.1 C209.9 293.4 212.4 291.6 214.3 290.1 C216.2 288.6 218.6 286.7 220.6 285.0 C222.7 283.2 224.7 281.4 226.7 279.5 C228.6 277.6 230.5 275.7 232.3 273.7 C234.1 271.7 235.8 269.5 237.5 267.4 C239.1 265.3 241.0 262.5 242.3 260.9 C243.5 259.4 244.5 258.4 244.9 257.9" fill="none" stroke="#999999" stroke-width="1.6" stroke-linecap="round" marker-end="url(#ah)"></path>
<path d="M137.5 369.6 C138.4 368.9 140.9 367.1 142.8 365.6 C144.7 364.1 147.1 362.2 149.1 360.5 C151.2 358.7 153.2 356.9 155.2 355.0 C157.1 353.1 159.0 351.2 160.8 349.2 C162.6 347.2 164.3 345.0 166.0 342.9 C167.6 340.8 169.5 338.0 170.8 336.4 C172.0 334.9 173.0 333.9 173.4 333.4" fill="none" stroke="#999999" stroke-width="1.6" stroke-linecap="round" marker-end="url(#ah)"></path>
<path d="M341.5 464.1 C342.1 463.2 343.8 460.6 344.9 458.4 C345.9 456.2 347.1 453.4 347.9 450.8 C348.7 448.2 349.2 445.6 349.6 442.9 C350.0 440.2 350.2 437.5 350.2 434.8 C350.3 432.0 350.2 429.3 350.0 426.6 C349.8 423.9 349.3 420.6 349.2 418.6 C349.1 416.6 349.6 415.1 349.7 414.4" fill="none" stroke="#999999" stroke-width="1.6" stroke-linecap="round" marker-end="url(#ah)"></path>
<path d="M274.0 464.1 C275.0 464.8 277.6 466.6 279.8 467.9 C282.0 469.3 284.6 470.8 287.1 472.1 C289.6 473.3 292.2 474.5 294.8 475.6 C297.4 476.6 300.1 477.5 302.8 478.2 C305.5 478.9 308.3 479.5 311.0 479.7 C313.8 480.0 317.2 479.7 319.4 479.8 C321.5 479.9 323.1 480.3 323.8 480.4" fill="none" stroke="#999999" stroke-width="1.6" stroke-linecap="round" marker-end="url(#ah)"></path>
<path d="M149.0 400.6 C150.4 402.0 154.2 406.1 157.2 408.8 C160.2 411.6 163.7 414.6 167.2 417.3 C170.6 420.0 174.2 422.5 177.9 424.8 C181.6 427.2 185.4 429.3 189.3 431.3 C193.2 433.2 197.3 435.0 201.4 436.5 C205.4 437.9 210.6 439.2 213.8 440.2 C217.1 441.3 219.7 442.3 220.8 442.7" fill="none" stroke="#999999" stroke-width="1.6" stroke-linecap="round" marker-end="url(#ah)"></path>
<path d="M91.5 300.6 C91.4 302.4 90.7 307.4 90.6 311.1 C90.5 314.9 90.5 319.2 90.8 323.2 C91.1 327.2 91.7 331.2 92.4 335.1 C93.2 339.1 94.1 343.0 95.3 346.8 C96.6 350.6 98.0 354.4 99.7 358.1 C101.3 361.7 103.9 365.8 105.3 368.6 C106.7 371.4 107.6 373.8 108.0 374.8" fill="none" stroke="#999999" stroke-width="1.6" stroke-linecap="round" marker-end="url(#ah)"></path>
<path d="M205.0 140.6 C204.3 139.3 202.0 135.7 200.8 132.7 C199.5 129.7 198.3 126.2 197.4 122.8 C196.5 119.4 195.9 116.0 195.5 112.5 C195.1 109.0 195.0 105.5 195.1 102.0 C195.2 98.5 195.6 95.0 196.2 91.6 C196.9 88.2 198.4 84.2 199.1 81.6 C199.7 79.1 199.9 77.0 200.1 76.0" fill="none" stroke="#999999" stroke-width="1.6" stroke-linecap="round" marker-end="url(#ah)"></path>
<path d="M190.5 150.1 C189.8 149.7 188.1 148.8 186.6 147.9 C185.0 147.0 183.0 145.9 181.5 144.7 C179.9 143.5 178.4 142.1 177.2 140.5 C176.0 139.0 175.0 137.2 174.1 135.4 C173.2 133.6 172.5 131.7 171.9 129.8 C171.2 128.0 170.6 125.6 170.0 124.3 C169.4 122.9 168.6 122.3 168.3 121.9" fill="none" stroke="#999999" stroke-width="1.6" stroke-linecap="round" marker-end="url(#ah)"></path>
<path d="M108.0 220.6 C107.0 220.5 104.3 220.1 102.1 219.6 C99.8 219.2 97.1 218.6 94.7 217.9 C92.4 217.1 90.0 216.2 87.8 215.0 C85.7 213.7 83.6 212.2 81.9 210.4 C80.2 208.7 78.7 206.5 77.5 204.4 C76.2 202.3 75.3 199.3 74.4 197.7 C73.5 196.1 72.5 195.2 72.1 194.8" fill="none" stroke="#999999" stroke-width="1.6" stroke-linecap="round" marker-end="url(#ah)"></path>
<path d="M106.5 229.6 C105.6 230.1 103.4 231.7 101.3 232.6 C99.3 233.5 96.7 234.4 94.3 235.0 C91.9 235.6 89.4 236.0 86.9 236.2 C84.4 236.5 81.9 236.6 79.4 236.6 C76.9 236.7 74.4 236.6 71.9 236.4 C69.4 236.3 66.4 235.8 64.6 235.8 C62.7 235.7 61.4 236.3 60.8 236.4" fill="none" stroke="#999999" stroke-width="1.6" stroke-linecap="round" marker-end="url(#ah)"></path>
<path d="M108.0 245.6 C106.9 246.4 103.9 248.7 101.6 250.6 C99.3 252.5 96.6 254.6 94.2 256.8 C91.9 259.0 89.6 261.3 87.5 263.7 C85.3 266.0 83.3 268.6 81.4 271.1 C79.6 273.7 77.8 276.5 76.2 279.2 C74.5 281.9 72.8 285.5 71.6 287.6 C70.4 289.7 69.3 291.1 68.8 291.8" fill="none" stroke="#999999" stroke-width="1.6" stroke-linecap="round" marker-end="url(#ah)"></path>
<path d="M351.5 396.6 C352.1 396.5 353.5 396.1 354.8 395.7 C356.2 395.2 358.0 394.7 359.5 394.1 C361.0 393.5 362.6 392.8 364.0 391.9 C365.4 391.1 366.7 390.1 367.9 389.0 C369.1 387.9 370.2 386.6 371.3 385.4 C372.4 384.2 373.6 382.6 374.4 381.8 C375.3 381.0 376.0 380.9 376.3 380.7" fill="none" stroke="#999999" stroke-width="1.6" stroke-linecap="round" marker-end="url(#ah)"></path>
<path d="M331.0 410.6 C330.9 411.5 330.7 414.0 330.3 416.0 C329.9 418.0 329.3 420.5 328.6 422.7 C327.9 424.9 327.1 427.0 326.2 429.2 C325.3 431.3 324.3 433.4 323.3 435.5 C322.3 437.5 321.1 439.6 319.9 441.5 C318.7 443.5 317.0 445.7 316.1 447.2 C315.3 448.6 315.0 449.8 314.8 450.4" fill="none" stroke="#999999" stroke-width="1.6" stroke-linecap="round" marker-end="url(#ah)"></path>
<path d="M264.0 71.1 C263.6 70.3 262.4 68.3 261.5 66.4 C260.7 64.6 259.6 62.3 258.9 60.2 C258.2 58.1 257.6 55.9 257.3 53.6 C257.1 51.4 257.1 49.1 257.3 46.9 C257.4 44.6 257.9 42.4 258.3 40.2 C258.7 38.0 259.4 35.3 259.6 33.7 C259.8 32.0 259.4 30.9 259.4 30.3" fill="none" stroke="#999999" stroke-width="1.6" stroke-linecap="round" marker-end="url(#ah)"></path>
<path d="M120.0 281.6 C120.3 280.9 121.2 279.2 121.7 277.5 C122.3 275.9 122.8 273.7 123.2 271.8 C123.6 269.8 123.8 267.9 124.1 265.9 C124.3 263.9 124.5 261.9 124.6 260.0 C124.7 258.0 124.8 256.0 124.9 254.0 C125.0 252.1 124.9 249.6 125.1 248.2 C125.2 246.8 125.7 246.0 125.8 245.6" fill="none" stroke="#999999" stroke-width="1.6" stroke-linecap="round" marker-end="url(#ah)"></path>
<path d="M211.0 203.6 C211.0 203.1 211.0 202.0 211.0 200.8 C211.0 199.6 211.0 197.9 211.0 196.4 C211.0 195.0 211.0 193.5 211.0 192.1 C211.0 190.6 211.0 189.2 211.0 187.7 C211.0 186.3 211.0 184.8 211.0 183.4 C211.0 181.9 211.0 180.1 211.0 179.1 C211.0 178.2 211.0 177.9 211.0 177.6" fill="none" stroke="#999999" stroke-width="1.6" stroke-linecap="round" marker-end="url(#ah)"></path>
<path d="M122.5 189.6 C122.5 188.9 122.4 187.0 122.2 185.3 C122.1 183.6 121.8 181.4 121.6 179.4 C121.4 177.5 121.2 175.5 121.0 173.6 C120.8 171.6 120.6 169.7 120.5 167.7 C120.4 165.8 120.3 163.8 120.2 161.9 C120.1 160.0 120.1 157.5 120.0 156.1 C120.0 154.7 120.0 154.0 120.0 153.6" fill="none" stroke="#999999" stroke-width="1.6" stroke-linecap="round" marker-end="url(#ah)"></path>
<path d="M114.0 203.6 C113.2 201.9 111.1 196.8 109.3 193.2 C107.5 189.5 105.4 185.5 103.2 181.7 C101.1 178.0 98.8 174.3 96.5 170.7 C94.1 167.1 91.7 163.5 89.1 160.0 C86.6 156.5 83.9 153.1 81.2 149.8 C78.4 146.5 74.8 142.7 72.6 140.2 C70.4 137.7 68.8 135.5 68.0 134.6" fill="none" stroke="#999999" stroke-width="1.6" stroke-linecap="round" marker-end="url(#ah)"></path>
<path d="M114.0 119.1 C114.0 118.4 113.9 116.5 113.7 114.8 C113.6 113.1 113.3 110.9 113.1 108.9 C112.9 107.0 112.7 105.0 112.5 103.1 C112.3 101.1 112.1 99.2 112.0 97.2 C111.9 95.3 111.8 93.3 111.7 91.4 C111.6 89.5 111.6 87.0 111.5 85.6 C111.5 84.2 111.5 83.5 111.5 83.1" fill="none" stroke="#999999" stroke-width="1.6" stroke-linecap="round" marker-end="url(#ah)"></path>
<path d="M61.0 99.6 C61.0 98.9 60.9 97.0 60.7 95.3 C60.6 93.6 60.3 91.4 60.1 89.4 C59.9 87.5 59.7 85.5 59.5 83.6 C59.3 81.6 59.1 79.7 59.0 77.7 C58.9 75.8 58.8 73.8 58.7 71.9 C58.6 70.0 58.6 67.5 58.5 66.1 C58.5 64.7 58.5 64.0 58.5 63.6" fill="none" stroke="#999999" stroke-width="1.6" stroke-linecap="round" marker-end="url(#ah)"></path>
<path d="M305.0 105.1 C304.8 104.7 304.4 103.7 303.8 102.7 C303.3 101.7 302.5 100.2 301.8 99.0 C301.0 97.9 300.2 96.7 299.4 95.6 C298.5 94.5 297.5 93.5 296.5 92.6 C295.4 91.7 294.2 90.9 293.1 90.2 C291.9 89.5 290.3 88.9 289.6 88.4 C288.8 87.9 288.6 87.3 288.4 87.0" fill="none" stroke="#999999" stroke-width="1.6" stroke-linecap="round" marker-end="url(#ah)"></path>
<path d="M267.5 320.1 C267.5 319.0 267.5 315.7 267.5 313.2 C267.5 310.6 267.6 307.6 267.5 304.7 C267.5 301.9 267.5 299.1 267.3 296.3 C267.2 293.5 267.0 290.7 266.6 287.9 C266.3 285.1 265.8 282.3 265.2 279.6 C264.6 276.9 263.5 273.6 263.0 271.6 C262.5 269.5 262.2 268.1 262.1 267.4" fill="none" stroke="#999999" stroke-width="1.6" stroke-linecap="round" marker-end="url(#ah)"></path>
<path d="M207.0 268.6 C207.2 268.0 207.7 266.6 208.0 265.2 C208.4 263.8 208.7 261.9 208.9 260.3 C209.2 258.6 209.3 256.9 209.4 255.3 C209.5 253.6 209.5 251.9 209.5 250.2 C209.4 248.5 209.2 246.8 208.9 245.2 C208.7 243.6 208.1 241.7 208.0 240.5 C207.8 239.3 208.2 238.4 208.2 238.0" fill="none" stroke="#999999" stroke-width="1.6" stroke-linecap="round" marker-end="url(#ah)"></path>
<path d="M177.5 243.6 C177.3 242.9 177.3 240.9 176.5 239.4 C175.8 238.0 174.4 236.1 173.1 234.7 C171.8 233.2 170.2 231.9 168.6 230.7 C167.1 229.5 165.4 228.4 163.6 227.5 C161.9 226.6 160.0 225.8 158.2 225.1 C156.4 224.4 154.1 223.7 153.0 223.2 C151.9 222.6 151.7 222.0 151.5 221.8" fill="none" stroke="#999999" stroke-width="1.6" stroke-linecap="round" marker-end="url(#ah)"></path>
<path d="M286.6 325.0 C287.4 325.3 289.3 326.3 291.1 326.8 C292.8 327.4 295.1 328.0 297.2 328.2 C299.3 328.4 301.4 328.4 303.5 328.1 C305.6 327.8 307.6 327.3 309.6 326.7 C311.6 326.0 313.6 325.2 315.5 324.3 C317.4 323.5 319.6 322.2 321.1 321.7 C322.5 321.2 323.7 321.5 324.3 321.4" fill="none" stroke="#999999" stroke-width="1.6" stroke-linecap="round" marker-end="url(#ah)"></path>
<path d="M274.0 364.1 C274.7 365.3 276.7 368.7 277.9 371.5 C279.1 374.2 280.3 377.6 281.3 380.7 C282.3 383.8 283.1 387.0 283.9 390.2 C284.7 393.4 285.4 396.6 286.0 399.8 C286.7 403.0 287.3 406.2 287.9 409.4 C288.5 412.6 289.1 416.6 289.7 419.0 C290.2 421.5 291.0 423.2 291.2 424.0" fill="none" stroke="#999999" stroke-width="1.6" stroke-linecap="round" marker-end="url(#ah)"></path>
<path d="M286.6 346.6 C287.3 347.0 289.0 347.9 290.5 348.7 C292.0 349.5 294.1 350.4 295.7 351.4 C297.4 352.4 299.1 353.5 300.6 354.7 C302.1 355.9 303.6 357.3 304.9 358.7 C306.3 360.1 307.6 361.6 308.9 363.1 C310.1 364.5 311.6 366.5 312.5 367.6 C313.5 368.6 314.2 369.0 314.5 369.3" fill="none" stroke="#999999" stroke-width="1.6" stroke-linecap="round" marker-end="url(#ah)"></path>
<path d="M198.0 329.1 C197.7 330.7 196.7 335.1 196.4 338.5 C196.2 341.9 196.2 345.8 196.5 349.5 C196.8 353.1 197.4 356.8 198.1 360.4 C198.8 364.0 199.8 367.6 200.8 371.1 C201.9 374.6 203.2 378.1 204.6 381.5 C205.9 384.9 208.0 388.8 209.1 391.4 C210.2 394.1 210.6 396.3 210.9 397.3" fill="none" stroke="#999999" stroke-width="1.6" stroke-linecap="round" marker-end="url(#ah)"></path>
<path d="M255.0 430.6 C254.9 429.4 254.4 426.2 254.3 423.6 C254.1 421.0 254.1 417.9 254.1 415.1 C254.2 412.3 254.4 409.4 254.8 406.6 C255.1 403.8 255.5 400.9 256.0 398.1 C256.6 395.3 257.2 392.6 257.9 389.8 C258.6 387.1 259.7 383.8 260.2 381.7 C260.6 379.6 260.7 378.1 260.8 377.4" fill="none" stroke="#999999" stroke-width="1.6" stroke-linecap="round" marker-end="url(#ah)"></path>
<path d="M212.0 315.1 C212.7 315.5 214.4 316.5 215.9 317.4 C217.5 318.2 219.4 319.3 221.2 320.3 C222.9 321.3 224.7 322.2 226.5 323.2 C228.2 324.2 230.0 325.1 231.8 326.1 C233.5 327.1 235.3 328.0 237.0 329.0 C238.8 330.0 241.0 331.2 242.2 331.9 C243.5 332.5 244.1 332.9 244.5 333.1" fill="none" stroke="#999999" stroke-width="1.6" stroke-linecap="round" marker-end="url(#ah)"></path>
<path d="M170.3 316.2 C169.6 316.3 167.6 316.5 165.8 316.8 C164.0 317.1 161.8 317.4 159.8 317.9 C157.8 318.4 155.9 318.9 153.9 319.5 C152.0 320.2 150.1 320.9 148.3 321.8 C146.4 322.6 144.6 323.6 142.9 324.6 C141.1 325.5 139.0 326.9 137.7 327.6 C136.4 328.3 135.5 328.4 135.1 328.5" fill="none" stroke="#999999" stroke-width="1.6" stroke-linecap="round" marker-end="url(#ah)"></path>
<path d="M227.5 163.1 C229.5 162.2 235.2 159.3 239.6 157.9 C244.0 156.6 249.2 155.6 254.0 155.0 C258.9 154.4 263.8 154.2 268.7 154.3 C273.6 154.3 278.6 154.7 283.4 155.5 C288.2 156.4 293.1 157.6 297.6 159.4 C302.1 161.2 307.1 164.5 310.3 166.4 C313.6 168.3 316.0 169.8 317.1 170.5" fill="none" stroke="#999999" stroke-width="1.6" stroke-linecap="round" marker-end="url(#ah)"></path>
<path d="M274.0 110.6 C274.0 113.0 274.2 120.1 274.3 125.2 C274.3 130.3 274.3 135.9 274.1 141.3 C273.9 146.6 273.7 152.0 273.2 157.3 C272.8 162.6 272.2 168.0 271.3 173.3 C270.5 178.5 269.3 183.8 268.0 189.0 C266.6 194.1 264.5 200.2 263.4 204.3 C262.2 208.3 261.4 211.8 261.0 213.3" fill="none" stroke="#999999" stroke-width="1.6" stroke-linecap="round" marker-end="url(#ah)"></path>
<path d="M133.0 289.1 C133.7 288.3 135.6 285.8 137.2 284.0 C138.9 282.2 141.0 280.0 143.1 278.3 C145.2 276.6 147.4 275.0 149.8 273.7 C152.2 272.5 154.8 271.5 157.4 270.8 C160.0 270.0 162.7 269.6 165.4 269.2 C168.1 268.9 171.4 268.9 173.4 268.6 C175.5 268.2 176.8 267.4 177.5 267.2" fill="none" stroke="#999999" stroke-width="1.6" stroke-linecap="round" marker-end="url(#ah)"></path>
<path d="M137.0 232.6 C137.8 234.0 139.9 238.1 141.7 241.1 C143.4 244.1 145.4 247.5 147.3 250.7 C149.2 253.9 151.2 257.0 153.3 260.2 C155.3 263.3 157.4 266.4 159.5 269.4 C161.6 272.5 163.8 275.5 166.1 278.5 C168.3 281.4 171.3 284.8 173.1 287.0 C175.0 289.2 176.4 290.9 177.1 291.7" fill="none" stroke="#999999" stroke-width="1.6" stroke-linecap="round" marker-end="url(#ah)"></path>
<path d="M257.5 364.1 C256.9 364.7 255.3 366.3 254.0 367.7 C252.7 369.0 251.0 370.8 249.6 372.4 C248.1 373.9 246.6 375.5 245.2 377.1 C243.8 378.8 242.4 380.4 241.0 382.0 C239.6 383.7 238.2 385.4 236.9 387.1 C235.6 388.8 234.1 391.0 233.1 392.2 C232.2 393.4 231.5 394.1 231.2 394.4" fill="none" stroke="#999999" stroke-width="1.6" stroke-linecap="round" marker-end="url(#ah)"></path>
<path d="M334.5 367.6 C334.8 367.0 335.5 365.2 336.1 363.6 C336.6 362.1 337.4 360.0 337.9 358.2 C338.5 356.3 339.0 354.5 339.4 352.6 C339.8 350.7 340.2 348.8 340.5 346.9 C340.8 345.0 341.0 343.1 341.2 341.2 C341.3 339.3 341.4 336.9 341.5 335.6 C341.7 334.2 342.0 333.5 342.1 333.1" fill="none" stroke="#999999" stroke-width="1.6" stroke-linecap="round" marker-end="url(#ah)"></path>
<path d="M227.1 427.1 C227.1 426.7 227.1 425.7 227.1 424.6 C227.1 423.5 227.1 422.0 227.1 420.6 C227.1 419.3 227.1 418.0 227.1 416.7 C227.1 415.3 227.1 414.0 227.1 412.7 C227.1 411.3 227.1 410.0 227.1 408.7 C227.1 407.4 227.1 405.7 227.1 404.8 C227.1 404.0 227.1 403.7 227.1 403.5" fill="none" stroke="#999999" stroke-width="1.6" stroke-linecap="round" marker-end="url(#ah)"></path>
<path d="M223.9 427.1 C223.9 426.7 223.9 425.7 223.9 424.6 C223.9 423.5 223.9 422.0 223.9 420.6 C223.9 419.3 223.9 418.0 223.9 416.7 C223.9 415.3 223.9 414.0 223.9 412.7 C223.9 411.3 223.9 410.0 223.9 408.7 C223.9 407.4 223.9 405.7 223.9 404.8 C223.9 404.0 223.9 403.7 223.9 403.5" fill="none" stroke="#999999" stroke-width="1.6" stroke-linecap="round" marker-end="url(#ah)"></path>
<path d="M277.0 237.6 C277.5 237.9 278.9 238.5 280.2 239.2 C281.4 239.8 283.2 240.6 284.6 241.4 C286.1 242.2 287.5 243.1 288.9 244.0 C290.3 244.9 291.6 246.0 292.9 247.0 C294.2 248.0 295.5 249.1 296.8 250.2 C298.1 251.2 299.7 252.6 300.6 253.3 C301.5 254.0 302.0 254.2 302.2 254.4" fill="none" stroke="#999999" stroke-width="1.6" stroke-linecap="round" marker-end="url(#ah)"></path>


<path d="M117.435 69.1145H114.483L113.583 65.3705L115.455 45.5345H120.315L117.435 69.1145ZM106.599 69.1145H103.647L100.803 45.5345H105.663L107.571 65.5145L106.599 69.1145ZM115.923 69.1145H113.043L109.731 55.1825H111.207L107.895 69.1145H105.195L105.771 65.5145L110.163 49.9985H111.027L115.419 65.3705L115.923 69.1145Z" fill="#4D6EB9"></path>
<path d="M67.4348 58.1145H64.4828L63.5828 54.3705L65.4548 34.5345H70.3148L67.4348 58.1145ZM56.5988 58.1145H53.6468L50.8028 34.5345H55.6628L57.5708 54.5145L56.5988 58.1145ZM65.9228 58.1145H63.0428L59.7308 44.1825H61.2068L57.8948 58.1145H55.1948L55.7708 54.5145L60.1628 38.9985H61.0268L65.4188 54.3705L65.9228 58.1145Z" fill="#4D6EB9"></path>
<path d="M67.4348 128.115H64.4828L63.5828 124.371L65.4548 104.535H70.3148L67.4348 128.115ZM56.5988 128.115H53.6468L50.8028 104.535H55.6628L57.5708 124.515L56.5988 128.115ZM65.9228 128.115H63.0428L59.7308 114.183H61.2068L57.8948 128.115H55.1948L55.7708 124.515L60.1628 108.999H61.0268L65.4188 124.371L65.9228 128.115Z" fill="#4D6EB9"></path>
<path d="M123.435 146.115H120.483L119.583 142.371L121.455 122.535H126.315L123.435 146.115ZM112.599 146.115H109.647L106.803 122.535H111.663L113.571 142.515L112.599 146.115ZM121.923 146.115H119.043L115.731 132.183H117.207L113.895 146.115H111.195L111.771 142.515L116.163 126.999H117.027L121.419 142.371L121.923 146.115Z" fill="#4D6EB9"></path>
<path d="M331.435 202.115H328.483L327.583 198.371L329.455 178.535H334.315L331.435 202.115ZM320.599 202.115H317.647L314.803 178.535H319.663L321.571 198.515L320.599 202.115ZM329.923 202.115H327.043L323.731 188.183H325.207L321.895 202.115H319.195L319.771 198.515L324.163 182.999H325.027L329.419 198.371L329.923 202.115Z" fill="#4D6EB9"></path>
<path d="M325.435 281.114H322.483L321.583 277.37L323.455 257.534H328.315L325.435 281.114ZM314.599 281.114H311.647L308.803 257.534H313.663L315.571 277.514L314.599 281.114ZM323.923 281.114H321.043L317.731 267.182H319.207L315.895 281.114H313.195L313.771 277.514L318.163 261.998H319.027L323.419 277.37L323.923 281.114Z" fill="#4D6EB9"></path>
<path d="M267.435 246.114H264.483L263.583 242.37L265.455 222.534H270.315L267.435 246.114ZM256.599 246.114H253.647L250.803 222.534H255.663L257.571 242.514L256.599 246.114ZM265.923 246.114H263.043L259.731 232.182H261.207L257.895 246.114H255.195L255.771 242.514L260.163 226.998H261.027L265.419 242.37L265.923 246.114Z" fill="#4D6EB9"></path>
<path d="M64.4348 319.114H61.4828L60.5828 315.37L62.4548 295.534H67.3148L64.4348 319.114ZM53.5988 319.114H50.6468L47.8028 295.534H52.6628L54.5708 315.514L53.5988 319.114ZM62.9228 319.114H60.0428L56.7308 305.182H58.2068L54.8948 319.114H52.1948L52.7708 315.514L57.1628 299.998H58.0268L62.4188 315.37L62.9228 319.114Z" fill="#4D6EB9"></path>
<path d="M123.435 344.114H120.483L119.583 340.37L121.455 320.534H126.315L123.435 344.114ZM112.599 344.114H109.647L106.803 320.534H111.663L113.571 340.514L112.599 344.114ZM121.923 344.114H119.043L115.731 330.182H117.207L113.895 344.114H111.195L111.771 340.514L116.163 324.998H117.027L121.419 340.37L121.923 344.114Z" fill="#4D6EB9"></path>
<path d="M353.435 322.114H350.483L349.583 318.37L351.455 298.534H356.315L353.435 322.114ZM342.599 322.114H339.647L336.803 298.534H341.663L343.571 318.514L342.599 322.114ZM351.923 322.114H349.043L345.731 308.182H347.207L343.895 322.114H341.195L341.771 318.514L346.163 302.998H347.027L351.419 318.37L351.923 322.114Z" fill="#4D6EB9"></path>
<path d="M391.435 372.114H388.483L387.583 368.37L389.455 348.534H394.315L391.435 372.114ZM380.599 372.114H377.647L374.803 348.534H379.663L381.571 368.514L380.599 372.114ZM389.923 372.114H387.043L383.731 358.182H385.207L381.895 372.114H379.195L379.771 368.514L384.163 352.998H385.027L389.419 368.37L389.923 372.114Z" fill="#4D6EB9"></path>
<path d="M195.299 171.115L203.183 158.191H203.867L209.627 147.535H215.243L207.899 159.811H207.215L200.879 171.115H195.299ZM215.819 171.115H209.951L203.759 159.811H203.075L195.767 147.535H201.599L207.287 158.191H207.971L215.819 171.115Z" fill="#00C373"></path>
<path d="M252.299 97.1145L260.183 84.1905H260.867L266.627 73.5345H272.243L264.899 85.8105H264.215L257.879 97.1145H252.299ZM272.819 97.1145H266.951L260.759 85.8105H260.075L252.767 73.5345H258.599L264.287 84.1905H264.971L272.819 97.1145Z" fill="#00C373"></path>
<path d="M117.299 229.115L125.183 216.191H125.867L131.627 205.535H137.243L129.899 217.811H129.215L122.879 229.115H117.299ZM137.819 229.115H131.951L125.759 217.811H125.075L117.767 205.535H123.599L129.287 216.191H129.971L137.819 229.115Z" fill="#00C373"></path>
<path d="M185.299 322.114L193.183 309.19H193.867L199.627 298.534H205.243L197.899 310.81H197.215L190.879 322.114H185.299ZM205.819 322.114H199.951L193.759 310.81H193.075L185.767 298.534H191.599L197.287 309.19H197.971L205.819 322.114Z" fill="#00C373"></path>
<path d="M258.299 356.114L266.183 343.19H266.867L272.627 332.534H278.243L270.899 344.81H270.215L263.879 356.114H258.299ZM278.819 356.114H272.951L266.759 344.81H266.075L258.767 332.534H264.599L270.287 343.19H270.971L278.819 356.114Z" fill="#00C373"></path>
<path d="M324.299 401.114L332.183 388.19H332.867L338.627 377.534H344.243L336.899 389.81H336.215L329.879 401.114H324.299ZM344.819 401.114H338.951L332.759 389.81H332.075L324.767 377.534H330.599L336.287 388.19H336.971L344.819 401.114Z" fill="#00C373"></path>
<path d="M41.0228 219.534H45.6308C48.7748 219.534 51.1628 220.242 52.7948 221.658C54.4268 223.074 55.2428 224.994 55.2428 227.418C55.2428 230.106 54.3788 232.122 52.6508 233.466C50.9228 234.786 48.5228 235.446 45.4508 235.446H41.0228V231.234H45.8108C47.2028 231.234 48.2348 230.91 48.9068 230.262C49.6028 229.59 49.9508 228.666 49.9508 227.49C49.9508 226.314 49.6268 225.414 48.9788 224.79C48.3308 224.166 47.3348 223.854 45.9908 223.854H41.0228V219.534ZM37.3148 219.534H42.5348V243.114H37.3148V219.534Z" fill="#FF7E62"></path>
<path d="M152.871 94.5345H158.955C161.859 94.5345 164.091 95.2185 165.651 96.5865C167.211 97.9305 167.991 99.7785 167.991 102.131C167.991 104.603 167.139 106.511 165.435 107.855C163.755 109.199 161.439 109.871 158.487 109.871H152.871V107.315H158.703C160.671 107.315 162.183 106.859 163.239 105.947C164.295 105.011 164.823 103.763 164.823 102.203C164.823 100.595 164.319 99.3465 163.311 98.4585C162.327 97.5705 160.875 97.1265 158.955 97.1265H152.871V94.5345ZM150.927 94.5345H154.059V118.115H150.927V94.5345Z" fill="#FF7E62"></path>
<path d="M154.023 94.5345H158.631C161.775 94.5345 164.163 95.2425 165.795 96.6585C167.427 98.0745 168.243 99.9945 168.243 102.419C168.243 105.107 167.379 107.123 165.651 108.467C163.923 109.787 161.523 110.447 158.451 110.447H154.023V106.235H158.811C160.203 106.235 161.235 105.911 161.907 105.263C162.603 104.591 162.951 103.667 162.951 102.491C162.951 101.315 162.627 100.415 161.979 99.7905C161.331 99.1665 160.335 98.8545 158.991 98.8545H154.023V94.5345ZM150.315 94.5345H155.535V118.115H150.315V94.5345Z" fill="#FF7E62"></path>
<path d="M225.871 403.534H231.955C234.859 403.534 237.091 404.218 238.651 405.586C240.211 406.93 240.991 408.778 240.991 411.13C240.991 413.602 240.139 415.51 238.435 416.854C236.755 418.198 234.439 418.87 231.487 418.87H225.871V416.314H231.703C233.671 416.314 235.183 415.858 236.239 414.946C237.295 414.01 237.823 412.762 237.823 411.202C237.823 409.594 237.319 408.346 236.311 407.458C235.327 406.57 233.875 406.126 231.955 406.126H225.871V403.534ZM223.927 403.534H227.059V427.114H223.927V403.534Z" fill="#FF7E62"></path>
<path d="M296.023 440.534H300.631C303.775 440.534 306.163 441.242 307.795 442.658C309.427 444.074 310.243 445.994 310.243 448.418C310.243 451.106 309.379 453.122 307.651 454.466C305.923 455.786 303.523 456.446 300.451 456.446H296.023V452.234H300.811C302.203 452.234 303.235 451.91 303.907 451.262C304.603 450.59 304.951 449.666 304.951 448.49C304.951 447.314 304.627 446.414 303.979 445.79C303.331 445.166 302.335 444.854 300.991 444.854H296.023V440.534ZM292.315 440.534H297.535V464.114H292.315V440.534Z" fill="#FF7E62"></path>
<path d="M307.507 111.284C309.081 111.284 310.399 112.596 310.399 114.266C310.399 115.936 309.081 117.246 307.507 117.246C305.933 117.246 304.614 115.936 304.614 114.266C304.614 112.596 305.933 111.284 307.507 111.284Z" fill="white" stroke="#ADB3BE" stroke-width="2.33962"></path>
<path d="M316.444 124.983C318.018 124.983 319.337 126.294 319.337 127.964C319.337 129.634 318.018 130.945 316.444 130.945C314.871 130.945 313.552 129.634 313.552 127.964C313.552 126.294 314.87 124.983 316.444 124.983Z" fill="white" stroke="#ADB3BE" stroke-width="2.33962"></path>
<path d="M298.569 124.983C300.143 124.983 301.462 126.294 301.462 127.964C301.462 129.634 300.143 130.945 298.569 130.945C296.996 130.945 295.677 129.634 295.677 127.964C295.677 126.294 296.995 124.983 298.569 124.983Z" fill="white" stroke="#ADB3BE" stroke-width="2.33962"></path>
<line y1="-1.16981" x2="8.92143" y2="-1.16981" transform="matrix(0.546437 -0.8375 0.826473 0.562977 301.413 125.473)" stroke="#ADB3BE" stroke-width="2.33962"></line>
<line y1="-1.16981" x2="8.92143" y2="-1.16981" transform="matrix(-0.546437 -0.8375 -0.826473 0.562977 313.601 125.058)" stroke="#ADB3BE" stroke-width="2.33962"></line>
<path d="M195.507 202.284C197.081 202.284 198.399 203.596 198.399 205.266C198.399 206.936 197.081 208.246 195.507 208.246C193.933 208.246 192.614 206.936 192.614 205.266C192.614 203.596 193.933 202.284 195.507 202.284Z" fill="white" stroke="#ADB3BE" stroke-width="2.33962"></path>
<path d="M204.444 215.983C206.018 215.983 207.337 217.294 207.337 218.964C207.337 220.634 206.018 221.944 204.444 221.944C202.871 221.944 201.552 220.634 201.552 218.964C201.552 217.294 202.87 215.983 204.444 215.983Z" fill="white" stroke="#ADB3BE" stroke-width="2.33962"></path>
<path d="M186.569 215.983C188.143 215.983 189.462 217.294 189.462 218.964C189.462 220.634 188.143 221.944 186.569 221.944C184.996 221.944 183.677 220.634 183.677 218.964C183.677 217.294 184.995 215.983 186.569 215.983Z" fill="white" stroke="#ADB3BE" stroke-width="2.33962"></path>
<line y1="-1.16981" x2="8.92143" y2="-1.16981" transform="matrix(0.546437 -0.8375 0.826473 0.562977 189.413 216.473)" stroke="#ADB3BE" stroke-width="2.33962"></line>
<line y1="-1.16981" x2="8.92143" y2="-1.16981" transform="matrix(-0.546437 -0.8375 -0.826473 0.562977 201.601 216.058)" stroke="#ADB3BE" stroke-width="2.33962"></line>
<path d="M190.507 243.284C192.081 243.284 193.399 244.596 193.399 246.266C193.399 247.936 192.081 249.246 190.507 249.246C188.933 249.246 187.614 247.936 187.614 246.266C187.614 244.596 188.933 243.284 190.507 243.284Z" fill="white" stroke="#ADB3BE" stroke-width="2.33962"></path>
<path d="M199.444 256.983C201.018 256.983 202.337 258.294 202.337 259.964C202.337 261.634 201.018 262.944 199.444 262.944C197.871 262.944 196.552 261.634 196.552 259.964C196.552 258.294 197.87 256.983 199.444 256.983Z" fill="white" stroke="#ADB3BE" stroke-width="2.33962"></path>
<path d="M181.569 256.983C183.143 256.983 184.462 258.294 184.462 259.964C184.462 261.634 183.143 262.944 181.569 262.944C179.996 262.944 178.677 261.634 178.677 259.964C178.677 258.294 179.995 256.983 181.569 256.983Z" fill="white" stroke="#ADB3BE" stroke-width="2.33962"></path>
<line y1="-1.16981" x2="8.92143" y2="-1.16981" transform="matrix(0.546437 -0.8375 0.826473 0.562977 184.413 257.473)" stroke="#ADB3BE" stroke-width="2.33962"></line>
<line y1="-1.16981" x2="8.92143" y2="-1.16981" transform="matrix(-0.546437 -0.8375 -0.826473 0.562977 196.601 257.058)" stroke="#ADB3BE" stroke-width="2.33962"></line>
<path d="M112.507 281.284C114.081 281.284 115.399 282.595 115.399 284.266C115.399 285.936 114.081 287.246 112.507 287.246C110.933 287.246 109.614 285.936 109.614 284.266C109.614 282.595 110.933 281.284 112.507 281.284Z" fill="white" stroke="#ADB3BE" stroke-width="2.33962"></path>
<path d="M121.444 294.982C123.018 294.982 124.337 296.294 124.337 297.964C124.337 299.634 123.018 300.944 121.444 300.944C119.871 300.944 118.552 299.634 118.552 297.964C118.552 296.294 119.87 294.982 121.444 294.982Z" fill="white" stroke="#ADB3BE" stroke-width="2.33962"></path>
<path d="M103.569 294.982C105.143 294.982 106.462 296.294 106.462 297.964C106.462 299.634 105.143 300.944 103.569 300.944C101.996 300.944 100.677 299.634 100.677 297.964C100.677 296.294 101.995 294.982 103.569 294.982Z" fill="white" stroke="#ADB3BE" stroke-width="2.33962"></path>
<line y1="-1.16981" x2="8.92143" y2="-1.16981" transform="matrix(0.546437 -0.8375 0.826473 0.562977 106.413 295.473)" stroke="#ADB3BE" stroke-width="2.33962"></line>
<line y1="-1.16981" x2="8.92143" y2="-1.16981" transform="matrix(-0.546437 -0.8375 -0.826473 0.562977 118.601 295.058)" stroke="#ADB3BE" stroke-width="2.33962"></line>
<path d="M129.507 381.284C131.081 381.284 132.399 382.595 132.399 384.266C132.399 385.936 131.081 387.246 129.507 387.246C127.933 387.246 126.614 385.936 126.614 384.266C126.614 382.595 127.933 381.284 129.507 381.284Z" fill="white" stroke="#ADB3BE" stroke-width="2.33962"></path>
<path d="M138.444 394.982C140.018 394.982 141.337 396.294 141.337 397.964C141.337 399.634 140.018 400.944 138.444 400.944C136.871 400.944 135.552 399.634 135.552 397.964C135.552 396.294 136.87 394.982 138.444 394.982Z" fill="white" stroke="#ADB3BE" stroke-width="2.33962"></path>
<path d="M120.569 394.982C122.143 394.982 123.462 396.294 123.462 397.964C123.462 399.634 122.143 400.944 120.569 400.944C118.996 400.944 117.677 399.634 117.677 397.964C117.677 396.294 118.995 394.982 120.569 394.982Z" fill="white" stroke="#ADB3BE" stroke-width="2.33962"></path>
<line y1="-1.16981" x2="8.92143" y2="-1.16981" transform="matrix(0.546437 -0.8375 0.826473 0.562977 123.413 395.473)" stroke="#ADB3BE" stroke-width="2.33962"></line>
<line y1="-1.16981" x2="8.92143" y2="-1.16981" transform="matrix(-0.546437 -0.8375 -0.826473 0.562977 135.601 395.058)" stroke="#ADB3BE" stroke-width="2.33962"></line>
<path d="M252.507 444.284C254.081 444.284 255.399 445.595 255.399 447.266C255.399 448.936 254.081 450.246 252.507 450.246C250.933 450.246 249.614 448.936 249.614 447.266C249.614 445.595 250.933 444.284 252.507 444.284Z" fill="white" stroke="#ADB3BE" stroke-width="2.33962"></path>
<path d="M261.444 457.982C263.018 457.982 264.337 459.294 264.337 460.964C264.337 462.634 263.018 463.944 261.444 463.944C259.871 463.944 258.552 462.634 258.552 460.964C258.552 459.294 259.87 457.982 261.444 457.982Z" fill="white" stroke="#ADB3BE" stroke-width="2.33962"></path>
<path d="M243.569 457.982C245.143 457.982 246.462 459.294 246.462 460.964C246.462 462.634 245.143 463.944 243.569 463.944C241.996 463.944 240.677 462.634 240.677 460.964C240.677 459.294 241.995 457.982 243.569 457.982Z" fill="white" stroke="#ADB3BE" stroke-width="2.33962"></path>
<line y1="-1.16981" x2="8.92143" y2="-1.16981" transform="matrix(0.546437 -0.8375 0.826473 0.562977 246.413 458.473)" stroke="#ADB3BE" stroke-width="2.33962"></line>
<line y1="-1.16981" x2="8.92143" y2="-1.16981" transform="matrix(-0.546437 -0.8375 -0.826473 0.562977 258.601 458.058)" stroke="#ADB3BE" stroke-width="2.33962"></line>
<path d="M344.507 476.284C346.081 476.284 347.399 477.595 347.399 479.266C347.399 480.936 346.081 482.246 344.507 482.246C342.933 482.246 341.614 480.936 341.614 479.266C341.614 477.595 342.933 476.284 344.507 476.284Z" fill="white" stroke="#ADB3BE" stroke-width="2.33962"></path>
<path d="M353.444 489.982C355.018 489.982 356.337 491.294 356.337 492.964C356.337 494.634 355.018 495.944 353.444 495.944C351.871 495.944 350.552 494.634 350.552 492.964C350.552 491.294 351.87 489.982 353.444 489.982Z" fill="white" stroke="#ADB3BE" stroke-width="2.33962"></path>
<path d="M335.569 489.982C337.143 489.982 338.462 491.294 338.462 492.964C338.462 494.634 337.143 495.944 335.569 495.944C333.996 495.944 332.677 494.634 332.677 492.964C332.677 491.294 333.995 489.982 335.569 489.982Z" fill="white" stroke="#ADB3BE" stroke-width="2.33962"></path>
<line y1="-1.16981" x2="8.92143" y2="-1.16981" transform="matrix(0.546437 -0.8375 0.826473 0.562977 338.413 490.473)" stroke="#ADB3BE" stroke-width="2.33962"></line>
<line y1="-1.16981" x2="8.92143" y2="-1.16981" transform="matrix(-0.546437 -0.8375 -0.826473 0.562977 350.601 490.058)" stroke="#ADB3BE" stroke-width="2.33962"></line>
</svg>