<svg width="428" height="498" viewBox="0 0 428 498" fill="none" xmlns="http://www.w3.org/2000/svg">
<path d="M183.98 176.325C183.82 175.512 183.031 174.982 182.218 175.142L168.972 177.748C168.16 177.908 167.63 178.697 167.79 179.51C167.95 180.322 168.739 180.852 169.551 180.692L181.326 178.375L183.642 190.15C183.802 190.963 184.591 191.492 185.403 191.332C186.216 191.172 186.746 190.384 186.586 189.571L183.98 176.325ZM261.957 103.227C261.744 102.427 260.922 101.951 260.121 102.165L247.077 105.643C246.277 105.857 245.801 106.678 246.014 107.479C246.228 108.279 247.05 108.755 247.85 108.542L259.445 105.45L262.537 117.045C262.751 117.845 263.572 118.321 264.373 118.107C265.173 117.894 265.649 117.072 265.436 116.272L261.957 103.227ZM245.979 257.324C245.82 256.511 245.031 255.982 244.218 256.142L230.972 258.748C230.159 258.908 229.63 259.696 229.79 260.509C229.95 261.322 230.738 261.851 231.551 261.691L243.325 259.375L245.642 271.149C245.802 271.962 246.59 272.491 247.403 272.332C248.216 272.172 248.745 271.383 248.585 270.57L245.979 257.324ZM174.48 332.824C174.32 332.011 173.531 331.482 172.718 331.642L159.472 334.248C158.659 334.408 158.13 335.196 158.29 336.009C158.45 336.822 159.238 337.351 160.051 337.191L171.826 334.875L174.142 346.649C174.302 347.462 175.09 347.992 175.903 347.832C176.716 347.672 177.245 346.883 177.085 346.07L174.48 332.824ZM349.367 413.384C348.688 412.91 347.752 413.076 347.278 413.755L339.544 424.82C339.07 425.499 339.236 426.434 339.915 426.909C340.594 427.383 341.529 427.218 342.003 426.538L348.878 416.703L358.714 423.577C359.393 424.051 360.328 423.886 360.802 423.207C361.277 422.528 361.111 421.592 360.432 421.118L349.367 413.384ZM324.79 479.893C325.22 479.184 324.994 478.262 324.286 477.832L312.747 470.826C312.038 470.396 311.116 470.621 310.686 471.329C310.256 472.037 310.482 472.96 311.19 473.39L321.447 479.618L315.219 489.875C314.789 490.583 315.015 491.506 315.723 491.936C316.431 492.366 317.354 492.14 317.783 491.432L324.79 479.893ZM221.898 442.821C222.565 442.33 222.707 441.39 222.215 440.724L214.203 429.858C213.712 429.191 212.772 429.049 212.106 429.541C211.439 430.033 211.297 430.972 211.789 431.639L218.91 441.297L209.252 448.419C208.585 448.91 208.443 449.849 208.935 450.516C209.427 451.183 210.366 451.325 211.033 450.833L221.898 442.821ZM108.781 375.597C109.6 375.722 110.366 375.159 110.49 374.34L112.526 360.995C112.651 360.176 112.089 359.411 111.27 359.286C110.451 359.161 109.686 359.723 109.561 360.542L107.751 372.405L95.8882 370.595C95.0693 370.471 94.3041 371.033 94.1792 371.852C94.0543 372.671 94.6169 373.436 95.4358 373.561L108.781 375.597ZM202.957 76.2276C202.744 75.4272 201.922 74.9513 201.121 75.1648L188.077 78.6432C187.277 78.8567 186.801 79.6786 187.014 80.4791C187.228 81.2795 188.05 81.7554 188.85 81.5419L200.445 78.45L203.537 90.0448C203.75 90.8452 204.572 91.3211 205.373 91.1076C206.173 90.8942 206.649 90.0723 206.436 89.2718L202.957 76.2276ZM170.28 120.328C169.569 119.902 168.648 120.132 168.222 120.842L161.276 132.419C160.85 133.129 161.08 134.05 161.79 134.477C162.501 134.903 163.422 134.672 163.848 133.962L170.022 123.672L180.312 129.846C181.023 130.272 181.944 130.042 182.37 129.332C182.796 128.621 182.566 127.7 181.856 127.274L170.28 120.328ZM74.2792 192.828C73.5688 192.402 72.6474 192.632 72.2212 193.342L65.2755 204.919C64.8493 205.629 65.0796 206.55 65.79 206.977C66.5004 207.403 67.4218 207.172 67.848 206.462L74.0219 196.172L84.3119 202.346C85.0222 202.772 85.9436 202.542 86.3698 201.832C86.7961 201.121 86.5657 200.2 85.8553 199.774L74.2792 192.828ZM60.1411 233.89C59.4648 234.368 59.3043 235.304 59.7827 235.98L67.5785 247.002C68.0569 247.678 68.9929 247.839 69.6693 247.361C70.3456 246.882 70.5061 245.946 70.0277 245.27L63.0981 235.473L72.8951 228.543C73.5715 228.065 73.7319 227.129 73.2536 226.452C72.7752 225.776 71.8391 225.615 71.1627 226.094L60.1411 233.89ZM68.11 292.66C68.4111 293.431 69.2809 293.813 70.0526 293.512L82.6289 288.604C83.4006 288.303 83.7821 287.433 83.4809 286.661C83.1798 285.889 82.31 285.508 81.5382 285.809L70.3593 290.172L65.9967 278.993C65.6956 278.221 64.8258 277.839 64.0541 278.141C63.2823 278.442 62.9008 279.312 63.202 280.083L68.11 292.66ZM376.99 379.892C376.868 379.072 376.104 378.508 375.285 378.631L361.934 380.633C361.115 380.756 360.55 381.52 360.673 382.339C360.796 383.159 361.56 383.723 362.379 383.6L374.246 381.82L376.026 393.687C376.149 394.507 376.913 395.071 377.732 394.948C378.551 394.825 379.116 394.062 378.993 393.242L376.99 379.892ZM312.509 449.689C312.55 450.517 313.255 451.154 314.082 451.113L327.565 450.439C328.393 450.397 329.03 449.693 328.988 448.866C328.947 448.038 328.243 447.401 327.415 447.443L315.43 448.041L314.831 436.056C314.79 435.229 314.086 434.592 313.258 434.633C312.431 434.674 311.794 435.379 311.835 436.206L312.509 449.689ZM261.803 29.857C261.385 29.1419 260.466 28.9012 259.751 29.3194L248.097 36.1349C247.382 36.5532 247.142 37.4719 247.56 38.187C247.978 38.9021 248.897 39.1428 249.612 38.7246L259.97 32.6663L266.029 43.0248C266.447 43.7399 267.366 43.9806 268.081 43.5624C268.796 43.1441 269.037 42.2254 268.618 41.5103L261.803 29.857ZM126.068 244.554C125.482 243.968 124.532 243.968 123.946 244.554L114.4 254.1C113.815 254.685 113.815 255.635 114.4 256.221C114.986 256.807 115.936 256.807 116.522 256.221L125.007 247.736L133.492 256.221C134.078 256.807 135.028 256.807 135.614 256.221C136.199 255.635 136.199 254.685 135.614 254.1L126.068 244.554ZM212.069 176.554C211.483 175.968 210.533 175.968 209.948 176.554L200.402 186.1C199.816 186.685 199.816 187.635 200.402 188.221C200.988 188.807 201.937 188.807 202.523 188.221L211.008 179.736L219.494 188.221C220.079 188.807 221.029 188.807 221.615 188.221C222.201 187.635 222.201 186.685 221.615 186.1L212.069 176.554ZM121.068 152.554C120.482 151.968 119.532 151.968 118.946 152.554L109.401 162.1C108.815 162.685 108.815 163.635 109.401 164.221C109.986 164.807 110.936 164.807 111.522 164.221L120.007 155.736L128.492 164.221C129.078 164.807 130.028 164.807 130.614 164.221C131.2 163.635 131.2 162.685 130.614 162.1L121.068 152.554ZM67.4542 133.615C66.6263 133.645 65.9789 134.339 66.0081 135.167L66.4843 148.659C66.5135 149.487 67.2083 150.134 68.0362 150.105C68.8641 150.076 69.5116 149.381 69.4824 148.553L69.0591 136.561L81.0517 136.137C81.8796 136.108 82.527 135.413 82.4978 134.585C82.4686 133.757 81.7738 133.11 80.9458 133.139L67.4542 133.615ZM112.568 82.0537C111.982 81.4679 111.032 81.4679 110.446 82.0537L100.901 91.5997C100.315 92.1854 100.315 93.1352 100.901 93.721C101.486 94.3068 102.436 94.3068 103.022 93.721L111.507 85.2357L119.992 93.721C120.578 94.3067 121.528 94.3068 122.114 93.721C122.7 93.1352 122.7 92.1854 122.114 91.5996L112.568 82.0537ZM59.568 62.5538C58.9823 61.968 58.0325 61.968 57.4467 62.5538L47.9008 72.0998C47.315 72.6856 47.315 73.6353 47.9008 74.2211C48.4866 74.8069 49.4363 74.8069 50.0221 74.2211L58.5074 65.7358L66.9927 74.2211C67.5785 74.8069 68.5282 74.8069 69.114 74.2211C69.6998 73.6353 69.6998 72.6856 69.114 72.0998L59.568 62.5538ZM287.416 86.7357C286.655 87.062 286.302 87.9439 286.628 88.7053L291.946 101.114C292.273 101.875 293.154 102.228 293.916 101.902C294.677 101.575 295.03 100.693 294.704 99.932L289.977 88.9023L301.006 84.1753C301.768 83.8489 302.121 82.9671 301.794 82.2057C301.468 81.4442 300.586 81.0915 299.825 81.4179L287.416 86.7357ZM262.069 266.224C261.301 265.913 260.427 266.284 260.116 267.052L255.057 279.568C254.746 280.336 255.117 281.211 255.885 281.521C256.653 281.832 257.528 281.461 257.838 280.693L262.336 269.567L273.461 274.065C274.229 274.375 275.103 274.004 275.414 273.236C275.724 272.468 275.353 271.594 274.585 271.283L262.069 266.224ZM207.481 237.191C206.696 236.929 205.846 237.354 205.584 238.14L201.315 250.947C201.053 251.733 201.478 252.583 202.264 252.845C203.05 253.107 203.899 252.682 204.161 251.896L207.956 240.512L219.34 244.307C220.126 244.569 220.975 244.144 221.237 243.358C221.499 242.572 221.075 241.722 220.289 241.461L207.481 237.191ZM149.047 221.962C148.41 222.492 148.324 223.438 148.855 224.075L157.497 234.446C158.028 235.082 158.973 235.168 159.61 234.638C160.246 234.107 160.332 233.162 159.802 232.525L152.12 223.306L161.338 215.624C161.975 215.094 162.061 214.148 161.53 213.512C161 212.875 160.054 212.789 159.418 213.32L149.047 221.962ZM324.961 320.485C325.166 319.682 324.681 318.866 323.878 318.661L310.797 315.326C309.994 315.122 309.177 315.606 308.973 316.409C308.768 317.212 309.253 318.029 310.056 318.233L321.684 321.197L318.719 332.826C318.515 333.628 319 334.445 319.802 334.65C320.605 334.854 321.422 334.369 321.626 333.567L324.961 320.485ZM289.634 425.334C290.308 425.816 291.245 425.661 291.727 424.987L299.583 414.009C300.066 413.335 299.91 412.398 299.237 411.916C298.563 411.434 297.626 411.589 297.144 412.263L290.16 422.022L280.402 415.038C279.728 414.556 278.791 414.711 278.309 415.385C277.827 416.059 277.982 416.996 278.656 417.478L289.634 425.334ZM313.782 371.097C314.601 371.221 315.366 370.658 315.49 369.838L317.512 356.491C317.636 355.672 317.073 354.907 316.254 354.783C315.435 354.659 314.67 355.222 314.546 356.041L312.749 367.906L300.884 366.109C300.065 365.984 299.3 366.548 299.176 367.367C299.052 368.186 299.616 368.951 300.435 369.075L313.782 371.097ZM211.638 398.068C212.441 398.272 213.257 397.786 213.461 396.983L216.781 383.898C216.985 383.095 216.499 382.279 215.696 382.075C214.893 381.871 214.077 382.357 213.873 383.16L210.922 394.791L199.291 391.84C198.488 391.636 197.672 392.122 197.468 392.925C197.264 393.728 197.75 394.544 198.553 394.748L211.638 398.068ZM262.854 376.954C262.489 376.21 261.591 375.903 260.847 376.268L248.725 382.209C247.981 382.574 247.674 383.473 248.038 384.217C248.403 384.96 249.301 385.268 250.045 384.903L260.82 379.622L266.102 390.397C266.467 391.141 267.365 391.448 268.109 391.083C268.853 390.719 269.16 389.82 268.796 389.076L262.854 376.954ZM244.922 334.555C245.719 334.326 246.178 333.495 245.949 332.699L242.217 319.725C241.988 318.929 241.157 318.469 240.361 318.698C239.564 318.928 239.105 319.759 239.334 320.555L242.651 332.087L231.119 335.405C230.323 335.634 229.863 336.465 230.092 337.261C230.321 338.057 231.153 338.517 231.949 338.288L244.922 334.555ZM134.036 328.82C133.873 329.632 134.4 330.422 135.212 330.585L148.449 333.239C149.261 333.402 150.051 332.876 150.214 332.063C150.377 331.251 149.851 330.461 149.039 330.298L137.273 327.939L139.632 316.173C139.795 315.361 139.268 314.57 138.456 314.407C137.644 314.244 136.853 314.771 136.69 315.583L134.036 328.82ZM316.363 173.608C317.188 173.687 317.921 173.083 318 172.258L319.294 158.82C319.373 157.996 318.769 157.263 317.945 157.183C317.12 157.104 316.387 157.708 316.308 158.533L315.158 170.478L303.213 169.328C302.388 169.248 301.655 169.852 301.576 170.677C301.497 171.502 302.101 172.234 302.925 172.314L316.363 173.608ZM259.189 213.828C259.583 214.557 260.493 214.828 261.222 214.433L273.095 208.009C273.824 207.615 274.095 206.705 273.701 205.976C273.307 205.248 272.396 204.977 271.668 205.371L261.113 211.081L255.403 200.527C255.009 199.798 254.099 199.527 253.37 199.921C252.642 200.315 252.371 201.226 252.765 201.954L259.189 213.828ZM178.568 269.675C179.154 269.089 179.154 268.14 178.568 267.554L169.022 258.008C168.436 257.422 167.486 257.422 166.9 258.008C166.315 258.594 166.315 259.543 166.9 260.129L175.386 268.614L166.9 277.1C166.315 277.685 166.315 278.635 166.9 279.221C167.486 279.807 168.436 279.807 169.022 279.221L178.568 269.675ZM177.78 292.589C178.595 292.439 179.133 291.656 178.982 290.841L176.524 277.567C176.373 276.752 175.591 276.214 174.776 276.365C173.961 276.516 173.423 277.299 173.574 278.113L175.759 289.913L163.96 292.097C163.145 292.248 162.607 293.031 162.758 293.846C162.909 294.66 163.691 295.198 164.506 295.047L177.78 292.589ZM230.043 394.94C230.222 395.748 231.024 396.258 231.832 396.079L245.011 393.151C245.82 392.971 246.33 392.17 246.15 391.361C245.97 390.552 245.169 390.042 244.36 390.222L232.646 392.825L230.043 381.11C229.864 380.302 229.062 379.792 228.254 379.971C227.445 380.151 226.935 380.952 227.115 381.761L230.043 394.94ZM342.568 332.053C341.982 331.467 341.033 331.467 340.447 332.053L330.901 341.599C330.315 342.185 330.315 343.135 330.901 343.72C331.487 344.306 332.436 344.306 333.022 343.72L341.507 335.235L349.993 343.72C350.578 344.306 351.528 344.306 352.114 343.72C352.7 343.135 352.7 342.185 352.114 341.599L342.568 332.053ZM225.871 403.534L225.871 402.034L224.371 402.034L224.371 403.534L225.871 403.534ZM231.955 403.534L231.955 405.034V405.034L231.955 403.534ZM238.651 405.586L237.662 406.714L237.672 406.723L238.651 405.586ZM240.991 411.13L239.491 411.13L240.991 411.13ZM238.435 416.854L237.506 415.677L237.498 415.683L238.435 416.854ZM231.487 418.87L231.487 420.37V420.37L231.487 418.87ZM225.871 418.87L224.371 418.87L224.371 420.37L225.871 420.37L225.871 418.87ZM225.871 416.314L225.871 414.814L224.371 414.814L224.371 416.314L225.871 416.314ZM231.703 416.314L231.703 414.814V414.814L231.703 416.314ZM236.239 414.946L237.219 416.082L237.227 416.075L237.234 416.069L236.239 414.946ZM237.823 411.202L239.323 411.202L237.823 411.202ZM236.311 407.458L235.306 408.572L235.313 408.578L235.32 408.584L236.311 407.458ZM231.955 406.126L231.955 407.626V407.626L231.955 406.126ZM225.871 406.126L224.371 406.126L224.371 407.626L225.871 407.626L225.871 406.126ZM223.927 403.534L223.927 402.034L222.427 402.034L222.427 403.534L223.927 403.534ZM227.059 403.534L228.559 403.534L228.559 402.034L227.059 402.034L227.059 403.534ZM227.059 427.114L227.059 428.614L228.559 428.614L228.559 427.114L227.059 427.114ZM223.927 427.114L222.427 427.114L222.427 428.614L223.927 428.614L223.927 427.114ZM302.104 256.111C302.93 256.058 303.557 255.345 303.504 254.518L302.635 241.046C302.581 240.219 301.868 239.592 301.041 239.646C300.215 239.699 299.588 240.412 299.641 241.239L300.414 253.214L288.439 253.987C287.612 254.04 286.985 254.753 287.038 255.58C287.092 256.407 287.805 257.034 288.632 256.98L302.104 256.111ZM147.008 213.114L147.9 214.32C165.365 201.408 173.151 193.247 183.753 177.45L182.508 176.614L181.263 175.778C170.867 191.266 163.329 199.183 146.116 211.908L147.008 213.114ZM221.008 150.114L221.868 151.343C242.143 137.15 250.777 123.416 261.806 104.366L260.508 103.614L259.21 102.862C248.239 121.812 239.873 135.078 220.148 148.885L221.008 150.114ZM209.008 294.114L209.899 295.32C227.365 282.408 235.15 274.246 245.753 258.45L244.508 257.614L243.262 256.778C232.867 272.265 225.328 280.183 208.116 292.907L209.008 294.114ZM137.508 369.614L138.399 370.82C155.865 357.908 163.65 349.746 174.253 333.95L173.008 333.114L171.762 332.278C161.367 347.766 153.828 355.683 136.616 368.408L137.508 369.614ZM341.507 464.114L342.731 464.981C349.599 455.289 354.685 440.876 349.984 414.352L348.507 414.614L347.03 414.876C351.617 440.756 346.608 454.322 340.284 463.247L341.507 464.114ZM274.008 464.114C273.101 465.308 273.101 465.309 273.101 465.309C273.102 465.309 273.102 465.31 273.103 465.31C273.104 465.311 273.106 465.313 273.108 465.314C273.112 465.317 273.118 465.322 273.125 465.327C273.14 465.338 273.161 465.354 273.189 465.375C273.244 465.416 273.325 465.476 273.43 465.553C273.641 465.707 273.95 465.93 274.349 466.211C275.148 466.773 276.309 467.565 277.772 468.496C280.695 470.358 284.833 472.784 289.689 475.037C299.337 479.514 312.105 483.446 323.864 480.571L323.508 479.114L323.152 477.657C312.411 480.282 300.429 476.714 290.952 472.316C286.245 470.132 282.226 467.776 279.384 465.966C277.964 465.061 276.84 464.295 276.074 463.757C275.691 463.488 275.398 463.276 275.202 463.132C275.104 463.061 275.031 463.006 274.983 462.97C274.958 462.952 274.941 462.939 274.929 462.93C274.924 462.926 274.92 462.923 274.917 462.921C274.916 462.92 274.915 462.919 274.915 462.919C274.914 462.919 274.914 462.919 274.914 462.919C274.914 462.919 274.915 462.919 274.008 464.114ZM149.008 400.614C147.86 401.579 147.86 401.58 147.861 401.58C147.861 401.581 147.862 401.581 147.862 401.582C147.863 401.584 147.865 401.586 147.867 401.588C147.872 401.593 147.878 401.601 147.886 401.61C147.901 401.628 147.924 401.655 147.954 401.69C148.014 401.759 148.101 401.861 148.216 401.992C148.446 402.254 148.786 402.636 149.233 403.123C150.125 404.096 151.444 405.488 153.159 407.175C156.588 410.549 161.608 415.111 167.985 419.878C180.725 429.401 198.954 439.797 220.784 443.097L221.008 441.614L221.232 440.131C200.062 436.931 182.291 426.827 169.781 417.475C163.532 412.804 158.615 408.335 155.263 405.037C153.588 403.388 152.305 402.034 151.443 401.095C151.013 400.626 150.688 400.26 150.472 400.014C150.364 399.891 150.284 399.798 150.231 399.736C150.204 399.705 150.185 399.683 150.172 399.668C150.166 399.661 150.162 399.655 150.159 399.652C150.158 399.651 150.157 399.649 150.156 399.649C150.156 399.649 150.156 399.649 150.156 399.648C150.156 399.648 150.156 399.649 149.008 400.614ZM91.5078 300.614C90.0341 300.334 90.034 300.335 90.0338 300.335C90.0337 300.336 90.0335 300.337 90.0334 300.338C90.033 300.34 90.0325 300.342 90.0319 300.345C90.0308 300.352 90.0291 300.36 90.0271 300.372C90.023 300.394 90.0173 300.425 90.0101 300.466C89.9955 300.548 89.9749 300.667 89.9495 300.823C89.8985 301.133 89.8281 301.588 89.7481 302.175C89.588 303.349 89.3893 305.056 89.2306 307.206C88.9133 311.506 88.7552 317.589 89.3886 324.746C90.6547 339.054 95.0898 357.718 107.799 375.003L109.008 374.114L110.216 373.226C97.9256 356.51 93.6108 338.424 92.3769 324.482C91.7603 317.514 91.9148 311.596 92.2225 307.427C92.3763 305.343 92.5682 303.698 92.7206 302.58C92.7968 302.021 92.8632 301.593 92.9099 301.308C92.9332 301.166 92.9517 301.059 92.964 300.99C92.9702 300.955 92.9748 300.929 92.9778 300.913C92.9793 300.905 92.9803 300.9 92.9809 300.896C92.9813 300.895 92.9815 300.893 92.9815 300.893C92.9816 300.893 92.9816 300.893 92.9816 300.893C92.9815 300.893 92.9815 300.893 91.5078 300.614ZM205.008 140.614L206.237 139.754C201.177 132.527 197.613 121.553 196.691 109.995C195.769 98.4401 197.505 86.5216 202.806 77.3657L201.508 76.6141L200.21 75.8626C194.51 85.7067 192.747 98.2881 193.7 110.233C194.653 122.176 198.338 133.702 203.779 141.474L205.008 140.614ZM190.508 150.114L191.222 148.795C185.151 145.507 181.444 143.516 178.543 139.976C175.642 136.437 173.455 131.218 170.963 121.25L169.508 121.614L168.053 121.978C170.561 132.01 172.873 137.791 176.223 141.878C179.571 145.962 183.865 148.222 189.793 151.433L190.508 150.114ZM108.007 220.614L108.214 219.128C99.2258 217.88 92.1539 216.285 86.7114 212.677C81.3514 209.123 77.3974 203.489 74.9627 193.75L73.5074 194.114L72.0522 194.478C74.6175 204.739 78.9135 211.106 85.0535 215.177C91.111 219.193 98.7891 220.848 107.801 222.1L108.007 220.614ZM106.507 229.614L105.578 228.437C101.148 231.934 94.4752 234.01 86.6058 234.809C78.7679 235.605 69.9068 235.118 61.2608 233.636L61.0073 235.114L60.7539 236.593C69.6078 238.111 78.7468 238.623 86.9089 237.794C95.0394 236.968 102.366 234.794 107.437 230.792L106.507 229.614ZM108.007 245.614L107.078 244.437C97.601 251.919 80.803 262.625 68.1336 291.512L69.5073 292.114L70.881 292.717C83.2116 264.602 99.4139 254.31 108.937 246.792L108.007 245.614ZM351.507 396.614L351.912 398.059C358.14 396.315 362.239 395.013 365.839 392.612C369.447 390.207 372.452 386.771 376.713 381.006L375.507 380.114L374.301 379.223C370.062 384.958 367.317 388.022 364.175 390.116C361.026 392.216 357.374 393.414 351.103 395.17L351.507 396.614ZM331.007 410.614L329.507 410.614C329.507 414.815 327.723 421.72 324.686 428.972C321.662 436.193 317.492 443.527 312.895 448.608L314.007 449.614L315.119 450.621C320.023 445.202 324.352 437.536 327.453 430.131C330.541 422.759 332.507 415.414 332.507 410.614L331.007 410.614ZM264.008 71.1143L265.321 70.3896C261.327 63.1504 259.217 58.51 258.688 53.1541C258.154 47.76 259.209 41.4924 261.959 30.9944L260.508 30.6143L259.057 30.2342C256.306 40.7361 255.111 47.4685 255.702 53.4494C256.297 59.4685 258.688 64.5781 262.695 71.839L264.008 71.1143ZM120.007 281.614L121.285 282.4C123.471 278.848 124.745 273.183 125.497 266.79C126.257 260.331 126.507 252.89 126.507 245.614L125.007 245.614L123.507 245.614C123.507 252.838 123.258 260.148 122.517 266.439C121.77 272.795 120.544 277.88 118.73 280.828L120.007 281.614ZM211.008 203.614L212.508 203.614C212.508 196.614 212.508 197.114 212.508 177.614L211.008 177.614L209.508 177.614C209.508 197.114 209.508 196.614 209.508 203.614L211.008 203.614ZM122.507 189.614L124.007 189.614C124.007 186.005 123.362 181.726 122.748 176.138C122.127 170.488 121.507 163.295 121.507 153.614L120.007 153.614L118.507 153.614C118.507 163.433 119.137 170.74 119.766 176.465C120.402 182.253 121.007 186.224 121.007 189.614L122.507 189.614ZM114.007 203.614L115.412 203.088C109.342 186.901 90.7222 154.696 68.5297 134.017L67.5071 135.114L66.4846 136.212C88.2921 156.532 106.673 188.327 112.603 204.141L114.007 203.614ZM114.007 119.114L115.507 119.114C115.507 115.505 114.862 111.226 114.248 105.638C113.627 99.9879 113.007 92.7948 113.007 83.1144L111.507 83.1144L110.007 83.1144C110.007 92.9334 110.637 100.24 111.266 105.965C111.902 111.753 112.507 115.724 112.507 119.114L114.007 119.114ZM61.0074 99.6145L62.5074 99.6145C62.5074 96.005 61.8625 91.7258 61.2484 86.1379C60.6276 80.4881 60.0074 73.2949 60.0074 63.6145L58.5074 63.6145L57.0074 63.6145C57.0074 73.4335 57.6372 80.7403 58.2664 86.4656C58.9023 92.2529 59.5074 96.2239 59.5074 99.6145L61.0074 99.6145ZM305.007 105.114L306.374 104.497C302.793 96.568 299.019 92.333 295.691 89.9563C292.438 87.6323 289.485 87.0901 288.564 86.7217L288.007 88.1144L287.45 89.5071C289.029 90.1388 291.076 90.3465 293.948 92.3975C296.745 94.3958 300.221 98.1608 303.64 105.732L305.007 105.114ZM267.507 320.114L269.007 320.114C269.007 300.756 270.036 283.878 262.888 267.029L261.507 267.614L260.126 268.2C266.978 284.351 266.007 300.471 266.007 320.114L267.507 320.114ZM207.007 268.614L208.378 269.224C209.486 266.731 210.626 261.271 210.943 255.382C211.259 249.496 210.777 242.8 208.349 237.944L207.007 238.614L205.665 239.285C207.737 243.429 208.255 249.483 207.947 255.221C207.639 260.957 206.529 265.997 205.636 268.005L207.007 268.614ZM177.507 243.614L178.878 244.224C179.31 243.251 179.275 242.166 179.036 241.158C178.795 240.135 178.312 239.051 177.665 237.959C176.368 235.772 174.297 233.37 171.676 231.104C166.436 226.576 158.776 222.405 150.143 221.621L150.007 223.114L149.871 224.608C157.738 225.323 164.829 229.152 169.714 233.374C172.155 235.484 173.991 237.645 175.084 239.489C175.632 240.413 175.966 241.211 176.117 241.848C176.271 242.5 176.204 242.852 176.136 243.005L177.507 243.614ZM286.612 324.979L285.924 326.312C291.634 329.258 297.161 330.501 303.362 329.721C309.509 328.947 316.196 326.2 324.273 321.404L323.508 320.114L322.742 318.825C314.819 323.529 308.545 326.045 302.988 326.744C297.485 327.437 292.565 326.362 287.3 323.646L286.612 324.979ZM274.008 364.114L272.808 365.014C276.355 369.744 279.45 378.591 282.154 389.415C284.839 400.165 287.081 412.615 289.027 424.36L290.507 424.114L291.987 423.869C290.038 412.113 287.78 399.563 285.064 388.688C282.367 377.888 279.16 368.485 275.208 363.214L274.008 364.114ZM286.612 346.614L285.851 347.907C288.042 349.196 290.011 350.103 291.856 350.996C293.711 351.893 295.477 352.792 297.402 354.104C301.244 356.721 305.851 361.074 312.799 370.504L314.007 369.614L315.215 368.724C308.163 359.155 303.323 354.507 299.091 351.625C296.98 350.186 295.054 349.211 293.163 348.295C291.262 347.376 289.432 346.533 287.373 345.322L286.612 346.614ZM198.007 329.114L196.576 328.665C193.715 337.767 194.14 349.687 196.791 361.871C199.45 374.087 204.383 386.739 210.718 397.381L212.007 396.614L213.296 395.847C207.131 385.49 202.314 373.142 199.723 361.233C197.124 349.292 196.799 337.961 199.438 329.564L198.007 329.114ZM255.007 430.614L256.489 430.383C254.038 414.696 256.477 396.951 262.926 378.1L261.507 377.614L260.088 377.129C253.537 396.278 250.976 414.532 253.525 430.846L255.007 430.614ZM212.007 315.114L211.247 316.407C219.766 321.419 220.328 321.453 243.782 334.426L244.508 333.114L245.234 331.801C221.687 318.776 221.246 318.809 212.768 313.822L212.007 315.114ZM170.347 316.213L170.184 314.722C162.912 315.515 157.269 316.629 151.803 318.65C146.34 320.67 141.123 323.572 134.676 327.866L135.507 329.114L136.339 330.363C142.689 326.134 147.687 323.371 152.843 321.464C157.995 319.559 163.373 318.483 170.51 317.705L170.347 316.213ZM227.507 163.114L228.462 164.271C231.057 162.127 236.408 159.911 243.538 158.254C250.601 156.613 259.205 155.568 268.132 155.633C286.079 155.763 304.878 160.366 315.35 173.069L316.507 172.114L317.665 171.16C306.331 157.412 286.38 152.765 268.154 152.633C258.993 152.567 250.154 153.637 242.859 155.332C235.631 157.012 229.707 159.352 226.552 161.958L227.507 163.114ZM274.007 110.614L272.508 110.66C273.506 143.598 271.881 163.229 269.159 177.521C266.427 191.864 262.618 200.774 259.07 212.686L260.508 213.114L261.946 213.542C265.397 201.954 269.338 192.615 272.106 178.082C274.883 163.499 276.508 143.631 275.506 110.569L274.007 110.614ZM133.007 289.114L134.211 290.009C140.605 281.401 146.533 276.488 153.213 273.685C159.928 270.867 167.555 270.114 177.507 270.114L177.507 268.614L177.507 267.114C167.459 267.114 159.337 267.862 152.052 270.919C144.731 273.991 138.409 279.327 131.803 288.22L133.007 289.114ZM137.007 232.614L135.677 233.308C141.71 244.871 149.868 258.173 157.522 269.278C161.35 274.831 165.063 279.851 168.332 283.839C171.567 287.785 174.465 290.843 176.657 292.35L177.507 291.114L178.357 289.878C176.549 288.636 173.885 285.881 170.652 281.937C167.452 278.034 163.79 273.085 159.992 267.576C152.397 256.555 144.305 243.358 138.337 231.921L137.007 232.614ZM257.507 364.114L256.446 363.054C250.455 369.046 237.342 382.652 230.242 393.809L231.507 394.614L232.773 395.42C239.673 384.577 252.56 371.183 258.568 365.175L257.507 364.114ZM334.507 367.614L335.9 368.172C338.926 360.607 343.007 350.397 343.007 333.114L341.507 333.114L340.007 333.114C340.007 349.832 336.088 359.623 333.114 367.057L334.507 367.614ZM225.871 403.534L225.871 405.034L231.955 405.034L231.955 403.534L231.955 402.034L225.871 402.034L225.871 403.534ZM231.955 403.534L231.955 405.034C234.64 405.034 236.468 405.667 237.662 406.714L238.651 405.586L239.64 404.459C237.714 402.77 235.078 402.034 231.955 402.034L231.955 403.534ZM238.651 405.586L237.672 406.723C238.852 407.74 239.491 409.146 239.491 411.13L240.991 411.13L242.491 411.13C242.491 408.411 241.57 406.121 239.63 404.45L238.651 405.586ZM240.991 411.13L239.491 411.13C239.491 413.215 238.796 414.659 237.506 415.677L238.435 416.854L239.364 418.032C241.482 416.362 242.491 413.989 242.491 411.13L240.991 411.13ZM238.435 416.854L237.498 415.683C236.168 416.747 234.224 417.37 231.487 417.37L231.487 418.87L231.487 420.37C234.654 420.37 237.342 419.65 239.372 418.026L238.435 416.854ZM231.487 418.87L231.487 417.37L225.871 417.37L225.871 418.87L225.871 420.37L231.487 420.37L231.487 418.87ZM225.871 418.87L227.371 418.87L227.371 416.314L225.871 416.314L224.371 416.314L224.371 418.87L225.871 418.87ZM225.871 416.314L225.871 417.814L231.703 417.814L231.703 416.314L231.703 414.814L225.871 414.814L225.871 416.314ZM231.703 416.314L231.703 417.814C233.885 417.814 235.798 417.31 237.219 416.082L236.239 414.946L235.259 413.811C234.569 414.407 233.457 414.814 231.703 414.814L231.703 416.314ZM236.239 414.946L237.234 416.069C238.647 414.816 239.323 413.141 239.323 411.202L237.823 411.202L236.323 411.202C236.323 412.384 235.943 413.205 235.244 413.824L236.239 414.946ZM237.823 411.202L239.323 411.202C239.323 409.256 238.698 407.562 237.303 406.333L236.311 407.458L235.32 408.584C235.941 409.131 236.323 409.932 236.323 411.202L237.823 411.202ZM236.311 407.458L237.316 406.345C235.955 405.116 234.082 404.626 231.955 404.626L231.955 406.126L231.955 407.626C233.668 407.626 234.699 408.024 235.306 408.572L236.311 407.458ZM231.955 406.126L231.955 404.626L225.871 404.626L225.871 406.126L225.871 407.626L231.955 407.626L231.955 406.126ZM225.871 406.126L227.371 406.126L227.371 403.534L225.871 403.534L224.371 403.534L224.371 406.126L225.871 406.126ZM223.927 403.534L223.927 405.034L227.059 405.034L227.059 403.534L227.059 402.034L223.927 402.034L223.927 403.534ZM227.059 403.534L225.559 403.534L225.559 427.114L227.059 427.114L228.559 427.114L228.559 403.534L227.059 403.534ZM227.059 427.114L227.059 425.614L223.927 425.614L223.927 427.114L223.927 428.614L227.059 428.614L227.059 427.114ZM223.927 427.114L225.427 427.114L225.427 403.534L223.927 403.534L222.427 403.534L222.427 427.114L223.927 427.114ZM277.007 237.614L276.301 238.938C278.223 239.963 279.735 240.639 281.129 241.281C282.52 241.923 283.807 242.537 285.364 243.465C288.492 245.33 292.784 248.506 301.017 255.741L302.007 254.614L302.997 253.488C294.731 246.223 290.272 242.899 286.9 240.889C285.207 239.879 283.807 239.212 282.385 238.557C280.966 237.903 279.541 237.266 277.713 236.291L277.007 237.614Z" fill="#999999"/>
<path d="M117.435 69.1145H114.483L113.583 65.3705L115.455 45.5345H120.315L117.435 69.1145ZM106.599 69.1145H103.647L100.803 45.5345H105.663L107.571 65.5145L106.599 69.1145ZM115.923 69.1145H113.043L109.731 55.1825H111.207L107.895 69.1145H105.195L105.771 65.5145L110.163 49.9985H111.027L115.419 65.3705L115.923 69.1145Z" fill="#4D6EB9"/>
<path d="M67.4348 58.1145H64.4828L63.5828 54.3705L65.4548 34.5345H70.3148L67.4348 58.1145ZM56.5988 58.1145H53.6468L50.8028 34.5345H55.6628L57.5708 54.5145L56.5988 58.1145ZM65.9228 58.1145H63.0428L59.7308 44.1825H61.2068L57.8948 58.1145H55.1948L55.7708 54.5145L60.1628 38.9985H61.0268L65.4188 54.3705L65.9228 58.1145Z" fill="#4D6EB9"/>
<path d="M67.4348 128.115H64.4828L63.5828 124.371L65.4548 104.535H70.3148L67.4348 128.115ZM56.5988 128.115H53.6468L50.8028 104.535H55.6628L57.5708 124.515L56.5988 128.115ZM65.9228 128.115H63.0428L59.7308 114.183H61.2068L57.8948 128.115H55.1948L55.7708 124.515L60.1628 108.999H61.0268L65.4188 124.371L65.9228 128.115Z" fill="#4D6EB9"/>
<path d="M123.435 146.115H120.483L119.583 142.371L121.455 122.535H126.315L123.435 146.115ZM112.599 146.115H109.647L106.803 122.535H111.663L113.571 142.515L112.599 146.115ZM121.923 146.115H119.043L115.731 132.183H117.207L113.895 146.115H111.195L111.771 142.515L116.163 126.999H117.027L121.419 142.371L121.923 146.115Z" fill="#4D6EB9"/>
<path d="M331.435 202.115H328.483L327.583 198.371L329.455 178.535H334.315L331.435 202.115ZM320.599 202.115H317.647L314.803 178.535H319.663L321.571 198.515L320.599 202.115ZM329.923 202.115H327.043L323.731 188.183H325.207L321.895 202.115H319.195L319.771 198.515L324.163 182.999H325.027L329.419 198.371L329.923 202.115Z" fill="#4D6EB9"/>
<path d="M325.435 281.114H322.483L321.583 277.37L323.455 257.534H328.315L325.435 281.114ZM314.599 281.114H311.647L308.803 257.534H313.663L315.571 277.514L314.599 281.114ZM323.923 281.114H321.043L317.731 267.182H319.207L315.895 281.114H313.195L313.771 277.514L318.163 261.998H319.027L323.419 277.37L323.923 281.114Z" fill="#4D6EB9"/>
<path d="M267.435 246.114H264.483L263.583 242.37L265.455 222.534H270.315L267.435 246.114ZM256.599 246.114H253.647L250.803 222.534H255.663L257.571 242.514L256.599 246.114ZM265.923 246.114H263.043L259.731 232.182H261.207L257.895 246.114H255.195L255.771 242.514L260.163 226.998H261.027L265.419 242.37L265.923 246.114Z" fill="#4D6EB9"/>
<path d="M64.4348 319.114H61.4828L60.5828 315.37L62.4548 295.534H67.3148L64.4348 319.114ZM53.5988 319.114H50.6468L47.8028 295.534H52.6628L54.5708 315.514L53.5988 319.114ZM62.9228 319.114H60.0428L56.7308 305.182H58.2068L54.8948 319.114H52.1948L52.7708 315.514L57.1628 299.998H58.0268L62.4188 315.37L62.9228 319.114Z" fill="#4D6EB9"/>
<path d="M123.435 344.114H120.483L119.583 340.37L121.455 320.534H126.315L123.435 344.114ZM112.599 344.114H109.647L106.803 320.534H111.663L113.571 340.514L112.599 344.114ZM121.923 344.114H119.043L115.731 330.182H117.207L113.895 344.114H111.195L111.771 340.514L116.163 324.998H117.027L121.419 340.37L121.923 344.114Z" fill="#4D6EB9"/>
<path d="M353.435 322.114H350.483L349.583 318.37L351.455 298.534H356.315L353.435 322.114ZM342.599 322.114H339.647L336.803 298.534H341.663L343.571 318.514L342.599 322.114ZM351.923 322.114H349.043L345.731 308.182H347.207L343.895 322.114H341.195L341.771 318.514L346.163 302.998H347.027L351.419 318.37L351.923 322.114Z" fill="#4D6EB9"/>
<path d="M391.435 372.114H388.483L387.583 368.37L389.455 348.534H394.315L391.435 372.114ZM380.599 372.114H377.647L374.803 348.534H379.663L381.571 368.514L380.599 372.114ZM389.923 372.114H387.043L383.731 358.182H385.207L381.895 372.114H379.195L379.771 368.514L384.163 352.998H385.027L389.419 368.37L389.923 372.114Z" fill="#4D6EB9"/>
<path d="M195.299 171.115L203.183 158.191H203.867L209.627 147.535H215.243L207.899 159.811H207.215L200.879 171.115H195.299ZM215.819 171.115H209.951L203.759 159.811H203.075L195.767 147.535H201.599L207.287 158.191H207.971L215.819 171.115Z" fill="#00C373"/>
<path d="M252.299 97.1145L260.183 84.1905H260.867L266.627 73.5345H272.243L264.899 85.8105H264.215L257.879 97.1145H252.299ZM272.819 97.1145H266.951L260.759 85.8105H260.075L252.767 73.5345H258.599L264.287 84.1905H264.971L272.819 97.1145Z" fill="#00C373"/>
<path d="M117.299 229.115L125.183 216.191H125.867L131.627 205.535H137.243L129.899 217.811H129.215L122.879 229.115H117.299ZM137.819 229.115H131.951L125.759 217.811H125.075L117.767 205.535H123.599L129.287 216.191H129.971L137.819 229.115Z" fill="#00C373"/>
<path d="M185.299 322.114L193.183 309.19H193.867L199.627 298.534H205.243L197.899 310.81H197.215L190.879 322.114H185.299ZM205.819 322.114H199.951L193.759 310.81H193.075L185.767 298.534H191.599L197.287 309.19H197.971L205.819 322.114Z" fill="#00C373"/>
<path d="M258.299 356.114L266.183 343.19H266.867L272.627 332.534H278.243L270.899 344.81H270.215L263.879 356.114H258.299ZM278.819 356.114H272.951L266.759 344.81H266.075L258.767 332.534H264.599L270.287 343.19H270.971L278.819 356.114Z" fill="#00C373"/>
<path d="M324.299 401.114L332.183 388.19H332.867L338.627 377.534H344.243L336.899 389.81H336.215L329.879 401.114H324.299ZM344.819 401.114H338.951L332.759 389.81H332.075L324.767 377.534H330.599L336.287 388.19H336.971L344.819 401.114Z" fill="#00C373"/>
<path d="M41.0228 219.534H45.6308C48.7748 219.534 51.1628 220.242 52.7948 221.658C54.4268 223.074 55.2428 224.994 55.2428 227.418C55.2428 230.106 54.3788 232.122 52.6508 233.466C50.9228 234.786 48.5228 235.446 45.4508 235.446H41.0228V231.234H45.8108C47.2028 231.234 48.2348 230.91 48.9068 230.262C49.6028 229.59 49.9508 228.666 49.9508 227.49C49.9508 226.314 49.6268 225.414 48.9788 224.79C48.3308 224.166 47.3348 223.854 45.9908 223.854H41.0228V219.534ZM37.3148 219.534H42.5348V243.114H37.3148V219.534Z" fill="#FF7E62"/>
<path d="M152.871 94.5345H158.955C161.859 94.5345 164.091 95.2185 165.651 96.5865C167.211 97.9305 167.991 99.7785 167.991 102.131C167.991 104.603 167.139 106.511 165.435 107.855C163.755 109.199 161.439 109.871 158.487 109.871H152.871V107.315H158.703C160.671 107.315 162.183 106.859 163.239 105.947C164.295 105.011 164.823 103.763 164.823 102.203C164.823 100.595 164.319 99.3465 163.311 98.4585C162.327 97.5705 160.875 97.1265 158.955 97.1265H152.871V94.5345ZM150.927 94.5345H154.059V118.115H150.927V94.5345Z" fill="#FF7E62"/>
<path d="M154.023 94.5345H158.631C161.775 94.5345 164.163 95.2425 165.795 96.6585C167.427 98.0745 168.243 99.9945 168.243 102.419C168.243 105.107 167.379 107.123 165.651 108.467C163.923 109.787 161.523 110.447 158.451 110.447H154.023V106.235H158.811C160.203 106.235 161.235 105.911 161.907 105.263C162.603 104.591 162.951 103.667 162.951 102.491C162.951 101.315 162.627 100.415 161.979 99.7905C161.331 99.1665 160.335 98.8545 158.991 98.8545H154.023V94.5345ZM150.315 94.5345H155.535V118.115H150.315V94.5345Z" fill="#FF7E62"/>
<path d="M225.871 403.534H231.955C234.859 403.534 237.091 404.218 238.651 405.586C240.211 406.93 240.991 408.778 240.991 411.13C240.991 413.602 240.139 415.51 238.435 416.854C236.755 418.198 234.439 418.87 231.487 418.87H225.871V416.314H231.703C233.671 416.314 235.183 415.858 236.239 414.946C237.295 414.01 237.823 412.762 237.823 411.202C237.823 409.594 237.319 408.346 236.311 407.458C235.327 406.57 233.875 406.126 231.955 406.126H225.871V403.534ZM223.927 403.534H227.059V427.114H223.927V403.534Z" fill="#FF7E62"/>
<path d="M296.023 440.534H300.631C303.775 440.534 306.163 441.242 307.795 442.658C309.427 444.074 310.243 445.994 310.243 448.418C310.243 451.106 309.379 453.122 307.651 454.466C305.923 455.786 303.523 456.446 300.451 456.446H296.023V452.234H300.811C302.203 452.234 303.235 451.91 303.907 451.262C304.603 450.59 304.951 449.666 304.951 448.49C304.951 447.314 304.627 446.414 303.979 445.79C303.331 445.166 302.335 444.854 300.991 444.854H296.023V440.534ZM292.315 440.534H297.535V464.114H292.315V440.534Z" fill="#FF7E62"/>
<path d="M307.507 111.284C309.081 111.284 310.399 112.596 310.399 114.266C310.399 115.936 309.081 117.246 307.507 117.246C305.933 117.246 304.614 115.936 304.614 114.266C304.614 112.596 305.933 111.284 307.507 111.284Z" fill="white" stroke="#ADB3BE" stroke-width="2.33962"/>
<path d="M316.444 124.983C318.018 124.983 319.337 126.294 319.337 127.964C319.337 129.634 318.018 130.945 316.444 130.945C314.871 130.945 313.552 129.634 313.552 127.964C313.552 126.294 314.87 124.983 316.444 124.983Z" fill="white" stroke="#ADB3BE" stroke-width="2.33962"/>
<path d="M298.569 124.983C300.143 124.983 301.462 126.294 301.462 127.964C301.462 129.634 300.143 130.945 298.569 130.945C296.996 130.945 295.677 129.634 295.677 127.964C295.677 126.294 296.995 124.983 298.569 124.983Z" fill="white" stroke="#ADB3BE" stroke-width="2.33962"/>
<line y1="-1.16981" x2="8.92143" y2="-1.16981" transform="matrix(0.546437 -0.8375 0.826473 0.562977 301.413 125.473)" stroke="#ADB3BE" stroke-width="2.33962"/>
<line y1="-1.16981" x2="8.92143" y2="-1.16981" transform="matrix(-0.546437 -0.8375 -0.826473 0.562977 313.601 125.058)" stroke="#ADB3BE" stroke-width="2.33962"/>
<path d="M195.507 202.284C197.081 202.284 198.399 203.596 198.399 205.266C198.399 206.936 197.081 208.246 195.507 208.246C193.933 208.246 192.614 206.936 192.614 205.266C192.614 203.596 193.933 202.284 195.507 202.284Z" fill="white" stroke="#ADB3BE" stroke-width="2.33962"/>
<path d="M204.444 215.983C206.018 215.983 207.337 217.294 207.337 218.964C207.337 220.634 206.018 221.944 204.444 221.944C202.871 221.944 201.552 220.634 201.552 218.964C201.552 217.294 202.87 215.983 204.444 215.983Z" fill="white" stroke="#ADB3BE" stroke-width="2.33962"/>
<path d="M186.569 215.983C188.143 215.983 189.462 217.294 189.462 218.964C189.462 220.634 188.143 221.944 186.569 221.944C184.996 221.944 183.677 220.634 183.677 218.964C183.677 217.294 184.995 215.983 186.569 215.983Z" fill="white" stroke="#ADB3BE" stroke-width="2.33962"/>
<line y1="-1.16981" x2="8.92143" y2="-1.16981" transform="matrix(0.546437 -0.8375 0.826473 0.562977 189.413 216.473)" stroke="#ADB3BE" stroke-width="2.33962"/>
<line y1="-1.16981" x2="8.92143" y2="-1.16981" transform="matrix(-0.546437 -0.8375 -0.826473 0.562977 201.601 216.058)" stroke="#ADB3BE" stroke-width="2.33962"/>
<path d="M190.507 243.284C192.081 243.284 193.399 244.596 193.399 246.266C193.399 247.936 192.081 249.246 190.507 249.246C188.933 249.246 187.614 247.936 187.614 246.266C187.614 244.596 188.933 243.284 190.507 243.284Z" fill="white" stroke="#ADB3BE" stroke-width="2.33962"/>
<path d="M199.444 256.983C201.018 256.983 202.337 258.294 202.337 259.964C202.337 261.634 201.018 262.944 199.444 262.944C197.871 262.944 196.552 261.634 196.552 259.964C196.552 258.294 197.87 256.983 199.444 256.983Z" fill="white" stroke="#ADB3BE" stroke-width="2.33962"/>
<path d="M181.569 256.983C183.143 256.983 184.462 258.294 184.462 259.964C184.462 261.634 183.143 262.944 181.569 262.944C179.996 262.944 178.677 261.634 178.677 259.964C178.677 258.294 179.995 256.983 181.569 256.983Z" fill="white" stroke="#ADB3BE" stroke-width="2.33962"/>
<line y1="-1.16981" x2="8.92143" y2="-1.16981" transform="matrix(0.546437 -0.8375 0.826473 0.562977 184.413 257.473)" stroke="#ADB3BE" stroke-width="2.33962"/>
<line y1="-1.16981" x2="8.92143" y2="-1.16981" transform="matrix(-0.546437 -0.8375 -0.826473 0.562977 196.601 257.058)" stroke="#ADB3BE" stroke-width="2.33962"/>
<path d="M112.507 281.284C114.081 281.284 115.399 282.595 115.399 284.266C115.399 285.936 114.081 287.246 112.507 287.246C110.933 287.246 109.614 285.936 109.614 284.266C109.614 282.595 110.933 281.284 112.507 281.284Z" fill="white" stroke="#ADB3BE" stroke-width="2.33962"/>
<path d="M121.444 294.982C123.018 294.982 124.337 296.294 124.337 297.964C124.337 299.634 123.018 300.944 121.444 300.944C119.871 300.944 118.552 299.634 118.552 297.964C118.552 296.294 119.87 294.982 121.444 294.982Z" fill="white" stroke="#ADB3BE" stroke-width="2.33962"/>
<path d="M103.569 294.982C105.143 294.982 106.462 296.294 106.462 297.964C106.462 299.634 105.143 300.944 103.569 300.944C101.996 300.944 100.677 299.634 100.677 297.964C100.677 296.294 101.995 294.982 103.569 294.982Z" fill="white" stroke="#ADB3BE" stroke-width="2.33962"/>
<line y1="-1.16981" x2="8.92143" y2="-1.16981" transform="matrix(0.546437 -0.8375 0.826473 0.562977 106.413 295.473)" stroke="#ADB3BE" stroke-width="2.33962"/>
<line y1="-1.16981" x2="8.92143" y2="-1.16981" transform="matrix(-0.546437 -0.8375 -0.826473 0.562977 118.601 295.058)" stroke="#ADB3BE" stroke-width="2.33962"/>
<path d="M129.507 381.284C131.081 381.284 132.399 382.595 132.399 384.266C132.399 385.936 131.081 387.246 129.507 387.246C127.933 387.246 126.614 385.936 126.614 384.266C126.614 382.595 127.933 381.284 129.507 381.284Z" fill="white" stroke="#ADB3BE" stroke-width="2.33962"/>
<path d="M138.444 394.982C140.018 394.982 141.337 396.294 141.337 397.964C141.337 399.634 140.018 400.944 138.444 400.944C136.871 400.944 135.552 399.634 135.552 397.964C135.552 396.294 136.87 394.982 138.444 394.982Z" fill="white" stroke="#ADB3BE" stroke-width="2.33962"/>
<path d="M120.569 394.982C122.143 394.982 123.462 396.294 123.462 397.964C123.462 399.634 122.143 400.944 120.569 400.944C118.996 400.944 117.677 399.634 117.677 397.964C117.677 396.294 118.995 394.982 120.569 394.982Z" fill="white" stroke="#ADB3BE" stroke-width="2.33962"/>
<line y1="-1.16981" x2="8.92143" y2="-1.16981" transform="matrix(0.546437 -0.8375 0.826473 0.562977 123.413 395.473)" stroke="#ADB3BE" stroke-width="2.33962"/>
<line y1="-1.16981" x2="8.92143" y2="-1.16981" transform="matrix(-0.546437 -0.8375 -0.826473 0.562977 135.601 395.058)" stroke="#ADB3BE" stroke-width="2.33962"/>
<path d="M252.507 444.284C254.081 444.284 255.399 445.595 255.399 447.266C255.399 448.936 254.081 450.246 252.507 450.246C250.933 450.246 249.614 448.936 249.614 447.266C249.614 445.595 250.933 444.284 252.507 444.284Z" fill="white" stroke="#ADB3BE" stroke-width="2.33962"/>
<path d="M261.444 457.982C263.018 457.982 264.337 459.294 264.337 460.964C264.337 462.634 263.018 463.944 261.444 463.944C259.871 463.944 258.552 462.634 258.552 460.964C258.552 459.294 259.87 457.982 261.444 457.982Z" fill="white" stroke="#ADB3BE" stroke-width="2.33962"/>
<path d="M243.569 457.982C245.143 457.982 246.462 459.294 246.462 460.964C246.462 462.634 245.143 463.944 243.569 463.944C241.996 463.944 240.677 462.634 240.677 460.964C240.677 459.294 241.995 457.982 243.569 457.982Z" fill="white" stroke="#ADB3BE" stroke-width="2.33962"/>
<line y1="-1.16981" x2="8.92143" y2="-1.16981" transform="matrix(0.546437 -0.8375 0.826473 0.562977 246.413 458.473)" stroke="#ADB3BE" stroke-width="2.33962"/>
<line y1="-1.16981" x2="8.92143" y2="-1.16981" transform="matrix(-0.546437 -0.8375 -0.826473 0.562977 258.601 458.058)" stroke="#ADB3BE" stroke-width="2.33962"/>
<path d="M344.507 476.284C346.081 476.284 347.399 477.595 347.399 479.266C347.399 480.936 346.081 482.246 344.507 482.246C342.933 482.246 341.614 480.936 341.614 479.266C341.614 477.595 342.933 476.284 344.507 476.284Z" fill="white" stroke="#ADB3BE" stroke-width="2.33962"/>
<path d="M353.444 489.982C355.018 489.982 356.337 491.294 356.337 492.964C356.337 494.634 355.018 495.944 353.444 495.944C351.871 495.944 350.552 494.634 350.552 492.964C350.552 491.294 351.87 489.982 353.444 489.982Z" fill="white" stroke="#ADB3BE" stroke-width="2.33962"/>
<path d="M335.569 489.982C337.143 489.982 338.462 491.294 338.462 492.964C338.462 494.634 337.143 495.944 335.569 495.944C333.996 495.944 332.677 494.634 332.677 492.964C332.677 491.294 333.995 489.982 335.569 489.982Z" fill="white" stroke="#ADB3BE" stroke-width="2.33962"/>
<line y1="-1.16981" x2="8.92143" y2="-1.16981" transform="matrix(0.546437 -0.8375 0.826473 0.562977 338.413 490.473)" stroke="#ADB3BE" stroke-width="2.33962"/>
<line y1="-1.16981" x2="8.92143" y2="-1.16981" transform="matrix(-0.546437 -0.8375 -0.826473 0.562977 350.601 490.058)" stroke="#ADB3BE" stroke-width="2.33962"/>
</svg>
